<svg width="28" height="28" viewBox="0 0 28 28" fill="none" xmlns="http://www.w3.org/2000/svg" class="svg-for-tablet"><path d="M12.565 27.9944V24.7386L13.6301 15.4948C13.6289 15.4944 13.6312 15.4952 13.6301 15.4948L7.77112 22.7522L5.46892 25.0544L3.43988 23.025L5.74208 20.7228L13.0097 14.9568C13.0068 14.9512 13.004 14.9456 13.0011 14.94L3.75581 15.9291H0.5V13.0592L3.75581 13.0592L12.932 14.1164C12.9361 14.1028 12.9405 14.0893 12.9451 14.0759L5.74182 8.2649L3.43962 5.9627L5.46874 3.93333L7.77095 6.23554L13.4924 13.4471C13.51 13.4381 13.5279 13.4296 13.5461 13.4215L12.5648 4.24995L12.5648 0.994141L15.4347 0.994186V4.24999L14.3814 13.3922C14.4007 13.3991 14.4196 13.4067 14.4384 13.4147L20.2292 6.23632L22.5314 3.93412L24.5604 5.96352L22.2582 8.26572L15.0268 14.003C15.0325 14.0165 15.038 14.0301 15.0433 14.0439L24.244 13.0595H27.4998V15.9293H24.244L15.0318 14.868C15.0291 14.8745 15.0263 14.881 15.0235 14.8875L22.258 20.7236L24.5602 23.0258L22.531 25.0552L20.2288 22.753L14.4465 15.4647C14.4453 15.4652 14.4441 15.4657 14.4429 15.4662L15.435 24.7386V27.9944H12.565Z" fill="#C4C4C4"/></svg>