<svg width="90" height="24" viewBox="0 0 90 24" fill="none" xmlns="http://www.w3.org/2000/svg" data-v-4f2c6038=""><path d="M8.20421 0.0666667H0V24H8.20421C15.6708 24 21.0911 18.968 21.0911 11.968C21.0911 5.068 15.6776 0.0666667 8.20421 0.0666667ZM8.20421 21.7093H2.4591V2.36133H8.20421C14.2024 2.36133 18.5589 6.43333 18.5589 12.0947C18.5589 17.756 14.3039 21.7053 8.20421 21.7053V21.7093ZM39.3848 0.0666667H41.8453V24H39.3848V13.1133H25.0024V24H22.542V0.0666667H25.0024V10.82H39.3848V0.0666667ZM82.2343 0.0666667V24H80.391L64.3087 4V24H62.4722L46.3859 4.00667V24H43.9958V0.0666667H46.1707L61.9173 19.624V0.0666667H64.3074L79.8388 19.624V0.0666667H82.2343ZM85.5203 0.314667H84.5729V0H86.8493V0.310667H85.902V2.80267H85.5203V0.314667ZM87.1687 0H87.6857L88.5789 2.35867L89.483 0H90V2.8H89.6441V0.471999L88.7535 2.80667H88.4341L87.5409 0.471999V2.80667H87.1823L87.1687 0Z" fill="white" data-v-4f2c6038=""/></svg>