<svg width="49" height="49" viewBox="0 0 49 49" fill="none" xmlns="http://www.w3.org/2000/svg" class="button-footer-first-asterisk"><path d="M21.8958 0V5.90868L23.86 22.9567H25.2803L27.1042 5.90868V0L21.8958 0Z" fill="white"/> <path d="M49 21.8959H43.0913L26.0433 23.8601L26.0431 25.2802L43.0911 27.1041H48.9998L49 21.8959Z" fill="white"/> <path d="M21.8958 48.9996V43.0909L23.7196 26.0433L24.4035 26.0434L25.14 26.0395L27.1042 43.0875V48.9961H24.4036L21.8958 48.9996Z" fill="white"/> <path d="M0 27.1042H5.9085L22.9565 25.14L22.9567 24.4034L22.9562 23.7197L5.90919 21.8958H0.000677031L0 27.1042Z" fill="white"/> <path d="M39.9827 43.665L35.8046 39.487L25.0395 26.1425L25.5228 25.6593L26.0412 25.136L39.4848 35.8019L43.6629 39.9799L41.7536 41.8893L39.9827 43.665Z" fill="white"/> <path d="M9.01737 5.33498L13.1954 9.51305L23.9605 22.8575L23.4772 23.3408L22.9589 23.8642L9.51522 13.1983L5.33714 9.02023L7.24655 7.11082L9.01737 5.33498Z" fill="white"/> <path d="M9.01738 43.6662L13.1955 39.4881L23.8614 26.0444L22.8574 25.0402L9.51297 35.8052L5.3349 39.9833L9.01738 43.6662Z" fill="white"/> <path d="M39.9827 5.33386L35.8046 9.51193L25.1387 22.9556L26.1427 23.9599L39.4871 13.1949L43.6652 9.01679L39.9827 5.33386Z" fill="white"/> <path d="M26.5255 24.5966C26.5255 25.7153 25.6186 26.6221 24.4999 26.6221C23.3812 26.6221 22.4743 25.7153 22.4743 24.5966C22.4743 23.4779 23.3812 22.571 24.4999 22.571C25.6186 22.571 26.5255 23.4779 26.5255 24.5966Z" fill="white"/></svg>