<svg width="60" height="60" viewBox="0 0 60 60" fill="none" xmlns="http://www.w3.org/2000/svg" class="rotate-star w-full h-full"><path fill-rule="evenodd" clip-rule="evenodd" d="M26.8123 0V7.23512L29.1791 27.7773C29.1768 27.7781 29.1744 27.779 29.172 27.7798L16.1587 11.6484L11.0427 6.53236L8.87126 8.70379L28.3951 28.2277C28.3951 28.2277 28.3951 28.2277 28.3951 28.2277L8.87123 8.70381L6.53277 11.0423L11.6488 16.1583L27.8002 28.9724C27.7938 28.9847 27.7875 28.9971 27.7813 29.0095L7.23512 26.8113L0 26.8113V29.8817V29.8822V33.1888H7.23512L27.6266 30.8394C27.6359 30.8699 27.6457 30.9003 27.6561 30.9303L11.6493 43.8431L6.53333 48.9591L8.70392 51.1297L8.70325 51.1304L11.0417 53.4688L16.1577 48.3528L28.8718 32.3276C28.911 32.3476 28.9508 32.3667 28.9912 32.3847L26.8108 52.765V60.0001H29.8816H33.1881V52.765L30.8476 32.4503C30.8902 32.4348 30.9323 32.4182 30.9738 32.4005L43.8418 48.3517L48.9578 53.4677L51.1292 51.2963L31.7296 31.8967C31.7296 31.8967 31.7296 31.8967 31.7296 31.8966L51.1292 51.2963L53.4677 48.9578L48.3517 43.8418L32.2822 31.0927C32.2951 31.0625 32.3074 31.0321 32.3191 31.0013L52.7651 33.1888H60.0002V30.1179H60V26.8112H52.7649L32.293 29.1699C32.287 29.1553 32.2808 29.1407 32.2744 29.1262L48.3511 16.157L53.4671 11.041L51.2966 8.87044L51.2973 8.86972L48.9589 6.53125L43.8429 11.6473L30.9925 27.8444C30.99 27.8433 30.9876 27.8422 30.9851 27.8412L33.1897 7.23512V0H30.1194H30.1188H26.8123Z" fill="#282728"/></svg>