<svg width="22" height="23" viewBox="0 0 22 23" fill="none" xmlns="http://www.w3.org/2000/svg" class="menu-social-link-svg-insta" data-v-1f9e9271=""><path d="M11.0025 5.60309C7.88098 5.60309 5.36319 8.23591 5.36319 11.5C5.36319 14.7641 7.88098 17.3969 11.0025 17.3969C14.1239 17.3969 16.6417 14.7641 16.6417 11.5C16.6417 8.23591 14.1239 5.60309 11.0025 5.60309ZM11.0025 15.3338C8.98528 15.3338 7.3362 13.6145 7.3362 11.5C7.3362 9.38553 8.98037 7.66624 11.0025 7.66624C13.0245 7.66624 14.6687 9.38553 14.6687 11.5C14.6687 13.6145 13.0196 15.3338 11.0025 15.3338ZM18.1877 5.36188C18.1877 6.12658 17.5988 6.73731 16.8724 6.73731C16.1411 6.73731 15.5571 6.12144 15.5571 5.36188C15.5571 4.60231 16.146 3.98644 16.8724 3.98644C17.5988 3.98644 18.1877 4.60231 18.1877 5.36188ZM21.9227 6.75784C21.8393 4.91537 21.4368 3.28333 20.146 1.93869C18.8601 0.594053 17.2994 0.173212 15.5374 0.0808323C13.7215 -0.0269441 8.27853 -0.0269441 6.46258 0.0808323C4.70552 0.16808 3.14479 0.588921 1.85399 1.93356C0.56319 3.2782 0.165644 4.91024 0.0773006 6.75271C-0.0257669 8.65162 -0.0257669 14.3432 0.0773006 16.2422C0.160736 18.0846 0.56319 19.7167 1.85399 21.0613C3.14479 22.4059 4.70061 22.8268 6.46258 22.9192C8.27853 23.0269 13.7215 23.0269 15.5374 22.9192C17.2994 22.8319 18.8601 22.4111 20.146 21.0613C21.4319 19.7167 21.8344 18.0846 21.9227 16.2422C22.0258 14.3432 22.0258 8.65676 21.9227 6.75784ZM19.5767 18.2796C19.1939 19.2856 18.4528 20.0605 17.4859 20.466C16.038 21.0664 12.6025 20.9279 11.0025 20.9279C9.40245 20.9279 5.96196 21.0613 4.51902 20.466C3.55705 20.0657 2.81595 19.2907 2.42822 18.2796C1.85399 16.7656 1.9865 13.1731 1.9865 11.5C1.9865 9.8269 1.8589 6.22922 2.42822 4.72035C2.81104 3.71444 3.55215 2.93947 4.51902 2.53403C5.96687 1.93356 9.40245 2.07213 11.0025 2.07213C12.6025 2.07213 16.0429 1.93869 17.4859 2.53403C18.4479 2.93434 19.189 3.7093 19.5767 4.72035C20.1509 6.23435 20.0184 9.8269 20.0184 11.5C20.0184 13.1731 20.1509 16.7708 19.5767 18.2796Z" fill="white" data-v-1f9e9271=""/> <mask id="mask0_2246_17436" maskUnits="userSpaceOnUse" x="0" y="0" width="22" height="23" style="mask-type:alpha" data-v-1f9e9271=""><path d="M11.0025 5.60309C7.88098 5.60309 5.36319 8.23591 5.36319 11.5C5.36319 14.7641 7.88098 17.3969 11.0025 17.3969C14.1239 17.3969 16.6417 14.7641 16.6417 11.5C16.6417 8.23591 14.1239 5.60309 11.0025 5.60309ZM11.0025 15.3338C8.98528 15.3338 7.3362 13.6145 7.3362 11.5C7.3362 9.38553 8.98037 7.66624 11.0025 7.66624C13.0245 7.66624 14.6687 9.38553 14.6687 11.5C14.6687 13.6145 13.0196 15.3338 11.0025 15.3338ZM18.1877 5.36188C18.1877 6.12658 17.5988 6.73731 16.8724 6.73731C16.1411 6.73731 15.5571 6.12144 15.5571 5.36188C15.5571 4.60231 16.146 3.98644 16.8724 3.98644C17.5988 3.98644 18.1877 4.60231 18.1877 5.36188ZM21.9227 6.75784C21.8393 4.91537 21.4368 3.28333 20.146 1.93869C18.8601 0.594053 17.2994 0.173212 15.5374 0.0808323C13.7215 -0.0269441 8.27853 -0.0269441 6.46258 0.0808323C4.70552 0.16808 3.14479 0.588921 1.85399 1.93356C0.56319 3.2782 0.165644 4.91024 0.0773006 6.75271C-0.0257669 8.65162 -0.0257669 14.3432 0.0773006 16.2422C0.160736 18.0846 0.56319 19.7167 1.85399 21.0613C3.14479 22.4059 4.70061 22.8268 6.46258 22.9192C8.27853 23.0269 13.7215 23.0269 15.5374 22.9192C17.2994 22.8319 18.8601 22.4111 20.146 21.0613C21.4319 19.7167 21.8344 18.0846 21.9227 16.2422C22.0258 14.3432 22.0258 8.65676 21.9227 6.75784ZM19.5767 18.2796C19.1939 19.2856 18.4528 20.0605 17.4859 20.466C16.038 21.0664 12.6025 20.9279 11.0025 20.9279C9.40245 20.9279 5.96196 21.0613 4.51902 20.466C3.55705 20.0657 2.81595 19.2907 2.42822 18.2796C1.85399 16.7656 1.9865 13.1731 1.9865 11.5C1.9865 9.8269 1.8589 6.22922 2.42822 4.72035C2.81104 3.71444 3.55215 2.93947 4.51902 2.53403C5.96687 1.93356 9.40245 2.07213 11.0025 2.07213C12.6025 2.07213 16.0429 1.93869 17.4859 2.53403C18.4479 2.93434 19.189 3.7093 19.5767 4.72035C20.1509 6.23435 20.0184 9.8269 20.0184 11.5C20.0184 13.1731 20.1509 16.7708 19.5767 18.2796Z" fill="white" data-v-1f9e9271=""/></mask> <g mask="url(#mask0_2246_17436)" data-v-1f9e9271=""><circle cx="11" cy="29" r="16" fill="#FFFF05" data-v-1f9e9271=""/></g></svg>