<svg width="74" height="46" viewBox="0 0 74 46" fill="none" xmlns="http://www.w3.org/2000/svg">
<path d="M22.0723 19.3123H6.47578V0H0V24.288L22.0723 24.1308V19.3123Z" fill="url(#paint0_linear_314_1020)"/>
<path d="M30.9541 7H18L24.5831 17.6241L30.9541 7Z" fill="url(#paint1_linear_314_1020)"/>
<path d="M27 24.0446L43.2968 24.0906V8.09598L53.864 20.5486L64.3597 7.88515V24.0906H70.8891V0H63.271L53.7567 11.2815L44.4187 0H36.7673L27 16.5696V24.0446Z" fill="url(#paint2_linear_314_1020)"/>
<path d="M12.0776 35.8463C12.2946 34.9999 12.2487 34.1273 11.9433 33.2962C11.6379 32.4653 11.0814 31.6983 10.3168 31.0547C9.55716 30.421 8.62837 29.9141 7.59066 29.5671C6.55295 29.22 5.42953 29.0404 4.29333 29.0402L0 29V40.5326H4.24222C6.05457 40.5441 7.82235 40.1113 9.27666 39.3002C10.7734 38.4656 11.778 37.2269 12.0776 35.8463Z" fill="url(#paint3_linear_314_1020)"/>
<path d="M9.33656 25H9.36978C9.06567 25 8.89444 25 8.89444 25H9.09378C10.9644 25.0422 17.6063 25.6267 20.9056 31.6623C20.9056 31.6623 22.95 36.2182 18.8994 39.8772C14.8489 43.5361 8 44.0938 8 44.0938H22.789L24.1434 41.3511H33.2029L34.4807 43.9846H40.3354L31.6849 25.0096L9.33656 25ZM25.825 37.5733L28.6361 31.1889L31.6721 37.5733H25.825Z" fill="url(#paint4_linear_314_1020)"/>
<path d="M59.0358 26H36L36.0204 26.0517V29.7126H44.7477V45.0344H50.3086V29.7643H59.0358V26Z" fill="url(#paint5_linear_314_1020)"/>
<path d="M64.2751 25.4971H58.6171L49.7314 44.5909H55.6961L56.8563 41.9248H65.972L67.3239 44.6312H73.125L64.2751 25.4971ZM58.6529 37.9861L61.3311 31.7761L64.3416 37.9861H58.6529Z" fill="url(#paint6_linear_314_1020)"/>
<defs>
<linearGradient id="paint0_linear_314_1020" x1="-1.68156" y1="-1.59083" x2="9.47493" y2="34.8912" gradientUnits="userSpaceOnUse">
<stop stop-color="#1A67BA"/>
<stop offset="0.29" stop-color="#1479C7"/>
<stop offset="0.58" stop-color="#3DC0F3"/>
<stop offset="1" stop-color="#0FBAFF"/>
</linearGradient>
<linearGradient id="paint1_linear_314_1020" x1="24.6853" y1="6.34067" x2="20.74" y2="28.5835" gradientUnits="userSpaceOnUse">
<stop stop-color="#1A67BA"/>
<stop offset="0.29" stop-color="#1479C7"/>
<stop offset="0.58" stop-color="#3DC0F3"/>
<stop offset="1" stop-color="#0FBAFF"/>
</linearGradient>
<linearGradient id="paint2_linear_314_1020" x1="54.9527" y1="-0.0555837" x2="50.0368" y2="29.5883" gradientUnits="userSpaceOnUse">
<stop stop-color="#1A67BA"/>
<stop offset="0.29" stop-color="#1479C7"/>
<stop offset="0.58" stop-color="#3DC0F3"/>
<stop offset="1" stop-color="#0FBAFF"/>
</linearGradient>
<linearGradient id="paint3_linear_314_1020" x1="7.99378" y1="29.391" x2="2.0744" y2="46.9143" gradientUnits="userSpaceOnUse">
<stop stop-color="#1A67BA"/>
<stop offset="0.29" stop-color="#1479C7"/>
<stop offset="0.58" stop-color="#3DC0F3"/>
<stop offset="1" stop-color="#0FBAFF"/>
</linearGradient>
<linearGradient id="paint4_linear_314_1020" x1="30.6806" y1="23.1734" x2="23.7648" y2="46.1495" gradientUnits="userSpaceOnUse">
<stop stop-color="#2154AC"/>
<stop offset="0.29" stop-color="#1479C7"/>
<stop offset="0.58" stop-color="#3DC0F3"/>
<stop offset="1" stop-color="#0FBAFF"/>
</linearGradient>
<linearGradient id="paint5_linear_314_1020" x1="48.3944" y1="18.9716" x2="46.7403" y2="48.8447" gradientUnits="userSpaceOnUse">
<stop stop-color="#2154AC"/>
<stop offset="0.29" stop-color="#1479C7"/>
<stop offset="0.58" stop-color="#3DC0F3"/>
<stop offset="1" stop-color="#0FBAFF"/>
</linearGradient>
<linearGradient id="paint6_linear_314_1020" x1="64.0068" y1="23.9005" x2="62.2392" y2="49.2457" gradientUnits="userSpaceOnUse">
<stop stop-color="#2154AC"/>
<stop offset="0.29" stop-color="#1479C7"/>
<stop offset="0.58" stop-color="#3DC0F3"/>
<stop offset="1" stop-color="#0FBAFF"/>
</linearGradient>
</defs>
</svg>
