<svg width="1115" height="208" viewBox="0 0 1115 208" fill="none" xmlns="http://www.w3.org/2000/svg">
<path d="M315.033 206.61C311.248 206.704 307.462 206.798 302.91 206.674C274.508 206.429 246.873 206.395 219.238 206.389C217.423 206.389 215.608 206.6 213.793 206.713C213.793 206.713 213.648 206.796 213.642 206.58C213.581 206.071 213.393 205.87 213.006 205.352C212.981 189.406 213.02 173.87 213.448 158.295C217.066 157.72 220.279 156.827 223.53 156.712C236.105 156.269 248.694 156.129 261.271 155.716C262.855 155.664 264.398 154.657 266.336 154.091C267.464 154.079 268.216 154.069 269.367 154.065C270.831 154.086 271.896 154.099 273.159 154.325C275.22 154.662 277.084 154.787 279.271 154.884C280.055 154.312 280.517 153.768 281.311 153.223C282.086 153.221 282.529 153.221 283.253 153.469C290.935 153.324 298.396 153.297 305.712 152.4C310.173 151.853 311.504 148.886 308.977 145.675C304.347 139.794 301.605 133.238 300.038 126.496C298.752 120.967 299.272 115.13 299.281 109.667C300.717 124.715 311.345 134.289 324.139 143.765C324.237 139.456 328.862 133.728 332.996 132.156C333.012 147.458 332.997 162.359 332.565 177.257C329.483 178.048 326.248 178.282 324.276 179.758C320.843 182.326 317.712 185.413 315.369 188.755C313.676 191.169 312.773 194.348 312.778 197.185C312.782 200.328 314.22 203.468 315.033 206.61Z" fill="#7300A5"/>
<path d="M262 46.7934C264.622 41.2402 267.111 35.6372 269.894 30.145C274.635 20.7926 279.561 11.5099 285.206 2.10022C304.43 1.97935 322.857 1.95623 341.285 1.93311C342.622 3.30553 344.164 4.56676 345.264 6.06843C352.41 15.8279 359.552 25.5919 366.514 35.4492C372.257 43.5801 377.751 51.8417 383 60.3829C382.151 60.7784 381.625 60.7612 381.168 60.9059C375.449 62.7165 369.659 64.9475 366.281 57.9173C366.028 57.3898 364.921 57.1602 364.201 56.806C349.741 49.6876 335.212 52.0477 320.722 56.6792C319.684 57.0108 319.019 58.2048 318.013 59.2101C317.291 59.5688 316.735 59.7152 315.931 59.6215C312.272 59.427 308.164 60.5408 305.591 59.2977C300.081 56.6356 294.227 55.7656 288.316 54.5721C280.803 53.055 273.354 51.2818 265.95 49.4044C264.465 49.0277 263.308 47.6887 262 46.7934Z" fill="#5101B5"/>
<path d="M446 129.177C436.478 142.488 426.94 155.791 417.454 169.121C416.172 170.922 415.246 172.916 413.961 174.715C413.332 175.596 412.375 176.568 411.334 176.851C410.756 177.007 409.435 175.973 408.9 175.23C402.623 166.508 396.553 157.671 390.183 149.001C384.321 141.023 378.013 133.293 372.173 125.304C365.559 116.256 359.285 107.021 352.789 97.9075C349.57 93.3926 346.184 88.9683 343 83.9235C349.035 81.4594 354.943 79.5748 361.261 77.6816C363.038 77.6525 364.404 77.6319 365.781 77.9565C367.435 84.6014 370.717 90.2083 376.111 94.6174C383.663 100.79 392.586 105.042 402.183 108.501C407.925 110.57 413.069 111.242 418.7 108.721C423.361 106.634 428.192 104.834 433.183 102.91C433.419 102.912 433.891 102.927 433.899 103.254C437.565 110.595 441.277 117.587 444.831 124.639C445.533 126.032 445.626 127.658 446 129.177Z" fill="#7101A4"/>
<path d="M157.216 207.735C141.562 207.799 125.909 207.863 110.17 207.682C114.034 207.438 117.983 207.438 121.932 207.438C121.979 207.068 122.026 206.698 122.073 206.328C114.791 203.54 107.742 200.058 100.179 198.108C84.3929 194.038 69.286 188.708 54.7771 181.621C54.2812 180.332 53.8187 179.339 53 177.581C57.9991 177.242 62.3691 177.163 66.658 176.604C73.0142 175.777 79.3997 174.905 85.6094 173.498C90.7826 172.326 95.756 170.434 100.742 168.694C102.265 168.163 103.536 167.079 105.389 166.204C124.547 166.187 143.239 166.216 161.965 166.645C162 180.341 162 193.637 162 207.034C160.129 207.308 158.672 207.521 157.216 207.735Z" fill="#9800E0"/>
<path d="M54.9556 181.55C69.3843 188.443 84.4422 193.851 100.177 197.981C107.716 199.96 114.742 203.493 122 206.321C121.953 206.697 121.906 207.073 121.859 207.448C117.923 207.448 113.987 207.448 109.727 207.57C101.875 207.771 94.3478 207.851 86.0182 207.767C73.1313 207.545 61.0472 207.486 48.4943 207.42C37.3513 207.412 26.677 207.411 16 207.013C16.0001 197.971 16.0029 189.326 16.3666 180.642C21.1863 179.438 25.5789 177.729 30.1259 177.288C33.4607 176.964 35.6882 176.297 37.2791 173.667C41.7192 175.494 45.8321 177.203 50.177 178.923C50.409 178.933 50.8724 178.963 50.9405 179.259C52.3242 180.22 53.6399 180.885 54.9556 181.55Z" fill="#6F00A4"/>
<path d="M434.016 102.711C434.016 102.711 433.545 102.697 433.284 102.373C432.954 101.405 432.887 100.762 433.213 100.113C438.121 97.6314 442.786 95.3312 447.069 92.5857C448.561 91.6289 449.109 89.5728 450.428 87.9697C451.201 87.0927 451.634 86.2648 452.064 85.4285C452.06 85.42 452.08 85.4249 452.425 85.3927C455.163 83.0619 457.548 80.7583 459.948 78.4658C465.659 73.0098 471.332 67.5059 479.501 64.6519C484.05 63.0627 488.675 61.6269 493.169 59.9317C499.056 57.7114 504.539 54.7589 511.458 55.061C515.346 55.2307 519.553 54.8552 523.163 53.6832C527.988 52.1171 532.372 49.5396 536.995 47.7998C537.016 55.7123 536.986 63.2213 536.521 70.7311C532.074 70.8057 527.834 69.7898 525.51 74.3781C524.888 75.6041 520.612 76.781 519.123 76.1188C512.271 73.0699 506.49 77.015 501.219 78.736C497.116 80.0757 493.395 81.039 489.126 80.6963C489.08 77.5095 489.146 74.7174 488.97 71.9367C488.944 71.5387 487.753 71.1958 487.101 70.8274C482.884 76.8807 478.708 82.9565 474.435 88.9803C471.097 93.6848 467.638 98.3248 463.703 103.266C461.021 102.971 458.893 102.023 456.711 101.919C453.231 101.752 450.683 100.842 449.26 97.9429C448.189 95.7605 446.877 95.3616 444.394 97.0554C441.202 99.2329 437.499 100.852 434.016 102.711Z" fill="#390D85"/>
<path d="M232 104.634C236.741 94.9684 241.482 85.3029 246.907 75.5332C255.746 78.8979 263.901 82.3667 272 86.1602C271.318 88.2686 270.322 90.0225 270.126 91.841C268.863 103.541 267.171 115.242 266.835 126.969C266.594 135.404 268.24 143.879 268.676 152.333C266.062 150.606 263.421 149.14 261.655 147.104C258.151 143.064 255.209 138.664 251.88 134.506C249.943 132.086 247.767 129.802 245.589 127.536C242.411 124.231 238.313 121.359 236.126 117.635C233.821 113.71 233.3 109.001 232 104.634Z" fill="#8800CD"/>
<path d="M449 44.889C449.077 44.7257 449.154 44.5625 449.52 44.0853C449.945 43.6167 450.03 43.444 450.065 43.2533C455.301 36.0647 460.545 28.8808 465.764 21.6831C466.688 20.4091 467.502 19.0776 468.842 17.9331C471.263 21.3381 474.956 20.1765 477.987 20.4867C481.054 20.8006 484.18 20.6688 487.266 20.886C488.511 20.9736 490.126 22.0609 490.876 21.6844C496.374 18.9236 501.154 21.9209 505.772 23.2721C511.06 24.8195 515.75 27.8815 521.699 25.3145C525.454 23.6941 529.296 22.2192 533.051 20.5992C534.416 20.0103 535.644 19.1898 536.994 18.7929C537.018 19.7522 536.983 20.3936 536.616 21.0724C535.014 21.9779 533.597 22.73 532.495 23.7334C526.651 29.0563 520.886 34.4423 514.725 39.8391C509.039 43.4741 502.616 41.3879 496.765 42.285C491.11 43.152 485.01 42.5632 479.656 44.053C469.881 46.773 460.121 45.1809 450.358 45.3994C449.911 45.4094 449.453 45.0672 449 44.889Z" fill="#5601B1"/>
<path d="M432.771 100.683C432.839 101.333 432.906 101.982 433 102.958C428.264 105.212 423.427 107.014 418.76 109.104C413.122 111.628 407.972 110.956 402.222 108.883C392.613 105.421 383.679 101.163 376.117 94.9823C370.716 90.5676 367.43 84.9536 366 78.2221C366.505 77.6525 366.72 77.4475 367.263 77.1658C376.122 76.2544 384.577 75.3606 393.032 74.4668C395.314 77.2729 397.739 80.0003 399.845 82.903C403.232 87.5728 406.409 92.3584 410.1 97.7127C413.491 93.0474 416.352 89.1111 419.874 85.119C422.415 87.1231 424.46 89.0875 426.138 91.2656C428.492 94.3214 430.573 97.5361 432.771 100.683Z" fill="#9001D4"/>
<path d="M536.741 18.4806C535.451 19.2097 534.224 20.0466 532.859 20.6474C529.105 22.2999 525.265 23.8044 521.512 25.4573C515.566 28.0758 510.878 24.9524 505.592 23.3739C500.976 21.9956 496.198 18.9382 490.702 21.7544C489.953 22.1385 488.339 21.0293 487.094 20.9399C484.01 20.7184 480.885 20.8528 477.82 20.5326C474.79 20.2162 471.099 21.4011 469 17.7894C472.648 12.3497 476.45 7.21208 481.038 1.99683C500.216 1.92484 518.608 1.9305 537 1.93617C537 1.93617 536.927 1.94269 536.927 2.32298C536.865 7.96237 536.803 13.2215 536.741 18.4806Z" fill="#5E00B3"/>
<path d="M261.42 46.7334C263.069 47.4791 264.237 48.8064 265.736 49.1797C273.21 51.0405 280.73 52.7981 288.314 54.3018C294.281 55.4848 300.192 56.3471 305.754 58.9857C308.351 60.2178 312.498 59.1139 316 59.5406C306.467 65.0788 299.558 71.6222 299.271 81.8141C299.263 81.8126 299.251 81.8052 298.895 81.8504C294.927 85.7076 290.16 83.3347 285.94 83.4431C277.328 83.6644 277.753 83.2573 274.853 76.4763C273.047 72.2531 269.325 68.6007 266.302 64.7831C265.886 64.2573 264.561 64.1371 263.624 64.0348C260.09 63.6483 256.543 63.3466 253 63.0133C255.697 57.6339 258.393 52.2545 261.42 46.7334Z" fill="#4C00B1"/>
<path d="M448.74 45.2156C449.527 45.2865 449.986 45.63 450.435 45.62C460.234 45.4007 470.028 46.9985 479.838 44.2687C485.211 42.7735 491.334 43.3644 497.008 42.4943C502.88 41.5939 509.326 43.6877 515 40.3335C514.69 41.8238 514.044 43.053 513.029 44.2896C510.359 46.1099 508.013 47.8856 505.765 49.7476C503.898 51.295 502.145 52.9437 499.991 54.5803C497.527 55.735 495.414 56.857 492.885 57.979C489.106 57.2933 485.775 56.4426 482.371 55.9655C478.494 55.4222 474.491 54.6599 470.654 54.9744C463.112 55.5926 459.076 60.003 455.886 65.5934C453.893 69.0876 451.011 73.2785 447.253 74.6913C443.068 76.2644 437.424 75.2061 432.445 74.914C431.235 74.843 430.145 73.2864 429 72.4128C429.779 71.0685 430.431 69.6564 431.359 68.3909C437.007 60.6832 442.717 53.009 448.74 45.2156Z" fill="#4E07AE"/>
<path d="M361 78.3285C355.103 80.2031 349.207 82.0778 343.125 84.2257C340.159 81.0858 337.378 77.6725 333.958 73.4748C333.958 77.4634 333.958 80.5216 333.664 84.1269C333.232 85.1411 333.094 85.6082 332.527 86.0661C330.147 86.2881 328.189 86.4904 326.242 86.7554C317.14 87.9945 308.042 89.2508 298.708 90.4665C298.475 90.432 298.005 90.3763 298 90.0158C298.329 87.3085 298.663 84.9618 298.997 82.615C298.997 82.615 299.009 82.6225 299.368 82.5619C301.476 79.5142 303.177 76.505 304.984 73.5444C309.484 66.1738 316.033 61.9196 326.164 61.6749C333.905 61.488 340.242 64.4416 346.548 67.2614C352.267 69.8184 358.044 72.8241 361 78.3285Z" fill="#3A0088"/>
<path d="M537 206.539C534.25 206.695 531.5 206.851 528.314 206.606C527.335 205.534 526.965 204.506 526.22 204.247C520.699 202.329 519.887 197.748 519.013 193.908C517.103 185.519 516.259 176.958 514.961 168.352C509.426 168.502 507.913 165.635 506.793 162.575C505.923 160.199 505.361 157.744 505 155.349C506.461 155.073 507.584 154.773 508.706 154.47C508.705 154.468 508.705 154.466 508.957 154.467C509.209 154.468 509.713 154.47 509.897 154.754C512.318 155.417 514.554 155.797 516.83 156.432C517.281 156.961 517.693 157.234 518.105 157.507C518.341 157.063 518.577 156.62 519.271 156.177C525.45 155.604 531.172 155.031 536.935 154.857C536.985 172.351 536.992 189.445 537 206.539Z" fill="#2A1A7E"/>
<path d="M231.512 104.333C233.147 108.617 233.669 113.409 235.98 117.403C238.173 121.193 242.283 124.116 245.47 127.478C247.654 129.784 249.836 132.109 251.779 134.571C255.117 138.802 258.067 143.28 261.581 147.391C263.351 149.462 266 150.955 268.623 153.003C268.997 153.686 268.998 154.074 269 154.463C268.247 154.473 267.494 154.484 266.092 154.237C264.471 153.851 263.494 153.748 262.528 153.59C257.017 152.69 251.409 152.086 246.038 150.75C242.861 149.959 240.232 147.498 237.059 146.67C229.13 144.601 221.031 143.036 213 141.268C219.06 129.01 225.121 116.752 231.512 104.333Z" fill="#8301C3"/>
<path d="M428.386 72.8038C429.849 73.5537 430.932 75.102 432.134 75.1726C437.08 75.4631 442.688 76.5158 446.845 74.9511C450.579 73.5459 453.442 69.3774 455.422 65.902C458.591 60.3414 462.601 55.9547 470.093 55.3398C473.906 55.0269 477.883 55.7852 481.734 56.3256C485.115 56.8002 488.425 57.6463 492 58.6135C490.885 59.2806 489.552 59.7095 488.186 60.0361C482.204 61.4662 475.598 61.943 470.357 64.4795C460.871 69.0702 456.321 77.4909 451.728 85.589C451.728 85.589 451.708 85.5842 451.366 85.6318C450.597 86.5014 450.169 87.3235 449.741 88.1457C448.764 89.6775 448.218 91.7043 446.73 92.6474C442.459 95.3536 437.806 97.621 432.912 100.067C430.333 97.0019 428.263 93.8651 425.921 90.8834C424.252 88.758 422.219 86.8412 420 84.7634C422.455 80.7712 425.258 76.847 428.386 72.8038Z" fill="#4709A9"/>
<path d="M174.035 71.2668C170.761 65.61 167.406 59.9846 164.235 54.2871C161.403 49.2005 158.74 44.047 156.066 38.8995C153.59 34.1332 151.199 29.3357 149 24.3335C157.064 26.7101 164.786 29.6027 172.786 31.7621C176.269 32.7021 180.326 32.1365 184.309 32.3039C184.497 32.3531 184.868 32.4614 184.847 32.8507C184.969 36.3374 184.768 39.4782 185.313 42.5245C187.323 53.7547 185.312 63.7733 174.035 71.2668Z" fill="#017688"/>
<path d="M505.045 155.298C505.735 157.717 506.291 160.171 507.15 162.545C508.256 165.603 509.751 168.47 515.218 168.319C516.499 176.921 517.334 185.477 519.22 193.861C520.083 197.699 520.885 202.277 526.339 204.194C527.074 204.453 527.439 205.481 528 206.426C521.036 206.783 514.047 206.865 506.595 206.477C506.44 191.423 505.188 177.092 495.669 164.358C494.026 162.16 491.322 160.542 489.079 158.379C489.023 157.731 488.995 157.36 489.001 156.595C489.078 152.765 489.12 149.328 489.52 145.933C493.535 146.867 496.627 148.024 498.561 151.381C499.589 153.165 502.813 154.023 505.045 155.298Z" fill="#2A1679"/>
<path d="M1 0.89133C16.0903 0.850601 31.1807 0.809875 46.7302 1.21458C47.1317 4.4995 47.074 7.33899 46.6309 10.2201C45.1251 10.5148 44.014 10.8041 42.8829 11.0154C30.8733 13.2588 18.8565 15.3758 8.80908 22.1575C6.73428 23.558 3.68605 23.9032 1.07388 24.3334C1.04086 16.2517 1.02043 8.57154 1 0.89133Z" fill="#0087C4"/>
<path d="M489.213 158.733C491.389 160.615 494.046 162.23 495.661 164.423C505.013 177.128 506.243 191.426 505.966 206.331C500.347 206.787 494.704 206.888 489 206.464C489.031 190.203 489.122 174.468 489.213 158.733Z" fill="#7609A5"/>
<path d="M393 73.9648C384.714 75.144 376.283 76.0271 367.431 76.6002C366.412 74.9865 366.249 73.2104 365.146 72.4556C357.948 67.5322 350.938 62.27 343.105 58.2111C335.049 54.037 326.298 55.6836 318 58.7581C318.837 57.9662 319.501 56.7738 320.536 56.4426C334.993 51.8176 349.489 49.4608 363.916 56.5693C364.634 56.923 365.739 57.1522 365.991 57.679C369.362 64.6995 375.139 62.4716 380.844 60.6634C381.3 60.519 381.825 60.5362 382.722 60.4598C386.369 64.8505 389.612 69.2596 393 73.9648Z" fill="#4B01AB"/>
<path d="M298.999 82.6166C299.017 84.9216 298.68 87.2724 297.999 90.0043C297.191 90.4199 296.726 90.4544 295.821 90.4665C293.067 90.2048 290.707 90.1397 288.451 89.6919C282.972 88.6043 277.54 87.3387 272.09 86.1448C263.852 82.6624 255.614 79.1799 247 75.6544C248.71 71.7734 250.797 67.9355 253.036 63.7998C256.725 63.8402 260.266 64.1463 263.794 64.5385C264.728 64.6423 266.051 64.7643 266.467 65.2978C269.484 69.1717 273.199 72.8779 275.002 77.1633C277.896 84.0442 277.472 84.4574 286.068 84.2328C290.28 84.1227 295.039 86.5307 298.999 82.6166Z" fill="#4B01AB"/>
<path d="M174 72.0035C185.227 63.97 187.22 53.6691 185.229 42.1224C184.688 38.9903 184.887 35.761 185.122 32.1529C185.971 31.7254 186.444 31.7211 187.156 31.9538C192.123 32.8613 194.065 34.9605 192.251 39.1636C191.93 39.9089 192.121 40.8584 192.219 41.7009C192.757 46.3159 193.917 50.9444 193.736 55.5345C193.568 59.7954 195.056 62.7467 199 64.9601C197.211 68.9477 195.422 72.9353 193.062 76.7803C187.729 76.9476 182.737 76.4984 178.887 79.7998C177.24 77.3107 175.593 74.8215 174 72.0035Z" fill="#360280"/>
<path d="M16 180.86C15.9972 189.325 15.9944 197.79 15.6663 206.646C14.5638 207.283 13.7867 207.53 13.0096 207.776C9.3102 207.817 5.61079 207.857 1.4557 207.434C1 194.903 1 182.834 1 170.467C6.50807 171.031 10.2415 172.558 12.5556 176.432C13.2171 177.54 14.8128 178.221 15.9837 179.392C15.9916 180.077 15.9958 180.469 16 180.86Z" fill="#620097"/>
<path d="M199.171 64.8667C194.817 62.7906 193.301 59.8388 193.472 55.5769C193.656 50.9859 192.475 46.3564 191.927 41.7404C191.828 40.8977 191.632 39.9481 191.96 39.2025C193.807 34.9986 191.83 32.8989 187 31.7489C188.187 31.1306 189.388 30.9916 191.062 30.8572C199.682 30.3747 207.555 31.2584 215 34.2971C211.308 41.4719 207.602 48.6416 203.93 55.8239C202.419 58.7784 200.98 61.7598 199.171 64.8667Z" fill="#3A0088"/>
<path d="M434 102.929C437.411 100.714 441.048 99.0725 444.182 96.8643C446.621 95.1466 447.908 95.5511 448.96 97.7643C450.358 100.704 452.859 101.627 456.277 101.796C458.419 101.902 460.508 102.863 463 103.446C457.759 111.884 452.14 120.316 446.193 128.866C445.499 127.459 445.408 125.825 444.719 124.424C441.234 117.335 437.594 110.308 434 102.929Z" fill="#310B80"/>
<path d="M213.106 141.667C221.226 143.161 229.341 144.64 237.286 146.593C240.466 147.375 243.1 149.699 246.283 150.445C251.665 151.707 257.284 152.277 262.806 153.127C263.774 153.276 264.753 153.374 266 153.74C264.705 154.531 263.157 155.505 261.567 155.555C248.947 155.955 236.314 156.091 223.695 156.52C220.433 156.631 217.208 157.495 213.534 157.667C213.069 152.282 213.034 147.245 213 142.208C213 142.208 213.032 141.841 213.106 141.667Z" fill="#7D00B9"/>
<path d="M190.575 30.8808C189.385 31.0166 188.194 31.1525 186.775 31.5251C186.068 31.766 185.59 31.7701 184.753 31.7969C184.394 31.8194 184.022 31.7106 183.857 31.4834C183.691 31.2561 183.608 30.9039 183.623 30.5313C183.305 26.7087 182.973 23.2587 183.002 19.8038C186.223 17.5718 189.235 15.4672 191.907 13.0891C195.968 9.47258 199.794 5.6664 204.186 1.93351C208.713 1.93063 212.773 1.93503 216.791 2.23483C211.292 6.91131 205.929 11.378 200.343 15.6362C197.673 17.6717 195.902 19.7011 196.931 22.3954C205.299 22.3954 213.149 22.3954 221 22.3954C220.311 24.1769 219.622 25.9584 218.421 28.0304C217.415 28.2562 216.816 28.3218 216.44 28.1076C208.287 23.4644 200.343 26.9323 192.402 28.6277C191.618 28.795 191.176 30.1025 190.575 30.8808Z" fill="#4801A5"/>
<path d="M221.431 22.0532C213.344 22.1998 205.575 22.1998 197.294 22.1998C196.275 19.4928 198.028 17.4537 200.671 15.4087C206.198 11.1304 211.506 6.64258 217.409 1.93311C222.276 1.93957 226.638 2.25374 231 2.56791C229.529 6.19841 228.217 9.88395 226.538 13.4422C225.169 16.3427 223.362 19.0909 221.431 22.0532Z" fill="#4C00B1"/>
<path d="M16.2548 178.916C15.0667 178.054 13.4427 177.383 12.7694 176.293C10.4142 172.481 6.61442 170.979 1.00849 170.424C1.00849 182.592 1.00849 194.466 1.00831 206.734C0.667285 206.023 0.0336467 204.919 0.0294843 203.814C-0.0331709 187.16 -0.0130677 170.506 0.259809 153.382C0.768012 152.765 0.923943 152.571 1.40601 152.327C5.6523 151.555 9.49236 150.788 13.5449 150.2C15.2734 153.312 16.7895 156.245 18.3443 159.503C18.6861 161.326 18.989 162.823 19 164.562C17.8903 169.509 17.0725 174.212 16.2548 178.916Z" fill="#59018B"/>
<path d="M183.937 31.0353C183.937 31.0353 184.018 31.3928 183.996 31.5733C180.256 31.6332 176.282 32.2099 172.87 31.2512C165.031 29.0489 157.467 26.0987 149.445 23.3571C145.662 17.0992 142.223 10.9362 139 4.22928C140.005 3.27114 140.769 2.54372 141.587 2.49296C147.438 2.13022 153.3 1.90536 159.1 1.93586C158.617 2.64278 158.279 3.19738 157.755 3.43648C147.751 7.9952 147.716 8.22135 155.71 15.4767C156.719 16.3929 157.403 17.6013 158.472 18.4475C160.589 20.1242 162.87 21.6424 165.284 23.4677C169.611 25.7053 173.668 27.8247 177.895 29.6402C179.728 30.4277 181.912 30.5893 183.937 31.0353Z" fill="#01789B"/>
<path d="M315.642 206.7C314.42 203.493 313.005 200.391 313 197.286C312.996 194.484 313.884 191.343 315.551 188.958C317.858 185.657 320.942 182.608 324.322 180.071C326.264 178.613 329.448 178.382 332.514 177.933C332.984 179.157 333.014 180.046 332.996 181.328C332.896 184.623 332.843 187.526 332.435 190.417C328.066 191.015 325.061 192.908 324.239 196.331C323.429 199.708 323.414 203.226 323.05 206.683C320.721 206.723 318.392 206.763 315.642 206.7Z" fill="#7D00B0"/>
<path d="M537.469 206.734C537.095 189.512 537.088 172.162 537.079 154.001C537.054 138.145 537.031 123.1 537.045 107.651C537.06 103.176 537.038 99.1051 537.05 94.6287C537.055 86.3992 537.028 78.5748 537 70.7504C537.027 63.212 537.054 55.6735 537.075 47.3306C537.123 43.0444 537.177 39.5627 537.386 36.0765C537.542 36.072 537.852 36.0669 537.852 36.0669C537.901 43.7113 537.99 51.3557 537.992 59.0002C538.005 106.619 538 154.238 537.992 201.856C537.992 203.439 537.891 205.021 537.469 206.734Z" fill="black"/>
<path d="M323 207.8C323.014 203.964 323.03 200.217 323.896 196.621C324.775 192.976 327.988 190.96 332.687 190.733C333.396 196.549 333.698 201.943 334 207.337C330.458 207.543 326.916 207.75 323 207.8Z" fill="#942EBD"/>
<path d="M47.0275 9.90288C47.0808 7.02055 47.1342 4.13823 47.1984 0.866699C47.4786 1.77938 47.9826 3.08111 47.9836 4.38318C48.0207 51.7218 48.011 99.0604 47.7812 146.769C47.5547 147.14 47.2442 147.036 47.2112 146.659C47.1204 143.139 47.0626 139.995 47.0553 136.462C47.0692 133.726 47.0326 131.379 47.0446 128.631C47.0543 124.734 47.0153 121.24 47.0245 117.338C47.0356 112.261 46.9986 107.591 47 102.517C47.0223 91.0809 47.0061 80.0507 47.0319 68.6143C47.0469 62.0986 47.0199 55.9889 47.0328 49.4862C47.0375 46.4526 47.0021 43.812 47.0095 40.771C47.0289 36.5923 47.0056 32.8141 47.0319 28.6747C47.0512 27.1015 47.0209 25.8895 47.0463 24.2739C47.0771 19.2145 47.0523 14.5587 47.0275 9.90288Z" fill="#003E45"/>
<path d="M191 31.0624C191.129 30.3572 191.568 29.1792 192.344 29.0285C200.214 27.5011 208.086 24.3768 216.165 28.56C216.538 28.7529 217.132 28.6938 218 28.7587C217.274 30.4357 216.172 32.106 214.801 33.9335C207.214 31.4156 199.474 30.6376 191 31.0624Z" fill="#420199"/>
<path d="M179 79.8164C182.888 76.1944 187.943 76.643 193 76.6001C190.635 81.6127 188.034 86.3586 185.198 91.5334C182.921 87.3417 180.966 83.7415 179 79.8164Z" fill="#620097"/>
<path d="M0.960145 152.747C0.875379 152.989 0.701118 153.185 0.218831 153.4C-0.0429528 116.342 -0.0861977 79.2177 0.178521 41.6938C0.486486 41.2938 0.9527 41.3058 0.952007 41.707C0.972513 45.891 0.993714 49.6738 1 53.865C0.990198 79.2431 0.995309 104.213 0.992682 129.592C0.97668 137.583 0.968413 145.165 0.960145 152.747Z" fill="#00617E"/>
<path d="M162.381 166.2C143.648 166.171 124.916 166.142 105.249 166.104C87.2467 166.093 70.18 166.115 53.1137 166.05C51.4018 166.044 49.6925 165.504 48 165.191C48.018 165.171 48.0569 165.133 48.0569 165.133C84.59 165.152 121.123 165.169 157.656 165.197C159.485 165.198 161.314 165.3 163 165.745C162.857 166.135 162.381 166.2 162.381 166.2Z" fill="#3B0059"/>
<path d="M333.147 181.133C333.113 180.223 333.078 179.312 333.008 178.061C332.989 162.642 333.007 147.564 333.029 131.672C333.025 115.781 333.016 100.702 333.006 85.6234C333.166 85.1553 333.325 84.6872 333.739 84.0669C334.04 116.064 334.086 148.214 333.848 180.761C333.564 181.159 333.147 181.133 333.147 181.133Z" fill="#3B0059"/>
<path d="M489 145.356C488.949 148.834 488.897 152.312 488.585 156.193C488.325 156.596 487.885 156.6 487.885 156.6C487.817 129.917 487.753 103.234 487.674 76.5506C487.669 74.832 487.558 73.1136 487 71.2666C487.295 71.5067 488.741 71.8497 488.771 72.2479C488.985 75.0298 488.906 77.823 488.915 81.4157C488.944 92.6091 488.979 102.999 488.966 113.794C488.946 124.584 488.973 134.97 489 145.356Z" fill="#1A0030"/>
<path d="M214 207.481C215.466 207.052 217.295 206.733 219.123 206.733C246.963 206.742 274.803 206.793 303 207.058C302.541 207.462 301.724 207.8 300.908 207.8C272.059 207.799 243.211 207.767 214 207.481Z" fill="#942EBD"/>
<path d="M212.424 141.667C212.765 146.725 212.792 151.965 212.853 157.607C212.855 173.656 212.824 189.304 212.823 205.609C212.902 206.422 212.951 206.578 213 206.733C212.652 205.959 212 205.185 212 204.411C211.996 183.557 212.059 162.703 212.424 141.667Z" fill="#3B0059"/>
<path d="M158.91 1.76947C152.907 2.04063 146.899 2.26756 140.903 2.63363C140.064 2.68485 139.281 3.41894 138.226 4.0667C137.438 3.35921 136.897 2.42194 136 0.866699C154.008 0.866699 171.114 0.866699 188.663 1.0908C189.107 1.31489 189.056 1.6539 188.832 1.6723C188.608 1.6907 188.158 1.73582 187.693 1.72979C177.789 1.739 168.349 1.75424 158.91 1.76947Z" fill="#00617E"/>
<path d="M488 157.012C488.081 156.609 488.479 156.605 488.677 156.6C488.907 156.973 488.938 157.351 489 158.01C488.929 174.336 488.826 190.381 488.481 206.733C488.131 190.499 488.025 173.957 488 157.012Z" fill="#260037"/>
<path d="M537 1.51447C518.629 1.97242 500.05 1.96469 481 1.90372C481.051 1.50811 481.574 0.866033 482.096 0.8667C500.328 0.889925 518.559 0.973646 537 1.51447Z" fill="black"/>
<path d="M341 1.43961C322.636 1.91695 304.055 1.94849 285 1.92933C285.212 1.52636 285.898 0.866667 286.584 0.866699C304.65 0.867494 322.717 0.936485 341 1.43961Z" fill="black"/>
<path d="M162.126 166.675C162.093 166.276 162.544 166.211 162.772 166.2C163 179.872 163 193.555 163 207.8C161.398 207.8 159.89 207.8 158 207.699C159 207.385 160.383 207.172 162.159 206.899C162.159 193.557 162.159 180.315 162.126 166.675Z" fill="#6C0199"/>
<path d="M0.93626 41.4C0.93626 41.4 0.426099 41.3881 0.17093 41.3842C-0.0859368 27.9209 -0.0876388 14.4614 0.404584 0.866699C0.923888 8.51186 0.949259 16.2923 0.97463 24.8577C0.989403 27.4091 1.00418 29.1755 0.99891 31.3406C0.988592 34.6512 0.998332 37.563 0.992401 40.7062C0.963244 41.0917 0.949752 41.2459 0.93626 41.4Z" fill="#01789B"/>
<path d="M189 1.84362C189 1.84362 189.05 1.39729 189.067 1.17336C202.355 0.901981 215.626 0.819493 228.896 0.891394C229.719 0.895853 230.538 2.11372 231 3.00003C226.337 2.81135 222.033 2.38968 217.273 1.98265C212.852 1.99136 208.886 1.98543 204.004 1.97248C198.392 1.92486 193.696 1.88424 189 1.84362Z" fill="#360280"/>
<path d="M537.931 35.7361C537.863 36.1362 537.56 36.1413 537.338 35.9195C537.072 35.5462 537.028 35.3946 537.026 34.8629C537.038 32.4405 537.008 30.3982 537.026 27.9701C537.049 25.2519 537.025 22.9195 537 20.5871C537.031 19.9379 537.062 19.2888 537.041 18.3179C537.043 12.7781 537.097 7.56008 537.152 1.93311C537.435 2.81035 537.954 4.09499 537.962 5.38303C538.03 15.367 537.999 25.3517 537.931 35.7361Z" fill="#1A0030"/>
<path d="M49 206.733C61.2203 206.824 73.4406 206.914 86 207.327C74.2019 207.787 62.0647 207.925 49.4605 207.681C48.9934 207.3 49 206.733 49 206.733Z" fill="#580078"/>
<path d="M48.5324 206.745C49.008 206.753 49.0013 207.232 48.9998 207.472C37.1552 207.766 25.3122 207.821 13 207.794C13.3192 207.387 14.1075 207.062 15.2286 206.734C26.3931 206.732 37.2249 206.734 48.5324 206.745Z" fill="#59018B"/>
<path d="M333.181 181.507C333.228 181.105 333.584 181.131 333.763 181.135C333.988 189.538 334.035 197.937 333.978 206.733C333.591 201.953 333.309 196.775 333 191.204C333.027 187.843 333.08 184.876 333.181 181.507Z" fill="#580078"/>
<path d="M47.1925 147C47.1925 147 47.4938 147.101 47.6508 147.129C47.8608 152.851 47.9137 158.544 47.9927 164.632C48.0188 165.026 47.984 165.062 47.7347 165.124C47.3304 165.156 47.1754 165.125 47.0448 164.7C47.0332 160.886 46.9973 157.467 47.0069 153.67C47.0209 151.28 46.9894 149.266 47.0039 147.179C47.0499 147.105 47.1925 147 47.1925 147Z" fill="#3B0059"/>
<path d="M332.574 86.2002C333.01 101.129 333.018 116.049 332.991 131.372C328.86 133.75 324.244 139.485 324.146 143.8C311.377 134.312 300.768 124.725 299.334 109.256C299.04 103.723 299.035 98.8299 299.033 93.6017C299.024 92.3769 299.012 91.4873 299 90.5977C308.097 89.358 317.192 88.1122 326.291 86.8836C328.237 86.6209 330.194 86.4203 332.574 86.2002Z" fill="#6F00A4"/>
<path d="M272.233 86.2002C277.731 87.0688 283.154 88.3354 288.625 89.4238C290.877 89.872 293.233 89.9371 296 90.5402C295.143 94.5408 293.601 98.1305 292.562 101.825C290.806 108.07 289.446 114.398 287.774 120.662C285.701 128.433 283.26 136.136 281.407 143.944C280.318 148.537 280.204 153.358 273.284 154.467C272.211 154.453 271.138 154.439 269.664 154.418C269.26 154.028 269.259 153.645 269.255 152.973C268.441 144.189 266.781 135.674 267.024 127.2C267.363 115.418 269.07 103.662 270.343 91.9075C270.541 90.0805 271.546 88.3185 272.233 86.2002Z" fill="#8F00D5"/>
<path d="M298.641 93.6665C298.645 98.5892 298.65 103.512 298.656 108.839C298.939 114.986 298.415 120.866 299.711 126.435C301.291 133.227 304.055 139.83 308.722 145.755C311.269 148.989 309.927 151.978 305.43 152.528C298.056 153.432 290.535 153.46 283 153.361C288.224 151.618 288.36 147.562 288.426 144.214C288.748 127.867 292.601 111.999 296.672 96.1488C296.905 95.2416 297.965 94.4903 298.641 93.6665Z" fill="#7700B0"/>
<path d="M299 93.5562C298.323 94.7018 297.263 95.443 297.031 96.3383C292.964 111.978 289.115 127.635 288.793 143.766C288.727 147.07 288.591 151.072 283.089 152.544C282.435 152.786 281.989 152.786 280.885 152.819C279.761 153.39 279.295 153.928 278.829 154.467C276.952 154.343 275.076 154.219 273 153.884C279.719 152.584 279.833 147.851 280.922 143.342C282.774 135.675 285.215 128.111 287.288 120.481C288.959 114.33 290.319 108.118 292.075 101.986C293.114 98.358 294.655 94.8334 295.952 90.9274C296.398 90.5584 296.862 90.5245 297.674 90.4709C298.022 90.4513 298.496 90.5061 298.731 90.5401C298.979 91.4572 298.991 92.3404 299 93.5562Z" fill="#8100BD"/>
<path d="M279 154.467C279.201 154.13 279.869 153.775 281 153.4C280.798 153.736 280.132 154.092 279 154.467Z" fill="#7700B0"/>
<path d="M317.541 59.498C326.05 56.2959 334.849 54.6915 342.947 58.7585C350.822 62.7132 357.87 67.8403 365.106 72.6373C366.216 73.3727 366.38 75.1032 367 76.6924C366.878 77.2656 366.663 77.463 366.147 77.6785C364.548 77.7736 363.176 77.7934 361.394 77.8215C358.01 72.4957 352.199 69.583 346.447 67.1052C340.104 64.3726 333.73 61.5104 325.945 61.6916C315.755 61.9287 309.167 66.0512 304.642 73.1937C302.824 76.0626 301.113 78.9787 299.001 81.9335C298.924 71.9875 305.789 65.5643 315.51 60.3615C316.259 59.9894 316.816 59.847 317.541 59.498Z" fill="#420199"/>
<path d="M47.0468 165.193C47.2205 165.224 47.3943 165.254 47.8294 165.242C49.8046 165.482 51.5172 166.005 53.2324 166.011C70.3317 166.075 87.4315 166.053 105 166.108C104.077 166.97 102.8 168.026 101.272 168.543C96.265 170.238 91.2713 172.081 86.0768 173.222C79.8416 174.593 73.43 175.442 67.0477 176.248C62.7412 176.791 58.3533 176.869 53.3337 177.199C54.1558 178.911 54.6202 179.879 55.1181 181.133C53.8262 180.782 52.5008 180.144 51.3397 179.077C51.4792 178.291 51.4545 177.934 51.4297 177.577C50.9878 178.015 50.5459 178.452 50.104 178.889C45.9608 177.248 41.8176 175.607 37.2978 173.576C35.9456 172.517 34.97 171.85 33.8795 170.926C33.5051 169.984 33.2456 169.298 33 168.27C34.0025 167.018 34.9048 165.423 35.9953 165.324C39.6429 164.992 43.3577 165.195 47.0468 165.193Z" fill="#8800CD"/>
<path d="M34.0361 171.69C35.0084 172.363 35.9808 173.036 37 173.989C35.778 176.928 33.5416 177.574 30.1933 177.887C25.628 178.314 21.2178 179.968 16.3787 181.133C16.0121 180.784 16.0079 180.397 16 179.72C16.8028 174.704 17.6094 169.979 19.0053 165.133C21.0716 165.796 22.5484 166.579 24.0772 167.658C26.101 168.907 28.0728 169.859 30.3647 170.932C31.8019 171.265 32.919 171.477 34.0361 171.69Z" fill="#6C0199"/>
<path d="M50 178.993C50.1879 178.634 50.5867 178.284 50.9855 177.933C51.0078 178.219 51.0301 178.505 50.8423 178.907C50.6322 179.024 50.2109 179 50 178.993Z" fill="#9103D5"/>
<path d="M489.05 113.732C489.021 103.324 488.992 92.9166 489.002 82.1039C493.295 81.6429 497.034 80.6776 501.157 79.3352C506.453 77.6106 512.261 73.6573 519.146 76.7126C520.641 77.3761 524.938 76.1968 525.562 74.9682C527.898 70.3704 532.158 71.3885 536.626 71.3136C537.094 79.1229 537.125 86.9329 536.707 95.1479C535.428 95.5372 534.551 95.6667 533.774 95.4822C528.904 94.3244 524.919 94.3289 523.763 99.82C523.599 100.595 521.238 101.479 519.855 101.53C514.46 101.729 509.048 101.585 503.644 101.623C499.829 101.65 495.958 105.354 496.437 108.436C497.06 112.454 494.021 114.632 489.05 113.732Z" fill="#361183"/>
<path d="M536.761 35C536.812 35.155 536.863 35.31 536.996 35.6962C537.017 39.4715 536.955 43.0155 536.85 46.9661C532.218 49.5628 527.819 52.1967 522.978 53.7971C519.356 54.9946 515.135 55.3784 511.233 55.2049C504.291 54.8963 498.789 57.9134 492.882 60.1822C488.372 61.9144 483.732 63.3816 479.168 65.0057C470.971 67.9221 465.279 73.5463 459.548 79.1216C457.14 81.4643 454.747 83.8183 452 86.2C456.274 77.8377 460.853 69.1081 470.396 64.3489C475.669 61.7193 482.315 61.2251 488.334 59.7425C489.709 59.4039 491.049 58.9592 492.586 58.2677C494.879 56.8151 496.992 55.6582 499.841 54.4663C511.489 50.7253 522.312 46.9154 530.686 39.2691C532.469 37.641 534.724 36.4126 536.761 35Z" fill="#440891"/>
<path d="M450 88.3335C450.138 87.6617 450.801 86.948 452 86.2002C451.865 86.8746 451.196 87.5831 450 88.3335Z" fill="#440891"/>
<path d="M536.713 21.1333C537.075 23.447 537.104 25.7989 536.747 28.5783C533.786 31.0105 531.362 33.1867 528.606 34.983C523.507 38.3061 518.213 41.4067 513 44.6C513.649 43.35 514.299 42.1 514.982 40.5512C520.854 34.778 526.666 29.2813 532.558 23.849C533.669 22.8249 535.097 22.0574 536.713 21.1333Z" fill="#4B01AB"/>
<path d="M512.423 43.9582C518.034 40.8152 523.356 37.7705 528.482 34.5073C531.253 32.7434 533.69 30.6065 536.61 28.6001C536.977 30.5846 537.012 32.6068 536.997 35.0054C534.89 36.7497 532.612 37.9394 530.81 39.516C522.349 46.9206 511.414 50.6101 500 54.2001C501.431 52.5998 503.2 50.9534 505.087 49.4082C507.356 47.549 509.725 45.7759 512.423 43.9582Z" fill="#4801A5"/>
<path d="M489.004 113.774C494.014 114.265 497.052 112.111 496.428 108.141C495.95 105.095 499.82 101.435 503.634 101.408C509.038 101.371 514.448 101.513 519.842 101.316C521.224 101.266 523.586 100.392 523.749 99.6261C524.905 94.1994 528.889 94.195 533.758 95.3392C534.535 95.5216 535.411 95.3936 536.653 95.4084C537.088 99.4239 537.113 103.44 536.733 107.89C534.116 109.224 530.762 108.937 531.242 112.444C531.907 117.297 527.82 122.214 522.567 123.737C518.154 125.016 513.824 126.426 511.85 130.698C509.866 134.992 506.896 138.99 505.282 143.365C502.643 150.521 503.291 151.485 509.037 153.589C507.92 153.89 506.804 154.191 505.352 154.467C502.769 153.164 499.525 152.304 498.49 150.517C496.544 147.155 493.432 145.995 489.392 145.059C489.01 134.737 488.987 124.455 489.004 113.774Z" fill="#311583"/>
<path d="M509.194 153.827C503.502 151.728 502.859 150.766 505.475 143.622C507.073 139.254 510.017 135.261 511.983 130.974C513.939 126.709 518.23 125.301 522.603 124.024C527.808 122.504 531.858 117.595 531.199 112.75C530.723 109.248 534.047 109.534 536.599 108.6C536.985 123.382 537.011 138.2 536.997 153.417C531.323 154.388 525.687 154.961 519.269 155.533C518.043 155.533 517.6 155.533 517.158 155.533C514.955 155.153 512.751 154.774 510.778 154.109C513.092 153.5 515.423 153.566 517.192 152.742C519.029 151.886 521.628 150.15 521.6 148.835C521.524 145.256 520.563 141.605 519.274 138.17C518.717 136.687 516.331 134.561 515.057 134.695C513.214 134.888 510.826 136.586 510.077 138.141C507.648 143.184 505.429 148.44 509.193 153.823C509.193 153.823 509.193 153.825 509.194 153.827Z" fill="#301988"/>
<path d="M509.152 154.464C505.243 148.763 507.406 143.197 509.772 137.856C510.502 136.209 512.829 134.411 514.624 134.207C515.866 134.065 518.19 136.316 518.733 137.887C519.989 141.524 520.925 145.39 521 149.181C521.027 150.573 518.494 152.412 516.704 153.318C514.981 154.19 512.709 154.121 510.278 154.466C509.878 154.468 509.394 154.465 509.152 154.464Z" fill="#351A93"/>
<path d="M517 155.943C517.492 155.533 518.03 155.533 518.971 155.533C519.092 156.244 518.81 156.955 518.527 157.667C518.034 157.229 517.54 156.791 517 155.943Z" fill="#311583"/>
<path d="M1.02319 31.3403C1.01126 29.5643 0.999329 27.7882 1.00003 25.6317C3.61903 24.4042 6.67523 24.0526 8.75545 22.6261C18.8291 15.7184 30.8773 13.562 42.9183 11.2769C44.0524 11.0617 45.1664 10.767 46.6761 10.4668C47.0894 15.0963 47.1164 19.7682 46.7038 24.8512C40.3303 27.0868 34.292 28.6937 28.4905 30.7943C22.2129 33.0673 16.1562 35.801 9.69832 38.2001C6.60343 35.8244 3.81331 33.5823 1.02319 31.3403Z" fill="#0090BB"/>
<path d="M183.964 30.7335C181.896 30.6664 179.682 30.5062 177.823 29.726C173.537 27.9274 169.424 25.8278 165.003 23.3105C163.582 21.2519 162.356 19.7563 161.226 18.2094C158.957 15.104 159.822 13.2588 163.949 12.3498C170.631 10.8778 177.319 9.42488 184 8.3335C183.66 12.4526 183.324 16.2021 182.989 19.9517C183.319 23.4207 183.649 26.8898 183.964 30.7335Z" fill="#0084B6"/>
<path d="M183.001 20.0664C182.977 16.3065 183.327 12.5416 183.923 8.19164C185.318 5.73625 186.468 3.86599 187.618 1.99572C187.618 1.99572 188.083 1.95124 188.315 1.93311C193.534 1.94538 198.522 1.97579 204 2.01879C200.418 5.79288 196.451 9.63572 192.237 13.287C189.467 15.6881 186.342 17.813 183.001 20.0664Z" fill="#420199"/>
<path d="M1.28618 152.333C0.896747 144.858 0.90397 137.378 1.31274 129.491C5.09056 128.26 8.46683 127.435 12.2291 126.591C14.3343 126.266 16.0533 125.961 18.1012 125.667C18.8683 125.678 19.3066 125.678 20 125.872C19.4303 130.517 18.6056 134.968 17.7764 139.78C17.444 141.751 16.7457 143.388 16.9003 144.963C17.0344 146.329 18.1349 147.623 18.7501 149.127C18.692 149.305 18.5615 149.659 18.1557 149.647C16.1439 149.766 14.5379 149.896 12.932 150.027C9.18225 150.794 5.43255 151.561 1.28618 152.333Z" fill="#015EA0"/>
<path d="M13 150.584C14.5344 150.266 16.2964 150.132 18.8692 150.233C19.872 152.694 20.0639 154.92 19.9837 157.311C19.1745 158.251 18.6374 159.026 18.1003 159.8C16.4761 156.789 14.8519 153.778 13 150.584Z" fill="#620097"/>
<path d="M18 159.365C18.458 158.212 18.9544 157.406 19.9737 156.6C21.6578 157.407 22.819 158.213 23.982 159.324C23.9846 160.035 23.9854 160.44 23.7143 161.059C23.6294 163.267 23.8164 165.262 24 167.26C23.9966 167.263 23.9927 167.267 23.9927 167.267C22.5098 166.435 21.0269 165.603 19.2412 164.639C18.6383 162.91 18.3384 161.311 18 159.365Z" fill="#6F00A4"/>
<path d="M187 1.93311C186.374 3.81989 185.297 5.70069 183.996 7.79675C177.228 9.48719 170.682 10.9542 164.142 12.4406C160.103 13.3585 159.256 15.2216 161.476 18.3573C162.582 19.9193 163.782 21.4295 164.973 23.2664C162.811 21.9855 160.547 20.4667 158.446 18.7894C157.386 17.943 156.707 16.7341 155.705 15.8175C147.773 8.55953 147.807 8.3333 157.734 3.77292C158.255 3.53372 158.59 2.97893 159.07 2.27176C168.268 1.95734 177.409 1.94224 187 1.93311Z" fill="#0077AF"/>
<path d="M46.9916 69.1333C47.0094 80.058 47.0273 90.9828 46.7225 102.452C42.9001 106.346 39.4003 109.695 35.6184 112.867C34.1745 109.543 32.0944 106.41 32.0284 103.247C31.8511 94.7524 32.5348 86.2448 33.2304 77.7106C38.0533 74.8303 42.5225 71.9818 46.9916 69.1333Z" fill="#008C82"/>
<path d="M10 38.0938C16.1572 35.6353 22.218 32.9818 28.4999 30.7755C34.3053 28.7365 40.3477 27.1767 46.665 25.3999C47.0772 26.5743 47.1101 27.7548 46.7576 29.3364C45.4534 30.8555 44.4849 31.947 43.6245 33.0961C39.4142 38.7194 35.6122 44.5528 28.4808 48.1877C25.365 49.7759 22.8292 52.1727 19.7923 54.1999C19.5545 54.1975 19.0785 54.197 18.8486 54.1014C18.4212 53.7757 18.2235 53.5454 17.8832 53.0436C16.6809 51.0461 15.5035 49.3632 14.5876 47.5846C12.9742 44.4518 11.5205 41.2605 10 38.0938Z" fill="#0097B3"/>
<path d="M18.942 149.134C18.2643 147.785 17.1568 146.469 17.0219 145.08C16.8662 143.478 17.569 141.813 18.2588 139.779C22.2449 137.711 25.7062 135.576 29.5549 134.532C32.1808 133.82 35.3888 134.414 38.2614 134.824C41.1468 135.237 43.9392 136.147 46.7723 136.838C46.8347 139.997 46.8971 143.155 46.9952 146.692C47.0309 147.071 46.8721 147.179 46.3736 147.231C36.8974 147.9 27.9197 148.517 18.942 149.134Z" fill="#017FBA"/>
<path d="M20 54.5138C22.8039 52.4566 25.3439 50.0272 28.465 48.4175C35.6084 44.7331 39.4167 38.8204 43.6341 33.1207C44.4959 31.956 45.4661 30.8496 46.7185 29.6665C47.076 33.3466 47.1014 37.0766 46.7465 41.2464C43.223 44.1505 39.7067 46.3541 37.0297 49.1437C33.5685 52.7505 28.6612 55.6727 28.337 61.0527C28.175 63.7415 27.5215 66.4088 27.082 69.3017C27.0705 69.6617 27.0673 69.8057 26.7051 69.9825C24.5731 70.5658 22.7999 71.1162 21.0251 71.2665C21.0195 66.8386 21.0156 62.8108 21.0114 58.4643C20.6741 56.935 20.337 55.7244 20 54.5138Z" fill="#019DA1"/>
<path d="M46.9967 136.625C44.0653 136.33 41.2306 135.438 38.3015 135.033C35.3853 134.631 32.1286 134.049 29.4629 134.747C25.5559 135.771 22.042 137.865 18 139.533C18.482 135.123 19.3246 130.682 20.1024 125.815C23.6183 123.234 27.1991 121.079 30.7935 119.267C31.877 121.192 32.4928 123.416 34.106 124.229C38.1401 126.262 42.6266 127.655 46.9316 129.304C46.9718 131.616 47.0119 133.929 46.9967 136.625Z" fill="#0077AF"/>
<path d="M46.9952 68.8264C42.4484 72.1362 37.948 75.0365 33.0567 77.6664C32.3456 76.4285 32.0255 75.461 32 74.273C32.7811 71.241 33.1769 68.4151 33.7769 65.6213C34.5189 62.1666 34.3702 58.0845 36.5657 55.4822C38.7773 52.861 43.3909 51.7217 46.952 49.9331C46.9819 56.0943 47.0119 62.2556 46.9952 68.8264Z" fill="#008788"/>
<path d="M46.9996 49.7849C43.4638 51.9818 38.9393 53.1274 36.7705 55.7629C34.6173 58.3794 34.7631 62.4838 34.0354 65.9574C33.447 68.7665 33.0588 71.6078 32.006 74.4666C29.3841 73.2557 31.3313 69.2447 27 69.5862C27.4309 66.8368 28.0839 64.0974 28.2458 61.3358C28.5697 55.8103 33.4732 52.8091 36.9316 49.1047C39.6065 46.2397 43.1201 43.9764 46.5943 41.3999C46.9662 44.0316 47.0046 46.709 46.9996 49.7849Z" fill="#018B97"/>
<path d="M46.9984 128.867C42.6897 127.58 38.2543 126.15 34.2662 124.063C32.6714 123.228 32.0626 120.944 31.0005 118.763C30.996 118.207 31.0175 117.798 31.3116 117.678C32.72 117.046 33.8343 116.533 35.3396 116.067C39.4618 116.693 43.1931 117.272 46.9244 117.852C46.9666 121.388 47.0089 124.924 46.9984 128.867Z" fill="#01789B"/>
<path d="M46.9982 117.133C43.1802 116.973 39.4149 116.417 35.2804 115.616C34.9113 115.371 34.9424 114.969 35.1672 114.876C35.6739 114.609 35.8579 114.381 35.9443 113.889C35.9447 113.681 35.9359 113.263 35.9359 113.263C39.4146 109.978 42.8934 106.692 46.6508 103.267C46.9698 107.663 47.0103 112.2 46.9982 117.133Z" fill="#016D86"/>
<path d="M11.9356 126.377C8.52529 127.206 5.11493 128.036 1.3058 128.867C0.902519 104.104 0.898008 79.34 1.2929 54.2142C3.28873 54.1377 4.896 54.3841 6.47942 54.7152C10.3989 55.5346 14.2179 56.4865 14.9241 61.0893C14.9124 67.2146 15.148 72.9453 14.8433 78.6547C13.994 94.5669 12.9206 110.47 11.9356 126.377Z" fill="#00848C"/>
<path d="M15.1696 60.5999C14.4572 56.4884 10.6086 55.5562 6.6587 54.7537C5.06299 54.4295 3.44324 54.1881 1.44519 53.8664C1.03709 50.1498 1.01824 46.4759 1 42.4122C1.01158 41.8723 1.02255 41.7221 1.38129 41.3999C5.41393 44.4011 9.01276 47.6494 12.8256 50.7111C14.3716 51.9526 16.384 52.7876 18.1842 53.8076C18.383 54.0375 18.5819 54.2673 19 54.9025C18.8835 56.4974 18.5479 57.6871 18.0712 59.1247C17.01 59.7817 16.0898 60.1908 15.1696 60.5999Z" fill="#018B97"/>
<path d="M18 53.1331C16.3425 52.3838 14.329 51.548 12.7822 50.3056C8.96728 47.2415 5.36651 43.9907 1.34443 40.7614C1.00129 37.8681 0.993374 35.0284 1.00177 31.7998C3.82874 33.5856 6.63941 35.7603 9.75709 38.0646C11.5948 41.3587 13.0582 44.5476 14.6824 47.6781C15.6044 49.4554 16.7897 51.137 18 53.1331Z" fill="#0084B6"/>
<path d="M24.0002 161.147C23.9994 160.776 23.9986 160.406 24.0448 159.448C25.4701 157.977 26.7376 156.511 28.2459 156.31C34.4264 155.486 40.6802 155.047 46.907 154.467C46.9471 157.835 46.9871 161.203 47 164.96C43.3046 165.35 39.6107 165.152 35.9837 165.477C34.8993 165.574 34.0022 167.134 32.6621 168.329C31.2059 168.372 30.1069 168.109 28.842 167.642C28.1229 167.291 27.5696 167.146 26.9751 166.694C25.956 164.64 24.9781 162.893 24.0002 161.147Z" fill="#8100BD"/>
<path d="M46.9972 153.519C40.7312 154.497 34.489 154.948 28.3201 155.794C26.8145 156.001 25.5493 157.507 24.125 158.733C22.9247 158.295 21.773 157.538 20.3523 156.62C19.9073 154.288 19.7313 152.116 19.2203 149.727C18.8853 149.509 19.0164 149.155 19.0749 148.977C28.1052 148.191 37.0769 147.584 46.4957 147C46.9778 149.061 47.0128 151.099 46.9972 153.519Z" fill="#7700B0"/>
<path d="M29 168.333C30.1279 168.603 31.2558 168.872 32.736 169.173C33.3531 169.892 33.6179 170.581 34 171.527C32.9735 171.573 31.8298 171.361 30.2303 170.776C29.5163 169.713 29.2582 169.023 29 168.333Z" fill="#7700B0"/>
<path d="M28.9284 167.926C29.3563 168.829 29.6142 169.521 30 170.467C28.111 169.769 26.0942 168.818 24.0242 167.57C23.971 167.274 23.975 167.27 24.3625 167.269C25.5189 167.268 26.2878 167.267 27.0566 167.267C27.6239 167.416 28.1911 167.565 28.9284 167.926Z" fill="#6F00A4"/>
<path d="M14.7156 60.636C15.6706 59.8035 16.6249 59.3804 18.1148 58.707C19.4295 58.4603 20.2085 58.464 20.9876 58.4677C20.9917 62.5707 20.9958 66.6738 21 71.5518C20.9499 74.7211 20.9045 77.1155 20.8484 79.5098C20.6177 89.3709 20.5995 99.24 20.0671 109.09C19.7654 114.67 18.6181 120.219 17.8517 125.782C16.037 126.092 14.2222 126.403 12 126.733C12.6218 110.644 13.7436 94.5391 14.6312 78.4247C14.9497 72.6427 14.7034 66.8392 14.7156 60.636Z" fill="#009193"/>
<path d="M18 125.663C18.4105 120.094 19.5336 114.549 19.8289 108.973C20.3501 99.1311 20.3679 89.2698 20.5937 79.4166C20.6486 77.0242 20.693 74.6316 20.7438 71.8722C22.5533 70.9449 24.3613 70.3846 26.5358 70.2002C26.8956 80.3986 27.4492 90.2529 26.6839 100.032C26.1778 106.501 27.1897 112.288 31 117.795C31 117.795 30.978 118.201 30.9688 118.404C27.3379 120.804 23.7162 123.001 19.8965 125.437C19.2456 125.675 18.7927 125.675 18 125.663Z" fill="#01A5A3"/>
<path d="M27 166.919C26.3487 167.267 25.6595 167.268 24.626 167.267C24.111 165.205 23.9403 163.146 24.0178 160.867C25.1648 162.622 26.0634 164.597 27 166.919Z" fill="#7700B0"/>
<path d="M31.4923 117.133C27.5935 111.815 26.6339 106.103 27.1139 99.7184C27.8396 90.066 27.3145 80.3398 27.3205 70.241C27.3231 69.6923 27.3262 69.5476 27.3373 69.186C31.5368 68.6349 29.6524 72.5585 31.9101 73.9598C32.4915 75.0971 32.7953 76.0488 33.1321 77.2981C32.8384 86.1105 32.185 94.6303 32.3544 103.137C32.4175 106.305 34.4054 109.442 35.7853 112.77C36.0549 112.948 36.0634 113.374 35.851 113.687C35.3737 114.177 35.1941 114.407 35.0998 114.689C35.0998 114.689 35.0698 115.1 35.0454 115.304C33.9399 116.011 32.8588 116.514 31.4923 117.133Z" fill="#009193"/>
<path d="M21 58.1614C20.1441 58.4771 19.2878 58.4735 18.0037 58.464C17.9583 57.2481 18.3409 56.038 18.7372 54.5128C18.7509 54.1977 19.2968 54.1982 19.5694 54.2006C20.228 55.416 20.6138 56.629 21 58.1614Z" fill="#0084B6"/>
<path d="M35.0603 115C34.8616 114.713 35.1547 114.359 35.9331 113.933C36.1444 114.225 35.8557 114.582 35.0603 115Z" fill="#01789B"/>
<path d="M704.081 98.9864C703.584 88.2106 703.897 77.2592 698.925 67.2623C693.89 57.1372 688.462 47.409 681.012 38.5624C674.419 30.7338 666.759 24.6576 658.47 19.3117C648.615 12.9555 637.605 8.95014 625.949 6.97407C624.85 6.78776 623.795 6.34593 622.648 5.67747C646.366 5.25022 670.154 5.16828 693.989 5.42252C694.994 6.17329 695.95 6.58781 696.912 6.99714C696.917 6.99195 696.907 7.00468 696.944 7.3545C698.167 9.27503 699.52 10.7476 700.513 12.4326C706.444 22.5003 711.9 32.7954 719.627 41.7838C725.378 48.4749 732.054 53.4031 740.345 56.9561C742.455 57.292 744.184 57.6099 746.186 58.2337C750.278 59.022 754.097 59.5045 758.185 60.2748C760.607 60.7069 762.76 60.8513 765.164 60.9974C765.414 60.9992 765.914 61.0051 766.18 61.2878C772.065 63.2796 777.838 64.6081 783.253 66.8157C787.783 68.6625 787.864 70.8269 784.715 74.7417C783.916 75.7351 783.57 77.1006 782.747 78.0656C777.899 83.7483 772.972 89.3631 767.993 94.6269C764.619 85.7374 761.323 77.2219 758.02 68.6871C755.702 75.2448 753.241 82.0414 750.898 88.8786C747.805 97.9045 744.805 106.962 741.517 115.792C736.372 107.175 729.78 101.203 719.57 100.361C714.404 99.9355 709.244 99.4467 704.081 98.9864Z" fill="#7601A4"/>
<path d="M942.853 193.058C945.509 184.822 948.159 176.583 950.825 168.35C952.509 163.151 954.219 157.96 956.394 152.379C958.631 151.625 960.494 151.512 962.134 150.849C970.844 147.328 979.537 143.757 988.143 139.993C990.248 139.072 992.007 137.358 994.257 136.005C995.032 135.998 995.474 135.995 996.256 135.991C997.37 135.655 998.145 135.319 999.252 134.954C1000.69 134.272 1001.8 133.62 1003.33 132.965C1007.79 132.615 1011.83 132.269 1016.29 131.896C1025.13 131.889 1033.55 131.908 1042.43 131.936C1047.55 131.986 1052.21 132.026 1056.88 132.303C1056.88 132.54 1056.9 133.013 1056.96 133.365C1059.11 134.807 1061.14 136.029 1063.29 136.958C1068.13 139.047 1073.04 140.992 1077.88 143.343C1076.33 145.83 1075.06 148.213 1073.24 150.053C1069.96 153.376 1066.47 156.539 1062.82 159.455C1060.04 161.673 1056.88 163.406 1053.88 165.354C1054.17 165.816 1054.45 166.278 1054.73 166.74C1056.68 166.902 1058.64 167.065 1060.59 167.227C1045.96 167.351 1031.33 167.489 1016.7 167.592C1010.71 167.634 1004.72 167.676 998.727 167.564C995.841 167.51 994.542 168.259 993.749 171.497C992.025 178.536 989.412 185.359 986.512 192.606C971.525 192.981 957.189 193.02 942.853 193.058ZM1045.41 166.844C1045.71 166.418 1046.01 165.992 1046.32 165.566C1045.87 165.452 1045.42 165.339 1044.97 165.225C1044.92 165.725 1044.86 166.224 1045.41 166.844ZM1050.53 165.787C1050.13 165.783 1049.74 165.779 1049.34 165.775C1049.34 165.938 1049.33 166.244 1049.34 166.245C1049.73 166.275 1050.13 166.277 1050.53 165.787Z" fill="#027D84"/>
<path d="M801.816 192.035C799.284 185.906 796.725 179.788 794.235 173.642C793.459 171.729 792.869 169.741 791.775 167.121C786.566 166.3 781.771 166.235 776.99 165.941C775.441 165.846 772.981 165.582 772.558 164.656C770.312 159.733 766.354 157.034 761.637 155.161C755.443 152.702 749.371 149.225 742.934 148.254C732.03 146.609 720.881 146.583 709.92 145.545C714.416 142.843 718.718 140.23 723.27 138.169C728.397 135.848 733.759 134.049 738.998 131.969C740.33 131.441 741.582 130.711 743.344 130.037C754.171 130.329 764.525 130.658 775.144 131.075C775.921 130.762 776.435 130.361 777.316 129.936C778.647 129.867 779.612 129.821 780.677 130.141C782.488 131.342 784.198 132.177 785.988 133.386C788.016 134.172 789.965 134.584 791.915 134.994C791.917 134.992 791.913 134.998 791.973 135.35C792.101 135.854 792.132 136.1 792.243 136.144C803.578 140.644 814.904 145.165 826.298 149.509C826.889 149.734 828.059 148.44 828.96 147.854C833.937 161.843 838.934 175.826 843.839 189.842C844.107 190.608 843.605 191.645 843.44 192.553C843.436 192.576 843.16 192.592 843.041 192.541C842.896 192.477 842.783 192.339 841.845 192.103C827.962 191.994 814.889 192.015 801.816 192.035Z" fill="#7E00A4"/>
<path d="M745.914 57.9277C744.184 57.6098 742.455 57.292 740.298 56.6174C739.441 55.5651 739.095 54.7972 738.569 54.1844C728.214 42.1253 718.083 29.858 707.323 18.1708C703.89 14.4424 703.014 8.207 696.907 7.00461C696.907 7.00461 696.917 6.99188 696.821 6.7511C696.475 6.0524 696.225 5.59445 696.436 5.0755C724.85 5.01373 752.803 5.01297 780.755 5.01221C782.813 10.8592 784.87 16.7064 786.928 22.5531C787.928 25.3957 788.932 28.2375 789.925 31.8375C786.546 36.2646 783.031 39.813 779.839 43.6308C774.858 49.5871 768.106 51.5996 760.899 53.1203C757.132 53.915 753.567 55.6636 749.547 56.9828C748.094 57.2987 747.004 57.6132 745.914 57.9277Z" fill="#9600D6"/>
<path d="M575.083 44.0286C576.147 43.0168 577.13 41.2572 578.289 41.1331C581.823 40.7545 585.425 41.0059 589.459 41.4764C591.148 44.6882 591.736 48.0703 593.716 50.0764C603.903 60.3927 614.486 70.3164 624.853 80.4559C631.56 87.0151 631.501 87.0756 627.664 95.1489C627.246 95.8681 627.072 96.4202 626.602 96.9963C625.842 97.3429 625.379 97.6653 624.498 97.9954C620.358 98.3386 616.635 98.6742 612.727 98.7394C611.332 97.9868 610.123 97.5046 608.719 96.741C605.204 94.354 601.498 92.6703 598.643 90.0567C592.35 84.2946 586.65 77.8873 580.382 72.0953C577.056 69.0217 575.627 65.8133 575.797 61.2471C576.01 55.5244 575.36 49.7695 575.083 44.0286Z" fill="#9000D2"/>
<path d="M612.913 99.0096C616.635 98.6741 620.358 98.3385 624.68 98.2472C626.159 98.3253 627.038 98.159 628.291 97.9918C629.413 97.987 630.161 97.9832 631.32 97.9842C640.623 96.7792 648.139 92.6675 655.187 87.2212C656.601 90.2978 657.742 93.1517 658.475 96.0037C652.358 97.4952 646.618 98.8812 640.954 100.53C638.287 101.305 637.293 103.047 638.826 105.859C643.13 113.755 647.319 121.714 651.519 129.666C652.104 130.774 652.492 131.985 652.97 133.148C648.935 137.058 644.9 140.969 640.339 144.641C637.119 140.444 634.902 136.032 631.644 132.612C622.105 122.599 610.33 115.657 598.328 108.945C593.61 106.306 589.98 101.723 586.273 98.0123C591.55 98.3246 596.404 98.7493 601.266 98.9158C602.804 98.9685 604.366 98.3307 606.247 98.0089C607.02 98.012 607.461 98.0151 607.972 98.3696C609.665 98.8171 611.289 98.9134 612.913 99.0096Z" fill="#7300A3"/>
<path d="M585.854 98.0247C589.98 101.723 593.61 106.306 598.328 108.945C610.33 115.657 622.105 122.599 631.644 132.612C634.902 136.032 637.119 140.444 639.997 144.699C635.013 147.65 629.845 150.305 624.292 152.531C622.95 150.892 622.136 149.523 621.007 148.504C618.63 146.358 616.062 144.426 613.621 142.349C611.429 140.483 609.609 137.759 607.091 136.771C597.974 133.194 591.322 126.389 584.705 119.791C581.733 116.826 579.068 115.061 575.082 114.987C575.04 104.977 574.998 94.9669 575.232 84.6714C575.693 84.9113 575.879 85.4368 576.16 86.2852C579.455 90.4137 582.655 94.2192 585.854 98.0247Z" fill="#2F0677"/>
<path d="M998.078 33.0082C1001.13 23.7479 1004.18 14.4875 1008.03 5.10803C1022.24 4.98224 1035.65 4.97549 1049.06 4.96875C1050.01 7.34759 1050.96 9.72641 1051.92 12.8676C1051.68 17.9565 1047.83 17.5847 1045.28 18.2288C1029.48 22.229 1016.76 31.3901 1004.58 41.6565C1003.28 42.7569 1000.72 43.2314 999.065 42.7861C997.743 42.4297 996.918 40.2336 995.873 38.854C995.873 38.854 995.924 38.4057 996.192 38.0644C996.689 37.4951 996.823 37.2206 996.862 36.8996C996.862 36.8996 996.885 36.9745 997.142 36.7828C997.549 35.6938 997.698 34.7967 997.848 33.8995C997.848 33.8995 997.893 33.9811 998.033 33.9131C998.263 33.7632 998.446 33.6411 998.431 33.6059C998.339 33.3956 998.201 33.2053 998.078 33.0082Z" fill="#9901D2"/>
<path d="M575.005 115.45C579.068 115.061 581.733 116.827 584.705 119.791C591.322 126.389 597.974 133.194 607.091 136.772C609.608 137.759 611.429 140.484 613.621 142.349C616.062 144.427 618.63 146.358 621.007 148.504C622.136 149.524 622.95 150.893 623.914 152.464C620.571 153.553 617.22 154.282 612.974 154.999C599.75 155.009 587.42 155.031 575.09 155.053C575.036 142.006 574.982 128.96 575.005 115.45Z" fill="#310B80"/>
<path d="M709.835 145.877C720.881 146.583 732.03 146.609 742.934 148.254C749.371 149.225 755.444 152.702 761.637 155.161C766.354 157.034 770.313 159.733 772.559 164.655C772.981 165.582 775.441 165.846 776.99 165.941C781.771 166.235 786.567 166.3 791.621 166.779C770.209 167.067 748.534 167.03 726.696 166.667C730.819 166.103 735.103 165.865 739.387 165.626C739.409 165.189 739.432 164.752 739.454 164.315C735.968 163.55 732.516 162.535 728.99 162.069C718.953 160.743 708.876 159.726 698.846 158.354C697.49 158.168 695.38 156.723 695.298 155.723C695.196 154.478 696.718 152.988 697.749 151.785C699.732 149.471 701.864 147.285 704.309 145.07C706.401 145.355 708.118 145.616 709.835 145.877Z" fill="#6B0090"/>
<path d="M721.763 175.994C720.045 180.584 718.327 185.173 715.865 189.954C710.524 190.647 705.923 191.108 701.332 191.657C684.129 193.715 669.646 188.969 658.904 174.792C663.306 171.625 667.707 168.459 672.748 165.126C673.881 164.594 674.375 164.229 674.869 163.863C674.869 163.863 674.892 163.952 675.231 163.961C680.768 165.993 685.821 168.615 691.194 169.91C701.286 172.343 711.563 174.009 721.763 175.994Z" fill="#7701A2"/>
<path d="M1060.95 167.438C1058.64 167.064 1056.68 166.902 1054.73 166.739C1054.45 166.278 1054.17 165.816 1053.88 165.354C1056.88 163.406 1060.04 161.673 1062.82 159.455C1066.47 156.539 1069.96 153.376 1073.24 150.053C1075.06 148.213 1076.33 145.83 1078.3 143.343C1083.8 144.158 1088.82 145.478 1093.92 146.372C1095.14 146.584 1096.6 145.368 1097.94 144.81C1099.28 148.256 1100.61 151.703 1101.64 155.556C1098.96 157.843 1096.4 159.54 1094.29 161.675C1093.13 162.85 1092.95 164.948 1091.91 166.304C1089.43 169.518 1086.86 172.695 1084.04 175.599C1079.57 180.187 1074.86 184.539 1070.25 188.991C1067.27 181.877 1064.29 174.763 1060.95 167.438Z" fill="#007888"/>
<path d="M1070.3 189.329C1074.86 184.539 1079.57 180.187 1084.04 175.599C1086.86 172.695 1089.43 169.518 1091.91 166.304C1092.95 164.948 1093.13 162.85 1094.29 161.675C1096.4 159.54 1098.96 157.843 1101.71 155.935C1105.68 166.202 1109.26 176.499 1112.87 186.788C1113.51 188.605 1114.23 190.39 1114.5 192.581C1099.75 192.978 1085.41 192.985 1071.08 192.992C1070.83 191.884 1070.59 190.776 1070.3 189.329Z" fill="#01718D"/>
<path d="M824.759 133.982C824.759 133.982 824.914 134.455 824.558 134.712C818.386 133.978 812.601 132.629 806.743 132.121C802.852 131.783 798.858 132.647 794.971 132.619C797.955 130.72 800.877 129.176 804.54 127.24C798.802 122.491 798.349 115.469 793.139 110.406C784.142 101.661 779.402 100.826 771.927 102.628C772.981 101.052 773.983 98.8405 775.087 98.7889C785.298 98.3113 795.527 98.1367 805.752 98.044C808.182 98.022 810.618 98.637 813.051 98.959C816.677 109.999 820.303 121.038 824.009 132.7C824.232 133.624 824.455 133.844 824.759 133.982Z" fill="#9B01CD"/>
<path d="M1056.9 133.013C1056.9 133.013 1056.88 132.54 1057.14 132.004C1059.19 131.269 1061.01 131.212 1062.76 130.842C1068.46 129.639 1070.49 126.48 1067.87 122.191C1065.73 118.678 1065.89 115.939 1067.5 112.145C1070.86 104.236 1068.55 101.007 1060.07 99.9691C1059 99.8376 1057.97 99.3268 1057.17 98.7124C1062.3 96.0751 1067.15 93.6461 1072.08 91.3919C1074.23 90.4103 1076.54 89.7873 1078.77 89.0015C1081.82 97.7211 1084.82 106.457 1087.93 115.154C1089.49 119.537 1091.26 123.851 1092.86 128.948C1089.47 130.796 1086.19 132.66 1082.82 132.839C1074.2 133.297 1065.55 133.005 1056.9 133.013Z" fill="#019DA1"/>
<path d="M721.921 175.661C711.563 174.009 701.286 172.343 691.194 169.91C685.821 168.615 680.768 165.993 675.191 163.938C680.622 156.657 686.432 149.408 692.638 142.392C695.907 146.855 700.31 144.198 703.934 145.046C701.864 147.285 699.733 149.471 697.749 151.785C696.718 152.988 695.196 154.478 695.298 155.723C695.38 156.723 697.49 158.168 698.846 158.354C708.876 159.726 718.954 160.743 728.99 162.069C732.516 162.535 735.968 163.55 739.454 164.315C739.432 164.752 739.409 165.189 739.387 165.626C735.103 165.865 730.819 166.103 726.23 166.621C724.644 169.71 723.361 172.519 721.921 175.661Z" fill="#72019C"/>
<path d="M1071.96 71.8743C1073.28 74.988 1074.6 78.1018 1075.62 81.6246C1070.52 83.3484 1065.71 84.6632 1060.82 85.5891C1059.58 84.7976 1058.43 84.3522 1057.26 84C1052.11 82.4582 1046.65 81.5726 1041.89 79.2416C1037.16 76.9201 1033.13 73.158 1028.54 69.9495C1027.88 69.5906 1027.46 69.3099 1026.67 69.1606C1023.73 69.8527 1021.19 70.5962 1018.6 70.9408C1009.01 72.2165 1001.87 83.6305 1004.73 93.2505C1003.32 94.9848 1002.11 96.4489 1000.54 97.9366C998.78 98.6495 997.37 99.339 995.658 99.7377C994.518 93.88 993.679 88.3131 993.001 82.4659C998.091 76.4598 1003.02 70.7336 1008.17 64.9544C1008.38 64.9013 1008.82 64.8005 1009.01 65.1008C1014.77 66.3483 1020.33 67.2956 1026.7 68.3796C1025.68 67.0188 1025.31 66.5244 1025.23 66.0032C1026 65.6723 1026.47 65.3682 1027.33 65.0526C1028.78 65.0436 1029.83 65.0461 1031 65.2593C1031.32 65.7336 1031.59 65.9115 1032.15 66.0147C1032.4 66.0256 1032.89 66.04 1032.91 66.4276C1033.48 67.5194 1033.9 68.6567 1034.6 68.8609C1041.68 70.9393 1048.72 73.3947 1055.97 74.6599C1061.35 75.5996 1067.23 76.145 1071.96 71.8743Z" fill="#007C7B"/>
<path d="M627.909 94.9819C631.501 87.0759 631.56 87.0153 624.854 80.4561C614.486 70.3166 603.903 60.3929 593.717 50.0766C591.736 48.0705 591.148 44.6884 589.919 41.5494C594.28 41.1089 598.64 41.0601 603.465 41.4425C608.557 46.8955 613.048 52.052 617.844 56.9071C624.693 63.8399 631.854 70.4661 638.648 77.4497C639.686 78.5166 640.32 81.2401 639.693 82.4445C636.981 87.6593 634.01 92.8618 627.909 94.9819Z" fill="#8900C8"/>
<path d="M1030.88 65.0484C1029.83 65.046 1028.78 65.0435 1027.09 64.7585C1022.26 62.6219 1018.06 60.7679 1013.92 58.7025C1013.97 58.4912 1014.04 58.0632 1014.33 57.9128C1018.5 53.9895 1022.11 49.8803 1026.33 46.5387C1030.53 43.2139 1035.04 39.9215 1039.95 37.9574C1045.93 35.5677 1052.46 34.5812 1058.76 32.9878C1058.76 32.9878 1058.9 33.4091 1058.88 34.0149C1058.15 37.1354 1057.6 39.7097 1056.7 42.1543C1053.48 50.8933 1048.57 58.0496 1039.14 61.1715C1036.59 62.0155 1034.32 63.6875 1031.66 64.9913C1031.22 65.0182 1031.05 65.0333 1030.88 65.0484Z" fill="#01A69E"/>
<path d="M627.664 95.1487C634.01 92.8614 636.981 87.659 639.693 82.4442C640.32 81.2397 639.686 78.5162 638.648 77.4493C631.853 70.4658 624.693 63.8396 617.844 56.9067C613.048 52.0517 608.557 46.8952 603.925 41.5151C610.479 42.1736 617.037 43.1903 623.811 44.8916C625.44 46.9233 626.754 48.3985 628.284 49.5968C638.708 57.7588 646.079 68.2739 651.56 80.0315C647.508 83.4542 643.844 86.8891 640.085 90.2171C637.086 92.8721 633.972 95.3969 630.909 97.9795C630.161 97.9832 629.413 97.9869 628.18 97.769C627.49 97.2728 627.224 97.081 626.898 96.9721C627.072 96.42 627.246 95.868 627.664 95.1487Z" fill="#8100BD"/>
<path d="M995.551 39.0359C996.918 40.2337 997.743 42.4298 999.065 42.7862C1000.72 43.2316 1003.28 42.7571 1004.58 41.6566C1016.76 31.3903 1029.48 22.2291 1045.28 18.229C1047.83 17.5848 1051.68 17.9566 1051.94 13.2373C1053.29 16.2578 1054.61 19.671 1055.89 23.855C1054.58 25.4595 1053.42 26.6229 1052.03 27.0669C1047.35 28.5593 1042.35 29.272 1037.9 31.2383C1028.53 35.3795 1019.12 39.6371 1012.82 48.428C1011.96 49.6267 1009.92 51.0834 1008.82 50.8137C1003.49 49.5099 998.304 47.6568 993.067 45.9985C993.788 43.7382 994.509 41.4779 995.551 39.0359Z" fill="#9200C8"/>
<path d="M992.841 82.7461C993.68 88.3131 994.518 93.8801 995.506 100.033C985.418 112.077 975.182 123.534 964.591 134.992C963.764 134.962 963.292 134.931 962.82 134.901C967.129 122.476 971.437 110.051 976.229 97.2501C980.438 93.5482 984.164 90.2231 988.183 86.7686C989.931 85.3415 991.386 84.0438 992.841 82.7461Z" fill="#008788"/>
<path d="M653.299 132.99C652.492 131.985 652.104 130.774 651.519 129.666C647.319 121.714 643.13 113.755 638.826 105.859C637.293 103.047 638.287 101.306 640.954 100.53C646.618 98.8813 652.358 97.4953 658.627 96.3242C661.179 98.6302 660.016 103.414 664.775 102.94C663.855 107.822 663.597 112.958 661.844 117.52C659.782 122.884 656.424 127.751 653.299 132.99Z" fill="#6C0199"/>
<path d="M992.989 46.3408C998.304 47.657 1003.49 49.5101 1008.82 50.8139C1009.92 51.0836 1011.96 49.6269 1012.82 48.4283C1019.12 39.6373 1028.53 35.3797 1037.9 31.2385C1042.35 29.2722 1047.35 28.5595 1052.03 27.0671C1053.42 26.6231 1054.58 25.4597 1055.9 24.2427C1056.94 26.6397 1057.92 29.42 1058.83 32.5942C1052.46 34.5815 1045.93 35.568 1039.95 37.9577C1035.04 39.9218 1030.53 43.2142 1026.33 46.539C1022.11 49.8806 1018.5 53.9898 1013.97 57.7521C1007.24 56.8257 1001.18 55.7851 995.089 55.0594C992.862 54.7943 990.699 55.068 990.852 51.8896C990.852 51.8896 990.88 51.9694 991.022 51.9078C991.257 51.7652 991.443 51.6433 991.428 51.6096C991.335 51.3978 991.198 51.2055 991.075 51.0069C991.687 49.5656 992.299 48.1243 992.989 46.3408Z" fill="#8701BA"/>
<path d="M701.875 121.839C701.875 121.839 701.909 121.414 702.253 120.981C705.937 117.01 710.34 117.365 714.215 118.402C721.504 120.351 728.58 123.103 735.718 125.597C736.244 125.78 736.556 126.576 736.942 127.444C736.977 128.512 737.037 129.223 736.732 130.083C724 132.929 712.038 137.69 699.147 137.618C698.381 137.613 697.626 135.801 696.866 134.83C698.221 131.133 699.575 127.435 701.203 123.217C701.703 122.454 701.837 122.169 701.875 121.839Z" fill="#9B01CD"/>
<path d="M768.072 95.0005C772.972 89.3629 777.9 83.748 782.747 78.0653C783.57 77.1003 783.916 75.7349 784.715 74.7414C787.864 70.8266 787.783 68.6622 783.253 66.8154C777.838 64.6078 772.065 63.2794 766.444 60.9978C768.039 60.4854 769.637 60.5721 771.237 60.6002C778.844 60.7342 786.46 61.0533 794.054 60.788C795.4 60.7409 796.66 58.2358 797.959 56.8657C800.481 63.3302 803.003 69.7946 805.125 76.6234C799.036 76.6083 793.87 78.2915 789.53 81.7821C783.489 86.6404 777.77 91.8993 771.666 97.1657C770.969 98.2331 770.521 99.1216 769.992 99.6675C769.298 97.8834 768.685 96.442 768.072 95.0005Z" fill="#7D00B0"/>
<path d="M651.906 79.9979C646.079 68.2742 638.708 57.7591 628.284 49.597C626.754 48.3987 625.44 46.9235 624.008 45.2314C632.133 47.9515 640.824 49.8754 646.338 57.7586C648.581 60.966 652.452 63.0669 654.556 66.3327C657.516 70.9284 659.52 76.1397 661.892 81.8411C659.549 83.7148 657.247 84.8354 654.805 85.6529C653.745 83.5659 652.825 81.7819 651.906 79.9979Z" fill="#9901D2"/>
<path d="M704.007 99.4331C709.244 99.4466 714.404 99.9354 719.57 100.361C729.78 101.202 736.372 107.175 741.581 116.142C741.224 118.151 740.556 119.596 739.534 120.992C737.878 120.257 736.581 119.565 735.276 118.886C727.531 114.853 720.743 108.669 711.579 107.849C709.042 107.622 706.403 108.526 703.812 108.912C703.852 105.901 703.892 102.891 704.007 99.4331Z" fill="#8600B3"/>
<path d="M1060.91 85.9783C1065.71 84.6635 1070.52 83.3486 1075.7 82.0024C1077.02 84.0717 1077.97 86.1723 1078.84 88.6373C1076.54 89.7876 1074.23 90.4106 1072.08 91.3921C1067.15 93.6464 1062.3 96.0753 1056.76 98.6626C1050.39 98.5992 1044.67 98.3067 1038.7 97.8206C1037.99 96.7411 1037.52 95.855 1037.32 94.749C1040.26 93.3622 1043.04 92.3983 1045.56 90.9568C1047.22 90.004 1048.48 88.3653 1050.36 87.0228C1054.17 86.6674 1057.54 86.3228 1060.91 85.9783Z" fill="#019B97"/>
<path d="M797.946 56.471C796.66 58.236 795.4 60.7412 794.054 60.7882C786.46 61.0536 778.844 60.7344 771.236 60.6005C769.637 60.5723 768.039 60.4856 766.177 60.7155C765.914 61.0051 765.414 60.9992 765.016 60.6997C762.384 60.2625 760.15 60.1247 757.917 59.987C754.098 59.5045 750.278 59.022 746.187 58.2336C747.004 57.6133 748.094 57.2987 750.017 56.9875C756.491 56.9905 762.158 57.3159 767.766 56.8873C772.266 56.5434 777.141 56.1791 781.055 54.2299C787.457 51.0423 789.01 43.8168 791.96 37.8716C793.951 43.9397 795.942 50.0079 797.946 56.471Z" fill="#8701BA"/>
<path d="M703.836 108.929C706.403 108.526 709.042 107.622 711.579 107.849C720.743 108.669 727.531 114.853 735.276 118.885C736.581 119.565 737.878 120.257 739.543 121.357C739.187 123.523 738.468 125.276 737.552 127.036C737.357 127.044 736.967 127.088 736.967 127.088C736.556 126.576 736.244 125.78 735.718 125.596C728.58 123.102 721.504 120.351 714.215 118.402C710.34 117.365 705.937 117.01 702.319 120.779C702.339 117.613 702.637 114.218 703.2 110.272C703.698 109.491 703.83 109.213 703.864 108.887C703.864 108.887 703.86 108.946 703.836 108.929Z" fill="#9000C2"/>
<path d="M576.065 85.9627C575.879 85.4371 575.693 84.9116 575.291 84.2089C575.031 71.0051 574.988 57.9785 575.014 44.4902C575.361 49.7696 576.011 55.5244 575.797 61.2471C575.627 65.8133 577.056 69.0218 580.382 72.0954C586.65 77.8874 592.351 84.2946 598.644 90.0568C601.498 92.6704 605.204 94.354 608.608 96.9582C608.484 97.7225 608.221 97.9097 607.903 98.0184C607.461 98.0153 607.02 98.0122 605.985 97.7201C602.421 96.6375 599.276 96.2278 596.518 94.971C590.586 92.2685 584.872 89.0889 579.015 86.2161C578.189 85.811 577.056 86.0316 576.065 85.9627Z" fill="#8301C3"/>
<path d="M987.889 86.8981C984.163 90.2231 980.438 93.5482 976.378 96.9041C979.666 86.212 983.288 75.4891 987.322 64.548C989.638 64.2137 991.547 64.1538 993.444 63.971C999.293 63.4073 1005.14 62.7968 1010.84 62.4497C1010.07 63.3969 1009.44 64.0987 1008.82 64.8006C1008.82 64.8006 1008.38 64.9014 1007.77 64.949C997.4 66.6422 990.043 75.0027 987.889 86.8981Z" fill="#6C0199"/>
<path d="M1056.96 133.365C1065.55 133.005 1074.2 133.297 1082.82 132.839C1086.19 132.66 1089.47 130.796 1092.86 129.334C1094.49 134.029 1096.05 139.09 1097.78 144.48C1096.6 145.368 1095.14 146.584 1093.92 146.372C1088.82 145.478 1083.8 144.158 1078.33 142.994C1073.04 140.991 1068.13 139.047 1063.29 136.957C1061.14 136.028 1059.11 134.806 1056.96 133.365Z" fill="#018B97"/>
<path d="M609.935 192.145C622.215 191.248 633.4 186.722 644.46 181.762C646.358 180.91 648.314 180.188 650.786 179.624C654.188 184.2 657.048 188.558 659.44 192.947C644.205 193 629.437 193.049 614.669 193.004C613.09 193 611.513 192.445 609.935 192.145Z" fill="#2A1679"/>
<path d="M659.907 192.917C657.048 188.558 654.188 184.2 651.149 179.571C653.373 177.848 655.774 176.395 658.54 174.867C669.646 188.969 684.13 193.716 701.332 191.658C705.923 191.108 710.525 190.647 715.534 190.127C715.51 191.014 715.072 191.92 713.852 192.914C695.35 192.974 677.629 192.946 659.907 192.917Z" fill="#2C0D73"/>
<path d="M1031.91 64.9796C1034.32 63.6876 1036.59 62.0156 1039.14 61.1716C1048.57 58.0497 1053.48 50.8935 1056.7 42.1544C1057.6 39.7099 1058.15 37.1355 1058.91 34.2344C1061.62 40.9358 1064.27 48.0234 1066.77 55.8323C1060.04 58.367 1053.43 60.1045 1046.88 62.0222C1042.85 63.2008 1038.9 64.6552 1034.58 65.9895C1033.79 66.0089 1033.34 66.0245 1032.89 66.0401C1032.89 66.0401 1032.4 66.0256 1032.16 65.7586C1031.91 65.321 1031.91 65.1503 1031.91 64.9796Z" fill="#019B97"/>
<path d="M770.072 100.01C770.521 99.1216 770.969 98.2331 772.057 97.1671C773.516 96.9107 774.399 97.0016 775.147 96.7267C783.319 93.7242 791.384 90.389 799.676 87.7764C802.414 86.9138 805.727 87.876 808.777 88.0038C810.161 91.4061 811.545 94.8083 812.99 98.5847C810.618 98.6367 808.182 98.0218 805.752 98.0438C795.526 98.1364 785.298 98.3111 775.086 98.7886C773.983 98.8402 772.981 101.051 771.715 102.63C771.499 102.999 771.075 103.001 770.999 102.684C770.64 101.58 770.356 100.795 770.072 100.01Z" fill="#9000C2"/>
<path d="M791.944 37.4959C789.01 43.8165 787.457 51.042 781.055 54.2295C777.141 56.1787 772.266 56.5431 767.766 56.8869C762.157 57.3156 756.491 56.9901 750.38 56.9857C753.567 55.6633 757.132 53.9147 760.899 53.1199C768.106 51.5993 774.858 49.5867 779.839 43.6305C783.032 39.8127 786.546 36.2642 789.942 32.2173C790.621 33.5999 791.275 35.3603 791.944 37.4959Z" fill="#9200C8"/>
<path d="M808.844 87.6235C805.727 87.8763 802.414 86.9141 799.676 87.7767C791.384 90.3893 783.319 93.7245 775.147 96.727C774.399 97.0019 773.516 96.911 772.305 96.9885C777.77 91.8996 783.488 86.6406 789.529 81.7823C793.869 78.2918 799.035 76.6085 805.138 76.9895C806.671 80.4082 807.791 83.8256 808.844 87.6235Z" fill="#8600B3"/>
<path d="M1032.91 66.4274C1033.34 66.0243 1033.79 66.0087 1035 65.9929C1037.69 66.3162 1039.65 67.0079 1041.57 66.9014C1051.25 66.3636 1060.91 65.618 1070.58 64.9453C1071.03 66.9878 1071.48 69.0303 1071.95 71.4735C1067.23 76.1448 1061.35 75.5995 1055.97 74.6597C1048.72 73.3945 1041.68 70.9391 1034.6 68.8607C1033.9 68.6565 1033.48 67.5192 1032.91 66.4274Z" fill="#008788"/>
<path d="M696.554 134.997C697.626 135.801 698.381 137.613 699.147 137.617C712.037 137.689 724 132.929 737.14 130.094C739.565 129.995 741.218 130.034 742.871 130.073C741.582 130.711 740.33 131.441 738.998 131.969C733.759 134.049 728.397 135.848 723.269 138.169C718.718 140.23 714.416 142.843 709.92 145.545C708.118 145.616 706.4 145.355 704.308 145.07C700.31 144.198 695.907 146.855 692.96 142.244C694.005 139.63 695.123 137.397 696.554 134.997Z" fill="#9000C2"/>
<path d="M962.841 134.921C963.292 134.931 963.764 134.962 965.017 134.992C969.16 134.328 972.508 133.197 975.887 133.093C984.886 132.815 993.899 132.98 1002.91 132.968C1001.8 133.62 1000.69 134.272 999.082 134.718C997.692 135.005 996.804 135.498 995.917 135.992C995.474 135.994 995.031 135.997 993.845 136.007C983.394 138.82 973.71 141.712 963.95 144.321C962.806 144.627 961.246 143.375 959.878 142.846C960.561 140.798 961.243 138.751 962.199 136.211C962.701 135.486 962.834 135.208 962.869 134.883C962.869 134.883 962.863 134.942 962.841 134.921Z" fill="#019B97"/>
<path d="M794.91 132.973C798.858 132.647 802.852 131.783 806.743 132.12C812.601 132.629 818.386 133.978 824.618 134.954C825.663 136.339 826.29 137.739 826.919 139.878C826.79 141.572 826.66 142.526 826.661 142.516C814.941 139.98 803.427 137.489 791.913 134.998C791.913 134.998 791.917 134.992 791.732 134.74C790.671 133.989 789.796 133.488 789.348 132.984C791.487 132.978 793.198 132.976 794.91 132.973Z" fill="#9000C2"/>
<path d="M1070.56 64.5874C1060.91 65.6181 1051.25 66.3636 1041.57 66.9015C1039.65 67.008 1037.69 66.3163 1035.33 65.9891C1038.9 64.655 1042.85 63.2007 1046.88 62.0221C1053.43 60.1043 1060.04 58.3668 1066.79 56.2178C1068.16 58.6647 1069.34 61.4471 1070.56 64.5874Z" fill="#009193"/>
<path d="M1010.98 62.2044C1005.14 62.7968 999.293 63.4073 993.444 63.971C991.546 64.1538 989.637 64.2137 987.401 64.1689C988.105 60.0966 989.141 56.1852 990.514 52.0815C990.699 55.0678 992.862 54.7941 995.089 55.0592C1001.18 55.7849 1007.24 56.8255 1013.68 57.9023C1014.04 58.0633 1013.97 58.4913 1013.61 58.8692C1013.1 60.141 1012.95 61.0349 1012.49 61.9666C1011.79 62.071 1011.38 62.1377 1010.98 62.2044Z" fill="#7E00A4"/>
<path d="M959.554 143.002C961.246 143.375 962.806 144.627 963.95 144.321C973.71 141.712 983.394 138.82 993.512 136.011C992.006 137.358 990.248 139.072 988.143 139.993C979.537 143.757 970.844 147.328 962.134 150.849C960.494 151.512 958.631 151.625 956.472 151.991C956.15 151.697 956.227 151.402 956.787 150.924C957.205 150.166 957.141 149.591 957.078 149.017C957.795 147.064 958.512 145.112 959.554 143.002Z" fill="#008788"/>
<path d="M791.973 135.35C803.427 137.489 814.941 139.98 826.661 142.516C826.66 142.526 826.79 141.571 826.94 140.229C827.617 142.245 828.275 144.649 828.946 147.453C828.059 148.44 826.889 149.734 826.298 149.509C814.904 145.165 803.578 140.644 792.244 136.144C792.133 136.1 792.102 135.854 791.973 135.35Z" fill="#8600B3"/>
<path d="M809.915 4.96122C811.07 4.63694 812.225 4.02977 813.38 4.02894C868.436 3.98881 923.492 4.00099 978.547 4.01353C978.876 4.01362 979.205 4.10261 979.405 4.58851C979.276 5.02693 978.803 5.11677 978.345 5.06544C941.253 5.063 904.618 5.11192 867.515 5.08775C848.014 5.00999 828.98 5.00535 809.94 4.9897C809.934 4.97874 809.915 4.96122 809.915 4.96122Z" fill="#1A0030"/>
<path d="M780.643 4.58809C752.803 5.01286 724.85 5.01363 696.1 5.00947C694.849 5.03172 694.395 5.05891 693.941 5.08614C670.153 5.16811 646.366 5.25005 622.25 5.58107C620.318 5.83015 618.714 5.83015 617.111 5.83015C617.072 5.50648 617.033 5.18281 616.995 4.85915C618.327 4.57045 619.66 4.03029 620.993 4.02928C673.845 3.98961 726.697 3.99855 779.549 4.00847C779.876 4.00853 780.204 4.11 780.643 4.58809Z" fill="#260037"/>
<path d="M654.945 85.9557C657.247 84.8352 659.549 83.7147 661.902 82.2246C663.271 87.6297 664.589 93.4044 665.633 99.7337C665.142 100.531 665.004 100.814 664.947 101.135C664.938 101.541 664.93 101.946 664.848 102.646C660.016 103.414 661.178 98.6302 659.035 96.3262C657.742 93.1518 656.6 90.2979 655.191 86.9604C654.931 86.3032 654.938 86.1295 654.945 85.9557Z" fill="#8701BA"/>
<path d="M659.44 192.947C677.628 192.945 695.35 192.974 713.545 193.019C713.343 193.352 712.667 193.945 711.99 193.945C677.152 193.99 642.314 193.985 606.333 193.985C607.848 192.936 608.506 192.48 609.55 192.084C611.513 192.445 613.09 192.999 614.669 193.004C629.437 193.049 644.205 193 659.44 192.947Z" fill="black"/>
<path d="M874.084 145.006C874.022 111.001 873.96 76.9971 873.892 42.5082C873.886 42.0236 873.928 41.9812 874.238 42.265C874.677 44.3482 874.912 46.1471 874.917 47.9466C874.966 65.9716 874.976 83.9966 874.975 102.487C874.964 113.289 874.977 123.626 874.961 134.408C874.95 137.217 874.967 139.581 874.964 142.332C874.917 143.496 874.888 144.273 874.665 145.037C874.471 145.025 874.084 145.006 874.084 145.006Z" fill="#580078"/>
<path d="M915.747 117.039C915.737 142.242 915.727 167.445 915.268 192.523C914.82 192.397 914.771 191.951 914.83 191.489C914.87 181.358 914.85 171.69 914.856 161.556C914.862 157.052 914.844 153.013 914.85 148.531C914.86 145.712 914.845 143.338 914.862 140.522C914.881 137.716 914.867 135.349 914.89 132.519C914.887 127.352 914.847 122.651 914.858 117.725C914.907 117.5 915.046 117.062 915.221 117.055C915.396 117.048 915.747 117.039 915.747 117.039Z" fill="#003E45"/>
<path d="M915.823 116.571C915.747 117.038 915.396 117.047 915.171 116.582C914.936 93.2686 914.906 70.4197 914.959 47.571C914.962 46.034 915.592 44.4984 915.958 42.9761C915.986 42.9901 915.984 43.0515 915.984 43.0515C915.956 67.402 915.927 91.7526 915.823 116.571Z" fill="#3B0059"/>
<path d="M979.77 41.9309C978.355 42.2853 976.942 42.9432 975.527 42.9482C955.988 43.0185 936.449 42.999 916.448 43.0264C915.985 43.0515 915.986 42.9901 916.203 42.6297C918.407 42.1697 920.393 41.9899 922.379 41.9828C941.195 41.9157 960.011 41.8779 979.062 41.8618C979.297 41.8919 979.77 41.9309 979.77 41.9309Z" fill="#260037"/>
<path d="M873.865 42.0448C852.837 42.0347 831.829 42.0033 810.375 41.6759C809.929 41.3799 810 40.938 810.461 40.9571C830.204 40.9812 849.487 40.9611 868.769 41.034C870.49 41.0405 872.208 41.651 873.928 41.981C873.928 41.981 873.886 42.0234 873.865 42.0448Z" fill="#580078"/>
<path d="M914.771 191.95C914.771 191.95 914.82 192.397 914.839 192.621C901.417 192.844 887.975 192.844 873.902 192.844C873.902 188.596 873.902 184.35 874.212 179.648C874.521 179.19 874.992 179.199 874.974 179.645C874.95 182.249 875.18 184.439 874.887 186.556C874.268 191.027 876.068 192.2 880.425 192.082C891.867 191.774 903.322 191.961 914.771 191.95Z" fill="#00617E"/>
<path d="M1071.21 193.404C1085.41 192.985 1099.75 192.978 1114.56 192.957C1114.56 193.292 1114.08 193.949 1113.6 193.949C1099.51 193.944 1085.43 193.875 1071.21 193.404Z" fill="#00617E"/>
<path d="M943.068 193.438C957.189 193.019 971.525 192.981 986.321 192.926C986.196 193.271 985.613 193.945 985.029 193.945C971.114 193.947 957.199 193.876 943.068 193.438Z" fill="#003E45"/>
<path d="M1048.83 4.58487C1035.65 4.97571 1022.24 4.98245 1008.36 4.92911C1008.41 4.57849 1008.93 4.03384 1009.44 4.03467C1022.5 4.05527 1035.55 4.13306 1048.83 4.58487Z" fill="#260037"/>
<path d="M802.031 192.421C814.889 192.015 827.961 191.994 841.503 192.022C841.301 192.379 840.629 192.958 839.957 192.958C827.387 192.948 814.817 192.87 802.031 192.421Z" fill="#1A0030"/>
<path d="M575.235 155.456C587.42 155.03 599.75 155.008 612.555 155.013C612.198 155.361 611.367 155.959 610.534 155.96C598.817 155.974 587.099 155.907 575.235 155.456Z" fill="#260037"/>
<path d="M810 40.9381C810 40.9381 809.929 41.3799 809.91 41.6029C809.573 41.2062 808.979 40.5863 808.979 39.9669C808.985 28.428 809.062 16.8891 809.519 5.15574C809.915 4.96131 809.934 4.97883 809.914 5.45728C809.93 17.6032 809.965 29.2706 810 40.9381Z" fill="#260037"/>
<path d="M979.84 41.4743C979.77 41.9313 979.297 41.8923 979.096 41.5015C978.879 40.3841 978.863 39.6575 978.875 38.4684C978.87 27.0429 978.836 16.0799 978.803 5.11691C978.803 5.11691 979.276 5.02707 979.516 5.01074C979.808 17.002 979.859 29.0096 979.84 41.4743Z" fill="#580078"/>
<path d="M874.992 179.199C874.992 179.199 874.521 179.19 874.285 179.2C874.017 168.118 873.985 157.025 874.018 145.469C874.084 145.005 874.472 145.024 874.672 145.499C874.908 151.965 874.943 157.957 874.951 164.419C874.922 169.514 874.919 174.14 874.943 178.873C874.969 178.98 874.992 179.199 874.992 179.199Z" fill="#3B0059"/>
<path d="M997.536 34.0581C997.698 34.7966 997.549 35.6938 997.103 36.7762C996.946 36.0465 997.085 35.1317 997.536 34.0581Z" fill="#9200C8"/>
<path d="M957.002 149.335C957.142 149.591 957.205 150.166 957.027 150.848C956.831 150.522 956.878 150.088 957.002 149.335Z" fill="#027D84"/>
<path d="M674.543 163.916C674.375 164.229 673.881 164.594 673.059 164.983C673.226 164.66 673.722 164.314 674.543 163.916Z" fill="#72019C"/>
<path d="M665.19 101.033C665.005 100.814 665.142 100.532 665.557 100.156C665.647 100.326 665.54 100.628 665.19 101.033Z" fill="#6C0199"/>
<path d="M962.619 134.97C962.834 135.208 962.701 135.486 962.274 135.846C962.175 135.668 962.272 135.363 962.619 134.97Z" fill="#008788"/>
<path d="M824.786 133.716C824.455 133.844 824.231 133.624 824.02 133.093C824.239 133.059 824.526 133.254 824.786 133.716Z" fill="#9000C2"/>
<path d="M997.999 33.2374C998.201 33.2056 998.338 33.3959 998.431 33.6062C998.446 33.6414 998.263 33.7635 997.991 33.8919C997.81 33.9384 997.919 33.4662 997.999 33.2374Z" fill="#9200C8"/>
<path d="M996.615 36.9849C996.823 37.2209 996.689 37.4954 996.266 37.8515C996.17 37.6764 996.269 37.3731 996.615 36.9849Z" fill="#9200C8"/>
<path d="M990.997 51.2386C991.197 51.2054 991.335 51.3976 991.428 51.6094C991.443 51.6431 991.256 51.765 990.981 51.8952C990.799 51.9442 990.92 51.4706 990.997 51.2386Z" fill="#7E00A4"/>
<path d="M701.632 121.944C701.837 122.169 701.703 122.454 701.278 122.831C701.183 122.66 701.286 122.355 701.632 121.944Z" fill="#9000C2"/>
<path d="M703.614 108.974C703.83 109.213 703.698 109.491 703.269 109.85C703.17 109.672 703.267 109.366 703.614 108.974Z" fill="#8600B3"/>
<path d="M696.944 7.354C703.014 8.20657 703.89 14.442 707.323 18.1704C718.083 29.8575 728.214 42.1248 738.569 54.184C739.095 54.7968 739.441 55.5647 739.917 56.5989C732.054 53.4026 725.378 48.4744 719.627 41.7833C711.9 32.795 706.444 22.4998 700.513 12.4321C699.52 10.7471 698.167 9.27454 696.944 7.354Z" fill="#8400BC"/>
<path d="M758.185 60.2748C760.15 60.1247 762.384 60.2625 764.766 60.6979C762.76 60.8513 760.607 60.7069 758.185 60.2748Z" fill="#7D00B0"/>
<path d="M693.989 5.42216C694.395 5.05876 694.849 5.03157 695.639 5.07032C696.225 5.59419 696.475 6.05213 696.816 6.75605C695.95 6.58747 694.994 6.17295 693.989 5.42216Z" fill="#8400BC"/>
<path d="M1003.33 132.965C993.899 132.98 984.886 132.815 975.887 133.093C972.508 133.197 969.16 134.328 965.372 134.99C975.182 123.533 985.418 112.076 995.807 100.324C997.371 99.3388 998.781 98.6494 1001 97.9614C1007.47 97.6531 1013.12 97.3433 1018.7 97.3985C1015.39 107.756 1012.14 117.748 1009.03 128.133C1011.42 128.727 1013.65 128.93 1015.9 129.482C1015.89 130.528 1015.88 131.225 1015.87 131.922C1011.83 132.268 1007.79 132.615 1003.33 132.965Z" fill="#01A69E"/>
<path d="M1038.95 98.0137C1044.67 98.3062 1050.39 98.5988 1056.51 98.9415C1057.97 99.3266 1059 99.8374 1060.07 99.9689C1068.55 101.007 1070.86 104.236 1067.5 112.145C1065.89 115.938 1065.73 118.678 1067.87 122.191C1070.49 126.48 1068.46 129.639 1062.76 130.842C1061.01 131.212 1059.19 131.269 1057.14 131.767C1052.21 132.026 1047.55 131.986 1042.42 131.588C1041.94 130.533 1041.95 129.834 1042.37 129.093C1044.55 129.027 1046.32 129.137 1048.04 128.886C1048.47 128.823 1048.73 127.593 1048.87 126.571C1045.44 116.833 1042.19 107.423 1038.95 98.0137Z" fill="#01A5A3"/>
<path d="M1041.95 129.136C1041.94 129.834 1041.94 130.533 1041.95 131.579C1033.55 131.908 1025.13 131.889 1016.29 131.896C1015.88 131.225 1015.89 130.528 1016.37 129.424C1025.2 129.056 1033.57 129.096 1041.95 129.136Z" fill="#009193"/>
<path d="M1045.11 166.783C1044.86 166.223 1044.92 165.724 1044.97 165.225C1045.42 165.339 1045.87 165.452 1046.32 165.566C1046.01 165.992 1045.71 166.418 1045.11 166.783Z" fill="#007888"/>
<path d="M996.256 135.991C996.804 135.499 997.692 135.006 998.749 134.748C998.145 135.319 997.37 135.655 996.256 135.991Z" fill="#008788"/>
<path d="M1050.52 166.035C1050.13 166.277 1049.73 166.275 1049.34 166.245C1049.33 166.244 1049.34 165.938 1049.34 165.774C1049.74 165.779 1050.13 165.783 1050.52 166.035Z" fill="#007888"/>
<path d="M780.063 127.839C777.055 119.821 774.047 111.803 771.057 103.393C771.075 103.002 771.499 102.999 771.711 102.997C779.402 100.825 784.141 101.661 793.139 110.406C798.348 115.469 798.802 122.491 804.54 127.24C800.877 129.175 797.955 130.72 794.971 132.618C793.198 132.976 791.487 132.978 788.972 132.983C787.415 132.994 786.662 133.003 785.909 133.012C784.198 132.177 782.487 131.342 780.772 129.876C780.533 128.777 780.298 128.308 780.063 127.839Z" fill="#A001D4"/>
<path d="M779.873 128.255C780.298 128.308 780.533 128.777 780.672 129.511C779.612 129.821 778.648 129.867 777.004 129.954C775.843 130.326 775.362 130.656 774.88 130.987C764.526 130.658 754.171 130.329 743.344 130.036C741.218 130.034 739.565 129.995 737.504 129.945C737.037 129.223 736.977 128.512 736.942 127.444C736.967 127.087 737.357 127.044 737.553 127.036C738.471 127.682 739.193 128.905 739.916 128.905C753.171 128.914 766.426 128.777 779.873 128.255Z" fill="#580078"/>
<path d="M785.988 133.386C786.662 133.003 787.415 132.994 788.544 132.986C789.796 133.488 790.671 133.989 791.73 134.743C789.964 134.584 788.016 134.172 785.988 133.386Z" fill="#8600B3"/>
<path d="M775.144 131.075C775.361 130.656 775.843 130.326 776.637 129.978C776.435 130.361 775.921 130.762 775.144 131.075Z" fill="#A001D4"/>
<path d="M607.972 98.3698C608.221 97.9098 608.484 97.7226 608.803 97.2397C610.123 97.5048 611.332 97.987 612.727 98.7396C611.289 98.9136 609.665 98.8174 607.972 98.3698Z" fill="#7D00B0"/>
<path d="M626.602 96.9966C627.224 97.0814 627.49 97.2732 627.806 97.7705C627.038 98.1594 626.158 98.3256 625.098 98.2399C625.379 97.6655 625.843 97.3431 626.602 96.9966Z" fill="#7D00B0"/>
<path d="M654.805 85.6528C654.938 86.1296 654.931 86.3033 654.92 86.7379C648.139 92.6677 640.623 96.7794 631.32 97.9844C633.972 95.3971 637.086 92.8723 640.085 90.2173C643.844 86.8893 647.508 83.4544 651.559 80.0317C652.825 81.7819 653.745 83.5658 654.805 85.6528Z" fill="#7D00B0"/>
<path d="M576.16 86.2853C577.056 86.0314 578.189 85.8108 579.015 86.2159C584.872 89.0887 590.586 92.2683 596.518 94.9707C599.277 96.2275 602.421 96.6372 605.654 97.7199C604.366 98.3306 602.804 98.9684 601.267 98.9158C596.404 98.7493 591.55 98.3245 586.274 98.0122C582.655 94.2193 579.455 90.4137 576.16 86.2853Z" fill="#7D00B0"/>
<path d="M1026.67 69.1606C1025.4 74.7926 1023.75 80.5561 1021.52 86.6556C1015.6 88.9878 1010.26 90.984 1004.92 92.9802C1001.87 83.6305 1009.01 72.2165 1018.6 70.9408C1021.19 70.5962 1023.73 69.8527 1026.67 69.1606Z" fill="#027774"/>
<path d="M1035.25 87.0012C1033.13 81.5987 1031.01 76.1963 1028.84 70.4106C1033.13 73.1579 1037.16 76.9201 1041.89 79.2415C1046.65 81.5725 1052.11 82.4581 1057.26 83.9999C1058.43 84.3521 1059.58 84.7976 1060.83 85.5891C1057.54 86.3225 1054.17 86.6671 1049.95 86.9577C1044.48 86.9363 1039.87 86.9688 1035.25 87.0012Z" fill="#027774"/>
<path d="M1004.73 93.2506C1010.26 90.9842 1015.6 88.988 1021.35 86.9927C1020.87 90.1021 1019.98 93.2107 1018.93 96.6766C1013.12 97.3436 1007.47 97.6534 1001.35 97.9382C1002.11 96.4491 1003.32 94.985 1004.73 93.2506Z" fill="#008C82"/>
<path d="M988.183 86.7684C990.043 75.0025 997.401 66.6421 1007.56 65.002C1003.02 70.7335 998.091 76.4596 993.001 82.4658C991.386 84.0436 989.931 85.3413 988.183 86.7684Z" fill="#6B0090"/>
<path d="M1010.84 62.4498C1011.38 62.1379 1011.79 62.0712 1012.84 62.118C1017.3 63.4978 1021.12 64.764 1024.94 66.0302C1025.31 66.5246 1025.68 67.019 1026.7 68.3798C1020.33 67.2958 1014.77 66.3485 1009.01 65.101C1009.44 64.0989 1010.07 63.397 1010.84 62.4498Z" fill="#008788"/>
<path d="M1025.23 66.0033C1021.12 64.7639 1017.3 63.4976 1013.14 62.0801C1012.95 61.0349 1013.1 60.141 1013.56 59.0806C1018.06 60.7681 1022.26 62.6221 1026.7 64.7701C1026.47 65.3683 1026 65.6724 1025.23 66.0033Z" fill="#019B97"/>
<path d="M1031.66 64.9912C1031.91 65.15 1031.91 65.3207 1031.91 65.7475C1031.59 65.9113 1031.32 65.7334 1031 65.2592C1031.05 65.0332 1031.22 65.0181 1031.66 64.9912Z" fill="#009193"/>
<path d="M1035.27 87.3771C1039.87 86.9689 1044.48 86.9365 1049.51 86.9688C1048.48 88.3652 1047.22 90.0039 1045.56 90.9567C1043.04 92.3982 1040.26 93.3621 1037.32 94.7489C1036.47 92.5635 1035.88 90.1582 1035.27 87.3771Z" fill="#009193"/>
<path d="M978.847 38.9305C978.863 39.6571 978.879 40.3837 978.861 41.471C960.01 41.878 941.194 41.9157 922.379 41.9829C920.392 41.99 918.406 42.1697 916.176 42.6157C915.592 44.4984 914.962 46.034 914.959 47.571C914.906 70.4198 914.936 93.2686 914.996 116.59C915.045 117.062 914.907 117.5 914.519 117.776C911.041 120.188 907.952 122.325 904.481 124.26C904.626 120.538 905.124 117.012 905.69 113.497C906.061 111.191 907.526 108.464 906.75 106.694C905.153 103.052 895.579 100.018 891.508 100.568C886.039 101.307 880.504 101.56 874.998 102.021C874.976 83.9962 874.966 65.9711 874.917 47.9462C874.912 46.1467 874.677 44.3477 874.238 42.2646C872.208 41.6507 870.49 41.0402 868.769 41.0337C849.486 40.9608 830.204 40.9809 810.46 40.9568C809.965 29.2703 809.93 17.6028 809.92 5.46789C828.98 5.00509 848.014 5.00973 867.538 5.419C874.914 12.5048 881.716 19.2754 888.756 25.7892C890.102 27.0341 892.373 27.8355 894.235 27.8708C903.639 28.0488 913.127 28.6603 922.438 27.696C935.911 26.3008 948.747 26.6349 961.184 32.9305C966.676 35.711 972.936 36.9769 978.847 38.9305Z" fill="#7800A5"/>
<path d="M978.875 38.4683C972.936 36.9773 966.677 35.7113 961.184 32.9309C948.747 26.6352 935.911 26.3011 922.438 27.6963C913.127 28.6606 903.639 28.0492 894.235 27.8711C892.373 27.8359 890.102 27.0344 888.756 25.7895C881.717 19.2757 874.915 12.5052 868.006 5.49239C904.618 5.11199 941.253 5.06307 978.346 5.06551C978.836 16.0799 978.87 27.0429 978.875 38.4683Z" fill="#9900D4"/>
<path d="M874.975 102.486C880.504 101.56 886.039 101.307 891.508 100.568C895.579 100.018 905.153 103.052 906.75 106.694C907.527 108.464 906.061 111.191 905.69 113.497C905.124 117.012 904.626 120.538 904.23 124.514C902.155 127.301 899.95 129.634 897.288 131.974C889.551 132.643 882.27 133.302 874.989 133.962C874.977 123.625 874.965 113.289 874.975 102.486ZM898.635 123.189C898.631 121.259 898.766 119.316 898.597 117.401C898.135 112.188 902.306 105.813 895.078 102.225C890.863 103.851 887.975 106.599 888.036 111.052C888.103 115.983 888.735 120.927 889.465 125.815C889.677 127.228 891.231 129.643 891.894 129.554C893.634 129.32 895.365 128.137 896.814 126.976C897.637 126.317 897.897 124.957 898.635 123.189Z" fill="#8600B3"/>
<path d="M874.977 163.949C874.943 157.957 874.908 151.965 874.866 145.512C874.888 144.273 874.917 143.496 875.31 142.31C882.086 138.32 887.817 132.965 895.966 134.365C895.761 135.069 895.622 135.466 895.221 136.051C888.586 142.642 885.268 150.804 881.619 159.128C880.811 160.537 880.264 161.743 879.368 162.965C877.672 163.303 876.325 163.626 874.977 163.949Z" fill="#6B0090"/>
<path d="M896.031 134.057C887.817 132.966 882.087 138.32 875.328 141.923C874.967 139.581 874.951 137.217 874.962 134.408C882.27 133.303 889.551 132.643 897.204 132.235C897.321 132.969 897.066 133.451 896.615 133.961C896.42 133.988 896.031 134.057 896.031 134.057Z" fill="#7800A5"/>
<path d="M914.83 191.488C903.322 191.961 891.867 191.774 880.426 192.082C876.069 192.2 874.268 191.027 874.887 186.556C875.18 184.439 874.95 182.249 874.975 179.646C874.993 179.199 874.97 178.98 875.187 178.768C875.859 178.012 876.314 177.467 877.093 176.815C888.036 167.092 900.897 163.191 914.831 162.022C914.85 171.69 914.87 181.358 914.83 191.488Z" fill="#007888"/>
<path d="M881.88 158.926C885.268 150.804 888.586 142.642 895.638 136.113C902.488 137.645 908.659 139.304 914.83 140.963C914.845 143.338 914.86 145.712 914.49 148.581C904.224 152.612 894.352 156.179 884.438 159.622C883.749 159.861 882.74 159.179 881.88 158.926Z" fill="#016D86"/>
<path d="M881.619 159.128C882.74 159.179 883.749 159.861 884.438 159.622C894.352 156.179 904.224 152.612 914.466 149.025C914.844 153.013 914.863 157.052 914.856 161.556C900.897 163.191 888.036 167.092 877.126 176.403C877.796 171.716 878.756 167.333 879.717 162.95C880.264 161.744 880.811 160.537 881.619 159.128Z" fill="#00617E"/>
<path d="M896.811 133.933C897.066 133.451 897.321 132.969 897.661 132.226C899.95 129.634 902.155 127.302 904.611 124.716C907.952 122.325 911.041 120.188 914.469 118C914.847 122.651 914.887 127.353 914.432 132.522C908.229 133.305 902.52 133.619 896.811 133.933Z" fill="#018B97"/>
<path d="M896.615 133.96C902.52 133.619 908.229 133.305 914.396 132.987C914.867 135.349 914.881 137.716 914.863 140.523C908.659 139.304 902.488 137.645 895.901 135.925C895.623 135.466 895.761 135.069 895.966 134.365C896.032 134.057 896.42 133.988 896.615 133.96Z" fill="#01789B"/>
<path d="M879.368 162.965C878.756 167.333 877.796 171.715 876.802 176.511C876.314 177.468 875.859 178.012 875.16 178.661C874.919 174.14 874.922 169.515 874.951 164.419C876.325 163.626 877.672 163.303 879.368 162.965Z" fill="#580078"/>
<path d="M1009.03 128.133C1022.14 127.733 1035.4 127.725 1048.86 127.308C1048.73 127.593 1048.47 128.824 1048.04 128.886C1046.32 129.138 1044.55 129.028 1042.37 129.094C1033.57 129.096 1025.2 129.057 1016.36 129.075C1013.65 128.93 1011.42 128.727 1009.03 128.133Z" fill="#003E45"/>
<path d="M898.523 123.551C897.897 124.958 897.637 126.318 896.814 126.977C895.365 128.138 893.634 129.32 891.894 129.554C891.231 129.644 889.677 127.229 889.465 125.815C888.735 120.928 888.102 115.983 888.036 111.052C887.975 106.599 890.863 103.851 895.078 102.226C902.306 105.813 898.135 112.189 898.597 117.401C898.766 119.317 898.631 121.259 898.523 123.551Z" fill="#9000C2"/>
</svg>
