<svg xmlns="http://www.w3.org/2000/svg" viewBox="0 0 587.47 573.25"><defs><style>.cls-1{fill:#32f4b8;}.cls-2,.cls-4,.cls-5{fill:none;}.cls-2{stroke:#fff;}.cls-2,.cls-3,.cls-4,.cls-5{stroke-linecap:round;stroke-linejoin:round;stroke-width:13px;}.cls-3{fill:#fff;}.cls-3,.cls-5{stroke:#000;}.cls-4{stroke:#010101;}</style></defs><g id="Layer_2" data-name="Layer 2"><g id="Layer_1-2" data-name="Layer 1"><rect class="cls-1" x="26.89" y="215.22" width="308.85" height="357.47" rx="19.87"/><rect x="84.6" y="318.99" width="19.94" height="19.94"/><rect x="84.6" y="395.7" width="19.94" height="19.94"/><rect x="84.6" y="472.41" width="19.94" height="19.94"/><rect class="cls-1" x="245.55" y="263.85" width="308.85" height="308.85" rx="18.47"/><rect x="478.53" y="367.51" width="19.94" height="19.94"/><rect x="478.53" y="444.22" width="19.94" height="19.94"/><polyline class="cls-2" points="480.22 285.29 533.13 285.29 533.13 318.99"/><line class="cls-2" x1="533.13" y1="343.4" x2="533.13" y2="349.61"/><path class="cls-3" d="M191.25,118.23c-23.87,0-43.21,18.67-43.21,41.7V566.75H432.67V159.93c0-23-19.35-41.7-43.21-41.7H230.23"/><rect class="cls-1" x="196.64" y="248.66" width="74.25" height="74.25" rx="5.73"/><rect class="cls-1" x="313.09" y="248.66" width="74.25" height="74.25" rx="5.73"/><rect class="cls-1" x="196.64" y="352.6" width="74.25" height="74.25" rx="5.73"/><rect class="cls-1" x="313.09" y="352.6" width="74.25" height="74.25" rx="5.73"/><path class="cls-4" d="M355.56,144.24H391.9a16.57,16.57,0,0,1,16.57,16.57v17.13"/><line class="cls-4" x1="408.47" y1="202.35" x2="408.47" y2="208.56"/><line class="cls-5" x1="490.7" y1="6.5" x2="490.1" y2="47.17"/><line class="cls-5" x1="510.73" y1="27.13" x2="470.07" y2="26.54"/><line class="cls-5" x1="67.85" y1="113.97" x2="67.26" y2="154.64"/><line class="cls-5" x1="87.89" y1="134.61" x2="47.22" y2="134.01"/><circle class="cls-1" cx="543.46" cy="181.83" r="10.33"/><circle class="cls-1" cx="154.04" cy="14.9" r="8.16"/><line class="cls-3" x1="6.5" y1="566.75" x2="580.97" y2="566.75"/></g></g></svg>