<svg width="140" height="42" viewBox="0 0 140 42" fill="none" xmlns="http://www.w3.org/2000/svg">
<g clip-path="url(#clip0_1166_2071)">
<path d="M57.0578 9.42469C54.8692 21.3363 51.9989 29.983 48.4111 35.3648C45.6198 39.5267 42.5629 41.6076 39.2262 41.6076C38.34 41.6076 37.2457 41.3396 35.9469 40.8075V37.9373C36.582 38.0305 37.3247 38.0801 38.1822 38.0801C39.7357 38.0801 40.9879 37.6495 41.9494 36.792C43.0903 35.7444 43.6608 34.5676 43.6608 33.2652C43.6608 32.3754 43.2159 30.5456 42.3297 27.7758L36.4456 9.40603H41.7198L45.9534 23.1475C46.9042 26.2653 47.3025 28.4575 47.141 29.6773C49.4552 23.4704 51.0876 16.7252 51.9846 9.40603H57.0793M33.7584 33.1575H28.3766C28.1875 24.0803 27.6626 15.5054 26.8087 7.50448H26.7614L18.5811 33.1575H14.4909L6.34654 7.50448H6.29846C5.6957 15.1825 5.31539 23.7574 5.15753 33.1575H0.242188C0.558635 21.7123 1.35083 10.9847 2.61734 0.974609H9.29072L17.0405 24.6185H17.0882L24.8738 0.974609H31.2601C32.6558 12.7068 33.481 23.4345 33.7322 33.1575" fill="black"/>
<path d="M128.814 33.1768H113.566V0.99389H118.696V29.2302H128.814V33.1768ZM90.4242 26.7546C89.1254 24.6557 88.4724 21.3011 88.4724 16.6369C88.4724 8.52836 90.9301 4.4741 95.8275 4.4741C98.3964 4.4741 100.276 5.44281 101.496 7.38025C102.795 9.47913 103.448 12.8338 103.448 17.3903C103.448 25.5706 100.99 29.6607 96.093 29.6607C93.5241 29.6607 91.6441 28.692 90.4242 26.751M109.547 33.9626L103.663 31.0456C104.187 30.6151 104.689 30.1487 105.138 29.6069C107.642 26.6541 108.905 22.2877 108.905 16.5113C108.905 5.85541 104.743 0.54541 96.3836 0.54541C92.2935 0.54541 89.1003 1.89444 86.8399 4.59967C84.332 7.55605 83.0727 11.9189 83.0727 17.6594C83.0727 23.3282 84.1814 27.4542 86.4022 30.1092C88.4258 32.4915 91.497 33.6863 95.5871 33.6863C97.1155 33.6863 98.5148 33.4976 99.7849 33.1194L107.463 37.6042L109.558 33.9805M80.8554 24.2933C80.8554 27.0237 79.8544 29.2804 77.8596 31.0026C75.8647 32.7499 73.1954 33.6217 69.8228 33.6217C66.6835 33.6217 63.6517 32.6135 60.6738 30.6151L62.0516 27.8489C64.5882 29.119 66.8951 29.754 68.9402 29.754C70.8741 29.754 72.3881 29.3235 73.4968 28.4696C74.5875 27.6121 75.244 26.4137 75.244 24.8961C75.244 22.9838 73.913 21.3513 71.4768 19.9807C69.2237 18.7429 64.7317 16.1418 64.7317 16.1418C62.2919 14.3586 61.0721 12.4463 61.0721 9.28898C61.0721 6.68062 61.9834 4.58891 63.806 2.97438C65.6322 1.36703 67.9679 0.563349 70.8741 0.563349C73.8556 0.563349 76.5787 1.35985 79.0185 2.94926L77.7771 5.7119C75.6889 4.8257 73.6152 4.37722 71.606 4.37722C69.9592 4.37722 68.6891 4.77547 67.8029 5.57198C66.9131 6.3613 66.3641 7.38025 66.3641 8.62164C66.3641 10.5268 67.7239 12.1808 70.239 13.5729C72.5173 14.8143 77.1277 17.4477 77.1277 17.4477C79.6356 19.2273 80.8949 21.1432 80.8949 24.2646" fill="black"/>
<path d="M131.686 33.1766H132.537V29.9009H133.649V29.2336H130.527V29.9009H131.683L131.686 33.1766ZM138.18 33.1766H138.984V29.23H137.778L136.795 31.9173L135.726 29.23H134.564V33.1766H135.324V30.1736H135.367L136.487 33.1766H137.064L138.184 30.1736V33.1766" fill="black"/>
</g>
<defs>
<clipPath id="clip0_1166_2071">
<rect width="140" height="41.2602" fill="white" transform="translate(0 0.516113)"/>
</clipPath>
</defs>
</svg>
