<svg width="178" height="48" viewBox="0 0 178 48" fill="none" xmlns="http://www.w3.org/2000/svg">
<g clip-path="url(#clip0_1530_1109)">
<path d="M105.624 20.642H110.326V37.4345H105.624V35.2514C103.945 37.7703 101.761 37.9382 100.418 37.9382C95.2124 37.9382 91.8539 33.9081 91.8539 29.0382C91.8539 24.0005 95.2124 20.1382 100.082 20.1382C101.426 20.1382 103.945 20.3062 105.456 22.825V20.642H105.624ZM96.8917 29.0382C96.8917 31.725 98.7388 33.7401 101.594 33.7401C104.28 33.7401 106.295 31.725 106.295 29.0382C106.295 26.3514 104.448 24.3364 101.594 24.3364C98.9068 24.3364 96.8917 26.3514 96.8917 29.0382ZM119.561 24.6722V37.4345H114.86V24.6722H113.012V20.642H114.86V14.9326H119.561V20.642H122.752V24.6722H119.561ZM133.835 24.6722C132.66 23.6647 131.652 23.4967 131.148 23.4967C129.973 23.4967 129.301 24.0005 129.301 24.8401C129.301 25.3439 129.469 25.8477 130.812 26.3514L131.988 26.6873C133.331 27.1911 135.346 27.6948 136.186 29.0382C136.69 29.7099 137.026 30.7175 137.026 31.893C137.026 33.4043 136.522 34.9156 135.178 36.0911C133.835 37.2665 132.156 37.9382 130.141 37.9382C126.614 37.9382 124.767 36.259 123.592 35.0835L126.111 32.2288C127.118 33.2364 128.461 34.2439 129.805 34.2439C131.148 34.2439 132.156 33.5722 132.156 32.3967C132.156 31.3892 131.316 30.8854 130.645 30.7175L129.637 30.3816C128.461 29.8779 127.118 29.3741 126.111 28.3665C125.271 27.5269 124.767 26.5194 124.767 25.176C124.767 23.4967 125.607 22.1533 126.446 21.3137C127.79 20.3062 129.469 20.1382 130.812 20.1382C131.988 20.1382 134.003 20.3062 136.186 21.9854L133.835 24.6722ZM144.078 22.825C145.758 20.4741 148.109 20.1382 149.452 20.1382C154.322 20.1382 157.68 24.0005 157.68 29.0382C157.68 34.076 154.322 37.9382 149.284 37.9382C148.277 37.9382 145.758 37.7703 143.911 35.2514V37.4345H139.377V9.22314H144.078V22.825ZM143.575 29.0382C143.575 31.725 145.422 33.7401 148.277 33.7401C150.963 33.7401 152.978 31.725 152.978 29.0382C152.978 26.3514 151.131 24.3364 148.277 24.3364C145.422 24.3364 143.575 26.3514 143.575 29.0382ZM165.405 34.9156L157.344 20.642H162.886L168.092 30.2137L172.794 20.642H178.167L164.733 46.3345H159.36L165.405 34.9156ZM90.6785 23.4967H78.9238V28.1986H85.137C84.1294 31.3892 81.7785 33.5722 77.4124 33.5722C72.5426 33.5722 69.0162 29.542 69.0162 24.6722C69.0162 19.8024 72.3747 15.6043 77.2445 15.6043C79.9313 15.6043 82.6181 16.9477 84.2973 19.1307L88.1596 16.6118C85.6407 13.0854 81.6105 11.0703 77.2445 11.0703C69.8558 11.0703 63.8105 17.1156 63.8105 24.6722C63.8105 32.2288 69.52 38.2741 77.2445 38.2741C84.969 38.2741 90.6785 32.2288 90.6785 24.6722C90.8464 24.1684 90.6785 23.8326 90.6785 23.4967Z" fill="black"/>
<path d="M41.9805 24H30.2258V27.3585H38.2862C37.1107 32.3962 33.4164 36.5944 28.5465 38.2736L9.23522 18.9623C11.2503 13.0849 16.9598 8.88681 23.5088 8.88681C28.5465 8.88681 33.0805 11.4057 35.9352 15.2679L38.4541 13.0849C35.0956 8.55096 29.722 5.52832 23.5088 5.52832C14.7767 5.52832 7.38805 11.7415 5.54088 19.9698L27.7069 42.1359C35.7673 40.1208 41.9805 32.7321 41.9805 24ZM5.03711 24.1679C5.03711 28.8698 6.88428 33.4038 10.4107 36.9302C13.9371 40.4566 18.639 42.3038 23.173 42.3038L5.03711 24.1679Z" fill="white"/>
<path d="M23.5094 0.490723C10.5792 0.490723 0 11.07 0 24.0002C0 36.9303 10.5792 47.5096 23.5094 47.5096C36.4396 47.5096 47.0189 36.9303 47.0189 24.0002C47.0189 11.07 36.4396 0.490723 23.5094 0.490723ZM10.4113 37.0983C6.88491 33.5719 5.03774 28.87 5.03774 24.336L23.3415 42.4719C18.6396 42.3039 13.9377 40.6247 10.4113 37.0983ZM27.5396 41.9681L5.54151 19.97C7.38868 11.7417 14.7774 5.52846 23.5094 5.52846C29.7226 5.52846 35.0962 8.5511 38.4547 13.0851L35.9358 15.2681C33.0811 11.4058 28.5472 8.88695 23.5094 8.88695C16.9604 8.88695 11.4189 13.0851 9.23585 18.9624L28.5472 38.2737C33.417 36.5945 37.1113 32.3964 38.2868 27.3586H30.2264V24.0002H41.9811C41.9811 32.7322 35.7679 40.1209 27.5396 41.9681Z" fill="black"/>
</g>
<defs>
<clipPath id="clip0_1530_1109">
<rect width="178" height="47.0189" fill="white" transform="translate(0 0.490723)"/>
</clipPath>
</defs>
</svg>
