<svg width="96" height="125" viewBox="0 0 96 125" fill="none" xmlns="http://www.w3.org/2000/svg">
<g id="Group 401">
<path id="Fill 1" fill-rule="evenodd" clip-rule="evenodd" d="M75.293 29.0468C59.1128 7.8283 34.8219 13.409 22.7805 24.8975C9.94119 37.1466 9.85578 62.9794 23.191 73.6706C25.3303 75.3849 27.1062 77.0993 28.5868 78.7701C31.9231 78.671 35.3172 78.4133 38.6179 78.0753C40.47 77.8852 41.9329 78.3468 43.8045 78.3898C45.5695 78.4293 47.6395 77.6578 49.4091 77.6864C54.7327 77.7723 60.0455 78.175 65.0172 79.9117C67.0533 77.5215 69.3801 75.2681 71.2047 73.6116C75.3985 69.8037 78.6814 65.0644 80.522 59.7088C86.4591 42.4352 75.293 29.0468 75.293 29.0468Z" fill="#36F2B9"/>
<g id="Group 5">
<mask id="mask0_1221_2281" style="mask-type:luminance" maskUnits="userSpaceOnUse" x="23" y="31" width="48" height="94">
<path id="Clip 4" fill-rule="evenodd" clip-rule="evenodd" d="M23.4648 31.9233H70.2827V124.664H23.4648V31.9233Z" fill="white"/>
</mask>
<g mask="url(#mask0_1221_2281)">
<path id="Fill 3" fill-rule="evenodd" clip-rule="evenodd" d="M66.5633 96.0213C66.5633 96.9871 65.7768 97.7724 64.8109 97.7724H64.5896H31.413H29.6801C28.7136 97.7724 27.9277 96.9871 27.9277 96.0213V95.5791C27.9277 94.6134 28.7136 93.8281 29.6801 93.8281H64.8109C65.7768 93.8281 66.5633 94.6134 66.5633 95.5791V96.0213ZM54.9437 115.546C49.4361 113.046 44.1439 114.48 41.7369 115.411C37.5873 110.173 34.7371 103.762 33.4863 100.637H62.8131C61.2539 107.022 58.0191 112.004 54.9437 115.546ZM66.5633 88.7706V89.2127C66.5633 90.1785 65.7768 90.9643 64.8109 90.9643H29.6801C28.7136 90.9643 27.9277 90.1785 27.9277 89.2127V88.7706C27.9277 87.8048 28.7136 87.0195 29.6801 87.0195H64.8109C65.7768 87.0195 66.5633 87.8048 66.5633 88.7706ZM27.9277 81.962C27.9277 80.9968 28.7136 80.2109 29.6801 80.2109H64.8109C65.7768 80.2109 66.5633 80.9968 66.5633 81.962V82.4053C66.5633 83.3704 65.7768 84.1557 64.8109 84.1557H29.6801C28.7136 84.1557 27.9277 83.3704 27.9277 82.4053V81.962ZM31.8491 61.9765C27.0139 55.7176 25.1027 47.6189 27.093 41.8246C28.2842 38.3575 30.8351 36.0308 34.47 35.0954C37.9919 34.1893 40.9424 35.4706 42.7962 36.7067C43.5959 37.24 44.3411 37.8557 45.0232 38.5402C42.5555 41.8326 40.4998 46.3095 40.6225 50.4623C40.7395 54.4031 43.8464 56.4411 46.8886 56.4411C46.9201 56.4411 46.9522 56.4411 46.9837 56.4405C49.8407 56.4004 52.7356 54.4283 52.7413 50.7349C52.7482 46.2397 51.3008 41.9214 48.7797 38.5293C49.5203 37.7423 50.2535 37.1203 50.9161 36.7279L51.557 36.3252C54.0403 34.86 56.7087 34.4344 59.2756 35.0954C62.9105 36.0308 65.4614 38.3575 66.6526 41.8246C68.6429 47.6189 66.7317 55.7176 61.8959 61.9765C58.2793 66.6585 56.594 72.3824 55.8351 77.3468H37.9117C37.1527 72.383 35.4663 66.6585 31.8491 61.9765ZM46.919 40.8496C48.8078 43.6511 49.8815 47.1194 49.8757 50.7308C49.8729 52.8015 48.2948 53.5575 46.9442 53.5764C46.9264 53.577 46.9081 53.577 46.8898 53.577C45.2864 53.577 43.5535 52.5832 43.4882 50.3768C43.3965 47.2757 44.9797 43.65 46.919 40.8496ZM64.8089 77.347H58.7269C59.4555 72.8718 60.9992 67.8255 64.1658 63.7266C69.5656 56.7374 71.6545 47.5619 69.3644 40.8952C67.8454 36.4738 64.6043 33.5091 59.9915 32.3222C56.6736 31.4676 53.2536 32.0003 50.067 33.8797L49.4244 34.2835C48.6276 34.7555 47.7586 35.4657 46.8873 36.3558C46.1174 35.602 45.2822 34.9204 44.3874 34.3241C41.0328 32.0891 37.3561 31.3966 33.7556 32.3222C29.1433 33.5091 25.9022 36.4738 24.3832 40.8952C22.0931 47.5619 24.182 56.7374 29.5813 63.7266C32.7484 67.8255 34.2916 72.8718 35.0201 77.347H29.6781C27.1313 77.347 25.0596 79.4177 25.0596 81.962V82.4053C25.0596 83.6391 25.5497 84.7589 26.3419 85.5878C25.5497 86.416 25.0596 87.5364 25.0596 88.7708V89.213C25.0596 90.4473 25.5497 91.5677 26.3419 92.3965C25.5497 93.2248 25.0596 94.3446 25.0596 95.5795V96.0217C25.0596 98.566 27.1313 100.637 29.6781 100.637H30.4044C31.8845 104.595 37.9345 119.312 47.8142 124.5C48.0234 124.609 48.2521 124.664 48.4809 124.664C48.7417 124.664 49.0014 124.593 49.2307 124.452C49.7747 124.118 62.3119 116.257 65.7714 100.534C67.8574 100.09 69.4275 98.2361 69.4275 96.0217V95.5795C69.4275 94.3446 68.9374 93.2248 68.1446 92.3965C68.9374 91.5677 69.4275 90.4473 69.4275 89.213V88.7708C69.4275 87.5364 68.9374 86.416 68.1452 85.5878C68.9374 84.7589 69.4275 83.6391 69.4275 82.4053V81.962C69.4275 79.4177 67.3558 77.347 64.8089 77.347Z" fill="black"/>
</g>
</g>
<path id="Fill 6" fill-rule="evenodd" clip-rule="evenodd" d="M75.8203 75.9307L80.9439 80.6969L75.8203 75.9307Z" fill="white"/>
<path id="Fill 8" fill-rule="evenodd" clip-rule="evenodd" d="M80.9432 82.1294C80.5935 82.1294 80.2427 82.0022 79.9669 81.7456L74.8434 76.9788C74.2638 76.4393 74.2317 75.5331 74.7711 74.9546C75.3105 74.3755 76.2174 74.344 76.7964 74.8824L81.92 79.6492C82.4995 80.1882 82.5316 81.0943 81.9922 81.6734C81.7102 81.9759 81.3267 82.1294 80.9432 82.1294Z" fill="black"/>
<path id="Fill 10" fill-rule="evenodd" clip-rule="evenodd" d="M84.832 63.043L90.6624 65.868L84.832 63.043Z" fill="white"/>
<path id="Fill 12" fill-rule="evenodd" clip-rule="evenodd" d="M90.6609 67.3007C90.4511 67.3007 90.2384 67.2543 90.0366 67.1564L84.2068 64.3314C83.4949 63.9871 83.1968 63.1303 83.5424 62.4188C83.8881 61.7074 84.7445 61.409 85.4571 61.755L91.2874 64.58C91.9994 64.9248 92.2969 65.7817 91.9512 66.4931C91.7036 67.0029 91.1929 67.3007 90.6609 67.3007Z" fill="black"/>
<path id="Fill 16" fill-rule="evenodd" clip-rule="evenodd" d="M94.5673 49.4421H87.7475C86.9559 49.4421 86.3145 48.8011 86.3145 48.0101C86.3145 47.2191 86.9559 46.5781 87.7475 46.5781H94.5673C95.359 46.5781 96.0004 47.2191 96.0004 48.0101C96.0004 48.8011 95.359 49.4421 94.5673 49.4421Z" fill="black"/>
<path id="Fill 18" fill-rule="evenodd" clip-rule="evenodd" d="M84.5371 32.7984L91.1568 30.0244L84.5371 32.7984Z" fill="white"/>
<path id="Fill 20" fill-rule="evenodd" clip-rule="evenodd" d="M84.5376 34.2307C83.9775 34.2307 83.4455 33.9008 83.2151 33.3521C82.9096 32.6223 83.2529 31.7838 83.9827 31.4773L90.603 28.7039C91.3327 28.3997 92.1725 28.7411 92.4786 29.4703C92.7847 30.2 92.4413 31.0392 91.711 31.345L85.0913 34.119C84.9102 34.1947 84.7221 34.2307 84.5376 34.2307Z" fill="black"/>
<path id="Fill 22" fill-rule="evenodd" clip-rule="evenodd" d="M75.7598 20.0918L80.9539 15.1704L75.7598 20.0918Z" fill="white"/>
<path id="Fill 24" fill-rule="evenodd" clip-rule="evenodd" d="M75.7597 21.5245C75.3802 21.5245 75.0013 21.3744 74.7198 21.0783C74.1747 20.5044 74.1988 19.5976 74.7732 19.0535L79.9672 14.1315C80.5416 13.5879 81.4485 13.6125 81.9936 14.1853C82.5382 14.7587 82.5141 15.6654 81.9398 16.2101L76.7457 21.1316C76.4682 21.3939 76.114 21.5245 75.7597 21.5245Z" fill="black"/>
<path id="Fill 26" fill-rule="evenodd" clip-rule="evenodd" d="M62.8633 11.3226L65.6395 5.05859L62.8633 11.3226Z" fill="white"/>
<path id="Fill 28" fill-rule="evenodd" clip-rule="evenodd" d="M62.864 12.7561C62.6703 12.7561 62.4731 12.7166 62.2845 12.6329C61.561 12.3127 61.2343 11.4667 61.5547 10.7433L64.3309 4.47984C64.6514 3.75697 65.4986 3.43163 66.2209 3.7501C66.9449 4.07086 67.2716 4.9163 66.9512 5.63974L64.175 11.9038C63.9383 12.4376 63.4137 12.7561 62.864 12.7561Z" fill="black"/>
<path id="Fill 32" fill-rule="evenodd" clip-rule="evenodd" d="M47.8198 10.0702C47.0282 10.0702 46.3867 9.42928 46.3867 8.63825V1.43198C46.3867 0.640953 47.0282 0 47.8198 0C48.6114 0 49.2529 0.640953 49.2529 1.43198V8.63825C49.2529 9.42928 48.6114 10.0702 47.8198 10.0702Z" fill="black"/>
<path id="Fill 34" fill-rule="evenodd" clip-rule="evenodd" d="M32.8641 11.6806L30.0879 5.05859L32.8641 11.6806Z" fill="white"/>
<path id="Fill 36" fill-rule="evenodd" clip-rule="evenodd" d="M32.8661 13.1135C32.3055 13.1135 31.7741 12.783 31.5437 12.2342L28.7681 5.61277C28.462 4.88361 28.8059 4.04447 29.5356 3.73917C30.2642 3.43216 31.1052 3.77698 31.4113 4.50671L34.1875 11.1276C34.493 11.8573 34.1491 12.6959 33.4193 13.0018C33.2382 13.078 33.0507 13.1135 32.8661 13.1135Z" fill="black"/>
<path id="Fill 38" fill-rule="evenodd" clip-rule="evenodd" d="M20.0609 20.0025L14.7773 14.9023L20.0609 20.0025Z" fill="white"/>
<path id="Fill 40" fill-rule="evenodd" clip-rule="evenodd" d="M20.0583 21.4344C19.7001 21.4344 19.3412 21.3009 19.0626 21.0323L13.7791 15.9316C13.2099 15.3823 13.1944 14.4755 13.7441 13.9062C14.2939 13.338 15.2019 13.3225 15.7711 13.8718L21.0546 18.9725C21.6233 19.5218 21.6393 20.4286 21.089 20.9973C20.8081 21.2883 20.4332 21.4344 20.0583 21.4344Z" fill="black"/>
<path id="Fill 42" fill-rule="evenodd" clip-rule="evenodd" d="M11.3735 32.7984L4.92578 30.1138L11.3735 32.7984Z" fill="white"/>
<path id="Fill 44" fill-rule="evenodd" clip-rule="evenodd" d="M11.3724 34.2306C11.1884 34.2306 11.0021 34.1951 10.8221 34.1201L4.37434 31.4354C3.64404 31.1312 3.29837 30.2927 3.60276 29.5629C3.90715 28.8326 4.7458 28.4884 5.47667 28.792L11.9239 31.4761C12.6547 31.7808 13.0004 32.6194 12.696 33.3491C12.4667 33.899 11.9336 34.2306 11.3724 34.2306Z" fill="black"/>
<path id="Fill 48" fill-rule="evenodd" clip-rule="evenodd" d="M8.14913 49.3527H1.43309C0.641451 49.3527 0 48.7118 0 47.9207C0 47.1297 0.641451 46.4888 1.43309 46.4888H8.14913C8.94077 46.4888 9.58222 47.1297 9.58222 47.9207C9.58222 48.7118 8.94077 49.3527 8.14913 49.3527Z" fill="black"/>
<path id="Fill 50" fill-rule="evenodd" clip-rule="evenodd" d="M11.3749 62.9541L4.79297 65.9068L11.3749 62.9541Z" fill="white"/>
<path id="Fill 52" fill-rule="evenodd" clip-rule="evenodd" d="M4.79175 67.3396C4.24431 67.3396 3.72209 67.0245 3.48363 66.4936C3.15917 65.7724 3.48191 64.9247 4.20418 64.6011L10.7861 61.6478C11.5078 61.3241 12.3562 61.6466 12.6801 62.3672C13.0045 63.0889 12.6818 63.9366 11.9595 64.2603L5.3776 67.213C5.18728 67.2989 4.9878 67.3396 4.79175 67.3396Z" fill="black"/>
<path id="Fill 54" fill-rule="evenodd" clip-rule="evenodd" d="M19.8807 75.8389L15.0449 80.9396L19.8807 75.8389Z" fill="white"/>
<path id="Fill 56" fill-rule="evenodd" clip-rule="evenodd" d="M15.0441 82.3716C14.6904 82.3716 14.3361 82.241 14.0587 81.9787C13.4843 81.4351 13.4597 80.5289 14.0042 79.9544L18.8401 74.8543C19.3841 74.2809 20.2909 74.2563 20.8659 74.7999C21.4403 75.3435 21.4649 76.2496 20.9203 76.8241L16.0845 81.9248C15.803 82.2215 15.4241 82.3716 15.0441 82.3716Z" fill="black"/>
<path id="Fill 58" fill-rule="evenodd" clip-rule="evenodd" d="M76.727 48.2422C75.9474 48.2422 75.3088 47.6179 75.2945 46.836C75.2761 45.8216 75.1535 44.8003 74.9293 43.8002C74.7568 43.0281 75.2429 42.2628 76.0156 42.0904C76.7866 41.918 77.5542 42.4037 77.7267 43.1747C77.9927 44.3638 78.1383 45.5781 78.1601 46.7844C78.1744 47.5749 77.545 48.2279 76.7534 48.2422H76.727Z" fill="white"/>
<path id="Fill 60" fill-rule="evenodd" clip-rule="evenodd" d="M75.0612 40.58C74.457 40.58 73.8958 40.1951 73.6986 39.5902C71.5071 32.8593 69.1144 30.956 65.1499 27.8039C64.8088 27.533 64.4574 27.2529 64.0957 26.9625C63.4789 26.4664 63.3809 25.5649 63.8767 24.9485C64.3732 24.3328 65.2754 24.2354 65.8917 24.7303C66.2499 25.0184 66.5973 25.2945 66.935 25.5626C71.017 28.8091 73.9657 31.1542 76.4243 38.7047C76.6691 39.4568 76.2575 40.2644 75.5048 40.509C75.3575 40.5571 75.2079 40.58 75.0612 40.58Z" fill="white"/>
</g>
</svg>
