<svg width="126" height="78" viewBox="0 0 126 78" fill="none" xmlns="http://www.w3.org/2000/svg">
<path d="M62.0668 77.3067C61.6418 77.3067 61.2452 77.1933 60.8768 76.995L57.1085 74.7567C56.5418 74.445 56.8252 74.3317 56.9952 74.275C57.7602 74.02 57.9018 73.9633 58.6952 73.51C58.7802 73.4533 58.8935 73.4817 58.9785 73.5383L61.8685 75.2667C61.9818 75.3233 62.1235 75.3233 62.2085 75.2667L73.5418 68.7217C73.6552 68.665 73.7118 68.5517 73.7118 68.41V55.3483C73.7118 55.2067 73.6552 55.0933 73.5418 55.0367L62.2368 48.52C62.1235 48.4633 61.9818 48.4633 61.8968 48.52L50.5918 55.0367C50.4785 55.0933 50.4218 55.235 50.4218 55.3483V68.41C50.4218 68.5233 50.4785 68.665 50.5918 68.7217L53.6802 70.5067C55.3518 71.3567 56.4002 70.365 56.4002 69.3733V56.4817C56.4002 56.3117 56.5418 56.1417 56.7402 56.1417H58.1852C58.3552 56.1417 58.5252 56.2833 58.5252 56.4817V69.3733C58.5252 71.6117 57.3068 72.915 55.1818 72.915C54.5302 72.915 54.0202 72.915 52.5752 72.2067L49.6002 70.5067C48.8635 70.0817 48.4102 69.2883 48.4102 68.4383V55.3767C48.4102 54.5267 48.8635 53.7333 49.6002 53.3083L60.9335 46.7633C61.6418 46.3667 62.6052 46.3667 63.3135 46.7633L74.6468 53.3083C75.3835 53.7333 75.8368 54.5267 75.8368 55.3767V68.4383C75.8368 69.2883 75.3835 70.0817 74.6468 70.5067L63.3135 77.0517C62.8885 77.1933 62.4918 77.3067 62.0668 77.3067Z" fill="black"/>
<path d="M65.5526 68.3256C60.5942 68.3256 59.5742 66.0589 59.5742 64.1323C59.5742 63.9623 59.7159 63.7923 59.9142 63.7923H61.3876C61.5576 63.7923 61.6992 63.9056 61.6992 64.0756C61.9259 65.5773 62.5776 66.3139 65.5809 66.3139C67.9609 66.3139 68.9809 65.7756 68.9809 64.5006C68.9809 63.7639 68.6976 63.2256 64.9859 62.8573C61.8976 62.5456 59.9709 61.8656 59.9709 59.4006C59.9709 57.1056 61.8976 55.7456 65.1276 55.7456C68.7542 55.7456 70.5392 56.9923 70.7659 59.7123C70.7659 59.7973 70.7376 59.8823 70.6809 59.9673C70.6242 60.0239 70.5392 60.0806 70.4542 60.0806H68.9526C68.8109 60.0806 68.6692 59.9673 68.6409 59.8256C68.3009 58.2673 67.4226 57.7573 65.0992 57.7573C62.4926 57.7573 62.1809 58.6639 62.1809 59.3439C62.1809 60.1656 62.5492 60.4206 66.0625 60.8739C69.5475 61.3273 71.1909 61.9789 71.1909 64.4439C71.1909 66.9089 69.1509 68.3256 65.5526 68.3256Z" fill="black"/>
<path d="M81.8711 54.6114C81.8711 55.8014 80.8795 56.793 79.6895 56.793C78.4995 56.793 77.5078 55.8297 77.5078 54.6114C77.5078 53.3647 78.5278 52.4297 79.6895 52.4297C80.8795 52.4297 81.8711 53.3647 81.8711 54.6114ZM77.8761 54.6114C77.8761 55.6314 78.6978 56.453 79.6895 56.453C80.7095 56.453 81.5311 55.603 81.5311 54.6114C81.5311 53.5914 80.7095 52.798 79.6895 52.798C78.6978 52.7697 77.8761 53.5914 77.8761 54.6114ZM78.8678 53.393H79.7178C80.0011 53.393 80.5678 53.393 80.5678 54.0447C80.5678 54.498 80.2845 54.583 80.1145 54.6397C80.4545 54.668 80.4828 54.8947 80.5111 55.2064C80.5395 55.4047 80.5678 55.7447 80.6245 55.858H80.1145C80.1145 55.7447 80.0295 55.1214 80.0295 55.093C80.0011 54.9514 79.9445 54.8947 79.7745 54.8947H79.3495V55.8864H78.8678V53.393ZM79.3495 54.4697H79.7178C80.0295 54.4697 80.0861 54.243 80.0861 54.1297C80.0861 53.7897 79.8595 53.7897 79.7178 53.7897H79.3211V54.4697H79.3495Z" fill="black"/>
<path fill-rule="evenodd" clip-rule="evenodd" d="M27.0182 26.1928C27.0182 25.6828 26.7349 25.2011 26.2816 24.9461L14.2682 18.0328C14.0699 17.9195 13.8432 17.8628 13.6166 17.8345C13.5882 17.8345 13.5032 17.8345 13.5032 17.8345C13.2766 17.8345 13.0499 17.9195 12.8516 18.0328L0.838229 24.9461C0.384895 25.2011 0.101562 25.6828 0.101562 26.1928L0.129895 44.7795C0.129895 45.0345 0.271563 45.2895 0.49823 45.4028C0.724896 45.5445 1.00823 45.5445 1.20656 45.4028L8.34656 41.3228C8.79989 41.0678 9.08323 40.5861 9.08323 40.0761V31.3778C9.08323 30.8678 9.36656 30.3861 9.8199 30.1311L12.8516 28.3745C13.0782 28.2328 13.3332 28.1761 13.5882 28.1761C13.8432 28.1761 14.0982 28.2328 14.2966 28.3745L17.3282 30.1311C17.7816 30.3861 18.0649 30.8678 18.0649 31.3778V40.0761C18.0649 40.5861 18.3482 41.0678 18.8016 41.3228L25.9416 45.4028C26.1682 45.5445 26.4516 45.5445 26.6782 45.4028C26.9049 45.2895 27.0466 45.0345 27.0466 44.7795L27.0182 26.1928Z" fill="black"/>
<path fill-rule="evenodd" clip-rule="evenodd" d="M84.7626 0.636758C84.536 0.523424 84.2526 0.523424 84.0543 0.636758C83.8276 0.778424 83.686 1.00509 83.686 1.26009V19.6768C83.686 19.8468 83.601 20.0168 83.431 20.1301C83.261 20.2151 83.091 20.2151 82.921 20.1301L79.9177 18.4018C79.4643 18.1468 78.926 18.1468 78.4727 18.4018L66.4593 25.3434C66.006 25.5984 65.7227 26.0801 65.7227 26.5901V40.4451C65.7227 40.9551 66.006 41.4368 66.4593 41.6918L78.4727 48.6334C78.926 48.8884 79.4643 48.8884 79.9177 48.6334L91.931 41.6918C92.3843 41.4368 92.6677 40.9551 92.6677 40.4451V5.87842C92.6677 5.34009 92.3843 4.85842 91.931 4.60342L84.7626 0.636758ZM83.6293 35.8834C83.6293 36.0251 83.5727 36.1384 83.4593 36.1951L79.351 38.5751C79.2377 38.6318 79.096 38.6318 78.9827 38.5751L74.8743 36.1951C74.761 36.1384 74.7043 35.9968 74.7043 35.8834V31.1234C74.7043 30.9818 74.761 30.8684 74.8743 30.8118L78.9827 28.4318C79.096 28.3751 79.2377 28.3751 79.351 28.4318L83.4593 30.8118C83.5727 30.8684 83.6293 31.0101 83.6293 31.1234V35.8834Z" fill="black"/>
<path fill-rule="evenodd" clip-rule="evenodd" d="M124.742 31.0101C125.196 30.7551 125.451 30.2734 125.451 29.7634V26.3918C125.451 25.8818 125.167 25.4001 124.742 25.1451L112.814 18.2318C112.361 17.9768 111.822 17.9768 111.369 18.2318L99.3558 25.1734C98.9025 25.4284 98.6191 25.9101 98.6191 26.4201V40.2751C98.6191 40.7851 98.9025 41.2668 99.3558 41.5218L111.284 48.3218C111.737 48.5768 112.276 48.5768 112.701 48.3218L119.926 44.2984C120.152 44.1851 120.294 43.9301 120.294 43.6751C120.294 43.4201 120.152 43.1651 119.926 43.0518L107.856 36.1101C107.629 35.9684 107.487 35.7418 107.487 35.4868V31.1518C107.487 30.8968 107.629 30.6418 107.856 30.5284L111.624 28.3751C111.851 28.2334 112.134 28.2334 112.361 28.3751L116.129 30.5284C116.356 30.6701 116.497 30.8968 116.497 31.1518V34.5801C116.497 34.8351 116.639 35.0901 116.866 35.2034C117.092 35.3451 117.376 35.3451 117.602 35.2034L124.742 31.0101Z" fill="black"/>
<path fill-rule="evenodd" clip-rule="evenodd" d="M111.907 30.3579C111.992 30.3013 112.106 30.3013 112.191 30.3579L114.486 31.6896C114.571 31.7463 114.627 31.8313 114.627 31.9446V34.6079C114.627 34.7213 114.571 34.8063 114.486 34.8629L112.191 36.1946C112.106 36.2513 111.992 36.2513 111.907 36.1946L109.612 34.8629C109.527 34.8063 109.471 34.7213 109.471 34.6079V31.9163C109.471 31.8029 109.527 31.7179 109.612 31.6613L111.907 30.3579Z" fill="black"/>
<path fill-rule="evenodd" clip-rule="evenodd" d="M45.6572 18.2879C46.1105 18.0329 46.6488 18.0329 47.1022 18.2879L59.0022 25.1729C59.4555 25.4279 59.7105 25.9096 59.7105 26.4196V40.1613C59.7105 40.6713 59.4272 41.1529 59.0022 41.4079L47.1022 48.2929C46.6488 48.5479 46.1105 48.5479 45.6572 48.2929L33.7572 41.4079C33.3038 41.1529 33.0488 40.6713 33.0488 40.1613V26.4196C33.0488 25.9096 33.3322 25.4279 33.7572 25.1729L45.6572 18.2879Z" fill="black"/>
<path opacity="0.66" d="M58.9122 25.1448L47.0688 18.2598C46.9555 18.2032 46.8138 18.1465 46.7005 18.1182L33.2988 41.0398C33.4122 41.1815 33.5538 41.2948 33.6955 41.3798L45.6238 48.2648C45.9922 48.4632 46.3888 48.5198 46.7572 48.3782L59.2805 25.4565C59.1955 25.3432 59.0822 25.2298 58.9122 25.1448Z" fill="black"/>
<path d="M47.0442 48.2645L58.9158 41.3795C59.3692 41.1245 59.5675 40.6428 59.5675 40.1328V40.0761L46.7042 18.1178C46.3358 18.0045 45.9392 18.0612 45.5992 18.2595L33.8125 25.0595L46.6192 48.4062C46.7892 48.4062 46.9308 48.3495 47.0442 48.2645Z" fill="black"/>
</svg>
