<svg xmlns="http://www.w3.org/2000/svg" viewBox="0 0 581.83 574.09"><defs><style>.cls-1,.cls-5{fill:#fff;}.cls-1,.cls-2{stroke:#000;}.cls-1,.cls-2,.cls-3,.cls-6{stroke-linecap:round;stroke-linejoin:round;}.cls-1{stroke-width:14.06px;}.cls-2,.cls-3,.cls-6{fill:none;}.cls-2,.cls-6{stroke-width:13px;}.cls-3{stroke:#010101;stroke-width:13.15px;}.cls-4{fill:#32f4b8;}.cls-6{stroke:#fff;}</style></defs><g id="Layer_2" data-name="Layer 2"><g id="Layer_1-2" data-name="Layer 1"><path class="cls-1" d="M285.2,453.82,100,451a92.11,92.11,0,0,1-64.12-26.9c-17.25-17.41-32.27-45-28.17-87.34q.32-3.27.59-6.56c1.14-13.87,9.44-76.66,67.3-96.86,26-9.07,54.55-6.39,79,6.27,17.46,9,36.58,23.46,41.77,44.52,12.76,51.76-64,75.11-87,25.61-8.74-18.78-17.26-51.64.73-97.16,0,0,37.28-119.64,155.18-129.46,0,0,26.5-5,60.68,3.51,70.58,17.62,116.2,87.23,103.6,158.88-5.76,32.79-24.79,61.94-74.22,61.94,0,0-73.69,0-40.94-77,0,0,36-81.88,145.73-57.31,0,0,122.08,11.18,114.39,139a127,127,0,0,1-6.88,34.28"/><line class="cls-2" x1="118.47" y1="48.25" x2="144.44" y2="84.33"/><line class="cls-2" x1="39.38" y1="115.53" x2="78.77" y2="139.94"/><line class="cls-2" x1="217.01" y1="6.5" x2="223.72" y2="49.6"/><path class="cls-3" d="M47,390.87c-19.18-36.05-11.82-61.76-5.48-85.6"/><path class="cls-3" d="M63.12,412.93a20.81,20.81,0,0,1-2.82-2"/><rect class="cls-4" x="308.83" y="375.24" width="273" height="88.4" rx="38.06"/><rect class="cls-4" x="308.83" y="485.69" width="273" height="88.4" rx="38.06"/><circle class="cls-5" cx="358.39" cy="420.67" r="11.06"/><circle class="cls-5" cx="358.39" cy="529.89" r="11.06"/><line class="cls-6" x1="418.91" y1="420.97" x2="517.82" y2="420.97"/><line class="cls-6" x1="418.91" y1="529.89" x2="517.82" y2="529.89"/><path class="cls-3" d="M48.06,390.75C28.87,354.7,36.23,329,42.57,305.15"/><path class="cls-3" d="M64.13,412.82a22.49,22.49,0,0,1-2.82-2"/></g></g></svg>