<svg width="101" height="100" viewBox="0 0 101 100" fill="none" xmlns="http://www.w3.org/2000/svg">
<path fill-rule="evenodd" clip-rule="evenodd" d="M43.7109 12.832C43.7109 12.832 47.96 0.279444 51.5559 1.24103C55.1528 2.20309 57.8002 12.832 57.8002 12.832H43.7109Z" fill="#36F2B9"/>
<mask id="mask0_1221_2417" style="mask-type:luminance" maskUnits="userSpaceOnUse" x="0" y="72" width="101" height="28">
<path fill-rule="evenodd" clip-rule="evenodd" d="M0 72.8164H101V99.8571H0V72.8164Z" fill="white"/>
</mask>
<g mask="url(#mask0_1221_2417)">
<path fill-rule="evenodd" clip-rule="evenodd" d="M43.5092 72.8164V80.064C43.5092 81.4345 43.0587 82.7898 42.1434 83.8094C40.634 85.4898 35.5414 87.1064 31.9945 82.4751C31.9945 82.4751 27.3359 76.9717 22.1472 80.4467C20.4637 81.574 19.3229 83.3386 18.7835 85.2923C18.3292 86.9384 16.5233 90.2535 12.7205 88.4336C10.8 87.5144 8.31158 86.9846 5.81646 87.1479C-2.28875 87.6791 -1.75453 99.8575 6.36781 99.8575H56.3682H60.1663H94.6318C102.755 99.8575 103.289 87.6791 95.1836 87.1479C92.688 86.9846 90.1995 87.5144 88.2786 88.4336C84.4762 90.2535 82.6704 86.9384 82.2161 85.2923C81.6766 83.3386 80.5359 81.574 78.8528 80.4467C73.6642 76.9717 69.0055 82.4751 69.0055 82.4751C65.4586 87.1064 60.3661 85.4898 58.8567 83.8094C57.9414 82.7898 57.4909 81.4345 57.4909 80.064V72.8164H43.5092Z" fill="#36F2B9"/>
</g>
<path fill-rule="evenodd" clip-rule="evenodd" d="M58.3535 26.4536C58.3535 30.4989 55.0758 33.7788 51.0332 33.7788C46.9901 33.7788 43.7129 30.4989 43.7129 26.4536C43.7129 22.4078 46.9901 19.1279 51.0332 19.1279C55.0758 19.1279 58.3535 22.4078 58.3535 26.4536Z" fill="#36F2B9"/>
<path fill-rule="evenodd" clip-rule="evenodd" d="M90.7613 82.951C90.7613 84.401 89.5863 85.5763 88.1372 85.5763C86.6882 85.5763 85.5137 84.401 85.5137 82.951C85.5137 81.501 86.6882 80.3252 88.1372 80.3252C89.5863 80.3252 90.7613 81.501 90.7613 82.951Z" fill="#36F2B9"/>
<path fill-rule="evenodd" clip-rule="evenodd" d="M54.3261 30.5703C54.0611 30.5703 53.7952 30.4822 53.574 30.3018C53.0659 29.8858 52.9903 29.1355 53.4061 28.6271C54.249 27.5956 54.1853 26.0942 53.2581 25.1345C52.8014 24.6623 52.8143 23.9087 53.2867 23.4517C53.7586 22.9947 54.5121 23.0076 54.9683 23.4803C56.7337 25.3073 56.8531 28.1678 55.2476 30.1333C55.0126 30.4213 54.671 30.5703 54.3261 30.5703Z" fill="black"/>
<path fill-rule="evenodd" clip-rule="evenodd" d="M52.3639 21.1362C52.8211 21.5823 52.8301 22.3154 52.3844 22.7728C51.9382 23.2298 51.2065 23.2393 50.7494 22.7928C50.2922 22.3473 50.2832 21.6146 50.7284 21.1572C51.1746 20.6992 51.9068 20.6902 52.3639 21.1362Z" fill="black"/>
<path fill-rule="evenodd" clip-rule="evenodd" d="M46.2681 43.9271C46.25 43.3135 46.7328 42.8013 47.346 42.7832C47.9592 42.7651 48.4711 43.2478 48.4892 43.8614C48.5073 44.475 48.0244 44.9877 47.4112 45.0058C46.798 45.0239 46.2861 44.5407 46.2681 43.9271Z" fill="black"/>
<path fill-rule="evenodd" clip-rule="evenodd" d="M46.2681 48.514C46.25 47.9004 46.7328 47.3882 47.346 47.3701C47.9592 47.352 48.4711 47.8347 48.4892 48.4483C48.5073 49.0619 48.0244 49.5746 47.4112 49.5927C46.798 49.6108 46.2861 49.1276 46.2681 48.514Z" fill="black"/>
<path fill-rule="evenodd" clip-rule="evenodd" d="M46.2681 53.5541C46.25 52.9405 46.7328 52.4282 47.346 52.4102C47.9592 52.3921 48.4711 52.8743 48.4892 53.4884C48.5073 54.102 48.0244 54.6142 47.4112 54.6323C46.798 54.6508 46.2861 54.1677 46.2681 53.5541Z" fill="black"/>
<path fill-rule="evenodd" clip-rule="evenodd" d="M46.2681 58.1405C46.25 57.5269 46.7328 57.0147 47.346 56.9966C47.9592 56.9785 48.4711 57.4607 48.4892 58.0743C48.5073 58.6879 48.0244 59.2006 47.4112 59.2187C46.798 59.2368 46.2861 58.7541 46.2681 58.1405Z" fill="black"/>
<path fill-rule="evenodd" clip-rule="evenodd" d="M52.0259 43.9271C52.0078 43.3135 52.4907 42.8013 53.1038 42.7832C53.717 42.7651 54.2289 43.2478 54.247 43.8614C54.2651 44.475 53.7822 44.9877 53.169 45.0058C52.5558 45.0239 52.044 44.5407 52.0259 43.9271Z" fill="black"/>
<path fill-rule="evenodd" clip-rule="evenodd" d="M52.0259 48.514C52.0078 47.9004 52.4907 47.3882 53.1038 47.3701C53.717 47.352 54.2289 47.8347 54.247 48.4483C54.2651 49.0619 53.7822 49.5746 53.169 49.5927C52.5558 49.6108 52.044 49.1276 52.0259 48.514Z" fill="black"/>
<path fill-rule="evenodd" clip-rule="evenodd" d="M52.0259 53.5541C52.0078 52.9405 52.4907 52.4282 53.1038 52.4102C53.717 52.3921 54.2289 52.8743 54.247 53.4884C54.2651 54.102 53.7822 54.6142 53.169 54.6323C52.5558 54.6508 52.044 54.1677 52.0259 53.5541Z" fill="black"/>
<path fill-rule="evenodd" clip-rule="evenodd" d="M52.0259 58.1405C52.0078 57.5269 52.4907 57.0147 53.1038 56.9966C53.717 56.9785 54.2289 57.4607 54.247 58.0743C54.2651 58.6879 53.7822 59.2006 53.169 59.2187C52.5558 59.2368 52.044 58.7541 52.0259 58.1405Z" fill="black"/>
<path fill-rule="evenodd" clip-rule="evenodd" d="M63.6414 66.7048V48.816C65.9105 52.7523 70.2224 57.3831 78.2177 58.7222C78.2753 58.7322 78.3067 58.7365 78.3652 58.7379C78.5288 58.7484 79.9802 58.9131 80.5373 61.2718L81.6685 66.7048H63.6414ZM61.2621 66.7048H58.7936H41.9876H39.8065V42.538C39.8065 33.1145 41.3606 23.6738 44.3376 14.7191H57.1429C59.8754 23.7438 61.2621 33.0907 61.2621 42.6347V66.7048ZM40.8905 71.6266C41.3115 70.9111 41.9247 69.9872 42.585 69.0851H58.1913C59.0556 70.2852 59.5223 71.0982 59.7744 71.6266H40.8905ZM48.8482 3.6928C49.2626 2.85022 50.0846 2.36848 51.0075 2.38086C51.9456 2.40132 52.7305 2.92639 53.1082 3.78563C54.3437 6.59803 55.433 9.45185 56.3892 12.339H45.1676C46.2413 9.39235 47.4653 6.50235 48.8482 3.6928ZM37.4287 66.7048H19.402L20.5262 61.3023C21.0904 58.9131 22.5418 58.7484 22.6797 58.7389C22.7378 58.7374 22.7958 58.7322 22.8529 58.7222C30.8477 57.3831 35.1601 52.7523 37.4287 48.816V66.7048ZM84.2948 67.6519L82.8587 60.7556C81.9453 56.8836 79.1823 56.4209 78.5582 56.3657C66.0959 54.2497 63.8315 43.4776 63.6384 42.4189C63.6098 28.7058 60.8012 15.3859 55.2858 2.82765C54.5375 1.12441 52.9182 0.0414297 51.0596 0.000966894C49.1962 -0.0356877 47.5359 0.972074 46.7144 2.64105C45.0641 5.99375 43.6332 9.45594 42.4135 12.9933C42.3616 13.0957 42.3226 13.2042 42.3017 13.3208C39.1149 22.6744 37.4432 32.5574 37.4304 42.4255C37.2248 43.5437 34.9348 54.2568 22.5115 56.3657C21.8869 56.4214 19.1239 56.8874 18.2044 60.7861L16.7749 67.6519C16.7021 68.0028 16.791 68.3674 17.0165 68.6454C17.2425 68.9234 17.5817 69.0848 17.9394 69.0848H38.6177H39.6695C37.8152 71.8448 37.9246 72.6774 37.9679 72.983C38.0512 73.57 38.5535 74.0065 39.1458 74.0065H61.1585C61.4092 74.0065 61.6528 73.9275 61.8554 73.7804C62.0305 73.6538 62.3378 73.3562 62.4248 72.7855C62.5124 72.2176 62.4248 71.2374 61.0638 69.0848H62.452H83.1308C83.489 69.0848 83.8277 68.9234 84.0532 68.6454C84.2796 68.3674 84.3681 68.0028 84.2948 67.6519Z" fill="black"/>
<path fill-rule="evenodd" clip-rule="evenodd" d="M22.4251 86.314C22.2553 86.314 22.0821 86.2773 21.9185 86.1998C21.3248 85.9194 21.0698 85.2101 21.3505 84.6155C22.5745 82.0202 25.5453 80.7501 28.2621 81.6627C28.8843 81.8721 29.2197 82.5471 29.0109 83.1703C28.8011 83.7929 28.127 84.1281 27.5048 83.9196C25.9306 83.3902 24.2109 84.1271 23.5016 85.6314C23.2985 86.0617 22.8708 86.314 22.4251 86.314Z" fill="white"/>
<path fill-rule="evenodd" clip-rule="evenodd" d="M79.1378 87.7168C78.5636 87.7168 78.0584 87.3002 77.9647 86.7152C77.7021 85.0762 76.2512 83.8976 74.5904 83.9618C73.933 83.9747 73.3802 83.4796 73.3526 82.8227C73.325 82.1657 73.8355 81.6112 74.491 81.5836C77.3615 81.4645 79.8604 83.5077 80.3138 86.3382C80.417 86.9875 79.976 87.5978 79.3271 87.702C79.2639 87.712 79.2001 87.7168 79.1378 87.7168Z" fill="white"/>
<path fill-rule="evenodd" clip-rule="evenodd" d="M93.0479 89.2495C93.6616 89.2471 94.1611 89.7427 94.1635 90.3568C94.1659 90.9709 93.6702 91.4702 93.057 91.4726C92.4433 91.4755 91.9438 90.9794 91.9414 90.3653C91.939 89.7517 92.4347 89.2519 93.0479 89.2495Z" fill="white"/>
<path fill-rule="evenodd" clip-rule="evenodd" d="M7.17551 88.4254C6.56517 88.4877 6.12086 89.0332 6.18365 89.6445C6.24597 90.2552 6.79161 90.6994 7.40195 90.637C8.01229 90.5746 8.45613 90.0282 8.39382 89.4179C8.3315 88.8071 7.78538 88.3625 7.17551 88.4254Z" fill="white"/>
<path fill-rule="evenodd" clip-rule="evenodd" d="M63.3657 86.9221C63.9574 87.0835 64.3071 87.6943 64.1458 88.2869C63.9846 88.8791 63.3742 89.229 62.782 89.0676C62.1897 88.9063 61.841 88.2955 62.0023 87.7028C62.1631 87.1107 62.7739 86.7608 63.3657 86.9221Z" fill="white"/>
<path fill-rule="evenodd" clip-rule="evenodd" d="M59.6884 89.1847C59.6142 89.1847 59.5391 89.178 59.4634 89.1632C57.2485 88.7396 55.4641 87.1539 54.3043 84.5786C53.595 83.0057 53.2363 81.2658 53.2363 79.4084V76.942C53.2363 76.2846 53.7687 75.752 54.4256 75.752C55.0821 75.752 55.6149 76.2846 55.6149 76.942V79.4084C55.6149 80.926 55.9032 82.3364 56.4726 83.6008C57.3122 85.4649 58.4692 86.5498 59.9101 86.8259C60.5552 86.9492 60.9786 87.5723 60.8549 88.2183C60.7464 88.7881 60.2479 89.1847 59.6884 89.1847Z" fill="white"/>
<path fill-rule="evenodd" clip-rule="evenodd" d="M28.4844 31.6798H26.3441V29.3805C26.3441 28.7231 25.8118 28.1904 25.1548 28.1904C24.4979 28.1904 23.9655 28.7231 23.9655 29.3805V31.6798H21.4295C20.7726 31.6798 20.2402 32.2124 20.2402 32.8698C20.2402 33.5272 20.7726 34.0599 21.4295 34.0599H23.9655V36.2416C23.9655 36.899 24.4979 37.4317 25.1548 37.4317C25.8118 37.4317 26.3441 36.899 26.3441 36.2416V34.0599H28.4844C29.1413 34.0599 29.6736 33.5272 29.6736 32.8698C29.6736 32.2124 29.1413 31.6798 28.4844 31.6798Z" fill="black"/>
<path fill-rule="evenodd" clip-rule="evenodd" d="M80.3672 10.3194H78.2269V8.01967C78.2269 7.36227 77.6946 6.82959 77.0376 6.82959C76.3807 6.82959 75.8484 7.36227 75.8484 8.01967V10.3194H73.3123C72.6554 10.3194 72.123 10.8521 72.123 11.5095C72.123 12.1669 72.6554 12.6996 73.3123 12.6996H75.8484V14.8807C75.8484 15.5381 76.3807 16.0708 77.0376 16.0708C77.6946 16.0708 78.2269 15.5381 78.2269 14.8807V12.6996H80.3672C81.0241 12.6996 81.5565 12.1669 81.5565 11.5095C81.5565 10.8521 81.0241 10.3194 80.3672 10.3194Z" fill="black"/>
<path fill-rule="evenodd" clip-rule="evenodd" d="M32.3283 20.1353C32.3283 20.8898 31.717 21.5015 30.963 21.5015C30.2089 21.5015 29.5977 20.8898 29.5977 20.1353C29.5977 19.3807 30.2089 18.769 30.963 18.769C31.717 18.769 32.3283 19.3807 32.3283 20.1353Z" fill="#36F2B9"/>
<path fill-rule="evenodd" clip-rule="evenodd" d="M74.1559 26.4541C74.1559 27.2086 73.5446 27.8198 72.7906 27.8198C72.0366 27.8198 71.4258 27.2086 71.4258 26.4541C71.4258 25.6996 72.0366 25.0879 72.7906 25.0879C73.5446 25.0879 74.1559 25.6996 74.1559 26.4541Z" fill="#36F2B9"/>
</svg>
