<svg xmlns="http://www.w3.org/2000/svg" viewBox="0 0 474.15 567.58"><defs><style>.cls-1,.cls-4{fill:#fff;}.cls-2{fill:#32f4b8;}.cls-3,.cls-5{fill:none;}.cls-3,.cls-4{stroke:#000;}.cls-3,.cls-4,.cls-5{stroke-linecap:round;stroke-linejoin:round;stroke-width:13px;}.cls-5{stroke:#fff;}</style></defs><g id="Layer_2" data-name="Layer 2"><g id="Layer_1-2" data-name="Layer 1"><polyline class="cls-1" points="196.83 454.84 314.96 302.29 201.03 214.06 82.89 366.61"/><path class="cls-2" d="M137.05,532,221.7,422.72c-48.47-7.24-55.32-42.7-55.32-42.7l-.06-.37c-6.76-49.48-51.1-46.6-58.09-45.76l-.38.49L23.12,443.8A72.61,72.61,0,1,0,132,539.42,72.22,72.22,0,0,0,137.05,532Z"/><line class="cls-3" x1="219.08" y1="384.6" x2="211.85" y2="393.94"/><line class="cls-3" x1="270.86" y1="317.74" x2="235.8" y2="363"/><polyline class="cls-3" points="235.75 404.57 314.96 302.29 201.03 214.06 121.82 316.34"/><rect class="cls-4" x="167.19" y="225.95" width="203.77" height="35.82" rx="17.91" transform="translate(205.64 -113.69) rotate(37.75)"/><line class="cls-5" x1="138.95" y1="488.07" x2="135.65" y2="492.34"/><line class="cls-5" x1="184.74" y1="428.95" x2="151.9" y2="471.35"/><circle class="cls-2" cx="349.41" cy="130.87" r="78.52"/><polyline class="cls-3" points="324.75 119.39 358.6 156.35 443.76 87.03"/><path class="cls-5" d="M294,161c-9.76-17.05-11.16-40,1.62-58.25"/><path class="cls-5" d="M312.43,181.75A12.29,12.29,0,0,1,311,180.7"/><line class="cls-3" x1="223.2" y1="112.39" x2="243.47" y2="115.74"/><line class="cls-3" x1="267.43" y1="32.04" x2="279.39" y2="48.74"/><line class="cls-3" x1="355.52" y1="6.5" x2="352.17" y2="26.77"/><line class="cls-3" x1="402.37" y1="447.61" x2="401.93" y2="483.41"/><line class="cls-3" x1="420.05" y1="465.73" x2="384.25" y2="465.29"/><line class="cls-3" x1="24.74" y1="227.14" x2="24.06" y2="262.94"/><line class="cls-3" x1="42.3" y1="245.37" x2="6.5" y2="244.7"/><circle class="cls-2" cx="104.38" cy="53.15" r="9.1"/><circle class="cls-2" cx="466.97" cy="291.64" r="7.18"/></g></g></svg>