<svg width="98" height="98" viewBox="0 0 98 98" fill="none" xmlns="http://www.w3.org/2000/svg">
<g clip-path="url(#clip0_1166_2114)">
<path d="M98 0H0V98H98V0Z" fill="black"/>
<path d="M65.8303 76.5628C67.8043 79.7859 70.3725 82.155 74.9147 82.155C78.7305 82.155 81.1681 80.2479 81.1681 77.6128C81.1681 74.455 78.6636 73.3366 74.4636 71.4995L72.1614 70.5117C65.5161 67.6806 61.1014 64.1339 61.1014 56.6361C61.1014 49.7295 66.3638 44.4717 74.5881 44.4717C80.4432 44.4717 84.6525 46.5095 87.6858 51.845L80.5147 56.4495C78.9358 53.6183 77.2325 52.503 74.5881 52.503C71.8907 52.503 70.1812 54.2141 70.1812 56.4495C70.1812 59.2121 71.8923 60.3306 75.8434 62.0417L78.1456 63.0279C85.9701 66.3832 90.3878 69.8039 90.3878 77.4946C90.3878 85.7857 83.8747 90.3279 75.1278 90.3279C66.5754 90.3279 61.0501 86.2523 58.3465 80.9106L65.8303 76.5628ZM33.299 77.3608C34.7456 79.9275 36.0616 82.0975 39.2256 82.0975C42.2512 82.0975 44.1598 80.9137 44.1598 76.3108V44.9975H53.3687V76.4352C53.3687 85.9708 47.7781 90.3108 39.6176 90.3108C32.2443 90.3108 27.9743 86.495 25.8027 81.8991L33.299 77.3608Z" fill="white"/>
</g>
<defs>
<clipPath id="clip0_1166_2114">
<rect width="98" height="98" fill="white"/>
</clipPath>
</defs>
</svg>
