<svg xmlns="http://www.w3.org/2000/svg" viewBox="0 0 582.01 574.52"><defs><style>.cls-1,.cls-4{fill:#fff;}.cls-2{fill:#32f4b8;}.cls-3,.cls-5{fill:none;}.cls-3{stroke:#fff;}.cls-3,.cls-4,.cls-5{stroke-linecap:round;stroke-linejoin:round;stroke-width:13.75px;}.cls-4,.cls-5{stroke:#000;}</style></defs><g id="Layer_2" data-name="Layer 2"><g id="Layer_1-2" data-name="Layer 1"><path class="cls-1" d="M538,238.55a165,165,0,0,1-38.88,10.78c-67.78,9.72-111-26.49-123.58-39A86.06,86.06,0,0,0,359,197.44c-52.53-31.11-111,.8-111,.8l-30.34,120c-22.12,20.13-31,51.53-21.6,80A62.59,62.59,0,0,0,219,430.11c5.91,4.27,14.09,4.23,19.46-.72,3.86-3.55,6.64-9.8,5-20.79a46.77,46.77,0,0,1,3-25.9c5.17-11.79,16.5-23.14,41.25-15.37l105.62,37.53L435,417.31s50,21.65,92.66-.64c3.87-2,7.72-4.09,11.63-6L575.14,393V223.36Z"/><path class="cls-2" d="M361.63,556.56l.44-.08c3.7,4.13,8.38,7.32,13.21,10.62,23.14,15.83,56.64,5,70.59-19.89a52.48,52.48,0,0,0,1.37-48.8l.91-.62L219.24,170.2c28.6-55.92,8-125-47-155.6a114.92,114.92,0,0,0-68.1-14l35.5,50.76,0,0c13.38,21,5.38,51-18.44,67.88s-54.59,14.34-69.7-5.42l0,0L14.23,60.8C-16.38,117.17,4,187.91,59.9,219a114.89,114.89,0,0,0,71.53,13.55"/><path class="cls-3" d="M200.05,80.31c14.36,21.83,15.73,54.57-4.24,77.13"/><path class="cls-3" d="M189.07,62.7a14.91,14.91,0,0,1,1.18,1.75"/><path class="cls-4" d="M276.78,475.66s-7.44,25.71,20.77,36.09a50.81,50.81,0,0,0,35.86-.69c7.92-3.06,16.77-7.86,21.59-15A15.89,15.89,0,0,0,353.22,476c-4.24-4.24-11.71-8.88-24.83-11.23Z"/><path class="cls-4" d="M250.21,433.67s-18.67,37.86,34.22,51.81c0,0,38.45,5.18,64.27-13.16,8.45-6,7.52-19.09-1.84-23.51a42.82,42.82,0,0,0-10.09-3.13Z"/><path class="cls-4" d="M252.86,441.23a14.4,14.4,0,0,1-5.87-4.7,13.62,13.62,0,0,1-2.13-4.44c-2.89-10.63-2.49-30,40.17-27.19,49.8,3.24,57.32,25,54.25,36.5a9.69,9.69,0,0,1-5.81,6.43C324,451.63,295.22,459.72,252.86,441.23Z"/><path class="cls-5" d="M248.05,198.24s58.45-31.91,111-.8a86.06,86.06,0,0,1,16.48,12.93c12.61,12.47,55.8,48.68,123.58,39A165,165,0,0,0,538,238.55l37.17-15.19"/><path class="cls-4" d="M312.81,231.61l-95.1,86.61c-22.12,20.13-31,51.53-21.6,80A62.59,62.59,0,0,0,219,430.11c5.91,4.27,14.09,4.23,19.46-.72,3.86-3.55,6.64-9.8,5-20.79a46.77,46.77,0,0,1,3-25.9c5.17-11.79,16.5-23.14,41.25-15.37l105.62,37.53"/><path class="cls-5" d="M435,417.31s50,21.65,92.66-.64c3.87-2,7.72-4.09,11.63-6L575.14,393"/><line class="cls-5" x1="95.03" y1="459.76" x2="95.13" y2="505.25"/><line class="cls-5" x1="117.68" y1="482.41" x2="72.47" y2="482.6"/><line class="cls-5" x1="377.24" y1="39.95" x2="376.97" y2="85.45"/><line class="cls-5" x1="399.71" y1="62.79" x2="354.5" y2="62.61"/><ellipse class="cls-2" cx="530.24" cy="148.41" rx="11.56" ry="11.48" transform="translate(298.85 648.04) rotate(-80.79)"/><ellipse class="cls-2" cx="47.14" cy="287.26" rx="9.13" ry="9.07" transform="translate(-243.96 287.8) rotate(-80.79)"/></g></g></svg>