<svg width="76" height="108" viewBox="0 0 76 108" fill="none" xmlns="http://www.w3.org/2000/svg">
<g clip-path="url(#clip0_1166_2003)">
<path d="M76 21.2588L69.0762 98.8229L37.9535 107.451L6.91646 98.835L0 21.2588H76Z" fill="black"/>
<path d="M63.1487 93.8841L69.0655 27.6021H38V100.856L63.1487 93.8841Z" fill="black"/>
<path d="M15.8555 56.374L16.7082 65.8883H37.9996V56.374H15.8555Z" fill="white"/>
<path d="M38.0002 37.1162H37.9673H14.1426L15.0075 46.6307H38.0002V37.1162Z" fill="white"/>
<path d="M38.0011 90.9828V81.0838L37.9594 81.0949L27.3631 78.2337L26.6857 70.6455H21.5368H17.1348L18.4677 85.5845L37.9573 90.9949L38.0011 90.9828Z" fill="white"/>
<path d="M17.8867 0.176758H29.4103V4.99572H22.7057V9.81467H29.4103V14.6336H17.8867V0.176758Z" fill="black"/>
<path d="M31.7148 0.176758H43.2384V4.36716H36.5338V5.20524H43.2384V14.8432H31.7148V10.4432H38.4195V9.60515H31.7148V0.176758Z" fill="black"/>
<path d="M45.543 0.176758H57.0666V4.36716H50.3619V5.20524H57.0666V14.8432H45.543V10.4432H52.2476V9.60515H45.543V0.176758Z" fill="black"/>
<path d="M49.6827 65.8879L48.5783 78.2274L37.9668 81.0915V90.9901L57.4718 85.5842L57.6149 83.9768L59.8507 58.9285L60.0829 56.3736L61.8005 37.1162H37.9668V46.6307H51.3736L50.5078 56.3736H37.9668V65.8879H49.6827Z" fill="white"/>
</g>
<defs>
<clipPath id="clip0_1166_2003">
<rect width="76" height="107.274" fill="white" transform="translate(0 0.176758)"/>
</clipPath>
</defs>
</svg>
