<svg width="79" height="130" viewBox="0 0 79 130" fill="none" xmlns="http://www.w3.org/2000/svg">
<g id="Group 36">
<path id="Fill 1" fill-rule="evenodd" clip-rule="evenodd" d="M62.4342 114.114C62.4342 114.114 72.5063 109.699 68.6541 104.74C63.765 98.4481 51.0856 102.697 38.0973 107.25C35.2168 108.26 52.7202 116.881 62.4342 114.114Z" fill="black"/>
<g id="Group 5">
<mask id="mask0_1216_2043" style="mask-type:luminance" maskUnits="userSpaceOnUse" x="0" y="100" width="79" height="30">
<path id="Clip 4" fill-rule="evenodd" clip-rule="evenodd" d="M0 100.026H78.1271V129.463H0V100.026Z" fill="white"/>
</mask>
<g mask="url(#mask0_1216_2043)">
<path id="Fill 3" fill-rule="evenodd" clip-rule="evenodd" d="M8.0458 106.566C8.0458 106.566 14.572 100.026 25.9053 100.026C34.2421 100.027 45.6721 113.484 60.5631 112.008C60.5631 112.008 66.9799 111.208 68.9091 105.097C68.9091 105.097 75.4643 113.72 78.0385 122.286C78.3779 123.417 77.7114 124.605 76.5647 124.897C70.4882 126.45 51.3981 130.694 29.5515 129.117C29.5515 129.117 12.2999 128.134 1.49875 125.015C0.329141 124.678 -0.296616 123.416 0.13887 122.281C1.52978 118.666 4.64331 111.131 8.0458 106.566Z" fill="#36F2B9"/>
</g>
</g>
<path id="Fill 6" fill-rule="evenodd" clip-rule="evenodd" d="M26.4258 92.1495C26.1073 92.1495 25.7884 92.0308 25.5411 91.7924C25.0369 91.3049 25.0237 90.5025 25.5126 89.9993C29.6762 85.7132 32.7587 82.9665 32.7892 82.9391C33.3137 82.4729 34.1175 82.5196 34.5851 83.0416C35.0526 83.5645 35.0063 84.3659 34.4818 84.8321C34.4518 84.859 31.4334 87.5494 27.3395 91.7635C27.0902 92.0202 26.758 92.1495 26.4258 92.1495Z" fill="black"/>
<path id="Fill 8" fill-rule="evenodd" clip-rule="evenodd" d="M21.3574 97.5882C21.0567 97.5882 20.755 97.4827 20.5124 97.2676C19.9878 96.802 19.9405 96.0005 20.4076 95.4776C20.9194 94.9039 21.4256 94.3439 21.9251 93.7986C22.3988 93.2827 23.2031 93.2452 23.7215 93.718C24.2404 94.1902 24.2766 94.9926 23.8029 95.5095C23.311 96.0462 22.8119 96.598 22.3082 97.1626C22.0569 97.4446 21.7079 97.5882 21.3574 97.5882Z" fill="black"/>
<path id="Fill 10" fill-rule="evenodd" clip-rule="evenodd" d="M35.8821 15.3629C35.8821 20.7123 31.5329 25.0486 26.1676 25.0486C20.8024 25.0486 16.4531 20.7123 16.4531 15.3629C16.4531 10.0136 20.8024 5.67725 26.1676 5.67725C31.5329 5.67725 35.8821 10.0136 35.8821 15.3629Z" fill="#36F2B9"/>
<path id="Fill 12" fill-rule="evenodd" clip-rule="evenodd" d="M59.0176 30.8718C59.0176 35.089 55.5886 38.5083 51.3584 38.5083C47.1282 38.5083 43.6992 35.089 43.6992 30.8718C43.6992 26.6541 47.1282 23.2349 51.3584 23.2349C55.5886 23.2349 59.0176 26.6541 59.0176 30.8718Z" fill="#36F2B9"/>
<path id="Fill 14" fill-rule="evenodd" clip-rule="evenodd" d="M53.1186 4.69549C53.1186 7.28899 51.0099 9.39149 48.4092 9.39149C45.808 9.39149 43.6992 7.28899 43.6992 4.69549C43.6992 2.1025 45.808 0 48.4092 0C51.0099 0 53.1186 2.1025 53.1186 4.69549Z" fill="#36F2B9"/>
<path id="Fill 16" fill-rule="evenodd" clip-rule="evenodd" d="M20.9613 15.9113C20.2587 15.9113 19.6895 15.3437 19.6895 14.6432C19.6895 11.2163 22.2601 8.33111 25.6693 7.93192C26.3698 7.84873 26.9996 8.34735 27.081 9.04277C27.1629 9.73819 26.6638 10.3682 25.9664 10.4498C23.8383 10.6999 22.2332 12.5021 22.2332 14.6432C22.2332 15.3437 21.6639 15.9113 20.9613 15.9113Z" fill="black"/>
<path id="Fill 18" fill-rule="evenodd" clip-rule="evenodd" d="M47.4476 31.5049C46.7451 31.5049 46.1758 30.9373 46.1758 30.2368C46.1758 27.5084 48.223 25.2106 50.9376 24.8926C51.6377 24.8109 52.2675 25.308 52.3494 26.0034C52.4313 26.6988 51.9322 27.3293 51.2347 27.411C49.8006 27.5794 48.7195 28.7937 48.7195 30.2368C48.7195 30.9373 48.1502 31.5049 47.4476 31.5049Z" fill="black"/>
<path id="Fill 20" fill-rule="evenodd" clip-rule="evenodd" d="M46.0166 5.07243C45.8868 5.07243 45.7551 5.04859 45.6269 4.99837C45.0749 4.78431 44.8017 4.16346 45.0169 3.61311C45.5083 2.35668 46.6469 1.47865 47.988 1.32141C48.5776 1.25496 49.1103 1.67191 49.1795 2.25878C49.2486 2.84566 48.8274 3.37724 48.2388 3.44622C47.6873 3.51115 47.2193 3.87281 47.0168 4.3907C46.8514 4.81323 46.446 5.07243 46.0166 5.07243Z" fill="black"/>
<path id="Fill 22" fill-rule="evenodd" clip-rule="evenodd" d="M30.2406 47.3125C30.2406 46.8631 30.4889 46.4355 30.9366 46.047L30.3831 46.0444H30.2406C29.5385 46.0444 28.9688 46.612 28.9688 47.3125C28.9688 48.013 29.5385 48.5806 30.2406 48.5806L30.9442 48.5842C30.4924 48.1936 30.2406 47.764 30.2406 47.3125Z" fill="black"/>
<path id="Fill 24" fill-rule="evenodd" clip-rule="evenodd" d="M38.9971 49.2799C34.3156 49.2799 31.633 47.8977 31.5155 47.3195V47.3169C31.6335 46.7265 34.3171 45.3453 38.9971 45.3453C43.6633 45.3453 46.3454 46.7189 46.4782 47.3124C46.3464 47.9058 43.6648 49.2799 38.9971 49.2799ZM66.0462 98.2196C58.7523 89.131 50.911 81.8131 49.0225 80.0879V47.4006C49.0225 47.3899 49.0195 47.3803 49.0195 47.3702C49.02 47.3504 49.0225 47.3316 49.0225 47.3123C49.0225 44.2182 43.8257 42.8091 38.9972 42.8091C34.1687 42.8091 28.9719 44.2182 28.9719 47.3123L28.9724 80.0879C27.0432 81.8506 18.9012 89.4505 11.4715 98.8177C11.036 99.367 11.1291 100.164 11.6801 100.599C11.9136 100.783 12.1919 100.872 12.4681 100.872C12.8436 100.872 13.216 100.708 13.4668 100.391C21.7792 89.9111 30.9982 81.6776 31.0903 81.596C31.3614 81.355 31.5161 81.0111 31.5161 80.6495L31.5156 50.441C33.4732 51.3733 36.2927 51.8161 38.9972 51.8161C41.7017 51.8161 44.5212 51.3733 46.4788 50.441V80.6495C46.4788 81.0111 46.6335 81.355 46.9041 81.596C46.9932 81.6746 55.8759 89.6068 64.06 99.8037C64.3114 100.117 64.6807 100.28 65.0536 100.28C65.3324 100.28 65.6132 100.189 65.8478 100.002C66.3962 99.5643 66.4847 98.7664 66.0462 98.2196Z" fill="black"/>
<path id="Fill 26" fill-rule="evenodd" clip-rule="evenodd" d="M20.358 18.4289C20.3381 17.7751 20.8545 17.2293 21.5103 17.21C22.1661 17.1907 22.7135 17.7046 22.7328 18.3584C22.7526 19.0122 22.2363 19.5585 21.5805 19.5778C20.9247 19.5971 20.3773 19.0827 20.358 18.4289Z" fill="black"/>
<path id="Fill 28" fill-rule="evenodd" clip-rule="evenodd" d="M46.7623 33.8298C46.7424 33.1759 47.2588 32.6302 47.9146 32.6109C48.5704 32.5916 49.1178 33.1059 49.1371 33.7598C49.1569 34.4136 48.6406 34.9599 47.9848 34.9792C47.329 34.9984 46.7816 34.4836 46.7623 33.8298Z" fill="black"/>
<path id="Fill 30" fill-rule="evenodd" clip-rule="evenodd" d="M34.9458 81.6105C34.9265 80.9567 35.4424 80.4114 36.0981 80.3916C36.7544 80.3724 37.3013 80.8867 37.3207 81.5405C37.3405 82.1944 36.8241 82.7407 36.1684 82.7599C35.5126 82.7792 34.9652 82.2649 34.9458 81.6105Z" fill="black"/>
<path id="Fill 32" fill-rule="evenodd" clip-rule="evenodd" d="M14.0074 110.305C13.7428 110.305 13.4768 110.224 13.2483 110.054C12.6852 109.636 12.5687 108.841 12.9884 108.28C13.5465 107.533 14.1295 106.785 14.7212 106.056C15.1633 105.512 15.9645 105.429 16.5099 105.869C17.0558 106.309 17.1402 107.108 16.6981 107.653C16.1278 108.354 15.5662 109.075 15.0284 109.795C14.7786 110.129 14.3956 110.305 14.0074 110.305Z" fill="white"/>
<path id="Fill 34" fill-rule="evenodd" clip-rule="evenodd" d="M6.77045 122.987C6.63563 122.987 6.49878 122.966 6.36396 122.92C5.69903 122.697 5.34087 121.979 5.56472 121.315C5.61967 121.153 6.95055 117.269 10.5815 111.716C10.9656 111.13 11.7531 110.964 12.3417 111.347C12.9298 111.73 13.0962 112.515 12.7126 113.102C9.27501 118.358 7.98839 122.088 7.97567 122.125C7.79608 122.654 7.30056 122.987 6.77045 122.987Z" fill="white"/>
</g>
</svg>
