<svg width="88" height="79" viewBox="0 0 88 79" fill="none" xmlns="http://www.w3.org/2000/svg">
<path d="M87.646 39.7946C87.646 34.0076 80.3989 28.5233 69.2879 25.1224C71.852 13.7976 70.7124 4.78773 65.691 1.90313C64.5337 1.2265 63.1804 0.905989 61.7025 0.905989V4.87676C62.5215 4.87676 63.1804 5.03702 63.7324 5.33972C66.154 6.7286 67.2046 12.017 66.3855 18.819C66.1896 20.4928 65.8691 22.2556 65.4774 24.054C61.9874 23.1993 58.1769 22.5405 54.1705 22.1131C51.7666 18.819 49.2738 15.8275 46.7631 13.21C52.5679 7.81478 58.0166 4.85896 61.7203 4.85896V0.888184C56.8236 0.888184 50.4134 4.37819 43.9319 10.4323C37.4505 4.4138 31.0403 0.959408 26.1436 0.959408V4.93018C29.8295 4.93018 35.296 7.8682 41.1008 13.2278C38.6079 15.8454 36.115 18.819 33.7468 22.1131C29.7226 22.5405 25.9121 23.1993 22.4221 24.0718C22.0126 22.2912 21.7099 20.564 21.4962 18.908C20.6593 12.1061 21.6921 6.81763 24.0959 5.41095C24.6301 5.09044 25.3245 4.94799 26.1436 4.94799V0.977214C24.6479 0.977214 23.2946 1.29772 22.1194 1.97436C17.1159 4.85895 15.9941 13.8511 18.576 25.1402C7.50055 28.5589 0.289062 34.0254 0.289062 39.7946C0.289062 45.5816 7.53616 51.0659 18.6472 54.4669C16.0831 65.7916 17.2227 74.8015 22.244 77.6861C23.4014 78.3627 24.7547 78.6833 26.2504 78.6833C31.1471 78.6833 37.5573 75.1932 44.0388 69.1392C50.5202 75.1576 56.9304 78.612 61.8271 78.612C63.3228 78.612 64.6761 78.2915 65.8513 77.6149C70.8548 74.7303 71.9766 65.7382 69.3947 54.4491C80.4345 51.0481 87.646 45.5638 87.646 39.7946ZM64.4624 27.9179C63.8036 30.2149 62.9845 32.5831 62.0586 34.9513C61.3285 33.5269 60.5629 32.1024 59.726 30.6779C58.9069 29.2534 58.0344 27.8645 57.1619 26.5112C59.6904 26.8852 62.1298 27.3481 64.4624 27.9179ZM56.3072 46.8815C54.9183 49.2853 53.4938 51.5645 52.0159 53.6834C49.3628 53.9149 46.6741 54.0395 43.9675 54.0395C41.2788 54.0395 38.5901 53.9149 35.9548 53.7012C34.4769 51.5823 33.0346 49.3209 31.6457 46.9349C30.2924 44.6023 29.0638 42.2341 27.942 39.848C29.046 37.462 30.2924 35.076 31.6279 32.7434C33.0168 30.3396 34.4413 28.0604 35.9192 25.9414C38.5723 25.71 41.261 25.5853 43.9675 25.5853C46.6563 25.5853 49.345 25.71 51.9803 25.9236C53.4582 28.0426 54.9005 30.3039 56.2894 32.69C57.6427 35.0226 58.8713 37.3908 59.9931 39.7768C58.8713 42.1628 57.6427 44.5489 56.3072 46.8815ZM62.0586 44.5667C63.0201 46.9527 63.8392 49.3387 64.5158 51.6535C62.1832 52.2233 59.726 52.7041 57.1797 53.078C58.0522 51.7069 58.9247 50.3002 59.7438 48.858C60.5629 47.4335 61.3285 45.9912 62.0586 44.5667ZM44.0032 63.5658C42.3472 61.8564 40.6912 59.9512 39.0531 57.8679C40.6556 57.9391 42.2938 57.9925 43.9497 57.9925C45.6235 57.9925 47.2795 57.9569 48.8999 57.8679C47.2973 59.9512 45.6413 61.8564 44.0032 63.5658ZM30.7554 53.078C28.2269 52.7041 25.7875 52.2411 23.4549 51.6713C24.1137 49.3743 24.9328 47.0061 25.8587 44.6379C26.5887 46.0624 27.3544 47.4869 28.1913 48.9114C29.0282 50.3359 29.8829 51.7247 30.7554 53.078ZM43.9141 16.0234C45.5701 17.7328 47.2261 19.6381 48.8642 21.7214C47.2617 21.6502 45.6235 21.5967 43.9675 21.5967C42.2938 21.5967 40.6378 21.6323 39.0174 21.7214C40.62 19.6381 42.276 17.7328 43.9141 16.0234ZM30.7376 26.5112C29.8651 27.8823 28.9926 29.289 28.1735 30.7313C27.3544 32.1558 26.5887 33.5803 25.8587 35.0048C24.8972 32.6187 24.0781 30.2327 23.4014 27.9179C25.7341 27.3659 28.1913 26.8852 30.7376 26.5112ZM14.623 48.8045C8.31964 46.1158 4.24203 42.5902 4.24203 39.7946C4.24203 36.9991 8.31964 33.4556 14.623 30.7847C16.1543 30.1259 17.8281 29.5383 19.5553 28.9863C20.5703 32.4763 21.9057 36.1087 23.5617 39.8302C21.9235 43.5339 20.6059 47.1486 19.6087 50.6208C17.8459 50.0688 16.1722 49.4634 14.623 48.8045ZM24.2027 74.2495C21.7811 72.8606 20.7305 67.5722 21.5496 60.7703C21.7455 59.0965 22.066 57.3337 22.4577 55.5353C25.9477 56.39 29.7582 57.0488 33.7646 57.4761C36.1685 60.7703 38.6613 63.7617 41.172 66.3792C35.3672 71.7745 29.9185 74.7303 26.2148 74.7303C25.4135 74.7125 24.7369 74.5522 24.2027 74.2495ZM66.4389 60.6812C67.2758 67.4832 66.243 72.7716 63.8392 74.1783C63.305 74.4988 62.6106 74.6413 61.7915 74.6413C58.1056 74.6413 52.6391 71.7032 46.8343 66.3436C49.3272 63.7261 51.8201 60.7525 54.1883 57.4583C58.2125 57.031 62.023 56.3722 65.513 55.4996C65.9225 57.2981 66.243 59.0253 66.4389 60.6812ZM73.2943 48.8045C71.7629 49.4634 70.0892 50.051 68.362 50.603C67.347 47.1129 66.0116 43.4805 64.3556 39.759C65.9938 36.0553 67.3114 32.4407 68.3086 28.9685C70.0714 29.5205 71.7451 30.1259 73.3121 30.7847C79.6155 33.4734 83.6931 36.9991 83.6931 39.7946C83.6753 42.5902 79.5977 46.1336 73.2943 48.8045Z" fill="black"/>
<path d="M43.948 47.932C48.4421 47.932 52.0854 44.2888 52.0854 39.7946C52.0854 35.3005 48.4421 31.6572 43.948 31.6572C39.4538 31.6572 35.8105 35.3005 35.8105 39.7946C35.8105 44.2888 39.4538 47.932 43.948 47.932Z" fill="black"/>
</svg>
