<svg xmlns="http://www.w3.org/2000/svg" viewBox="0 0 549.3 580.26"><defs><style>.cls-1{fill:#32f4b8;}.cls-2,.cls-4{fill:none;}.cls-2{stroke:#fff;}.cls-2,.cls-4,.cls-5{stroke-linecap:round;stroke-linejoin:round;}.cls-2,.cls-3,.cls-4,.cls-5{stroke-width:13px;}.cls-3,.cls-5{fill:#fff;stroke:#010101;}.cls-3{stroke-miterlimit:10;}.cls-4{stroke:#000;}.cls-6{fill:#010101;}</style></defs><g id="Layer_2" data-name="Layer 2"><g id="Layer_1-2" data-name="Layer 1"><path class="cls-1" d="M549,239.85c-.11-10.17-4.54-14.45-14.78-14.49-12.23-.05-24.47,0-36.7.19-13.74.26-22.79-6.13-27.83-18.71q-5-12.5-10.17-24.92c-5.21-12.52-2.93-23.46,6.62-33q13-13,25.8-26.12c6.5-6.67,6.56-12.49,0-19.08q-24.23-24.21-48.71-48.17c-6.61-6.47-12.43-6.29-19.08.33-9,8.92-17.76,18-26.72,26.92S377.74,94,365.89,89.29c-8.16-3.21-16.14-6.86-24.32-10-13.82-5.3-20.68-15-20.31-30,.3-11.61,0-23.24-.14-34.87C321,4.62,316.61,0,306.93,0q-33.66,0-67.3.37c-9.75.11-14.19,4.74-14.21,14.44,0,12.44,0,24.88.2,37.32.22,13.18-5.86,22.13-17.86,27.17-8.64,3.63-17.38,7-26,10.66-12.31,5.12-23.1,2.83-32.51-6.48-8.69-8.61-17.36-17.25-26.12-25.79-7-6.79-12.69-6.87-19.52,0q-24,24-47.76,48.29c-6.76,6.9-6.61,12.63.26,19.52,8.93,9,18,17.74,26.92,26.72s11,19.31,6.45,30.93c-3.46,8.93-7.28,17.73-11,26.57C73.36,221.9,64.31,228.12,50.92,228c-12-.08-24.06.06-36.09.2C4.39,228.34,0,232.74,0,243.31q0,33,.36,66.07C.47,319.55,5,323.93,15.07,323.94c12.24,0,24.47-.13,36.71-.18,14.07-.05,22.36,5.48,27.84,18.62,3.45,8.28,6.73,16.63,10.19,24.91,5.22,12.5,3,23.46-6.54,33q-13,13-25.79,26.12c-6.53,6.7-6.58,12.48-.09,19.08,8,8.14,16.22,16.09,24.33,24.12s16.16,16.14,24.38,24.06c6.7,6.46,12.47,6.36,19.08-.22,9-8.92,17.79-18,26.72-26.93s19.54-11.3,31.41-6.62c8.53,3.37,16.91,7.11,25.43,10.5,13.08,5.2,19.48,14.64,19.28,28.79-.17,11.83,0,23.66.18,35.49.16,10.22,4.5,14.57,14.7,14.57q33,0,66.07-.36c10.41-.1,14.88-4.65,14.92-15.07,0-12.43-.06-24.87-.16-37.31-.11-12.94,6-21.65,17.81-26.57,8.65-3.62,17.38-7.05,26-10.66,12.32-5.13,23.1-2.82,32.52,6.48,8.7,8.6,17.36,17.25,26.12,25.79,6.89,6.72,12.78,6.79,19.56,0q24-24,47.76-48.28c6.73-6.87,6.55-12.61-.34-19.52-8.78-8.81-17.69-17.49-26.49-26.28-9.2-9.18-11.45-19.9-6.62-32,3.33-8.33,7-16.53,10.29-24.87,5.16-13.06,14.51-19.61,28.69-19.44,11.82.15,23.65,0,35.48-.19,10.32-.15,14.75-4.42,14.75-14.51Q549.3,273.19,549,239.85ZM275.38,418.75A144.36,144.36,0,1,1,419.73,274.39,144.36,144.36,0,0,1,275.38,418.75Z"/><path class="cls-2" d="M376.71,140.47c23.53,14,41.83,36,54.2,60.54"/><path class="cls-2" d="M348.53,130a33.43,33.43,0,0,1,4.51,1.6"/><path class="cls-3" d="M342.76,573.76H204.64c-13.77,0-20.94-11.7-20.94-24.81V469.3l177.35.65-.33,85.77C360.72,565.31,356.54,573.76,342.76,573.76Z"/><path class="cls-3" d="M361.05,494.11H183.7l.49-158.47c0-6.24,3.26-9,7.27-9H354.27c4,0,7.29,2.78,7.28,6.21Z"/><path class="cls-4" d="M308,551.47l24.2.22a5.26,5.26,0,0,0,5.25-5.25V514.69"/><line class="cls-4" x1="289.24" y1="551.47" x2="291.03" y2="551.69"/><path class="cls-5" d="M278,204.44a8.49,8.49,0,0,0-10.06,0c-61.14,45.5-85.42,132.89-82.78,122.49h175.6S341.47,251,278,204.44Z"/><path class="cls-6" d="M314.87,244.48c-11.35-13.88-25.2-33.95-41.95-45.4-16.41,11.21-30,31-41.24,44.54C266.73,263.34,298,253.31,314.87,244.48Z"/><rect class="cls-3" x="242.74" y="326.94" width="66.88" height="167.17"/></g></g></svg>