<svg width="373" height="390" viewBox="0 0 373 390" fill="none" xmlns="http://www.w3.org/2000/svg">
<g id="Group 14">
<g id="Group 15 Copy">
<g id="Fill 31">
<path fill-rule="evenodd" clip-rule="evenodd" d="M87.4306 73.4579C86.5393 73.2034 81.6303 73.6869 80.8126 73.8283C78.9593 74.145 76.2261 73.7916 75.2386 75.4881C74.3982 76.9302 75.0207 79.2263 75.0094 81.1462C74.9528 90.4548 73.1618 99.4382 69.659 108.04C68.8526 110.019 68.8752 110.443 71.2151 110.686C77.2956 111.317 83.3336 111.051 89.3885 110.619C90.376 110.548 92.5151 110.293 93.0951 110.766C94.7701 114.063 87.4136 113.783 84.5332 114.218C78.8518 115.078 74.7689 114.348 67.6586 113.534C65.3441 113.268 64.5349 112.519 66.0401 109.83C67.602 107.045 67.7972 103.544 68.68 100.371C70.9181 92.3493 71.7188 84.0955 71.5943 75.7624C71.5632 73.6247 72.5195 72.3693 74.6586 72.0215C77.686 71.5295 80.7079 71.0148 83.7297 70.5059C83.7919 71.75 88.2539 72.3693 87.4306 73.4579Z" fill="#050505"/>
<path d="M87.4306 73.4579C86.5393 73.2034 81.6303 73.6869 80.8126 73.8283C78.9593 74.145 76.2261 73.7916 75.2386 75.4881C74.3982 76.9302 75.0207 79.2263 75.0094 81.1462C74.9528 90.4548 73.1618 99.4382 69.659 108.04C68.8526 110.019 68.8752 110.443 71.2151 110.686C77.2956 111.317 83.3336 111.051 89.3885 110.619C90.376 110.548 92.5151 110.293 93.0951 110.766C94.7701 114.063 87.4136 113.783 84.5332 114.218C78.8518 115.078 74.7689 114.348 67.6586 113.534C65.3441 113.268 64.5349 112.519 66.0401 109.83C67.602 107.045 67.7972 103.544 68.68 100.371C70.9181 92.3493 71.7188 84.0955 71.5943 75.7624C71.5632 73.6247 72.5195 72.3693 74.6586 72.0215C77.686 71.5295 80.7079 71.0148 83.7297 70.5059C83.7919 71.75 88.2539 72.3693 87.4306 73.4579" stroke="black" stroke-width="0.866592"/>
</g>
<g id="Fill 42">
<path fill-rule="evenodd" clip-rule="evenodd" d="M78.611 99.1561C78.4525 99.5039 78.6845 99.897 79.0693 99.8942C83.6445 99.8913 88.2678 99.863 92.8882 99.9224C93.9238 99.9337 94.269 99.4785 94.3595 98.6245C94.8236 94.3322 96.5354 90.2746 96.6089 85.8917C96.6485 83.6947 95.9242 83.9887 92.1865 84.673C88.9836 85.2583 85.7043 85.1509 82.4646 84.8087C80.7217 84.6249 80.8377 85.5128 80.7642 86.5788C80.4614 90.9673 80.3256 95.3954 78.611 99.1561ZM86.6984 102.793C83.5351 102.569 79.7126 103.712 76.2861 102.202C75.0129 101.642 74.5319 100.686 74.7696 99.9227C76.2833 95.0535 76.6455 89.418 77.9923 84.5319C78.3431 83.2623 78.8468 82.5129 80.567 82.3065C86.0335 81.6562 91.5622 82.3263 96.9975 81.3621C98.234 81.1415 98.7037 81.741 98.9781 83.0728C99.7675 86.9325 99.097 90.6084 98.2198 94.3324C95.8063 104.602 97.2465 102.496 86.6984 102.793Z" fill="#050505"/>
<path d="M79.0693 99.8942L79.0691 99.4608L79.0661 99.4609L79.0693 99.8942ZM92.8882 99.9224L92.8827 100.356L92.8835 100.356L92.8882 99.9224ZM94.3595 98.6245L93.9288 98.578L93.9287 98.5789L94.3595 98.6245ZM96.6089 85.8917L96.1757 85.8839L96.1757 85.8845L96.6089 85.8917ZM92.1865 84.673L92.2644 85.0993L92.2646 85.0992L92.1865 84.673ZM82.4646 84.8087L82.5101 84.3778L82.5101 84.3778L82.4646 84.8087ZM80.7642 86.5788L80.3319 86.549L80.3319 86.549L80.7642 86.5788ZM76.2861 102.202L76.4609 101.805L76.4605 101.805L76.2861 102.202ZM74.7696 99.9227L75.1833 100.051L75.1833 100.051L74.7696 99.9227ZM77.9923 84.5319L77.5746 84.4165L77.5746 84.4167L77.9923 84.5319ZM80.567 82.3065L80.5159 81.8763L80.5154 81.8763L80.567 82.3065ZM96.9975 81.3621L97.0732 81.7887L97.0736 81.7887L96.9975 81.3621ZM98.9781 83.0728L99.4026 82.986L99.4025 82.9854L98.9781 83.0728ZM98.2198 94.3324L97.7981 94.2331L97.798 94.2333L98.2198 94.3324ZM78.2167 98.9765C77.9392 99.5856 78.342 100.333 79.0725 100.327L79.0661 99.4609C79.0458 99.461 79.0344 99.4563 79.0279 99.4526C79.0204 99.4484 79.0127 99.4414 79.0063 99.4309C78.9936 99.4102 78.9866 99.3767 79.0053 99.3358L78.2167 98.9765ZM79.0696 100.327C83.648 100.325 88.2661 100.296 92.8827 100.356L92.8938 99.4892C88.2695 99.4297 83.6411 99.458 79.0691 99.4609L79.0696 100.327ZM92.8835 100.356C93.4576 100.362 93.9364 100.241 94.2792 99.9097C94.6156 99.585 94.7413 99.1336 94.7904 98.6702L93.9287 98.5789C93.8873 98.9694 93.7951 99.1726 93.6774 99.2862C93.566 99.3936 93.3545 99.4942 92.893 99.4892L92.8835 100.356ZM94.7903 98.6711C95.0187 96.5589 95.5537 94.5052 96.0524 92.3916C96.548 90.2906 97.0045 88.141 97.0422 85.899L96.1757 85.8845C96.1398 88.0253 95.7036 90.0959 95.2089 92.1926C94.7173 94.2766 94.1644 96.3979 93.9288 98.578L94.7903 98.6711ZM97.0422 85.8995C97.0521 85.3468 97.0191 84.8675 96.856 84.5017C96.7693 84.3074 96.644 84.1394 96.4691 84.011C96.2968 83.8844 96.099 83.8128 95.8908 83.7754C95.4916 83.7037 94.988 83.7479 94.3953 83.8373C93.7935 83.9282 93.0336 84.0774 92.1085 84.2468L92.2646 85.0992C93.2083 84.9265 93.9406 84.7824 94.5246 84.6942C95.1177 84.6047 95.4935 84.5845 95.7376 84.6283C95.8511 84.6487 95.916 84.6799 95.9561 84.7094C95.9936 84.737 96.0305 84.7783 96.0645 84.8547C96.1428 85.0303 96.1855 85.3381 96.1757 85.8839L97.0422 85.8995ZM92.1087 84.2468C88.9643 84.8214 85.7319 84.7181 82.5101 84.3778L82.4191 85.2396C85.6768 85.5837 89.0029 85.6953 92.2644 85.0993L92.1087 84.2468ZM82.5101 84.3778C81.5922 84.281 80.9496 84.4441 80.6162 85.0032C80.47 85.2484 80.4144 85.5265 80.3854 85.7768C80.3573 86.0189 80.3484 86.3104 80.3319 86.549L81.1964 86.6087C81.2167 86.3143 81.2209 86.0951 81.2462 85.8766C81.2706 85.6663 81.3087 85.534 81.3606 85.447C81.4233 85.3417 81.5941 85.1526 82.4192 85.2396L82.5101 84.3778ZM80.3319 86.549C80.0266 90.9737 79.8907 95.3047 78.2167 98.9764L79.0052 99.3359C80.7604 95.4861 80.8962 90.9609 81.1964 86.6087L80.3319 86.549ZM86.7289 102.36C85.9088 102.303 85.0537 102.334 84.1925 102.386C83.321 102.439 82.4586 102.512 81.5742 102.547C79.8155 102.615 78.083 102.52 76.4609 101.805L76.1114 102.598C77.9157 103.393 79.8077 103.482 81.6077 103.413C82.5027 103.378 83.4032 103.302 84.2451 103.251C85.0974 103.199 85.9064 103.171 86.6679 103.225L86.7289 102.36ZM76.4605 101.805C75.2938 101.292 75.038 100.518 75.1833 100.051L74.3558 99.7939C74.0258 100.854 74.7319 101.992 76.1117 102.598L76.4605 101.805ZM75.1833 100.051C75.9499 97.5855 76.4229 94.9324 76.8707 92.3064C77.3201 89.6702 77.7437 87.0644 78.41 84.647L77.5746 84.4167C76.8941 86.8854 76.4631 89.5404 76.0164 92.1608C75.5679 94.7914 75.103 97.3906 74.3558 99.794L75.1833 100.051ZM78.4099 84.6473C78.5795 84.0337 78.7677 83.6216 79.0672 83.3321C79.3602 83.049 79.8131 82.8334 80.6187 82.7367L80.5154 81.8763C79.6007 81.9861 78.9416 82.2484 78.465 82.7089C77.995 83.1631 77.7559 83.7604 77.5746 84.4165L78.4099 84.6473ZM80.6182 82.7368C83.3231 82.415 86.0442 82.4197 88.7994 82.3853C91.5444 82.351 94.3171 82.2776 97.0732 81.7887L96.9218 80.9355C94.2426 81.4108 91.5333 81.4845 88.7885 81.5187C86.054 81.5529 83.2775 81.5477 80.5159 81.8763L80.6182 82.7368ZM97.0736 81.7887C97.6159 81.6919 97.8817 81.7906 98.0513 81.9506C98.2536 82.1413 98.4191 82.5071 98.5537 83.1603L99.4025 82.9854C99.2626 82.3067 99.0561 81.7069 98.6458 81.32C98.2029 80.9025 97.6156 80.8117 96.9214 80.9355L97.0736 81.7887ZM98.5536 83.1596C99.3226 86.9197 98.6737 90.5154 97.7981 94.2331L98.6416 94.4318C99.5202 90.7015 100.212 86.9453 99.4026 82.986L98.5536 83.1596ZM97.798 94.2333C97.1894 96.8231 96.8339 98.5865 96.4692 99.8226C96.1035 101.062 95.7639 101.63 95.2786 101.936C94.7689 102.257 94.0104 102.352 92.6077 102.356C91.2474 102.361 89.3266 102.285 86.6862 102.36L86.7106 103.226C89.3443 103.152 91.199 103.228 92.6107 103.223C93.98 103.218 94.9901 103.142 95.7406 102.669C96.5154 102.181 96.9276 101.331 97.3003 100.068C97.674 98.8012 98.0435 96.9768 98.6416 94.4316L97.798 94.2333Z" fill="black"/>
</g>
<g id="Fill 50">
<path fill-rule="evenodd" clip-rule="evenodd" d="M93.1881 68.7478C96.1137 68.3604 98.9771 67.5941 101.971 67.645C103.473 67.6704 104.345 68.3067 104.735 69.63C105.188 71.1654 105.754 72.7234 105.864 74.2984C106.747 86.9068 105.547 99.3088 101.846 111.422C101.549 112.392 101.396 113.888 99.9872 113.868C98.0604 113.84 97.4096 112.717 97.9529 110.803C101.031 99.9592 102.822 88.9427 102.398 77.6209C102.157 71.1258 101.388 70.4189 95.2989 71.8695C94.3652 72.0957 93.4569 72.1381 92.5374 72.2625C92.8005 71.1004 91.9998 69.7403 93.1881 68.7478Z" fill="#050505"/>
<path d="M93.1881 68.7478C96.1137 68.3604 98.9771 67.5941 101.971 67.645C103.473 67.6704 104.345 68.3067 104.735 69.63C105.188 71.1654 105.754 72.7234 105.864 74.2984C106.747 86.9068 105.547 99.3088 101.846 111.422C101.549 112.392 101.396 113.888 99.9872 113.868C98.0604 113.84 97.4096 112.717 97.9529 110.803C101.031 99.9592 102.822 88.9427 102.398 77.6209C102.157 71.1258 101.388 70.4189 95.2989 71.8695C94.3652 72.0957 93.4569 72.1381 92.5374 72.2625C92.8005 71.1004 91.9998 69.7403 93.1881 68.7478" stroke="black" stroke-width="0.866592"/>
</g>
<g id="Fill 134">
<path fill-rule="evenodd" clip-rule="evenodd" d="M91.7492 96.34C90.9576 97.7222 89.5496 95.1134 88.9085 94.2379C87.9747 92.9602 87.1913 92.5269 85.903 93.7246C85.1134 94.4601 81.5616 97.2622 82.8294 94.3624C83.287 93.7402 83.6498 93.098 84.1425 92.6003C85.2206 91.5114 86.5873 90.5582 84.6331 88.976C84.3569 88.7494 84.2827 88.1072 84.7135 87.7717C85.1629 87.4206 85.8287 87.4606 86.0864 87.8361C87.1687 89.4182 88.1973 88.9205 89.4053 88.0339C90.0196 87.585 90.871 86.6184 91.5863 87.6672C92.3738 88.8205 91.3039 89.5405 90.5638 89.9582C89.0796 90.7915 89.2322 91.7381 90.1062 92.9002C90.8153 93.8446 91.2771 94.9268 91.7492 96.34Z" fill="#050505"/>
<path d="M91.7492 96.34C90.9576 97.7222 89.5496 95.1134 88.9085 94.2379C87.9747 92.9602 87.1913 92.5269 85.903 93.7246C85.1134 94.4601 81.5616 97.2622 82.8294 94.3624C83.287 93.7402 83.6498 93.098 84.1425 92.6003C85.2206 91.5114 86.5873 90.5582 84.6331 88.976C84.3569 88.7494 84.2827 88.1072 84.7135 87.7717C85.1629 87.4206 85.8287 87.4606 86.0864 87.8361C87.1687 89.4182 88.1973 88.9205 89.4053 88.0339C90.0196 87.585 90.871 86.6184 91.5863 87.6672C92.3738 88.8205 91.3039 89.5405 90.5638 89.9582C89.0796 90.7915 89.2322 91.7381 90.1062 92.9002C90.8153 93.8446 91.2771 94.9268 91.7492 96.34" stroke="black" stroke-width="0.866592"/>
</g>
<g id="Fill 138">
<path fill-rule="evenodd" clip-rule="evenodd" d="M83.0098 75.1651C83.007 72.2357 83.1145 66.7246 83.9011 63.88C84.051 63.3286 84.4811 62.913 85.03 62.7631L92.6666 60.6961C93.7729 60.3964 94.8283 61.3125 94.6699 62.4464C94.2313 65.6218 93.2269 68.5287 93.524 73.6947C93.5692 74.4525 92.9892 75.1001 92.2451 75.2471L84.9253 76.7231C83.935 76.9211 83.0098 76.1717 83.0098 75.1651Z" fill="#36F2B9"/>
<path d="M83.0098 75.1651C83.007 72.2357 83.1145 66.7246 83.9011 63.88C84.051 63.3286 84.4811 62.913 85.03 62.7631L92.6666 60.6961C93.7729 60.3964 94.8283 61.3125 94.6699 62.4464C94.2313 65.6218 93.2269 68.5287 93.524 73.6947C93.5692 74.4525 92.9892 75.1001 92.2451 75.2471L84.9253 76.7231C83.935 76.9211 83.0098 76.1717 83.0098 75.1651" stroke="#36F2B9" stroke-width="0.866592"/>
</g>
</g>
<g id="Group 14 Copy 5">
<g id="Fill 33">
<path fill-rule="evenodd" clip-rule="evenodd" d="M19.0968 41.751C16.2787 42.2147 13.4634 42.6982 10.6396 43.1365C7.71683 43.5918 6.87649 45.4467 6.91327 48.1697C7.00948 54.9701 6.81425 61.7876 5.02322 68.3788C3.84335 72.7248 3.13033 77.2236 1.33648 81.3915C0.498972 83.3341 1.26008 84.321 3.11619 84.6631C9.60406 85.8592 16.1117 86.5265 22.6619 85.0929C24.7585 84.6348 31.5434 84.5019 28.448 81.9344C22.8146 81.3435 17.6 82.7431 12.3627 82.2681C11.1206 82.155 9.88983 82.1522 8.63639 81.9203C4.52241 81.1597 4.45733 81.2106 5.90317 77.1953C7.89226 71.6701 9.92944 66.0912 10.1954 60.2154C10.3737 56.2115 10.9876 52.1595 10.2973 48.1273C10.0426 46.6541 10.4218 46.2215 12.1024 46.2497C14.199 46.2865 19.6796 45.8312 21.7819 45.475C22.6222 44.4203 19.0374 42.9612 19.0968 41.751Z" fill="#050505"/>
<path d="M19.0968 41.751C16.2787 42.2147 13.4634 42.6982 10.6396 43.1365C7.71683 43.5918 6.87649 45.4467 6.91328 48.1697C7.00948 54.9701 6.81425 61.7876 5.02322 68.3788C3.84335 72.7248 3.13034 77.2236 1.33648 81.3915C0.498971 83.3341 1.26008 84.321 3.11619 84.6631C9.60406 85.8592 16.1117 86.5265 22.6619 85.0929C24.7585 84.6348 31.5434 84.5019 28.448 81.9344C22.8146 81.3435 17.6 82.7431 12.3627 82.2681C11.1206 82.155 9.88983 82.1522 8.63639 81.9203C4.52241 81.1597 4.45733 81.2106 5.90317 77.1953C7.89226 71.6701 9.92944 66.0912 10.1954 60.2154C10.3737 56.2115 10.9876 52.1595 10.2973 48.1273C10.0426 46.6541 10.4218 46.2215 12.1024 46.2497C14.199 46.2865 19.6796 45.8312 21.7819 45.475C22.6222 44.4203 19.0374 42.9612 19.0968 41.751" stroke="black" stroke-width="0.866592"/>
</g>
<g id="Fill 44">
<path fill-rule="evenodd" clip-rule="evenodd" d="M28.9152 43.5267C31.4815 43.1591 34.1015 43.1365 36.5943 42.2882C37.6808 41.9177 38.0769 42.3447 38.207 43.521C39.07 51.3111 38.7984 59.0504 37.7543 66.8094C37.0809 71.7973 36.0425 76.6806 34.7976 81.5442C34.5316 82.5819 33.861 84.2361 35.8982 84.8779C38.0033 85.5368 38.2806 83.5914 38.5098 82.7205C39.7066 78.2076 40.8214 73.6409 41.5175 69.0319C42.7568 60.8487 42.5728 52.6005 42.1286 44.3523C41.8825 39.7405 40.7309 38.5105 36.2095 38.9035C33.9572 39.0986 31.7277 39.5793 29.4896 39.9328C28.3352 40.9761 29.0029 42.3108 28.9152 43.5267Z" fill="#050505"/>
<path d="M28.9152 43.5267C31.4815 43.1591 34.1015 43.1365 36.5943 42.2882C37.6808 41.9177 38.0769 42.3447 38.207 43.521C39.07 51.3111 38.7984 59.0504 37.7543 66.8094C37.0809 71.7973 36.0425 76.6806 34.7976 81.5442C34.5316 82.5819 33.861 84.2361 35.8982 84.8779C38.0033 85.5368 38.2806 83.5914 38.5098 82.7205C39.7066 78.2076 40.8214 73.6409 41.5175 69.0319C42.7568 60.8487 42.5728 52.6005 42.1286 44.3523C41.8825 39.7405 40.7309 38.5105 36.2095 38.9035C33.9572 39.0986 31.7277 39.5793 29.4896 39.9328C28.3352 40.9761 29.0029 42.3108 28.9152 43.5267" stroke="black" stroke-width="0.866592"/>
</g>
<g id="Fill 82">
<path fill-rule="evenodd" clip-rule="evenodd" d="M17.7075 64.7255C17.931 64.6859 18.1517 64.6379 18.3611 64.57C19.6513 64.1798 20.6473 63.3117 22.0818 63.4361C23.8106 63.5888 25.1743 64.5332 26.7871 63.3626C27.7887 62.6387 28.4961 63.7217 29.2176 64.2901C30.5587 65.3532 32.1545 66.0291 33.5721 64.8754C35.0179 63.6963 35.779 61.929 35.6376 59.9468C35.5753 59.0759 35.5498 58.0749 34.353 58.0438C33.4532 58.0155 33.1731 58.6914 32.9072 59.5142C32.4233 61.0157 32.0583 63.2269 30.0947 60.2805C29.1327 58.8356 27.5115 59.0194 26.0883 59.961C24.8518 60.7781 23.6974 61.3324 22.1242 60.4756C21.2726 60.009 20.1153 60.2126 19.1335 60.8715C17.8773 61.7169 16.372 61.7791 15.0054 61.2928C13.5992 60.7923 12.241 60.9139 11.9043 62.2655C11.2111 65.0394 16.0806 65.0083 17.7075 64.7255Z" fill="#050505"/>
<path d="M17.7075 64.7255C17.931 64.6859 18.1517 64.6379 18.3611 64.57C19.6513 64.1798 20.6473 63.3117 22.0818 63.4361C23.8106 63.5888 25.1743 64.5332 26.7871 63.3626C27.7887 62.6387 28.4961 63.7217 29.2176 64.2901C30.5587 65.3532 32.1545 66.0291 33.5721 64.8754C35.0179 63.6963 35.779 61.929 35.6376 59.9468C35.5753 59.0759 35.5498 58.0749 34.353 58.0438C33.4532 58.0155 33.1731 58.6914 32.9072 59.5142C32.4233 61.0157 32.0583 63.2269 30.0947 60.2805C29.1327 58.8356 27.5115 59.0194 26.0883 59.961C24.8518 60.7781 23.6974 61.3324 22.1242 60.4756C21.2726 60.009 20.1153 60.2126 19.1335 60.8715C17.8773 61.7169 16.372 61.7791 15.0054 61.2928C13.5992 60.7923 12.241 60.9139 11.9043 62.2655C11.2111 65.0394 16.0806 65.0083 17.7075 64.7255" stroke="black" stroke-width="0.866592"/>
</g>
<g id="Fill 96">
<path fill-rule="evenodd" clip-rule="evenodd" d="M20.0637 74.1225C22.828 74.2752 25.598 74.23 28.3652 74.2979C30.4505 74.3516 32.0236 73.9359 32.1368 71.4985C32.2132 69.7963 31.735 69.7482 30.1562 70.096C27.7653 70.6219 25.4339 70.1837 23.0345 70.1356C20.4711 70.079 17.8878 70.1045 15.3215 70.1328C14.3171 70.1441 13.3721 70.4042 13.2306 71.6512C13.0439 73.3365 16.3684 73.9218 20.0637 74.1225Z" fill="#050505"/>
<path d="M20.0637 74.1225C22.828 74.2752 25.598 74.23 28.3652 74.2979C30.4505 74.3516 32.0236 73.9359 32.1368 71.4985C32.2132 69.7963 31.735 69.7482 30.1562 70.096C27.7653 70.6219 25.4339 70.1837 23.0346 70.1356C20.4711 70.079 17.8878 70.1045 15.3215 70.1328C14.3171 70.1441 13.3721 70.4042 13.2306 71.6512C13.0439 73.3365 16.3684 73.9218 20.0637 74.1225" stroke="black" stroke-width="0.866592"/>
</g>
<g id="Fill 158">
<path fill-rule="evenodd" clip-rule="evenodd" d="M30.7587 46.8733C30.1617 44.0061 28.9309 38.6336 27.5784 36.0095C27.3181 35.5034 26.8116 35.1839 26.2457 35.1499L18.346 34.6834C17.2029 34.6184 16.3569 35.7296 16.7417 36.8069C17.8225 39.8268 19.3985 42.465 20.1653 47.5859C20.2757 48.338 20.9745 48.8498 21.7356 48.8442L29.2025 48.7933C30.2126 48.7848 30.9652 47.863 30.7587 46.8733Z" fill="#36F2B9"/>
<path d="M30.7587 46.8733C30.1617 44.0061 28.9309 38.6336 27.5784 36.0095C27.3181 35.5034 26.8116 35.1839 26.2457 35.1499L18.346 34.6834C17.2029 34.6184 16.3569 35.7296 16.7417 36.8069C17.8226 39.8268 19.3985 42.465 20.1653 47.5859C20.2757 48.338 20.9745 48.8498 21.7356 48.8442L29.2025 48.7933C30.2126 48.7848 30.9652 47.863 30.7587 46.8733" stroke="#36F2B9" stroke-width="0.866592"/>
</g>
</g>
<g id="Group 28 Copy">
<g id="Fill 7">
<path fill-rule="evenodd" clip-rule="evenodd" d="M274.032 218.208C274.107 218.137 274.186 218.013 274.235 218.024C274.37 218.054 274.493 218.141 274.621 218.208C274.557 218.272 274.478 218.399 274.43 218.388C274.295 218.358 274.171 218.275 274.032 218.208ZM330.992 163.839C331.078 163.277 331.565 162.73 332.42 162.67C333.354 162.599 333.474 163.307 333.444 164.011C333.41 164.802 333.245 165.615 332.255 165.652C331.299 165.686 330.965 165.023 330.992 163.839ZM271.078 110.426C271.183 109.358 271.505 108.373 272.84 108.208C273.995 108.066 274.49 108.867 274.505 109.781C274.523 110.924 273.908 111.872 272.679 112.059C271.58 112.231 271.13 111.52 271.078 110.426ZM280.425 189.755C280.429 186.668 282.079 183.941 283.77 184.057C285.832 184.2 286.361 185.743 286.346 187.59C286.323 190.43 284.925 192.655 283.012 192.636C280.733 192.617 280.466 190.969 280.425 189.755ZM284.222 103.431C287.912 103.75 291.38 103.649 294.488 105.889C296.003 106.983 297.409 108.133 298.294 109.845C298.639 110.512 298.924 111.178 298.35 111.703C297.852 112.16 297.274 111.718 296.798 111.366C296.325 111.021 295.827 110.71 295.358 110.362C290.285 106.597 284.923 104.278 278.527 106.889C277.728 107.215 276.918 107.039 276.517 106.211C276.044 105.237 276.558 104.518 277.379 104.008C279.441 102.723 281.89 103.971 284.222 103.431ZM321.812 132.198C325.674 132.251 328.633 133.85 330.875 136.431C335.772 142.051 337.084 148.801 336.068 156.013C335.873 157.406 335.993 160.126 333.755 159.639C331.621 159.178 332.851 156.901 333.143 155.428C334.666 147.756 331.19 139.417 324.658 135.135C323.657 134.48 322.255 134.206 321.812 132.198ZM334.503 263.083C333.285 263.083 332.891 263.087 332.501 263.079C331.226 263.042 329.7 263.173 329.715 261.345C329.726 259.786 331.166 259.752 332.302 259.61C333.168 259.494 334.061 259.565 334.934 259.494C340.195 259.029 345.066 257.456 349.156 254.039C359.936 245.052 363.843 233.825 360.067 220.118C358.931 215.989 357.432 212.022 355.628 208.149C355.268 207.377 354.466 206.332 355.294 205.777C356.385 205.039 356.884 206.425 357.518 207.07C357.93 207.486 358.339 207.935 358.613 208.445C364.848 220.013 367.604 231.952 361.245 244.348C355.527 255.5 346.704 262.48 334.503 263.083ZM286.51 156.968C289.011 159.759 291.339 160.64 293.724 163.524C294.688 164.693 295.689 167.652 293.698 166.776C293.019 166.476 292.269 166.675 291.148 165.648C288.925 163.61 287.796 160.445 284.658 159.351C283.765 162.835 282.903 166.323 281.965 169.795C281.692 170.799 281.384 171.803 282.58 172.286C283.75 172.758 284.526 171.968 284.744 170.938C285.321 168.181 286.244 166.12 289.727 167.169C292.49 168.001 294.74 171.267 294.395 174.485C294.08 177.422 293.008 180.135 290.049 181.274C286.975 182.45 284.309 181.442 282.284 178.827C280.882 177.018 279.956 177.085 279.12 179.378C274.826 191.186 272.419 203.223 274.38 215.836C274.478 216.473 274.815 217.248 274.065 217.683C273.405 218.072 273.057 217.346 272.622 217.038C260.983 208.92 248.062 208.819 235.588 216.791C223.387 224.591 214.264 235.215 207.17 247.716C199.712 260.869 194.744 275.112 188.94 288.995C186.049 295.907 183.544 302.991 179.829 309.547C175.712 316.818 169.023 321.186 162.176 325.397C161.767 325.652 161.306 325.824 160.916 326.098C160.391 326.461 159.51 326.63 159.713 327.532C159.93 328.484 160.792 328.151 161.415 328.184C165.311 328.428 168.284 326.221 171.284 324.277C178.865 319.377 183.365 312.031 187.11 304.063C191.561 294.596 194.984 284.717 198.981 275.071C204.167 262.54 209.3 249.896 217.669 239.081C225.164 229.397 233.758 220.627 245.764 216.581C255.46 213.315 264.763 214.27 272.082 222.219C276.604 227.134 278.718 233.421 279.821 239.924C283.465 261.318 290.961 281.507 298.936 301.553C306.731 321.145 315.235 340.423 324.395 359.413C327.586 366.025 331.564 372.157 335.55 378.29C336.315 379.473 337.286 380.62 338.463 379.859C339.824 378.979 339.326 377.338 338.561 376.049C333.401 367.343 328.534 358.498 324.369 349.245C319.697 338.865 314.912 328.533 310.473 318.043C306.652 309.026 303.154 299.886 299.498 290.808C296.011 282.159 293.079 273.34 290.222 264.477C288.467 259.026 287.234 253.455 285.726 247.948C285.494 247.094 285.453 246.004 286.135 245.547C286.99 244.97 287.44 246.109 287.908 246.622C291.838 250.93 296.112 254.954 300.724 258.419C314.894 269.077 334.98 275.378 351.151 264.979C355.193 262.382 358.411 258.741 361.575 255.201C365.017 251.339 368.159 247.079 370.083 242.247C371.238 239.347 371.928 236.264 371.991 233.136C372.044 230.738 371.781 228.337 371.519 225.947C371.215 223.201 370.915 220.448 370.24 217.765C368.838 212.195 365.861 207.115 362.25 202.642C356.517 195.532 348.838 190.279 343.877 182.525C340.492 177.228 338.849 172.215 339.569 165.907C340.702 155.957 343.502 145.932 338.099 136.619C335.64 132.378 331.433 129.479 327.245 127.13C323.814 125.204 320.076 125.309 316.33 125.38C314.365 125.414 313.686 124.822 313.3 128.347C312.85 132.457 310.451 141.028 309.172 140.219C307.987 137.986 309.059 136.124 309.337 134.367C310.608 126.388 309.419 118.278 305.479 111.186C302.04 104.994 296.862 98.4265 289.494 97.0442C281.898 95.6206 273.053 99.157 267.886 104.731C260.503 112.692 266.094 125.849 271.276 133.405C272.599 135.51 272.824 135.667 281.707 143.643C286.806 148.221 286.51 156.968 286.51 156.968Z" fill="#050505"/>
<path d="M274.235 218.024L274.141 218.447L274.137 218.447L274.235 218.024ZM274.621 218.208L274.823 217.825L275.342 218.1L274.927 218.515L274.621 218.208ZM274.43 218.388L274.523 217.965L274.527 217.966L274.43 218.388ZM332.42 162.67L332.453 163.102L332.45 163.102L332.42 162.67ZM333.444 164.011L333.877 164.03L333.877 164.03L333.444 164.011ZM332.255 165.652L332.272 166.085L332.27 166.085L332.255 165.652ZM272.84 108.208L272.787 107.778L272.787 107.778L272.84 108.208ZM274.505 109.781L274.938 109.774L274.505 109.781ZM272.679 112.059L272.611 111.631L272.613 111.631L272.679 112.059ZM283.77 184.057L283.799 183.625L283.799 183.625L283.77 184.057ZM286.346 187.59L285.912 187.587L285.912 187.587L286.346 187.59ZM283.012 192.636L283.016 192.203L283.016 192.203L283.012 192.636ZM294.488 105.889L294.742 105.537L294.742 105.537L294.488 105.889ZM298.294 109.845L297.909 110.044L297.909 110.044L298.294 109.845ZM298.35 111.703L298.057 111.383L298.058 111.383L298.35 111.703ZM296.798 111.366L297.053 111.016L297.056 111.017L296.798 111.366ZM295.358 110.362L295.616 110.014L295.617 110.014L295.358 110.362ZM278.527 106.889L278.69 107.29L278.69 107.29L278.527 106.889ZM276.517 106.211L276.907 106.022L276.907 106.022L276.517 106.211ZM277.379 104.008L277.608 104.376L277.608 104.376L277.379 104.008ZM330.875 136.431L330.548 136.716L330.548 136.716L330.875 136.431ZM336.068 156.013L335.639 155.953L335.639 155.952L336.068 156.013ZM333.755 159.639L333.846 159.216L333.847 159.216L333.755 159.639ZM333.143 155.428L333.569 155.513L333.568 155.513L333.143 155.428ZM324.658 135.135L324.896 134.773L324.896 134.773L324.658 135.135ZM332.501 263.079L332.493 263.512L332.488 263.512L332.501 263.079ZM329.715 261.345L330.148 261.348L330.148 261.348L329.715 261.345ZM332.302 259.61L332.36 260.04L332.356 260.04L332.302 259.61ZM334.934 259.494L334.973 259.926L334.97 259.926L334.934 259.494ZM349.156 254.039L348.879 253.707L348.879 253.707L349.156 254.039ZM360.067 220.118L359.65 220.233L359.65 220.233L360.067 220.118ZM355.628 208.149L356.021 207.965L356.021 207.966L355.628 208.149ZM355.294 205.777L355.537 206.136L355.535 206.137L355.294 205.777ZM357.518 207.07L357.21 207.375L357.209 207.373L357.518 207.07ZM358.613 208.445L358.231 208.65L358.231 208.65L358.613 208.445ZM361.245 244.348L360.859 244.15L360.859 244.15L361.245 244.348ZM293.724 163.524L294.058 163.248L294.058 163.248L293.724 163.524ZM293.698 166.776L293.523 167.172L293.523 167.172L293.698 166.776ZM291.148 165.648L290.855 165.968L290.855 165.968L291.148 165.648ZM284.658 159.351L284.238 159.243L284.355 158.786L284.8 158.942L284.658 159.351ZM281.965 169.795L282.384 169.908L282.383 169.909L281.965 169.795ZM282.58 172.286L282.418 172.688L282.418 172.688L282.58 172.286ZM284.744 170.938L285.168 171.027L285.168 171.027L284.744 170.938ZM289.727 167.169L289.602 167.584L289.602 167.584L289.727 167.169ZM294.395 174.485L294.826 174.532L294.826 174.532L294.395 174.485ZM290.049 181.274L290.205 181.678L290.204 181.678L290.049 181.274ZM282.284 178.827L282.627 178.562L282.627 178.562L282.284 178.827ZM279.12 179.378L278.712 179.23L278.713 179.23L279.12 179.378ZM274.38 215.836L274.808 215.769L274.809 215.77L274.38 215.836ZM274.065 217.683L273.845 217.31L273.848 217.308L274.065 217.683ZM272.622 217.038L272.87 216.683L272.872 216.685L272.622 217.038ZM235.588 216.791L235.354 216.426L235.354 216.426L235.588 216.791ZM207.17 247.716L206.793 247.502L206.793 247.502L207.17 247.716ZM188.94 288.995L189.34 289.162L189.34 289.163L188.94 288.995ZM179.829 309.547L179.452 309.333L179.452 309.333L179.829 309.547ZM162.176 325.397L161.947 325.029L161.949 325.028L162.176 325.397ZM160.916 326.098L161.165 326.452L161.163 326.454L160.916 326.098ZM159.713 327.532L159.29 327.629L159.29 327.627L159.713 327.532ZM161.415 328.184L161.438 327.752L161.442 327.752L161.415 328.184ZM171.284 324.277L171.048 323.913L171.048 323.913L171.284 324.277ZM187.11 304.063L186.718 303.878L186.718 303.878L187.11 304.063ZM198.981 275.071L199.382 275.236L199.382 275.237L198.981 275.071ZM217.669 239.081L217.326 238.816L217.326 238.816L217.669 239.081ZM245.764 216.581L245.626 216.171L245.626 216.171L245.764 216.581ZM272.082 222.219L272.401 221.926L272.401 221.926L272.082 222.219ZM279.821 239.924L279.394 239.997L279.394 239.996L279.821 239.924ZM298.936 301.553L298.533 301.713L298.533 301.713L298.936 301.553ZM324.395 359.413L324.005 359.601L324.005 359.601L324.395 359.413ZM335.55 378.29L335.913 378.053L335.914 378.054L335.55 378.29ZM338.463 379.859L338.698 380.223L338.698 380.223L338.463 379.859ZM338.561 376.049L338.188 376.271L338.188 376.27L338.561 376.049ZM324.369 349.245L323.974 349.423L323.974 349.423L324.369 349.245ZM310.473 318.043L310.872 317.874L310.872 317.874L310.473 318.043ZM299.498 290.808L299.9 290.646L299.9 290.647L299.498 290.808ZM290.222 264.477L289.809 264.609L289.809 264.609L290.222 264.477ZM285.726 247.948L285.308 248.063L285.308 248.062L285.726 247.948ZM286.135 245.547L286.377 245.906L286.376 245.907L286.135 245.547ZM287.908 246.622L288.228 246.33L288.229 246.33L287.908 246.622ZM300.724 258.419L300.985 258.073L300.985 258.073L300.724 258.419ZM351.151 264.979L350.917 264.614L350.917 264.614L351.151 264.979ZM361.575 255.201L361.899 255.489L361.898 255.49L361.575 255.201ZM370.083 242.247L369.68 242.086L369.68 242.086L370.083 242.247ZM371.991 233.136L371.558 233.127L371.558 233.126L371.991 233.136ZM371.519 225.947L371.95 225.899L371.95 225.9L371.519 225.947ZM370.24 217.765L370.66 217.659L370.66 217.66L370.24 217.765ZM362.25 202.642L361.913 202.914L361.913 202.914L362.25 202.642ZM343.877 182.525L343.512 182.758L343.512 182.758L343.877 182.525ZM339.569 165.907L340 165.956L340 165.956L339.569 165.907ZM338.099 136.619L337.725 136.836L337.725 136.836L338.099 136.619ZM327.245 127.13L327.033 127.508L327.033 127.508L327.245 127.13ZM316.33 125.38L316.338 125.814L316.337 125.814L316.33 125.38ZM313.3 128.347L312.869 128.3L312.869 128.3L313.3 128.347ZM309.172 140.219L308.94 140.585L308.843 140.524L308.789 140.422L309.172 140.219ZM309.337 134.367L308.909 134.3L308.909 134.299L309.337 134.367ZM305.479 111.186L305.1 111.397L305.1 111.396L305.479 111.186ZM289.494 97.0442L289.574 96.6183L289.574 96.6183L289.494 97.0442ZM267.886 104.731L268.204 105.026L268.204 105.026L267.886 104.731ZM271.276 133.405L271.633 133.16L271.638 133.167L271.642 133.174L271.276 133.405ZM281.707 143.643L281.417 143.965L281.417 143.965L281.707 143.643ZM273.734 217.894C273.737 217.891 273.745 217.883 273.762 217.863C273.774 217.849 273.801 217.817 273.824 217.793C273.845 217.77 273.886 217.725 273.939 217.687C273.974 217.662 274.126 217.555 274.332 217.602L274.137 218.447C274.232 218.468 274.311 218.452 274.358 218.435C274.404 218.419 274.434 218.398 274.446 218.39C274.469 218.374 274.477 218.363 274.463 218.378C274.45 218.392 274.44 218.404 274.415 218.433C274.395 218.455 274.365 218.49 274.33 218.522L273.734 217.894ZM274.328 217.601C274.452 217.629 274.556 217.679 274.633 217.719C274.672 217.74 274.71 217.761 274.74 217.779C274.773 217.797 274.799 217.812 274.823 217.825L274.418 218.591C274.379 218.57 274.342 218.549 274.311 218.532C274.278 218.513 274.253 218.498 274.228 218.485C274.177 218.458 274.152 218.45 274.141 218.447L274.328 217.601ZM274.927 218.515C274.927 218.514 274.922 218.52 274.905 218.54C274.893 218.555 274.868 218.586 274.845 218.612C274.824 218.636 274.783 218.681 274.73 218.721C274.696 218.746 274.543 218.859 274.332 218.81L274.527 217.966C274.43 217.943 274.349 217.961 274.301 217.979C274.255 217.996 274.224 218.017 274.212 218.026C274.189 218.043 274.181 218.054 274.194 218.04C274.205 218.027 274.215 218.015 274.237 217.989C274.254 217.968 274.282 217.934 274.314 217.901L274.927 218.515ZM274.336 218.811C274.216 218.784 274.114 218.737 274.037 218.699C273.999 218.68 273.961 218.659 273.93 218.643C273.897 218.625 273.87 218.611 273.843 218.598L274.221 217.818C274.264 217.839 274.304 217.86 274.337 217.878C274.373 217.897 274.4 217.911 274.427 217.925C274.481 217.952 274.508 217.961 274.523 217.965L274.336 218.811ZM330.563 163.773C330.682 163.001 331.343 162.311 332.39 162.238L332.45 163.102C331.787 163.149 331.474 163.553 331.42 163.905L330.563 163.773ZM332.387 162.238C332.674 162.216 332.936 162.251 333.164 162.359C333.396 162.469 333.561 162.641 333.672 162.839C333.878 163.209 333.892 163.67 333.877 164.03L333.011 163.993C333.026 163.648 332.994 163.403 332.915 163.261C332.882 163.203 332.844 163.167 332.793 163.142C332.736 163.115 332.633 163.088 332.453 163.102L332.387 162.238ZM333.877 164.03C333.86 164.432 333.809 164.922 333.587 165.323C333.472 165.533 333.308 165.723 333.078 165.862C332.849 166 332.579 166.073 332.272 166.085L332.239 165.219C332.427 165.212 332.548 165.17 332.63 165.12C332.71 165.071 332.775 165.002 332.829 164.905C332.945 164.693 332.994 164.381 333.011 163.993L333.877 164.03ZM332.27 166.085C331.675 166.106 331.191 165.902 330.891 165.437C330.619 165.015 330.545 164.445 330.558 163.829L331.425 163.849C331.412 164.417 331.492 164.77 331.619 164.967C331.719 165.121 331.879 165.232 332.24 165.219L332.27 166.085ZM270.646 110.383C270.701 109.831 270.815 109.232 271.134 108.742C271.47 108.226 272.003 107.875 272.787 107.778L272.893 108.638C272.342 108.706 272.046 108.93 271.861 109.215C271.659 109.525 271.559 109.952 271.509 110.468L270.646 110.383ZM272.787 107.778C273.481 107.692 274.041 107.89 274.42 108.307C274.783 108.706 274.929 109.25 274.938 109.774L274.071 109.788C274.065 109.398 273.956 109.084 273.779 108.89C273.618 108.713 273.354 108.581 272.893 108.638L272.787 107.778ZM274.938 109.774C274.948 110.423 274.779 111.046 274.405 111.54C274.027 112.039 273.462 112.378 272.744 112.487L272.613 111.631C273.125 111.553 273.482 111.324 273.714 111.017C273.95 110.705 274.079 110.282 274.071 109.788L274.938 109.774ZM272.746 112.487C272.087 112.59 271.537 112.434 271.16 112.002C270.809 111.601 270.673 111.032 270.645 110.446L271.51 110.405C271.535 110.913 271.65 111.247 271.812 111.432C271.948 111.587 272.171 111.7 272.611 111.631L272.746 112.487ZM279.992 189.755C279.994 188.14 280.425 186.609 281.092 185.484C281.742 184.387 282.702 183.55 283.799 183.625L283.74 184.49C283.146 184.449 282.436 184.917 281.837 185.926C281.256 186.908 280.86 188.284 280.858 189.756L279.992 189.755ZM283.799 183.625C284.953 183.705 285.736 184.19 286.206 184.958C286.657 185.696 286.787 186.642 286.779 187.594L285.912 187.587C285.92 186.692 285.792 185.942 285.467 185.411C285.161 184.91 284.649 184.552 283.74 184.49L283.799 183.625ZM286.779 187.593C286.767 189.078 286.396 190.429 285.751 191.421C285.104 192.415 284.153 193.081 283.008 193.069L283.016 192.203C283.783 192.21 284.488 191.773 285.024 190.949C285.562 190.123 285.902 188.942 285.912 187.587L286.779 187.593ZM283.009 193.069C281.747 193.059 280.961 192.586 280.513 191.875C280.09 191.204 280.013 190.385 279.992 189.77L280.858 189.741C280.878 190.339 280.955 190.952 281.246 191.413C281.511 191.834 281.998 192.195 283.016 192.203L283.009 193.069ZM284.259 103C287.88 103.312 291.51 103.208 294.742 105.537L294.235 106.24C291.249 104.089 287.944 104.187 284.185 103.863L284.259 103ZM294.742 105.537C296.264 106.637 297.744 107.837 298.679 109.646L297.909 110.044C297.074 108.429 295.742 107.329 294.235 106.24L294.742 105.537ZM298.679 109.646C298.849 109.974 299.042 110.37 299.096 110.769C299.155 111.207 299.047 111.652 298.643 112.023L298.058 111.383C298.227 111.229 298.263 111.079 298.237 110.885C298.206 110.654 298.084 110.382 297.909 110.044L298.679 109.646ZM298.643 112.022C298.458 112.192 298.247 112.292 298.021 112.322C297.8 112.351 297.594 112.309 297.417 112.245C297.079 112.121 296.762 111.878 296.54 111.714L297.056 111.017C297.31 111.206 297.519 111.359 297.715 111.431C297.803 111.463 297.865 111.469 297.908 111.463C297.944 111.458 297.993 111.442 298.057 111.383L298.643 112.022ZM296.543 111.716C296.314 111.549 296.078 111.389 295.833 111.224C295.592 111.06 295.342 110.89 295.1 110.709L295.617 110.014C295.842 110.182 296.077 110.342 296.32 110.507C296.56 110.67 296.81 110.838 297.053 111.016L296.543 111.716ZM295.1 110.71C290.072 106.978 284.876 104.765 278.69 107.29L278.363 106.488C284.97 103.791 290.498 106.216 295.616 110.014L295.1 110.71ZM278.69 107.29C278.221 107.482 277.715 107.539 277.247 107.397C276.769 107.253 276.376 106.913 276.127 106.4L276.907 106.022C277.059 106.337 277.271 106.499 277.498 106.568C277.735 106.64 278.033 106.622 278.363 106.488L278.69 107.29ZM276.127 106.4C275.839 105.807 275.838 105.246 276.071 104.751C276.293 104.279 276.705 103.916 277.151 103.64L277.608 104.376C277.232 104.609 276.977 104.861 276.855 105.12C276.744 105.355 276.722 105.641 276.907 106.022L276.127 106.4ZM277.15 103.64C278.307 102.919 279.558 102.923 280.731 103.008C281.939 103.095 283.041 103.26 284.124 103.009L284.32 103.853C283.071 104.142 281.782 103.953 280.668 103.872C279.518 103.789 278.513 103.812 277.608 104.376L277.15 103.64ZM321.818 131.765C325.814 131.819 328.886 133.481 331.202 136.147L330.548 136.716C328.379 134.219 325.534 132.682 321.807 132.632L321.818 131.765ZM331.202 136.147C336.199 141.882 337.527 148.768 336.497 156.073L335.639 155.952C336.642 148.835 335.344 142.22 330.548 136.716L331.202 136.147ZM336.497 156.073C336.448 156.423 336.425 156.803 336.37 157.285C336.318 157.737 336.24 158.23 336.087 158.673C335.935 159.113 335.692 159.55 335.277 159.832C334.848 160.123 334.307 160.203 333.663 160.062L333.847 159.216C334.321 159.319 334.605 159.241 334.79 159.115C334.987 158.981 335.146 158.742 335.268 158.39C335.389 158.039 335.458 157.622 335.509 157.186C335.555 156.781 335.591 156.299 335.639 155.953L336.497 156.073ZM333.663 160.063C333.046 159.929 332.603 159.646 332.346 159.216C332.098 158.801 332.065 158.319 332.108 157.872C332.151 157.423 332.276 156.951 332.399 156.523C332.527 156.078 332.65 155.688 332.719 155.344L333.568 155.513C333.491 155.904 333.35 156.352 333.232 156.762C333.109 157.189 333.005 157.592 332.971 157.954C332.936 158.318 332.978 158.584 333.09 158.771C333.193 158.944 333.397 159.119 333.846 159.216L333.663 160.063ZM332.718 155.344C334.207 147.844 330.804 139.682 324.421 135.498L324.896 134.773C331.576 139.152 335.125 147.668 333.569 155.513L332.718 155.344ZM324.421 135.498C323.554 134.93 321.882 134.526 321.389 132.291L322.236 132.105C322.628 133.887 323.76 134.029 324.896 134.773L324.421 135.498ZM334.503 263.516C333.29 263.516 332.888 263.52 332.493 263.512L332.509 262.646C332.894 262.653 333.279 262.649 334.503 262.649V263.516ZM332.488 263.512C332.19 263.503 331.829 263.504 331.497 263.482C331.159 263.459 330.801 263.411 330.473 263.289C330.139 263.165 329.825 262.959 329.602 262.619C329.382 262.283 329.278 261.857 329.282 261.341L330.148 261.348C330.145 261.746 330.226 261.99 330.327 262.144C330.426 262.295 330.571 262.401 330.775 262.477C330.987 262.556 331.248 262.596 331.555 262.617C331.867 262.638 332.175 262.636 332.514 262.646L332.488 263.512ZM329.282 261.341C329.285 260.883 329.395 260.5 329.607 260.191C329.819 259.883 330.108 259.683 330.413 259.55C330.991 259.296 331.726 259.246 332.248 259.18L332.356 260.04C331.743 260.117 331.19 260.155 330.761 260.343C330.562 260.43 330.419 260.54 330.321 260.681C330.225 260.821 330.151 261.027 330.148 261.348L329.282 261.341ZM332.245 259.181C332.706 259.119 333.169 259.107 333.61 259.102C334.059 259.096 334.481 259.096 334.899 259.062L334.97 259.926C334.514 259.963 334.053 259.963 333.621 259.968C333.181 259.974 332.765 259.985 332.36 260.039L332.245 259.181ZM334.896 259.062C340.094 258.603 344.873 257.052 348.879 253.707L349.434 254.372C345.258 257.86 340.296 259.455 334.973 259.926L334.896 259.062ZM348.879 253.707C354.22 249.254 357.837 244.265 359.659 238.714C361.48 233.164 361.519 227.018 359.65 220.233L360.485 220.003C362.392 226.925 362.365 233.246 360.482 238.984C358.599 244.72 354.873 249.838 349.434 254.372L348.879 253.707ZM359.65 220.233C358.521 216.13 357.03 212.186 355.235 208.331L356.021 207.966C357.833 211.859 359.342 215.849 360.485 220.003L359.65 220.233ZM355.235 208.332C355.151 208.151 355.045 207.963 354.924 207.732C354.809 207.514 354.687 207.267 354.604 207.018C354.522 206.772 354.465 206.484 354.521 206.192C354.579 205.882 354.757 205.615 355.053 205.417L355.535 206.137C355.417 206.216 355.384 206.288 355.372 206.354C355.356 206.439 355.367 206.564 355.427 206.745C355.486 206.923 355.58 207.117 355.691 207.329C355.796 207.529 355.925 207.76 356.021 207.965L355.235 208.332ZM355.052 205.418C355.392 205.188 355.74 205.09 356.087 205.15C356.42 205.208 356.681 205.399 356.881 205.596C357.081 205.792 357.257 206.032 357.406 206.236C357.566 206.454 357.695 206.632 357.827 206.766L357.209 207.373C357.023 207.185 356.853 206.948 356.707 206.748C356.55 206.534 356.415 206.353 356.274 206.214C356.133 206.076 356.026 206.019 355.939 206.004C355.866 205.992 355.742 205.997 355.537 206.136L355.052 205.418ZM357.825 206.765C358.242 207.185 358.689 207.671 358.994 208.239L358.231 208.65C357.989 208.199 357.618 207.787 357.21 207.375L357.825 206.765ZM358.994 208.239C365.263 219.869 368.082 231.969 361.63 244.546L360.859 244.15C367.126 231.934 364.434 220.157 358.231 208.65L358.994 208.239ZM361.63 244.546C355.858 255.803 346.914 262.903 334.525 263.516L334.482 262.65C346.495 262.056 355.195 255.198 360.859 244.15L361.63 244.546ZM286.833 156.679C288.053 158.041 289.23 158.937 290.427 159.869C291.623 160.801 292.833 161.767 294.058 163.248L293.39 163.8C292.23 162.397 291.084 161.48 289.894 160.553C288.705 159.626 287.467 158.686 286.187 157.257L286.833 156.679ZM294.058 163.248C294.585 163.887 295.112 164.99 295.247 165.85C295.281 166.07 295.294 166.294 295.264 166.502C295.234 166.708 295.158 166.932 294.985 167.107C294.607 167.488 294.046 167.402 293.523 167.172L293.872 166.379C294.345 166.587 294.406 166.46 294.37 166.497C294.367 166.499 294.392 166.475 294.406 166.379C294.42 166.285 294.417 166.153 294.391 165.984C294.282 165.291 293.826 164.33 293.39 163.8L294.058 163.248ZM293.523 167.172C293.395 167.116 293.256 167.079 293.079 167.041C292.912 167.005 292.695 166.965 292.471 166.902C291.998 166.768 291.469 166.53 290.855 165.968L291.441 165.329C291.948 165.793 292.355 165.968 292.706 166.067C292.895 166.121 293.063 166.151 293.262 166.194C293.452 166.235 293.661 166.286 293.873 166.379L293.523 167.172ZM290.855 165.968C289.712 164.92 288.821 163.551 287.908 162.417C286.973 161.256 285.969 160.267 284.515 159.76L284.8 158.942C286.484 159.529 287.614 160.669 288.583 161.874C289.576 163.106 290.361 164.339 291.441 165.329L290.855 165.968ZM285.077 159.458C284.186 162.938 283.322 166.432 282.384 169.908L281.547 169.682C282.484 166.213 283.344 162.732 284.238 159.243L285.077 159.458ZM282.383 169.909C282.238 170.442 282.123 170.856 282.153 171.198C282.167 171.352 282.21 171.472 282.286 171.572C282.364 171.674 282.498 171.786 282.743 171.885L282.418 172.688C282.065 172.545 281.789 172.35 281.596 172.097C281.402 171.841 281.315 171.557 281.29 171.274C281.243 170.742 281.419 170.153 281.547 169.681L282.383 169.909ZM282.743 171.885C283.204 172.071 283.53 171.995 283.764 171.825C284.02 171.639 284.226 171.293 284.32 170.848L285.168 171.027C285.044 171.613 284.753 172.177 284.274 172.526C283.773 172.89 283.127 172.974 282.418 172.688L282.743 171.885ZM284.32 170.849C284.607 169.475 285 168.148 285.841 167.318C286.733 166.438 288.023 166.203 289.852 166.754L289.602 167.584C287.948 167.086 287.035 167.358 286.45 167.935C285.815 168.562 285.458 169.643 285.168 171.027L284.32 170.849ZM289.852 166.754C291.349 167.205 292.68 168.304 293.589 169.695C294.5 171.089 295.011 172.809 294.826 174.532L293.964 174.439C294.125 172.944 293.682 171.422 292.864 170.17C292.044 168.916 290.869 167.965 289.602 167.584L289.852 166.754ZM294.826 174.532C294.505 177.528 293.392 180.451 290.205 181.678L289.894 180.869C292.624 179.818 293.656 177.317 293.964 174.439L294.826 174.532ZM290.204 181.678C288.585 182.298 287.047 182.35 285.637 181.883C284.232 181.418 282.993 180.45 281.942 179.093L282.627 178.562C283.6 179.819 284.706 180.662 285.909 181.061C287.107 181.458 288.439 181.426 289.895 180.869L290.204 181.678ZM281.942 179.093C281.602 178.655 281.311 178.357 281.064 178.18C280.817 178.004 280.657 177.977 280.554 177.993C280.453 178.008 280.304 178.081 280.116 178.331C279.926 178.582 279.729 178.971 279.527 179.526L278.713 179.23C278.928 178.639 279.16 178.159 279.424 177.81C279.687 177.459 280.015 177.198 280.425 177.136C280.834 177.074 281.221 177.227 281.568 177.475C281.914 177.723 282.265 178.095 282.627 178.562L281.942 179.093ZM279.527 179.526C275.248 191.296 272.863 203.254 274.808 215.769L273.952 215.902C271.976 203.191 274.405 191.076 278.712 179.23L279.527 179.526ZM274.809 215.77C274.831 215.917 274.865 216.058 274.903 216.248C274.937 216.422 274.972 216.625 274.974 216.832C274.976 217.041 274.944 217.272 274.832 217.495C274.717 217.723 274.534 217.912 274.282 218.058L273.848 217.308C273.971 217.236 274.027 217.166 274.057 217.106C274.09 217.042 274.108 216.957 274.107 216.839C274.106 216.717 274.085 216.58 274.053 216.417C274.023 216.268 273.978 216.073 273.952 215.901L274.809 215.77ZM274.286 218.056C274.051 218.194 273.808 218.252 273.564 218.219C273.329 218.187 273.14 218.076 272.996 217.966C272.855 217.858 272.728 217.727 272.63 217.628C272.521 217.519 272.444 217.444 272.372 217.392L272.872 216.685C273.017 216.787 273.146 216.918 273.246 217.019C273.357 217.131 273.439 217.214 273.522 217.278C273.602 217.339 273.652 217.356 273.681 217.36C273.702 217.363 273.75 217.366 273.845 217.31L274.286 218.056ZM272.374 217.394C266.618 213.379 260.562 211.357 254.415 211.314C248.268 211.272 242 213.208 235.821 217.156L235.354 216.426C241.65 212.403 248.08 210.404 254.421 210.448C260.763 210.492 266.987 212.58 272.87 216.683L272.374 217.394ZM235.821 217.156C223.691 224.91 214.614 235.477 207.547 247.93L206.793 247.502C213.915 234.953 223.082 224.271 235.354 216.426L235.821 217.156ZM207.547 247.93C200.106 261.052 195.158 275.247 189.34 289.162L188.54 288.828C194.331 274.977 199.318 260.685 206.793 247.502L207.547 247.93ZM189.34 289.163C186.461 296.044 183.938 303.175 180.206 309.761L179.452 309.333C183.15 302.808 185.637 295.77 188.54 288.828L189.34 289.163ZM180.206 309.76C176.027 317.14 169.244 321.559 162.403 325.766L161.949 325.028C168.801 320.814 175.396 316.496 179.452 309.333L180.206 309.76ZM162.405 325.765C162.181 325.905 161.942 326.022 161.735 326.127C161.52 326.236 161.332 326.335 161.165 326.452L160.667 325.743C160.89 325.587 161.128 325.463 161.343 325.354C161.566 325.241 161.763 325.144 161.947 325.029L162.405 325.765ZM161.163 326.454C161.005 326.563 160.824 326.656 160.681 326.731C160.525 326.813 160.403 326.881 160.306 326.956C160.212 327.028 160.165 327.09 160.141 327.146C160.119 327.198 160.101 327.284 160.135 327.438L159.29 327.627C159.223 327.33 159.239 327.056 159.342 326.811C159.443 326.57 159.611 326.398 159.777 326.269C159.941 326.144 160.124 326.045 160.276 325.965C160.439 325.879 160.565 325.814 160.67 325.741L161.163 326.454ZM160.135 327.436C160.174 327.606 160.23 327.672 160.264 327.701C160.299 327.731 160.357 327.759 160.465 327.773C160.579 327.787 160.714 327.781 160.888 327.77C161.045 327.759 161.249 327.741 161.438 327.752L161.391 328.617C161.269 328.61 161.132 328.622 160.946 328.634C160.776 328.646 160.565 328.658 160.358 328.633C160.146 328.606 159.908 328.537 159.702 328.361C159.493 328.183 159.36 327.934 159.29 327.629L160.135 327.436ZM161.442 327.752C165.164 327.984 168.004 325.887 171.048 323.913L171.519 324.641C168.564 326.556 165.457 328.871 161.388 328.617L161.442 327.752ZM171.048 323.913C178.526 319.08 182.983 311.824 186.718 303.878L187.502 304.247C183.746 312.237 179.204 319.674 171.519 324.641L171.048 323.913ZM186.718 303.878C191.165 294.42 194.569 284.587 198.581 274.905L199.382 275.237C195.399 284.848 191.957 294.772 187.502 304.247L186.718 303.878ZM198.581 274.905C203.761 262.386 208.915 249.685 217.326 238.816L218.011 239.346C209.685 250.107 204.572 262.693 199.382 275.236L198.581 274.905ZM217.326 238.816C224.837 229.112 233.496 220.258 245.626 216.171L245.902 216.992C234.02 220.996 225.491 229.682 218.011 239.346L217.326 238.816ZM245.626 216.171C250.524 214.521 255.35 213.927 259.893 214.768C264.443 215.61 268.681 217.886 272.401 221.926L271.763 222.513C268.164 218.604 264.091 216.427 259.735 215.62C255.374 214.813 250.7 215.376 245.902 216.992L245.626 216.171ZM272.401 221.926C277.003 226.929 279.139 233.309 280.248 239.852L279.394 239.996C278.298 233.532 276.204 227.34 271.763 222.513L272.401 221.926ZM280.248 239.851C283.884 261.197 291.364 281.348 299.338 301.392L298.533 301.713C290.557 281.665 283.046 261.44 279.394 239.997L280.248 239.851ZM299.338 301.392C307.13 320.975 315.629 340.244 324.785 359.224L324.005 359.601C314.84 340.602 306.332 321.315 298.533 301.713L299.338 301.392ZM324.785 359.224C327.962 365.807 331.925 371.917 335.913 378.053L335.186 378.526C331.203 372.397 327.209 366.242 324.005 359.601L324.785 359.224ZM335.914 378.054C336.294 378.644 336.69 379.162 337.1 379.448C337.299 379.587 337.48 379.657 337.649 379.669C337.813 379.681 338.002 379.641 338.228 379.495L338.698 380.223C338.335 380.458 337.962 380.56 337.588 380.533C337.22 380.507 336.891 380.359 336.604 380.159C336.043 379.766 335.57 379.119 335.186 378.525L335.914 378.054ZM338.228 379.495C338.752 379.156 338.918 378.692 338.877 378.139C338.834 377.556 338.557 376.892 338.188 376.271L338.933 375.828C339.329 376.496 339.684 377.297 339.741 378.076C339.801 378.885 339.535 379.682 338.698 380.223L338.228 379.495ZM338.188 376.27C333.024 367.557 328.148 358.697 323.974 349.423L324.764 349.067C328.92 358.3 333.778 367.13 338.933 375.828L338.188 376.27ZM323.974 349.423C319.304 339.048 314.516 328.708 310.074 318.212L310.872 317.874C315.309 328.358 320.089 338.681 324.764 349.068L323.974 349.423ZM310.074 318.212C306.252 309.191 302.748 300.038 299.096 290.97L299.9 290.647C303.56 299.733 307.053 308.861 310.872 317.874L310.074 318.212ZM299.096 290.971C295.603 282.305 292.667 273.474 289.809 264.609L290.634 264.344C293.491 273.206 296.419 282.012 299.9 290.646L299.096 290.971ZM289.809 264.609C288.051 259.149 286.807 253.54 285.308 248.063L286.144 247.834C287.66 253.37 288.883 258.903 290.634 264.344L289.809 264.609ZM285.308 248.062C285.183 247.603 285.103 247.06 285.157 246.553C285.21 246.048 285.405 245.515 285.894 245.187L286.376 245.907C286.183 246.036 286.057 246.276 286.018 246.644C285.98 247.01 286.037 247.44 286.144 247.835L285.308 248.062ZM285.893 245.188C286.181 244.993 286.485 244.914 286.791 244.974C287.08 245.032 287.305 245.202 287.472 245.369C287.64 245.536 287.786 245.736 287.906 245.905C288.036 246.086 288.133 246.226 288.228 246.33L287.588 246.914C287.449 246.762 287.314 246.567 287.201 246.408C287.079 246.237 286.971 246.092 286.861 245.983C286.75 245.873 286.673 245.834 286.622 245.824C286.589 245.818 286.517 245.812 286.377 245.906L285.893 245.188ZM288.229 246.33C292.144 250.622 296.398 254.626 300.985 258.073L300.464 258.765C295.827 255.281 291.532 251.238 287.588 246.914L288.229 246.33ZM300.985 258.073C315.098 268.688 334.974 274.867 350.917 264.614L351.386 265.343C334.986 275.889 314.689 269.465 300.464 258.765L300.985 258.073ZM350.917 264.614C354.901 262.055 358.079 258.462 361.252 254.912L361.898 255.49C358.742 259.02 355.486 262.709 351.386 265.343L350.917 264.614ZM361.252 254.913C364.678 251.068 367.783 246.852 369.68 242.086L370.485 242.407C368.535 247.306 365.356 251.61 361.899 255.489L361.252 254.913ZM369.68 242.086C370.818 239.229 371.496 236.197 371.558 233.127L372.424 233.145C372.36 236.331 371.657 239.465 370.485 242.407L369.68 242.086ZM371.558 233.126C371.61 230.762 371.351 228.389 371.088 225.994L371.95 225.9C372.212 228.285 372.478 230.715 372.424 233.145L371.558 233.126ZM371.088 225.995C370.784 223.243 370.486 220.52 369.82 217.871L370.66 217.66C371.344 220.375 371.646 223.159 371.95 225.899L371.088 225.995ZM369.82 217.871C368.438 212.379 365.498 207.355 361.913 202.914L362.587 202.37C366.224 206.874 369.238 212.01 370.66 217.659L369.82 217.871ZM361.913 202.914C359.067 199.385 355.741 196.318 352.472 193.135C349.213 189.962 346.022 186.681 343.512 182.758L344.242 182.291C346.694 186.123 349.822 189.346 353.076 192.515C356.321 195.674 359.7 198.789 362.587 202.37L361.913 202.914ZM343.512 182.758C340.087 177.4 338.405 172.289 339.139 165.858L340 165.956C339.294 172.142 340.896 177.056 344.243 182.291L343.512 182.758ZM339.139 165.858C339.711 160.832 340.686 155.904 340.852 151.009C341.017 146.145 340.372 141.399 337.725 136.836L338.474 136.402C341.23 141.152 341.886 146.075 341.718 151.039C341.551 155.972 340.56 161.032 340 165.956L339.139 165.858ZM337.725 136.836C335.326 132.702 331.208 129.849 327.033 127.508L327.457 126.752C331.658 129.108 335.953 132.055 338.474 136.402L337.725 136.836ZM327.033 127.508C323.722 125.649 320.107 125.742 316.338 125.814L316.322 124.947C320.044 124.876 323.906 124.759 327.457 126.752L327.033 127.508ZM316.337 125.814C316.081 125.818 315.847 125.812 315.639 125.806C315.426 125.8 315.249 125.794 315.087 125.796C314.759 125.8 314.582 125.839 314.457 125.919C314.34 125.994 314.203 126.148 314.071 126.54C313.937 126.935 313.827 127.521 313.731 128.395L312.869 128.3C312.967 127.411 313.086 126.749 313.25 126.263C313.415 125.773 313.642 125.412 313.989 125.19C314.328 124.973 314.713 124.934 315.076 124.929C315.261 124.927 315.462 124.934 315.664 124.94C315.87 124.946 316.087 124.951 316.322 124.947L316.337 125.814ZM313.731 128.395C313.502 130.485 312.782 133.684 311.96 136.26C311.549 137.545 311.105 138.7 310.673 139.491C310.461 139.88 310.231 140.22 309.983 140.436C309.857 140.546 309.702 140.647 309.517 140.687C309.318 140.731 309.117 140.697 308.94 140.585L309.404 139.853C309.387 139.842 309.355 139.836 309.331 139.841C309.322 139.843 309.35 139.839 309.413 139.783C309.543 139.67 309.714 139.44 309.913 139.076C310.305 138.358 310.729 137.266 311.134 135.996C311.944 133.461 312.648 130.32 312.869 128.3L313.731 128.395ZM308.789 140.422C308.141 139.2 308.113 138.074 308.278 137.046C308.36 136.539 308.488 136.052 308.609 135.598C308.731 135.136 308.844 134.713 308.909 134.3L309.765 134.435C309.691 134.9 309.566 135.369 309.446 135.82C309.325 136.279 309.207 136.726 309.134 137.183C308.989 138.084 309.019 139.006 309.555 140.016L308.789 140.422ZM308.909 134.299C310.166 126.407 308.989 118.396 305.1 111.397L305.857 110.976C309.85 118.16 311.05 126.37 309.765 134.436L308.909 134.299ZM305.1 111.396C301.67 105.22 296.577 98.8138 289.415 97.47L289.574 96.6183C297.148 98.0392 302.41 104.767 305.857 110.976L305.1 111.396ZM289.415 97.4701C281.986 96.0779 273.285 99.5437 268.204 105.026L267.568 104.437C272.821 98.7703 281.81 95.1633 289.574 96.6183L289.415 97.4701ZM268.204 105.026C264.646 108.862 264.186 113.973 265.293 119.129C266.4 124.285 269.062 129.411 271.633 133.16L270.918 133.65C268.307 129.843 265.584 124.612 264.445 119.311C263.307 114.009 263.743 108.562 267.568 104.437L268.204 105.026ZM271.642 133.174C272.925 135.214 273.086 135.321 281.996 143.321L281.417 143.965C272.562 136.014 272.273 135.806 270.909 133.635L271.642 133.174ZM281.996 143.321C284.647 145.7 285.874 149.139 286.445 151.936C286.732 153.34 286.856 154.598 286.909 155.505C286.935 155.959 286.944 156.326 286.946 156.58C286.947 156.708 286.946 156.807 286.945 156.875C286.945 156.909 286.944 156.935 286.944 156.954C286.944 156.963 286.943 156.97 286.943 156.975C286.943 156.977 286.943 156.979 286.943 156.98C286.943 156.981 286.943 156.982 286.943 156.982C286.943 156.982 286.943 156.982 286.943 156.983C286.943 156.983 286.943 156.983 286.51 156.968C286.077 156.954 286.077 156.954 286.077 156.954C286.077 156.954 286.077 156.954 286.077 156.954C286.077 156.954 286.077 156.953 286.077 156.953C286.077 156.952 286.077 156.951 286.077 156.949C286.077 156.946 286.077 156.94 286.077 156.933C286.078 156.917 286.078 156.894 286.079 156.863C286.08 156.801 286.08 156.707 286.079 156.587C286.078 156.345 286.069 155.993 286.044 155.555C285.993 154.679 285.873 153.464 285.596 152.109C285.04 149.387 283.866 146.164 281.417 143.965L281.996 143.321Z" fill="black"/>
</g>
<g id="Fill 9">
<path fill-rule="evenodd" clip-rule="evenodd" d="M198.629 98.7271C198.674 98.8319 198.591 98.9517 198.478 98.9293C193.72 98.0045 189.381 99.6481 186.64 104.362C183.967 108.956 183.138 114.04 182.504 119.196C181.807 124.883 180.676 130.48 178.633 135.864C178.414 136.437 178.305 137.22 177.193 137.497C175.783 129.784 174.169 122.161 172.891 114.448C172.137 109.903 171.409 105.332 170.78 100.775C170.354 97.6975 169.958 94.5637 169.996 91.3588C170.052 86.72 169.653 82.0849 170.633 77.4872C170.81 76.6523 170.248 76.1843 169.528 76.0495C168.748 75.9035 168.171 76.0645 167.639 76.948C166.652 78.5842 166.984 80.445 166.799 82.0774C166.471 84.9116 166.237 87.7533 166.501 90.5951C167.21 98.2479 167.918 105.919 169.426 113.49C169.751 115.133 164.948 122.318 164.228 123.842C160.356 132.034 157.917 133.595 155.304 142.413C153.321 149.122 153.344 155.805 154.064 162.694C154.705 168.815 155.47 174.892 156.477 180.969C158.426 192.702 162.916 203.523 167.93 214.193C174.422 227.99 183.108 240.353 192.959 251.956C193.275 252.326 193.615 252.686 193.984 253.004C194.301 253.277 194.553 253.929 195.138 253.348C195.665 252.817 195.122 252.476 194.874 252.124C192.159 248.283 189.294 244.535 186.734 240.6C179.372 229.289 172.785 217.597 167.609 205.073C163.885 196.05 160.857 186.914 159.168 177.337C158.279 172.282 157.694 167.176 156.982 162.091C156.982 162.091 159.41 161.485 163.662 158.287C175.345 150.268 182.214 139.294 184.314 125.265C185.17 119.544 185.554 113.662 187.828 108.241C189.622 103.969 191.831 100.667 196.344 101.131C198.693 101.37 200.031 102.041 200.902 104.287C203.929 112.134 207.073 119.937 210.285 127.71C217.007 143.985 224.649 159.789 234.978 174.169C235.921 175.484 236.89 176.772 238.066 178.37C239.024 176.435 238.375 175.143 237.557 173.874C232.091 165.405 227.627 156.374 223.348 147.302C217.354 134.584 212.242 121.48 206.968 108.45C203.458 99.7754 200.242 90.9994 196.823 82.2908C194.96 77.5471 193.75 72.5488 192.242 67.6666C192.073 67.1162 192.088 66.9253 192.729 66.431C196.974 63.1438 197.954 57.7262 195.326 53.4018C194.749 52.4546 193.818 52.4358 192.992 52.6305C192.156 52.8327 191.797 53.619 191.986 54.4988C192.125 55.1465 192.359 55.7755 192.559 56.4157C193.773 60.3395 193.603 61.8521 189.788 63.7765C187.556 64.8997 192.872 82.7101 195.326 89.9211C195.85 91.4712 196.385 93.0174 196.928 94.56C197.173 95.2526 197.449 95.9191 197.728 96.6005C197.957 97.1509 198.629 98.143 198.629 98.7271Z" fill="#050505"/>
<path d="M198.629 98.7271C198.674 98.8319 198.591 98.9517 198.478 98.9293C193.72 98.0045 189.381 99.6481 186.64 104.362C183.967 108.956 183.138 114.04 182.504 119.196C181.807 124.883 180.676 130.48 178.633 135.864C178.414 136.437 178.305 137.22 177.193 137.497C175.783 129.784 174.169 122.161 172.891 114.448C172.137 109.903 171.409 105.332 170.78 100.775C170.354 97.6975 169.958 94.5637 169.996 91.3588C170.052 86.72 169.653 82.0849 170.633 77.4872C170.81 76.6523 170.248 76.1843 169.528 76.0495C168.748 75.9035 168.171 76.0645 167.639 76.948C166.652 78.5842 166.984 80.445 166.799 82.0774C166.471 84.9116 166.237 87.7533 166.501 90.5951C167.21 98.2479 167.918 105.919 169.426 113.49C169.751 115.133 164.948 122.318 164.228 123.842C160.356 132.034 157.917 133.595 155.304 142.413C153.321 149.122 153.344 155.805 154.064 162.694C154.705 168.815 155.47 174.892 156.477 180.969C158.426 192.702 162.916 203.523 167.93 214.193C174.422 227.99 183.108 240.353 192.959 251.956C193.275 252.326 193.615 252.686 193.984 253.004C194.301 253.277 194.553 253.929 195.138 253.348C195.665 252.817 195.122 252.476 194.874 252.124C192.159 248.283 189.294 244.535 186.734 240.6C179.372 229.289 172.785 217.597 167.609 205.073C163.885 196.05 160.857 186.914 159.168 177.337C158.279 172.282 157.694 167.176 156.982 162.091C156.982 162.091 159.41 161.485 163.662 158.287C175.345 150.268 182.214 139.294 184.314 125.265C185.17 119.544 185.554 113.662 187.828 108.241C189.622 103.969 191.831 100.667 196.344 101.131C198.693 101.37 200.031 102.041 200.902 104.287C203.929 112.134 207.073 119.937 210.285 127.71C217.007 143.985 224.649 159.789 234.978 174.169C235.921 175.484 236.89 176.772 238.066 178.37C239.024 176.435 238.375 175.143 237.557 173.874C232.091 165.405 227.627 156.374 223.348 147.302C217.354 134.584 212.242 121.48 206.968 108.45C203.458 99.7754 200.242 90.9994 196.823 82.2908C194.96 77.5471 193.75 72.5488 192.242 67.6666C192.073 67.1162 192.088 66.9253 192.729 66.431C196.974 63.1438 197.954 57.7262 195.326 53.4018C194.749 52.4546 193.818 52.4358 192.992 52.6305C192.156 52.8327 191.797 53.619 191.986 54.4988C192.125 55.1465 192.359 55.7755 192.559 56.4157C193.773 60.3395 193.603 61.8521 189.788 63.7765C187.556 64.8997 192.872 82.7101 195.326 89.9211C195.85 91.4712 196.385 93.0174 196.928 94.56C197.173 95.2526 197.449 95.9191 197.728 96.6005C197.957 97.1509 198.629 98.143 198.629 98.7271" stroke="black" stroke-width="0.866592"/>
</g>
<g id="Fill 11">
<path fill-rule="evenodd" clip-rule="evenodd" d="M131.205 252.032C123.093 250.117 117.594 252.593 111.952 260.467C109.184 264.335 105.609 267.717 103.587 272.017C103.301 272.627 102.683 274.049 102.016 272.969C101.598 272.292 101.523 271.088 101.38 270.309C100.483 265.313 100.156 260.099 100.103 255.023C100.054 250.012 100.291 245.004 100.427 239.997C100.442 239.346 100.457 238.695 100.472 238.044C100.487 237.363 100.487 236.645 100.144 236.058C99.8016 235.471 98.9768 235.11 98.4156 235.49C98.0691 235.723 97.9184 236.152 97.8167 236.558C97.0672 239.485 97.5343 242.63 96.7094 245.539C95.5796 249.519 92.2539 252.412 89.3011 255.309C81.7459 262.717 75.6068 271.829 73.0344 282.081C72.3414 284.847 71.9082 287.717 72.315 290.535C72.718 293.353 74.0437 296.126 76.3299 297.823C80.1904 300.689 85.7758 299.839 89.9527 297.454C97.1049 293.372 101.444 285.817 105.27 278.816C107.413 274.892 109.47 270.915 111.91 267.16C112.351 266.487 112.803 265.817 113.266 265.159C115.36 262.205 117.767 259.579 120.415 257.175C123.394 254.466 126.953 255.008 130.433 255.881C132.489 256.396 133.115 258.221 133.657 260.02C138.685 276.72 147.246 291.716 156.134 306.555C156.481 307.134 156.91 307.676 157.351 308.191C157.886 308.808 158.673 309.391 159.347 308.797C159.92 308.293 159.667 307.386 159.287 306.637C154.816 297.909 150.135 289.286 145.977 280.418C140.93 269.662 137.081 258.462 134.154 246.908C132.26 239.414 130.294 231.946 128.686 224.384C128.554 223.774 128.67 222.077 127.134 222.435C125.936 222.713 125.993 223.894 126.034 224.865C126.268 230.685 127.228 236.411 128.584 242.066C129.363 245.313 130.279 248.526 131.205 252.032Z" fill="#050505"/>
<path d="M131.205 252.032C123.093 250.117 117.594 252.593 111.952 260.467C109.184 264.335 105.609 267.717 103.587 272.017C103.301 272.627 102.683 274.049 102.016 272.969C101.598 272.292 101.523 271.088 101.38 270.309C100.483 265.313 100.156 260.099 100.103 255.023C100.054 250.012 100.291 245.004 100.427 239.997C100.442 239.346 100.457 238.695 100.472 238.044C100.487 237.363 100.487 236.645 100.144 236.058C99.8016 235.471 98.9768 235.11 98.4156 235.49C98.0691 235.723 97.9184 236.152 97.8167 236.558C97.0672 239.485 97.5343 242.63 96.7095 245.539C95.5796 249.519 92.2539 252.412 89.3011 255.309C81.7459 262.717 75.6068 271.829 73.0344 282.081C72.3414 284.847 71.9082 287.717 72.315 290.535C72.718 293.353 74.0437 296.126 76.3299 297.823C80.1904 300.689 85.7758 299.839 89.9527 297.454C97.1049 293.372 101.444 285.817 105.27 278.816C107.413 274.892 109.47 270.915 111.91 267.16C112.351 266.487 112.803 265.817 113.266 265.159C115.36 262.205 117.767 259.579 120.415 257.175C123.394 254.466 126.953 255.008 130.433 255.881C132.489 256.396 133.115 258.221 133.657 260.02C138.685 276.72 147.246 291.716 156.134 306.555C156.481 307.134 156.91 307.676 157.351 308.191C157.886 308.808 158.673 309.391 159.347 308.797C159.92 308.293 159.667 307.386 159.287 306.637C154.816 297.909 150.135 289.286 145.977 280.418C140.93 269.662 137.081 258.462 134.154 246.908C132.26 239.414 130.294 231.946 128.686 224.384C128.554 223.774 128.67 222.077 127.134 222.435C125.936 222.713 125.993 223.894 126.034 224.865C126.268 230.685 127.228 236.411 128.584 242.066C129.363 245.313 130.279 248.526 131.205 252.032" stroke="black" stroke-width="0.866592"/>
</g>
<g id="Group 19">
<g id="Fill 17">
<path fill-rule="evenodd" clip-rule="evenodd" d="M175.536 388.162C195.426 383.675 210.89 372.37 223.561 356.819C231.437 347.158 238.818 337.071 244.579 326.029C250.309 315.052 255.608 303.848 259.26 291.862C261.263 285.281 262.041 278.605 263.379 271.975C263.221 271.509 263.195 271.072 263.635 270.726C263.744 269.576 263.849 268.421 263.962 267.266C263.965 265.664 263.973 264.062 263.977 262.456C263.841 261.557 263.552 260.422 262.646 260.437C261.778 260.448 261.613 261.576 261.545 262.46C259.989 282.212 253.654 300.516 244.703 318.023C238.506 330.136 230.998 341.415 222.449 351.972C217.173 358.485 211.735 364.958 204.892 369.907C192.484 378.884 179.249 385.909 163.33 385.612C156.367 385.484 150.088 382.871 143.97 379.798C136.639 376.12 130.055 371.302 124.692 365.202C117.658 357.207 111.521 348.455 105.99 339.331C100.875 330.892 94.9228 322.972 90.5938 314.055C90.2932 313.438 89.7445 312.949 88.7111 313.348C89.6618 316.785 91.4017 319.922 92.9612 323.107C99.8794 337.256 107.88 350.749 117.677 363.119C126.196 373.875 136.823 381.949 149.584 386.906C156.352 389.535 163.575 389.922 170.812 388.941C171.973 388.783 173.142 388.655 174.307 388.512C174.645 388.14 175.051 388.016 175.536 388.162Z" fill="#050505"/>
<path d="M175.536 388.162C195.426 383.675 210.89 372.37 223.561 356.819C231.437 347.158 238.818 337.071 244.579 326.029C250.309 315.052 255.608 303.848 259.26 291.862C261.263 285.281 262.041 278.605 263.379 271.975C263.221 271.509 263.195 271.072 263.635 270.726C263.744 269.576 263.849 268.421 263.962 267.266C263.965 265.664 263.973 264.062 263.977 262.456C263.841 261.557 263.552 260.422 262.646 260.437C261.778 260.448 261.613 261.576 261.545 262.46C259.989 282.212 253.654 300.516 244.703 318.023C238.506 330.136 230.998 341.415 222.449 351.972C217.173 358.485 211.735 364.958 204.892 369.907C192.484 378.884 179.249 385.909 163.33 385.612C156.367 385.484 150.088 382.871 143.97 379.798C136.639 376.12 130.055 371.302 124.692 365.202C117.658 357.207 111.521 348.455 105.99 339.331C100.875 330.892 94.9228 322.972 90.5938 314.055C90.2932 313.438 89.7445 312.949 88.7111 313.348C89.6619 316.785 91.4017 319.922 92.9612 323.107C99.8794 337.256 107.88 350.749 117.677 363.119C126.196 373.875 136.823 381.949 149.584 386.906C156.352 389.535 163.575 389.922 170.812 388.941C171.973 388.783 173.142 388.655 174.307 388.512C174.645 388.14 175.051 388.015 175.536 388.162" stroke="black" stroke-width="0.866592"/>
</g>
</g>
<g id="Fill 25">
<path fill-rule="evenodd" clip-rule="evenodd" d="M264.062 129.66C261.853 129.967 261.146 131.575 260.19 132.856C256.401 137.932 252.719 143.094 248.847 148.111C246.467 151.198 243.231 153.356 240.052 155.547C237.381 157.39 236.753 160.02 239.252 162.009C242.96 164.962 241.491 167.726 240.305 171.061C238.185 177.036 237.538 183.244 238.293 189.601C238.661 192.71 240.178 194.778 242.93 196.007C244.184 196.562 244.581 197.131 244.388 198.749C244.027 201.758 243.005 204.519 242.19 207.366C241.974 208.115 241.524 208.951 242.577 209.31C243.596 209.655 243.793 208.763 244.109 208.029C245.229 205.433 246.404 202.84 246.876 200.049C247.136 198.502 247.657 198.105 249.13 198.487C253.187 199.544 257.226 198.682 261.258 198.21C261.894 198.135 262.782 198.068 262.742 197.165C262.701 196.288 261.76 196.258 261.168 196.187C257.996 195.816 254.764 196.262 251.622 195.434C251.343 195.359 251.03 195.411 250.755 195.325C243.376 193.078 241.283 192.452 241.268 183.97C241.257 177.68 242.707 171.784 244.741 166.018C245.5 163.853 244.76 162.976 243.443 161.882C240.212 159.196 240.238 159.024 243.667 156.555C250.926 151.321 255.887 144.11 260.428 136.572C261.715 134.44 265.955 129.66 264.062 129.66Z" fill="#050505"/>
<path d="M264.062 129.66C261.853 129.967 261.146 131.575 260.19 132.856C256.401 137.932 252.719 143.094 248.847 148.111C246.467 151.198 243.231 153.356 240.052 155.547C237.381 157.39 236.753 160.02 239.252 162.009C242.96 164.962 241.491 167.726 240.305 171.061C238.185 177.036 237.538 183.244 238.293 189.601C238.661 192.71 240.178 194.778 242.93 196.007C244.184 196.562 244.581 197.131 244.388 198.749C244.027 201.758 243.005 204.519 242.19 207.366C241.974 208.115 241.524 208.951 242.577 209.31C243.596 209.655 243.793 208.763 244.109 208.029C245.229 205.433 246.404 202.84 246.876 200.049C247.136 198.502 247.657 198.105 249.13 198.487C253.187 199.544 257.226 198.682 261.258 198.21C261.894 198.135 262.782 198.068 262.742 197.165C262.701 196.288 261.76 196.258 261.168 196.187C257.996 195.816 254.764 196.262 251.622 195.434C251.343 195.359 251.03 195.412 250.755 195.325C243.376 193.078 241.283 192.452 241.268 183.97C241.257 177.68 242.707 171.784 244.741 166.018C245.5 163.853 244.76 162.976 243.443 161.882C240.212 159.196 240.238 159.024 243.667 156.555C250.926 151.321 255.887 144.11 260.428 136.572C261.715 134.44 265.955 129.66 264.062 129.66" stroke="black" stroke-width="0.866592"/>
</g>
<g id="Fill 27">
<path fill-rule="evenodd" clip-rule="evenodd" d="M265.66 161.456C260.548 161.509 257.29 157.138 259.229 152.297C261.609 146.372 265.54 141.756 271.863 139.723C275.932 138.413 279.538 140.774 280.065 145.065C280.962 152.323 272.999 161.384 265.66 161.456ZM295.057 167.66C296.749 166.293 294.873 164.622 293.913 163.447C291.537 160.548 281.716 151.359 282.142 150.836C282.281 150.64 282.624 149.613 282.856 148.845C283.603 146.36 283.503 143.623 282.389 141.286C280.995 138.368 278.45 136.467 274.512 135.774C273.025 135.507 270.102 136.407 268.051 137.337C262.311 139.93 258.578 144.689 256.205 150.422C254.285 155.06 254.049 160.01 260.294 163.726C262.734 165.77 268.97 165.717 272.479 163.601C275.196 161.968 277.449 159.799 279.011 157.044C280.55 155.237 280.536 154.39 282.58 156.63C283.361 157.488 293.218 169.147 295.057 167.66Z" fill="#36F2B9"/>
<path d="M259.229 152.297L258.827 152.136L258.827 152.135L259.229 152.297ZM271.863 139.723L271.996 140.136L271.996 140.136L271.863 139.723ZM280.065 145.065L279.635 145.118L279.635 145.118L280.065 145.065ZM293.913 163.447L294.248 163.172L294.249 163.173L293.913 163.447ZM282.142 150.836L282.496 151.086L282.488 151.098L282.478 151.11L282.142 150.836ZM282.856 148.845L283.271 148.969L283.271 148.97L282.856 148.845ZM282.389 141.286L282.78 141.099L282.78 141.099L282.389 141.286ZM274.512 135.774L274.437 136.201L274.435 136.201L274.512 135.774ZM268.051 137.337L268.23 137.731L268.229 137.731L268.051 137.337ZM256.205 150.422L256.606 150.588L256.606 150.588L256.205 150.422ZM260.294 163.726L260.515 163.353L260.545 163.371L260.572 163.394L260.294 163.726ZM272.479 163.601L272.255 163.23L272.256 163.23L272.479 163.601ZM279.011 157.044L278.634 156.83L278.654 156.794L278.681 156.763L279.011 157.044ZM282.58 156.63L282.9 156.338L282.9 156.338L282.58 156.63ZM265.664 161.889C262.981 161.917 260.749 160.781 259.448 158.964C258.144 157.143 257.806 154.683 258.827 152.136L259.631 152.458C258.712 154.752 259.034 156.897 260.153 158.459C261.274 160.025 263.227 161.048 265.655 161.023L265.664 161.889ZM258.827 152.135C261.242 146.124 265.254 141.393 271.73 139.311L271.996 140.136C265.827 142.119 261.977 146.619 259.631 152.458L258.827 152.135ZM271.73 139.311C273.877 138.62 275.933 138.89 277.529 139.931C279.124 140.971 280.218 142.755 280.495 145.012L279.635 145.118C279.385 143.084 278.413 141.542 277.056 140.657C275.7 139.772 273.919 139.517 271.996 140.136L271.73 139.311ZM280.495 145.012C280.964 148.807 279.12 153.006 276.276 156.242C273.433 159.477 269.5 161.852 265.664 161.889L265.656 161.023C269.159 160.988 272.877 158.797 275.626 155.669C278.374 152.542 280.063 148.581 279.635 145.118L280.495 145.012ZM294.784 167.322C295.14 167.036 295.267 166.769 295.297 166.535C295.329 166.287 295.261 166.005 295.094 165.679C294.927 165.354 294.68 165.021 294.401 164.685C294.263 164.518 294.121 164.355 293.981 164.194C293.842 164.034 293.703 163.874 293.578 163.721L294.249 163.173C294.364 163.314 294.494 163.463 294.634 163.625C294.774 163.785 294.922 163.956 295.069 164.132C295.359 164.482 295.655 164.873 295.865 165.284C296.076 165.693 296.219 166.158 296.157 166.645C296.093 167.145 295.82 167.6 295.329 167.997L294.784 167.322ZM293.578 163.722C292.407 162.293 289.382 159.295 286.669 156.556C285.32 155.194 284.052 153.9 283.148 152.912C282.697 152.42 282.328 151.995 282.083 151.671C281.962 151.512 281.859 151.36 281.792 151.228C281.759 151.164 281.723 151.081 281.706 150.99C281.691 150.909 281.673 150.726 281.806 150.563L282.478 151.11C282.585 150.979 282.561 150.845 282.558 150.83C282.553 150.805 282.548 150.803 282.565 150.836C282.596 150.898 282.662 151 282.774 151.148C282.993 151.438 283.34 151.839 283.787 152.327C284.678 153.3 285.935 154.583 287.285 155.946C289.97 158.657 293.043 161.702 294.248 163.172L293.578 163.722ZM281.788 150.586C281.784 150.592 281.792 150.582 281.812 150.539C281.83 150.501 281.852 150.45 281.878 150.387C281.93 150.26 281.99 150.097 282.055 149.912C282.185 149.542 282.327 149.099 282.441 148.72L283.271 148.97C283.154 149.358 283.008 149.813 282.873 150.198C282.806 150.39 282.74 150.568 282.681 150.714C282.628 150.843 282.564 150.99 282.496 151.086L281.788 150.586ZM282.441 148.72C283.161 146.326 283.06 143.701 281.998 141.472L282.78 141.099C283.945 143.546 284.045 146.395 283.271 148.969L282.441 148.72ZM281.998 141.472C280.673 138.699 278.258 136.873 274.437 136.201L274.587 135.348C278.643 136.061 281.317 138.037 282.78 141.099L281.998 141.472ZM274.435 136.201C273.791 136.085 272.768 136.22 271.603 136.526C270.456 136.827 269.236 137.275 268.23 137.731L267.872 136.942C268.918 136.468 270.184 136.002 271.383 135.687C272.564 135.378 273.745 135.196 274.589 135.348L274.435 136.201ZM268.229 137.731C262.618 140.267 258.95 144.925 256.606 150.588L255.805 150.256C258.207 144.453 262.005 139.593 267.873 136.942L268.229 137.731ZM256.606 150.588C255.66 152.871 255.156 155.172 255.612 157.33C256.063 159.469 257.474 161.544 260.515 163.353L260.072 164.098C256.869 162.192 255.275 159.934 254.764 157.509C254.256 155.104 254.83 152.611 255.805 150.256L256.606 150.588ZM260.572 163.394C261.674 164.317 263.716 164.812 265.981 164.79C268.231 164.769 270.586 164.237 272.255 163.23L272.703 163.973C270.864 165.081 268.345 165.634 265.99 165.657C263.65 165.679 261.353 165.179 260.015 164.058L260.572 163.394ZM272.256 163.23C274.917 161.63 277.113 159.513 278.634 156.83L279.388 157.257C277.784 160.086 275.474 162.306 272.702 163.973L272.256 163.23ZM278.681 156.763C278.868 156.543 279.032 156.337 279.182 156.147C279.33 155.96 279.469 155.78 279.597 155.626C279.839 155.333 280.113 155.034 280.461 154.911C280.864 154.768 281.248 154.889 281.617 155.135C281.975 155.374 282.388 155.776 282.9 156.338L282.259 156.922C281.75 156.363 281.398 156.031 281.135 155.855C280.884 155.687 280.792 155.713 280.751 155.727C280.655 155.761 280.517 155.873 280.264 156.178C280.145 156.322 280.017 156.487 279.863 156.683C279.711 156.877 279.539 157.093 279.341 157.325L278.681 156.763ZM282.9 156.338C283.306 156.785 285.945 159.891 288.73 162.72C290.123 164.134 291.533 165.46 292.701 166.338C293.289 166.779 293.791 167.088 294.185 167.245C294.609 167.414 294.752 167.348 294.784 167.323L295.329 167.997C294.901 168.343 294.334 168.237 293.864 168.05C293.364 167.851 292.789 167.487 292.181 167.031C290.96 166.113 289.512 164.75 288.113 163.328C285.314 160.485 282.634 157.333 282.259 156.921L282.9 156.338Z" fill="#36F2B9"/>
</g>
<path id="Fill 29" fill-rule="evenodd" clip-rule="evenodd" d="M131.74 198.158C132.007 201.435 131.217 206.143 129.978 208.982C128.614 212.133 126.768 214.858 125.368 217.994C125.066 218.668 124.714 219.301 125.49 219.697C126.168 220.042 126.627 219.297 126.921 218.883C131.08 213.029 134.553 207.42 134.553 199.6C134.553 196.617 131.474 194.882 131.74 198.158Z" fill="#050505" stroke="black" stroke-width="0.866592"/>
<g id="Group 9 Copy">
<g id="Fill 192">
<path fill-rule="evenodd" clip-rule="evenodd" d="M169.349 33.5911C170.552 36.5927 171.899 39.5402 173.204 42.4782C174.063 44.4199 175.32 44.5058 176.796 43.2438C179.386 41.0305 180.275 37.9359 180.873 36.2486C181.108 35.5883 181.801 35.2434 182.475 35.421C183.822 35.7762 185.354 35.9237 186.537 35.1844C189.844 33.1176 188.097 27.8639 185.633 25.4161C184.494 24.2832 182.63 24.0525 181.26 24.8945C179.647 25.8849 178.627 27.5029 178.46 29.229C178.387 29.9656 177.738 30.5019 177.008 30.4092C174.943 30.145 172.39 29.5695 171.043 30.0182C168.705 30.8062 168.696 31.9805 169.349 33.5911Z" fill="#36F2B9"/>
<path d="M169.349 33.5911C170.552 36.5927 171.899 39.5402 173.204 42.4782C174.063 44.4199 175.32 44.5058 176.796 43.2438C179.386 41.0305 180.275 37.9359 180.873 36.2486C181.108 35.5883 181.801 35.2434 182.475 35.421C183.822 35.7762 185.354 35.9237 186.537 35.1844C189.844 33.1176 188.097 27.8639 185.633 25.4161C184.494 24.2832 182.63 24.0525 181.26 24.8945C179.647 25.8849 178.627 27.5029 178.46 29.229C178.387 29.9656 177.738 30.5019 177.008 30.4092C174.943 30.145 172.39 29.5695 171.043 30.0182C168.705 30.8062 168.696 31.9805 169.349 33.5911" stroke="#36F2B9" stroke-width="0.866592"/>
</g>
<path id="Fill 20" fill-rule="evenodd" clip-rule="evenodd" d="M195.572 31.6168C198.026 36.3301 197.875 36.1057 193.712 39.1141C189.479 42.1755 188.311 43.3859 184.205 46.6158C180.876 49.2351 182.741 51.0144 186.81 48.9653C191.903 46.4008 196.454 42.5957 201.242 39.3661C202.422 38.5651 202.596 37.6032 202.132 36.5614C200.56 33.0323 197.665 26.7504 196.018 23.2541C194.918 23.9801 193.674 24.5201 192.973 25.7303C193.435 26.7588 195.055 30.6192 195.572 31.6168Z" fill="#050505"/>
<path id="Fill 70" fill-rule="evenodd" clip-rule="evenodd" d="M167.368 17.2353C164.039 19.8788 161.006 22.8785 157.828 25.7006C155.424 27.8328 157.43 30.3294 159.905 28.3793C167.62 22.3084 175.423 16.3277 182.986 10.0716C183.756 9.4349 185.034 8.74594 183.932 7.34928C182.818 5.94147 181.516 5.99745 167.368 17.2353Z" fill="#050505"/>
<path id="Fill 122" fill-rule="evenodd" clip-rule="evenodd" d="M190.099 18.1475C191.077 17.2455 192.579 16.9939 193.18 15.6341C192.533 13.7154 191.973 11.7602 191.191 9.89752C190.808 8.9964 189.964 8.00148 188.857 8.38152C187.769 8.75712 187.822 9.93493 187.977 10.9817C188.348 13.4727 189.17 15.8239 190.099 18.1475Z" fill="#050505"/>
<g id="Fill 160">
<path fill-rule="evenodd" clip-rule="evenodd" d="M192.097 28.8936C194.78 27.327 199.768 24.2701 201.951 22.028C202.371 21.5957 202.524 20.9756 202.364 20.396L200.165 12.2907C199.847 11.1191 198.441 10.6413 197.485 11.3941C194.815 13.5017 192.691 15.9796 187.802 18.4756C187.082 18.8405 186.805 19.7178 187.063 20.481L189.643 27.973C189.991 28.988 191.174 29.4316 192.097 28.8936Z" fill="#36F2B9"/>
<path d="M192.097 28.8936C194.78 27.327 199.768 24.2701 201.951 22.028C202.371 21.5957 202.524 20.9756 202.364 20.396L200.165 12.2907C199.847 11.1191 198.441 10.6413 197.485 11.3941C194.815 13.5017 192.691 15.9796 187.802 18.4756C187.082 18.8405 186.805 19.7178 187.063 20.481L189.643 27.973C189.991 28.988 191.174 29.4316 192.097 28.8936" stroke="#36F2B9" stroke-width="0.866592"/>
</g>
</g>
<g id="Fill 33_2">
<path fill-rule="evenodd" clip-rule="evenodd" d="M151.025 40.5424C151.247 43.4649 152.307 46.1882 153.513 48.7913C157.125 56.612 161.585 63.9519 166.618 70.9499C167.36 71.9829 168.51 72.937 169.543 72.2083C170.493 71.5359 170.026 70.1273 169.377 69.0643C166.765 64.7633 164.197 60.436 161.577 56.1387C158.478 51.0489 155.832 45.7487 153.913 40.0954C153.63 39.2653 154.131 37.6538 152.454 37.8116C150.78 37.9693 151.036 39.3704 151.025 40.5424Z" fill="#050505"/>
<path d="M151.025 40.5424C151.247 43.4649 152.307 46.1882 153.513 48.7913C157.125 56.612 161.585 63.9519 166.618 70.9499C167.36 71.9829 168.51 72.937 169.543 72.2083C170.493 71.5359 170.026 70.1273 169.377 69.0643C166.765 64.7633 164.197 60.436 161.577 56.1387C158.478 51.0489 155.832 45.7487 153.913 40.0954C153.63 39.2653 154.131 37.6538 152.454 37.8116C150.78 37.9693 151.036 39.3704 151.025 40.5424" stroke="black" stroke-width="0.866592"/>
</g>
<g id="Fill 35">
<path fill-rule="evenodd" clip-rule="evenodd" d="M159.683 34.2332C159.815 40.3474 162.093 45.7052 164.276 51.0334C166.184 55.6867 168.439 60.2177 171.545 64.274C172.357 65.3382 173.097 67.0772 174.62 66.1205C175.862 65.3382 175.099 63.8069 174.4 62.5833C169.72 54.4038 165.304 46.1131 163.113 36.8695C162.909 36.0167 162.656 35.2417 162.803 34.3518C162.996 33.1802 162.709 31.8787 161.435 31.7489C159.524 31.5487 160.083 33.4657 159.683 34.2332Z" fill="#050505"/>
<path d="M159.683 34.2332C159.815 40.3474 162.093 45.7052 164.276 51.0334C166.184 55.6867 168.439 60.2177 171.545 64.274C172.357 65.3382 173.097 67.0772 174.62 66.1205C175.862 65.3382 175.099 63.8069 174.4 62.5833C169.72 54.4038 165.304 46.1131 163.113 36.8695C162.909 36.0167 162.656 35.2417 162.803 34.3518C162.996 33.1802 162.709 31.8787 161.435 31.7489C159.524 31.5487 160.083 33.4657 159.683 34.2332" stroke="black" stroke-width="0.866592"/>
</g>
<g id="Fill 37">
<path fill-rule="evenodd" clip-rule="evenodd" d="M166.676 30.813C167.499 35.7794 168.993 40.5869 170.878 45.2204C172.659 49.5778 174.391 53.9882 176.835 58.0392C177.185 58.6217 177.52 59.2155 177.923 59.7527C178.66 60.7474 179.73 61.6855 180.836 60.9139C181.875 60.1914 181.089 58.9167 180.598 58.0279C176.582 50.7466 173.564 43.0493 171.303 35.0418C170.867 33.5024 170.297 31.9742 170.122 30.4045C169.965 28.9899 169.261 28.1275 168.088 28.2863C167.004 28.4376 166.419 29.5308 166.676 30.813Z" fill="#050505"/>
<path d="M166.676 30.813C167.499 35.7794 168.993 40.5869 170.878 45.2204C172.659 49.5778 174.391 53.9882 176.835 58.0392C177.185 58.6217 177.52 59.2155 177.923 59.7527C178.66 60.7474 179.73 61.6855 180.836 60.9139C181.875 60.1914 181.089 58.9167 180.598 58.0279C176.582 50.7466 173.564 43.0493 171.303 35.0418C170.867 33.5024 170.297 31.9742 170.122 30.4045C169.965 28.9899 169.261 28.1275 168.088 28.2863C167.004 28.4376 166.419 29.5308 166.676 30.813" stroke="black" stroke-width="0.866592"/>
</g>
<g id="Fill 39">
<path fill-rule="evenodd" clip-rule="evenodd" d="M111.166 177.038C112.057 182.529 114.113 188.499 116.631 194.305C117.982 197.422 119.483 200.483 121.421 203.284C122.122 204.304 123.161 205.633 124.401 204.783C125.8 203.822 124.471 202.794 123.873 201.722C121.663 197.778 119.784 193.656 118.198 189.415C117.398 187.278 116.671 185.115 116.018 182.926C115.423 180.952 114.407 178.585 114.502 176.496C114.52 176.103 114.605 175.725 114.627 175.331C114.697 174.04 114.473 172.998 112.872 172.99C111.217 172.979 111.107 174.092 111.166 175.346C111.177 175.632 111.166 175.921 111.166 177.038Z" fill="#050505"/>
<path d="M111.166 177.038C112.057 182.529 114.113 188.499 116.631 194.305C117.982 197.422 119.483 200.483 121.421 203.284C122.122 204.304 123.161 205.633 124.401 204.783C125.8 203.822 124.471 202.794 123.873 201.722C121.663 197.778 119.784 193.656 118.198 189.415C117.398 187.278 116.671 185.115 116.018 182.926C115.423 180.952 114.407 178.585 114.502 176.496C114.52 176.103 114.605 175.725 114.627 175.331C114.697 174.04 114.473 172.998 112.872 172.99C111.217 172.979 111.107 174.092 111.166 175.346C111.177 175.632 111.166 175.921 111.166 177.038" stroke="black" stroke-width="0.866592"/>
</g>
<g id="Fill 43">
<path fill-rule="evenodd" clip-rule="evenodd" d="M95.6255 186.528C95.9538 188.998 97.3406 192.154 97.6983 192.918C100.085 198.001 102.744 202.946 105.687 207.726C106.041 208.295 106.373 209.04 106.904 209.306C107.749 209.732 108.66 210.852 109.704 209.845C110.751 208.834 110.205 207.913 109.493 206.805C105.193 200.105 101.073 193.296 98.4581 185.674C98.1593 184.806 98.3622 183.122 96.8205 183.425C95.6366 183.653 95.4153 184.952 95.6255 186.528Z" fill="#050505"/>
<path d="M95.6255 186.528C95.9538 188.998 97.3406 192.154 97.6983 192.918C100.085 198.001 102.744 202.946 105.687 207.726C106.041 208.295 106.373 209.04 106.904 209.306C107.749 209.732 108.66 210.852 109.704 209.845C110.751 208.834 110.205 207.913 109.493 206.805C105.193 200.105 101.073 193.296 98.4581 185.674C98.1593 184.806 98.3622 183.122 96.8205 183.425C95.6366 183.653 95.4153 184.952 95.6255 186.528" stroke="black" stroke-width="0.866592"/>
</g>
<g id="Fill 45">
<path fill-rule="evenodd" clip-rule="evenodd" d="M102.542 180.306C103.159 187.148 106.732 193.587 109.434 199.739C110.254 201.61 111.104 203.526 112.501 204.994C113.118 205.64 114.075 206.213 114.84 205.757C115.361 205.442 115.557 204.736 115.464 204.122C115.376 203.511 115.054 202.96 114.751 202.425C112.837 199.052 111.266 195.492 109.7 191.933C107.93 187.922 106.141 183.858 105.384 179.52C105.302 179.05 105.228 178.572 105.014 178.151C104.8 177.726 104.416 177.369 103.954 177.327C103.403 177.278 102.897 177.714 102.679 178.234C102.461 178.758 102.468 179.346 102.512 179.911C102.52 180.044 102.531 180.177 102.542 180.306Z" fill="#050505"/>
<path d="M102.542 180.306C103.159 187.148 106.732 193.587 109.434 199.739C110.254 201.61 111.104 203.526 112.501 204.994C113.118 205.64 114.075 206.213 114.84 205.757C115.361 205.442 115.557 204.736 115.464 204.122C115.376 203.511 115.054 202.96 114.751 202.425C112.837 199.052 111.266 195.492 109.7 191.933C107.93 187.922 106.141 183.858 105.384 179.52C105.302 179.05 105.228 178.572 105.014 178.151C104.8 177.726 104.416 177.369 103.954 177.327C103.403 177.278 102.897 177.714 102.679 178.234C102.461 178.758 102.468 179.346 102.512 179.911C102.52 180.044 102.531 180.177 102.542 180.306" stroke="black" stroke-width="0.866592"/>
</g>
<g id="Fill 47">
<path fill-rule="evenodd" clip-rule="evenodd" d="M89.5897 194.953C90.2665 199.014 94.1665 206.023 94.6559 206.917C96.04 209.453 97.5503 211.92 99.2594 214.249C99.6035 214.718 99.8941 215.235 100.292 215.654C100.995 216.393 102.031 216.495 102.773 216.065C103.744 215.494 103.312 214.543 102.831 213.747C100.689 210.199 98.4871 206.689 96.43 203.099C94.8432 200.324 93.3215 197.503 92.6103 194.324C92.3847 193.312 91.9412 191.934 90.7177 192.063C89.5591 192.185 89.3221 193.338 89.5897 194.953Z" fill="#050505"/>
<path d="M89.5897 194.953C90.2665 199.014 94.1665 206.023 94.6559 206.917C96.04 209.453 97.5503 211.92 99.2594 214.249C99.6035 214.718 99.8941 215.235 100.292 215.654C100.995 216.393 102.031 216.495 102.773 216.065C103.744 215.494 103.312 214.543 102.831 213.747C100.689 210.199 98.4871 206.689 96.43 203.099C94.8432 200.324 93.3215 197.503 92.6103 194.324C92.3847 193.312 91.9412 191.934 90.7177 192.063C89.5591 192.185 89.3221 193.338 89.5897 194.953" stroke="black" stroke-width="0.866592"/>
</g>
<path id="Fill 51" fill-rule="evenodd" clip-rule="evenodd" d="M254.632 218.919C249.845 219.065 245.536 220.186 241.76 222.764C240.98 223.293 239.714 223.978 240.55 225.2C241.305 226.293 242.477 225.789 243.351 225.289C247.956 222.661 253.049 222.161 258.247 221.983C258.938 221.958 260.085 222.594 260.2 221.106C260.297 219.856 259.33 219.491 258.479 219.302C257.172 219.011 255.794 219.022 254.632 218.919Z" fill="#050505"/>
<path id="Fill 53" fill-rule="evenodd" clip-rule="evenodd" d="M253.329 179.923C255.094 179.756 256.819 179.698 258.371 178.866C259.097 178.478 259.524 177.965 259.266 177.12C258.99 176.219 258.249 176.056 257.457 176.233C254.103 176.967 250.838 176.714 247.591 175.699C246.854 175.467 246.054 175.564 245.645 176.395C245.177 177.352 245.756 177.93 246.489 178.409C248.568 179.77 251.037 179.583 253.329 179.923Z" fill="#050505"/>
<path id="Fill 61" fill-rule="evenodd" clip-rule="evenodd" d="M270.756 169.523C269.644 169.544 269.075 170.085 268.975 171.123C268.878 172.13 269.176 172.919 270.323 172.985C271.46 173.05 272.209 172.488 272.254 171.309C272.292 170.289 271.744 169.672 270.756 169.523Z" fill="#050505"/>
<path id="Fill 63" fill-rule="evenodd" clip-rule="evenodd" d="M268.981 179.825C269.983 179.641 270.527 179.028 270.423 177.981C270.333 177.076 269.775 176.484 268.835 176.56C267.788 176.64 267.227 177.385 267.324 178.366C267.411 179.201 267.986 179.804 268.981 179.825Z" fill="#050505"/>
<path id="Fill 65" fill-rule="evenodd" clip-rule="evenodd" d="M264.41 174.421C265.582 174.383 265.967 173.887 265.949 173.02C265.929 172.029 265.426 171.499 264.431 171.565C263.603 171.617 263.11 172.092 263.131 172.965C263.155 173.963 263.738 174.393 264.41 174.421Z" fill="#050505"/>
<g id="Fill 67">
<path fill-rule="evenodd" clip-rule="evenodd" d="M334.377 263.113C346.711 262.517 355.63 255.576 361.41 244.483C367.839 232.156 365.053 220.287 358.749 208.78C358.473 208.273 358.06 207.826 357.643 207.417C357.002 206.776 356.498 205.398 355.395 206.128C354.557 206.683 355.368 207.722 355.732 208.49C357.555 212.338 359.072 216.286 360.22 220.388C364.037 234.019 360.087 245.187 349.19 254.124C345.054 257.517 340.131 259.086 334.813 259.544C333.929 259.618 333.027 259.548 332.152 259.659C331.003 259.801 329.548 259.834 329.536 261.384C329.521 263.202 331.064 263.072 332.353 263.109C332.747 263.12 333.145 263.113 334.377 263.113Z" fill="white"/>
<path d="M334.377 263.113C346.711 262.517 355.63 255.576 361.41 244.483C367.839 232.156 365.053 220.287 358.749 208.78C358.473 208.273 358.06 207.826 357.643 207.417C357.002 206.776 356.498 205.398 355.395 206.128C354.557 206.683 355.368 207.722 355.732 208.49C357.555 212.338 359.072 216.286 360.22 220.388C364.037 234.019 360.087 245.187 349.19 254.124C345.054 257.517 340.131 259.086 334.813 259.544C333.929 259.618 333.027 259.548 332.152 259.659C331.003 259.801 329.548 259.834 329.536 261.384C329.521 263.202 331.064 263.072 332.353 263.109C332.747 263.12 333.145 263.113 334.377 263.113" stroke="white" stroke-width="0.866592"/>
</g>
<g id="Fill 73">
<path fill-rule="evenodd" clip-rule="evenodd" d="M280.139 189.146C280.181 190.371 280.454 192.036 282.79 192.055C284.749 192.07 286.182 189.827 286.205 186.959C286.22 185.095 285.678 183.536 283.566 183.393C281.833 183.271 280.143 186.029 280.139 189.146Z" fill="#36F2B9"/>
<path d="M280.139 189.146C280.181 190.371 280.454 192.036 282.79 192.055C284.749 192.07 286.182 189.827 286.205 186.959C286.22 185.095 285.678 183.536 283.566 183.393C281.833 183.271 280.143 186.029 280.139 189.146" stroke="#36F2B9" stroke-width="0.866592"/>
</g>
<path id="Fill 77" fill-rule="evenodd" clip-rule="evenodd" d="M275.799 148.48C275.775 147.843 275.678 147.209 275.508 146.591C275.192 145.453 274.375 144.036 272.822 144.474C272.158 144.658 272.158 145.048 272.324 145.564C272.559 146.293 272.62 147.084 272.628 147.846C272.64 149.26 272.348 150.674 271.843 152.01C271.471 153.004 271.034 154.189 272.446 154.686C274.169 155.294 274.893 153.122 275.269 152.01C275.654 150.872 275.848 149.672 275.799 148.48Z" fill="#050505"/>
<path id="Fill 79" fill-rule="evenodd" clip-rule="evenodd" d="M265.368 153.004C266.132 152.902 266.886 152.666 267.34 152.465C268.185 152.084 268.752 151.431 268.862 150.521C268.994 149.392 267.914 148.521 266.524 148.768C264.811 149.068 262.975 149.47 262.814 151.533C262.7 152.969 264.05 153.184 265.368 153.004Z" fill="#050505"/>
<g id="Fill 116">
<path fill-rule="evenodd" clip-rule="evenodd" d="M322.718 260.517C322.718 261.411 323.443 262.132 324.337 262.132C325.228 262.132 325.952 261.411 325.952 260.517C325.952 259.623 325.228 258.898 324.337 258.898C323.443 258.898 322.718 259.623 322.718 260.517Z" fill="white"/>
<path d="M322.718 260.517C322.718 261.411 323.443 262.132 324.337 262.132C325.228 262.132 325.952 261.411 325.952 260.517C325.952 259.623 325.228 258.898 324.337 258.898C323.443 258.898 322.718 259.623 322.718 260.517" stroke="white" stroke-width="0.866592"/>
</g>
<g id="Group 14 Copy">
<path id="Fill 33_3" fill-rule="evenodd" clip-rule="evenodd" d="M137.463 154.67C135.807 152.004 133.646 151.952 131.002 153.116C124.4 156.03 117.661 158.665 110.48 159.648C105.746 160.297 101.057 161.466 96.2422 161.441C93.9975 161.428 93.3493 162.581 93.7849 164.536C94.4971 167.734 95.3241 170.887 96.4242 173.933C97.6755 177.397 101.667 177.891 99.9586 172.577C99.554 171.317 99.0463 170.113 98.753 168.792C97.7898 164.458 97.7131 164.415 102.234 164.163C108.456 163.816 114.749 163.493 120.598 161.317C124.583 159.831 128.795 158.751 132.447 156.405C133.78 155.545 134.36 155.736 135.029 157.39C135.863 159.454 138.58 164.619 139.8 166.526C141.179 166.909 141.117 162.802 142.324 162.358C140.702 159.797 139.062 157.247 137.463 154.67Z" fill="#050505" stroke="black" stroke-width="0.866592"/>
<path id="Fill 44_2" fill-rule="evenodd" clip-rule="evenodd" d="M149.054 179.675C149.867 180.583 149.614 181.147 148.519 181.762C141.268 185.834 133.597 188.777 125.586 190.974C120.435 192.384 122.362 195.424 127.152 194.193C135.658 192.012 141.462 189.791 149.333 185.938C153.736 183.785 154.459 182.15 152.201 177.896C151.076 175.776 149.682 173.797 148.409 171.757C146.911 171.062 145.884 172.268 144.66 172.686C146.083 175.041 147.192 177.591 149.054 179.675Z" fill="#050505" stroke="black" stroke-width="0.866592"/>
<g id="Fill 82_2">
<path fill-rule="evenodd" clip-rule="evenodd" d="M119.308 170.524C119.439 170.726 119.578 170.922 119.731 171.098C120.647 172.197 121.908 172.81 122.381 174.263C122.949 176.015 122.592 177.739 124.404 178.829C125.527 179.508 124.762 180.648 124.507 181.589C124.024 183.34 124.026 185.179 125.741 186.085C127.492 187.009 129.534 187.02 131.411 186.06C132.236 185.638 133.203 185.198 132.737 184.016C132.391 183.125 131.615 183.132 130.701 183.213C129.034 183.363 126.723 183.923 128.786 180.783C129.799 179.244 128.947 177.737 127.437 176.736C126.126 175.867 125.106 174.969 125.29 173.077C125.393 172.052 124.714 171.005 123.664 170.319C122.317 169.442 121.632 167.998 121.54 166.461C121.446 164.88 120.764 163.603 119.304 163.835C116.307 164.307 118.357 169.052 119.308 170.524Z" fill="#050505"/>
<path d="M119.308 170.524C119.439 170.726 119.578 170.922 119.731 171.098C120.647 172.197 121.908 172.81 122.381 174.263C122.949 176.015 122.592 177.739 124.404 178.829C125.527 179.508 124.762 180.648 124.507 181.589C124.024 183.34 124.026 185.179 125.741 186.085C127.492 187.009 129.534 187.02 131.411 186.06C132.236 185.638 133.203 185.198 132.737 184.016C132.391 183.125 131.615 183.132 130.701 183.213C129.034 183.363 126.723 183.923 128.786 180.783C129.799 179.244 128.947 177.737 127.437 176.736C126.126 175.867 125.106 174.969 125.29 173.077C125.393 172.052 124.714 171.005 123.664 170.319C122.317 169.442 121.632 167.998 121.54 166.461C121.446 164.88 120.764 163.603 119.304 163.835C116.307 164.307 118.357 169.052 119.308 170.524" stroke="black" stroke-width="0.866592"/>
</g>
<g id="Fill 158_2">
<path fill-rule="evenodd" clip-rule="evenodd" d="M142.157 175.875C144.71 174.103 149.447 170.673 151.449 168.264C151.835 167.8 151.938 167.172 151.736 166.606L148.916 158.694C148.505 157.55 147.069 157.185 146.176 158.007C143.675 160.315 141.752 162.949 137.068 165.821C136.38 166.24 136.17 167.135 136.491 167.877L139.637 175.15C140.064 176.134 141.277 176.487 142.157 175.875Z" fill="#36F2B9"/>
<path d="M142.157 175.875C144.71 174.103 149.447 170.673 151.449 168.264C151.835 167.8 151.938 167.172 151.736 166.606L148.916 158.694C148.505 157.55 147.069 157.185 146.176 158.007C143.675 160.315 141.752 162.949 137.068 165.821C136.38 166.24 136.17 167.135 136.491 167.877L139.637 175.15C140.064 176.134 141.277 176.487 142.157 175.875" stroke="#36F2B9" stroke-width="0.866592"/>
</g>
</g>
</g>
</g>
</svg>
