<svg width="137" height="74" viewBox="0 0 137 74" fill="none" xmlns="http://www.w3.org/2000/svg">
<path d="M1.92188 36.8925C1.92188 56.2051 31.6847 71.8613 68.3977 71.8613C105.111 71.8613 134.874 56.2051 134.874 36.8925C134.874 17.5802 105.111 1.92376 68.3977 1.92376C31.6847 1.92376 1.92188 17.5802 1.92188 36.8925Z" fill="black"/>
<path d="M68.4005 69.2646C103.679 69.2646 132.28 54.7709 132.28 36.8921C132.28 19.0135 103.679 4.51953 68.4005 4.51953C33.1216 4.51953 4.52148 19.0135 4.52148 36.8921C4.52148 54.7709 33.1216 69.2646 68.4005 69.2646Z" fill="black"/>
<path d="M38.04 40.9063C40.9408 40.9063 43.1065 40.3713 44.4767 39.3167C45.8323 38.273 46.7685 36.4647 47.2593 33.9423C47.7168 31.5845 47.5425 29.9383 46.7414 29.0499C45.9222 28.1425 44.1511 27.6823 41.4775 27.6823H36.8416L34.2716 40.9063H38.04ZM22.8774 57.1958C22.6622 57.1958 22.4578 57.0996 22.321 56.9332C22.1839 56.7671 22.1284 56.5483 22.1695 56.337L28.9806 21.2932C29.0465 20.9544 29.3434 20.7096 29.6887 20.7096H44.3683C48.9817 20.7096 52.4157 21.9623 54.5741 24.4333C56.744 26.9172 57.4141 30.3893 56.5656 34.753C56.2203 36.5308 55.6264 38.1819 54.8005 39.6601C53.9737 41.14 52.8809 42.5092 51.552 43.7307C49.9613 45.2194 48.1609 46.299 46.2057 46.9342C44.2815 47.561 41.8103 47.8789 38.8608 47.8789H32.9168L31.2193 56.612C31.1534 56.951 30.8567 57.1958 30.5114 57.1958H22.8774Z" fill="black"/>
<path d="M37.4369 28.4035H41.4781C44.705 28.4035 45.826 29.1115 46.2068 29.5335C46.8387 30.2341 46.9579 31.7114 46.5518 33.8053C46.0955 36.1496 45.2496 37.8117 44.0373 38.7451C42.7962 39.7006 40.7785 40.1848 38.0406 40.1848H35.1472L37.4369 28.4035ZM44.3689 19.9882H29.6891C28.9986 19.9882 28.4049 20.4777 28.2732 21.1555L21.4621 56.1993C21.3799 56.6222 21.4909 57.0596 21.7648 57.3921C22.0389 57.7246 22.4471 57.917 22.878 57.917H30.5119C31.2026 57.917 31.7963 57.4275 31.928 56.7497L33.512 48.6001H38.8615C41.8866 48.6001 44.4333 48.2702 46.4302 47.6198C48.4837 46.9526 50.3731 45.8214 52.0453 44.2576C53.4283 42.9852 54.5675 41.557 55.4307 40.0122C56.2941 38.4669 56.9144 36.7437 57.2743 34.8904C58.1675 30.2971 57.4419 26.6189 55.1178 23.9588C52.8164 21.3241 49.1998 19.9882 44.3689 19.9882ZM33.3971 41.6274H38.0406C41.1185 41.6274 43.411 41.0478 44.9173 39.8881C46.4239 38.7283 47.44 36.7925 47.968 34.0799C48.4732 31.4755 48.2431 29.6376 47.2777 28.567C46.3112 27.4963 44.3783 26.9608 41.4781 26.9608H36.2477L33.3971 41.6274ZM44.3689 21.4308C48.785 21.4308 52.0066 22.5897 54.0316 24.9078C56.0563 27.2258 56.666 30.4614 55.8582 34.6154C55.5256 36.3266 54.9632 37.8911 54.1715 39.3084C53.3788 40.7268 52.3437 42.0237 51.0646 43.1997C49.5402 44.6262 47.8468 45.6427 45.9834 46.2481C44.1201 46.8552 41.7467 47.1575 38.8615 47.1575H32.3226L30.5119 56.4744H22.878L29.6891 21.4308H44.3689Z" fill="white"/>
<path d="M69.7592 10.6713H62.1854C61.4946 10.6713 60.901 11.1608 60.7692 11.8386L53.9582 46.8824C53.8759 47.3053 53.987 47.7427 54.2611 48.0752C54.5352 48.4077 54.9435 48.6001 55.3743 48.6001H62.9481C63.6386 48.6001 64.2325 48.1106 64.3642 47.4328L68.0388 28.5237H72.9026C75.1538 28.5237 75.6263 29.0046 75.6453 29.0252C75.7818 29.1721 75.9614 29.8526 75.665 31.3769L72.6521 46.8824C72.5699 47.3053 72.6809 47.7427 72.955 48.0752C73.2291 48.4077 73.6374 48.6001 74.0682 48.6001H81.7622C82.4527 48.6001 83.0466 48.1106 83.1784 47.4328L86.3471 31.1252C87.0907 27.2972 86.4546 24.4257 84.457 22.5897C82.5508 20.8391 79.3578 19.9882 74.6955 19.9882H69.6983L71.1753 12.3892C71.2573 11.9663 71.1465 11.5287 70.8724 11.1964C70.5983 10.8639 70.19 10.6713 69.7592 10.6713ZM69.7592 12.1139L67.9484 21.4308H74.6955C78.9409 21.4308 81.8692 22.1718 83.4808 23.652C85.0925 25.1331 85.5753 27.5328 84.9312 30.8501L81.7622 47.1575H74.0682L77.0812 31.6522C77.424 29.8884 77.298 28.6853 76.7027 28.0438C76.1071 27.4023 74.8403 27.0811 72.9026 27.0811H66.8494L62.9481 47.1575H55.3743L62.1854 12.1139H69.7592Z" fill="white"/>
<path d="M97.6239 40.9063C100.525 40.9063 102.69 40.3713 104.061 39.3167C105.416 38.2732 106.352 36.4649 106.843 33.9423C107.301 31.5845 107.127 29.9383 106.325 29.0499C105.506 28.1425 103.735 27.6823 101.061 27.6823H96.4256L93.8556 40.9063H97.6239ZM82.4616 57.1958C82.2464 57.1958 82.042 57.0996 81.9052 56.9332C81.7681 56.7671 81.7124 56.5483 81.7535 56.337L88.5645 21.2932C88.6307 20.9544 88.9274 20.7096 89.2729 20.7096H103.952C108.566 20.7096 112 21.9623 114.158 24.4333C116.328 26.917 116.998 30.3891 116.15 34.753C115.804 36.5308 115.21 38.1819 114.384 39.6601C113.558 41.14 112.465 42.5092 111.136 43.7307C109.545 45.2194 107.745 46.299 105.79 46.9342C103.865 47.561 101.394 47.8789 98.4448 47.8789H92.5005L90.8037 56.612C90.7376 56.951 90.4409 57.1958 90.0954 57.1958H82.4616Z" fill="black"/>
<path d="M97.0206 28.4035H101.062C104.289 28.4035 105.41 29.1115 105.791 29.5335C106.423 30.2341 106.542 31.7114 106.136 33.8051C105.679 36.1496 104.833 37.8117 103.621 38.7451C102.38 39.7006 100.362 40.1848 97.6244 40.1848H94.7312L97.0206 28.4035ZM103.953 19.9882H89.2731C88.5825 19.9882 87.9889 20.4777 87.8571 21.1555L81.0461 56.1993C80.9638 56.6222 81.0749 57.0596 81.3488 57.3921C81.6229 57.7246 82.0311 57.917 82.462 57.917H90.0958C90.7864 57.917 91.3803 57.4275 91.512 56.7497L93.0958 48.6001H98.4452C101.47 48.6001 104.017 48.2702 106.014 47.6198C108.067 46.9526 109.957 45.8211 111.63 44.2571C113.013 42.9849 114.151 41.557 115.014 40.0122C115.878 38.4669 116.498 36.7437 116.858 34.8904C117.751 30.2969 117.026 26.6187 114.702 23.9585C112.4 21.3241 108.784 19.9882 103.953 19.9882ZM92.9811 41.6274H97.6244C100.702 41.6274 102.995 41.0478 104.501 39.8881C106.008 38.7283 107.024 36.7925 107.552 34.0799C108.057 31.4755 107.827 29.6376 106.861 28.567C105.895 27.4963 103.962 26.9608 101.062 26.9608H95.8314L92.9811 41.6274ZM103.953 21.4308C108.369 21.4308 111.59 22.5897 113.615 24.9078C115.64 27.2258 116.25 30.4614 115.442 34.6154C115.109 36.3266 114.547 37.8911 113.755 39.3084C112.963 40.7268 111.927 42.0237 110.648 43.1997C109.124 44.6262 107.431 45.6427 105.567 46.2481C103.704 46.8552 101.33 47.1575 98.4452 47.1575H91.9063L90.0958 56.4744H82.462L89.2731 21.4308H103.953Z" fill="white"/>
</svg>
