<svg width="98" height="98" viewBox="0 0 98 98" fill="none" xmlns="http://www.w3.org/2000/svg">
<g clip-path="url(#clip0_1166_2091)">
<path d="M88.4297 0H9.57031C4.28477 0 0 4.28477 0 9.57031V88.4297C0 93.7152 4.28477 98 9.57031 98H88.4297C93.7152 98 98 93.7152 98 88.4297V9.57031C98 4.28477 93.7152 0 88.4297 0Z" fill="#3178C6"/>
<path d="M88.4297 0H9.57031C4.28477 0 0 4.28477 0 9.57031V88.4297C0 93.7152 4.28477 98 9.57031 98H88.4297C93.7152 98 98 93.7152 98 88.4297V9.57031C98 4.28477 93.7152 0 88.4297 0Z" fill="black"/>
<path fill-rule="evenodd" clip-rule="evenodd" d="M60.6641 77.9835V87.5655C62.2218 88.364 64.0641 88.9628 66.191 89.362C68.3179 89.7613 70.5594 89.9609 72.916 89.9609C75.2127 89.9609 77.3943 89.7414 79.4613 89.3021C81.5283 88.863 83.3408 88.1393 84.8984 87.1312C86.4561 86.1232 87.6893 84.8056 88.5979 83.1786C89.5065 81.5517 89.9609 79.5406 89.9609 77.1451C89.9609 75.4083 89.7014 73.8863 89.1821 72.5788C88.6628 71.2713 87.914 70.1085 86.9354 69.0904C85.9569 68.0723 84.7836 67.1589 83.4156 66.3504C82.0476 65.5419 80.5049 64.7784 78.7874 64.0598C77.5293 63.5407 76.401 63.0368 75.4024 62.5477C74.4038 62.0585 73.5551 61.5595 72.8561 61.0506C72.1571 60.5414 71.6179 60.0024 71.2385 59.4336C70.8592 58.8645 70.6693 58.2208 70.6693 57.5021C70.6693 56.8434 70.8391 56.2495 71.1786 55.7205C71.5182 55.1914 71.9975 54.7374 72.6165 54.358C73.2357 53.9789 73.9944 53.6843 74.8931 53.4747C75.7919 53.2651 76.7903 53.1604 77.8888 53.1604C78.6875 53.1604 79.5312 53.2203 80.4199 53.3399C81.3086 53.4598 82.2023 53.6445 83.1011 53.8939C83.9998 54.1435 84.8734 54.4579 85.7222 54.8371C86.5709 55.2165 87.3548 55.6556 88.0737 56.1548V47.2015C86.6159 46.6426 85.0232 46.2284 83.2958 45.9589C81.5683 45.6894 79.5861 45.5547 77.3496 45.5547C75.0728 45.5547 72.916 45.7993 70.8791 46.2883C68.8421 46.7774 67.0498 47.5409 65.5019 48.5789C63.9542 49.6171 62.7311 50.9395 61.8325 52.5466C60.9338 54.1534 60.4844 56.0748 60.4844 58.3106C60.4844 61.1652 61.3082 63.6007 62.9558 65.6169C64.6032 67.633 67.1045 69.3398 70.4597 70.7372C71.7777 71.2762 73.006 71.8051 74.1443 72.3242C75.2826 72.8433 76.2662 73.3823 77.0948 73.9412C77.9236 74.5001 78.5776 75.109 79.0571 75.7678C79.5364 76.4264 79.776 77.175 79.776 78.0135C79.776 78.6324 79.6262 79.2062 79.3266 79.7352C79.0271 80.2643 78.5727 80.7233 77.9636 81.1126C77.3545 81.5019 76.5956 81.8063 75.687 82.0258C74.7782 82.2455 73.7149 82.3552 72.4966 82.3552C70.4197 82.3552 68.3629 81.991 66.3257 81.2623C64.2888 80.5338 62.4015 79.4409 60.6641 77.9835ZM44.5555 54.3751H56.8477V46.5117H22.5859V54.3751H34.8179V89.3867H44.5555V54.3751Z" fill="white"/>
</g>
<defs>
<clipPath id="clip0_1166_2091">
<rect width="98" height="98" fill="white"/>
</clipPath>
</defs>
</svg>
