<svg xmlns="http://www.w3.org/2000/svg" viewBox="0 0 579.06 578.39"><defs><style>.cls-1{fill:#32f4b8;}.cls-2,.cls-4{fill:none;}.cls-2{stroke:#fff;}.cls-2,.cls-3,.cls-4{stroke-linecap:round;stroke-linejoin:round;stroke-width:13px;}.cls-3{fill:#fff;}.cls-3,.cls-4{stroke:#000;}</style></defs><g id="Layer_2" data-name="Layer 2"><g id="Layer_1-2" data-name="Layer 1"><circle class="cls-1" cx="301.17" cy="210.73" r="210.73"/><path class="cls-2" d="M344.37,36.58s101.4,106.88,26.53,324.3"/><path class="cls-2" d="M241.6,88.51s-56.25,176.87,23.8,277.32"/><path class="cls-2" d="M110.35,202c9.44,9.53,188.75,67.56,384.51,0"/><rect class="cls-3" x="65.48" y="389.56" width="471.37" height="182.33" rx="29.08"/><path d="M175.69,465.87a24.78,24.78,0,0,1,3.83-1.28,19.25,19.25,0,0,1,5-.67,18.35,18.35,0,0,1,7.49,1.34,6.12,6.12,0,0,1,3.71,4l3.78,13.15q1.69,6,3.35,11.51t3.22,11.63h.49q1.71-10.11,3-19.36t2.56-18.26q1.22-9,2.31-18.51a17.1,17.1,0,0,1,8.28-2.19,13,13,0,0,1,6.82,1.7q2.81,1.71,2.8,5.73a69.37,69.37,0,0,1-.55,7.48q-.54,4.82-1.52,11t-2.25,12.91q-1.28,6.69-2.74,13.09t-2.92,11.56a72.74,72.74,0,0,1-2.8,8.34,14.23,14.23,0,0,1-5.12,2.38,26.6,26.6,0,0,1-7.42,1,22.8,22.8,0,0,1-8.4-1.4q-3.54-1.4-4.26-3.83-1.23-3.54-2.74-8.28t-3.11-10.41q-1.58-5.67-3.16-11.63-1.35,5.85-2.93,11.87t-3,11.26c-1,3.49-1.87,6.5-2.68,9a14.11,14.11,0,0,1-4.81,2.38,23.5,23.5,0,0,1-7.12,1,24.11,24.11,0,0,1-8.52-1.46q-3.9-1.46-5-3.77a74.78,74.78,0,0,1-2.87-8.47q-1.64-5.65-3.4-13t-3.35-15.41q-1.59-8-2.92-15.64T136.73,451a18.59,18.59,0,0,1,4.2-2.55,13.39,13.39,0,0,1,5.78-1.22,11.35,11.35,0,0,1,6.57,1.76c1.71,1.18,2.8,3.19,3.29,6q2,11.21,3.23,19.24T162,488q.91,5.73,1.64,9.93t1.46,7.61h.61c.81-3.33,1.59-6.43,2.32-9.32s1.5-5.8,2.31-8.76,1.66-6.17,2.56-9.62S174.71,470.41,175.69,465.87Z"/><path d="M291.84,465.87a24.78,24.78,0,0,1,3.83-1.28,19.25,19.25,0,0,1,5.05-.67,18.39,18.39,0,0,1,7.49,1.34,6.12,6.12,0,0,1,3.71,4l3.78,13.15q1.69,6,3.35,11.51t3.22,11.63h.49q1.71-10.11,3-19.36t2.56-18.26q1.22-9,2.31-18.51a17.1,17.1,0,0,1,8.28-2.19,13,13,0,0,1,6.82,1.7q2.81,1.71,2.8,5.73a69.37,69.37,0,0,1-.55,7.48q-.54,4.82-1.52,11t-2.25,12.91q-1.28,6.69-2.74,13.09t-2.92,11.56a74.76,74.76,0,0,1-2.8,8.34,14.23,14.23,0,0,1-5.12,2.38,26.6,26.6,0,0,1-7.42,1,22.8,22.8,0,0,1-8.4-1.4q-3.54-1.4-4.26-3.83-1.23-3.54-2.74-8.28t-3.11-10.41q-1.58-5.67-3.16-11.63-1.35,5.85-2.93,11.87t-3,11.26c-1,3.49-1.87,6.5-2.68,9a14.11,14.11,0,0,1-4.81,2.38,23.5,23.5,0,0,1-7.12,1,24.11,24.11,0,0,1-8.52-1.46q-3.9-1.46-5-3.77a74.78,74.78,0,0,1-2.87-8.47q-1.64-5.65-3.4-13t-3.35-15.41q-1.59-8-2.93-15.64T252.88,451a18.59,18.59,0,0,1,4.2-2.55,13.39,13.39,0,0,1,5.78-1.22,11.35,11.35,0,0,1,6.57,1.76c1.71,1.18,2.8,3.19,3.29,6q1.95,11.21,3.23,19.24T278.14,488q.92,5.73,1.64,9.93t1.46,7.61h.61c.81-3.33,1.58-6.43,2.32-9.32s1.5-5.8,2.31-8.76,1.66-6.17,2.56-9.62S290.86,470.41,291.84,465.87Z"/><path d="M408,465.87a25.35,25.35,0,0,1,3.84-1.28,19.25,19.25,0,0,1,5.05-.67,18.39,18.39,0,0,1,7.49,1.34,6.12,6.12,0,0,1,3.71,4l3.78,13.15q1.69,6,3.35,11.51t3.22,11.63h.49q1.71-10.11,3-19.36t2.56-18.26q1.22-9,2.31-18.51a17.1,17.1,0,0,1,8.28-2.19,13,13,0,0,1,6.82,1.7q2.81,1.71,2.8,5.73a69.37,69.37,0,0,1-.55,7.48q-.54,4.82-1.52,11t-2.25,12.91q-1.27,6.69-2.74,13.09t-2.92,11.56a74.76,74.76,0,0,1-2.8,8.34,14.23,14.23,0,0,1-5.12,2.38,26.6,26.6,0,0,1-7.42,1,22.8,22.8,0,0,1-8.4-1.4q-3.54-1.4-4.27-3.83-1.22-3.54-2.73-8.28t-3.11-10.41q-1.58-5.67-3.17-11.63-1.34,5.85-2.92,11.87t-3,11.26c-1,3.49-1.87,6.5-2.68,9a14.21,14.21,0,0,1-4.81,2.38,23.5,23.5,0,0,1-7.12,1,24.11,24.11,0,0,1-8.52-1.46q-3.9-1.46-5-3.77a74.78,74.78,0,0,1-2.87-8.47q-1.63-5.65-3.41-13T374,480.35q-1.59-8-2.93-15.64T369,451a19.05,19.05,0,0,1,4.2-2.55,13.47,13.47,0,0,1,5.79-1.22,11.35,11.35,0,0,1,6.57,1.76c1.71,1.18,2.8,3.19,3.29,6q2,11.21,3.23,19.24T394.29,488c.61,3.82,1.15,7.13,1.64,9.93s1,5.34,1.46,7.61H398c.81-3.33,1.58-6.43,2.31-9.32s1.51-5.8,2.32-8.76,1.66-6.17,2.55-9.62S407,470.41,408,465.87Z"/><circle class="cls-1" cx="20.9" cy="20.15" r="14.4"/><circle class="cls-1" cx="567.69" cy="238.54" r="11.37"/><line class="cls-4" x1="537.03" y1="6.86" x2="536.41" y2="49.2"/><line class="cls-4" x1="557.89" y1="28.34" x2="515.55" y2="27.72"/><line class="cls-4" x1="27.98" y1="255.51" x2="27.36" y2="297.85"/><line class="cls-4" x1="48.84" y1="276.99" x2="6.5" y2="276.37"/><path class="cls-4" d="M174.54,86.25c24.12-23.61,52.14-41.79,77.36-48.72"/><path class="cls-4" d="M155.2,110.48a23.52,23.52,0,0,1,2.25-2.85"/></g></g></svg>