<svg width="106" height="106" viewBox="0 0 106 106" fill="none" xmlns="http://www.w3.org/2000/svg">
<path d="M22.4414 0H27.2031V4.72031H31.5922V0H36.3539V14.2852H31.5922V9.52344H27.2445V14.2852H22.4414M42.6477 4.76172H38.4449V0H51.6328V4.76172H47.4094V14.2852H42.6477M53.7238 0H58.7133L61.7773 5.03086L64.8414 0H69.8309V14.2852H65.0691V7.20469L61.7359 12.3391L58.4027 7.20469V14.2852H53.7238M72.191 0H76.9527V9.56484H83.702V14.2852H72.191" fill="black"/>
<path d="M22.2773 97.5115L15.4453 20.8271H90.5562L83.7242 97.4701L52.9387 106" fill="black"/>
<path d="M53 99.4785V27.1211H83.7027L77.8438 92.543" fill="black"/>
<path d="M29.3984 36.4995H53V45.8987H39.7086L40.5781 55.5257H53V64.9042H31.9656M32.3797 69.6245H41.8203L42.4828 77.1397L53 79.9554V89.7687L33.7047 84.3858" fill="#EBEBEB"/>
<path d="M76.5191 36.4995H52.959V45.8987H75.6496M74.8008 55.5257H52.959V64.9249H64.5527L63.4555 77.1397L52.959 79.9554V89.7272L72.2129 84.3858" fill="white"/>
</svg>
