<svg xmlns="http://www.w3.org/2000/svg" viewBox="0 0 571.25 564.78"><defs><style>.cls-1,.cls-3{fill:none;}.cls-1{stroke:#32f4b8;stroke-width:6px;}.cls-1,.cls-3,.cls-4{stroke-linecap:round;stroke-linejoin:round;}.cls-2{fill:#32f4b8;}.cls-3{stroke:#000;}.cls-3,.cls-4{stroke-width:14.8px;}.cls-4{fill:#fff;stroke:#010101;}</style></defs><g id="Layer_2" data-name="Layer 2"><g id="Layer_1-2" data-name="Layer 1"><path class="cls-1" d="M179.48,499.41C107.21,483,45.85,425.3,25.06,354.17"/><path class="cls-2" d="M109.93,462.12c3.9-7.9,13.11-32-7.37-52.78A2.21,2.21,0,0,0,99,410c-3.71,8.06-12.32,32.41,7.37,52.72A2.22,2.22,0,0,0,109.93,462.12Z"/><path class="cls-2" d="M50.67,476.67c7.79,4.12,31.66,14,53-5.88a2.21,2.21,0,0,0-.54-3.59c-8-3.93-32-13.23-52.9,5.88A2.22,2.22,0,0,0,50.67,476.67Z"/><path class="cls-2" d="M59.31,413.27c6.3-6.15,23-25.86,10.61-52.23a2.2,2.2,0,0,0-3.58-.59c-6.18,6.36-22.4,26.46-10.59,52.16A2.22,2.22,0,0,0,59.31,413.27Z"/><path class="cls-2" d="M.59,407.08c6,6.48,25.19,23.75,51.9,12.09a2.2,2.2,0,0,0,.69-3.56C47,409.26,27.37,392.47,1.34,403.55A2.21,2.21,0,0,0,.59,407.08Z"/><path class="cls-2" d="M15.57,305.44c-3.75,8-12.49,32.29,8.38,52.63a2.21,2.21,0,0,0,3.56-.7c3.55-8.13,11.69-32.64-8.39-52.56A2.2,2.2,0,0,0,15.57,305.44Z"/><path class="cls-1" d="M391.77,499.41C464,483,525.4,425.3,546.19,354.17"/><path class="cls-2" d="M461.32,462.12c-3.9-7.9-13.1-32,7.38-52.78a2.21,2.21,0,0,1,3.57.63c3.7,8.06,12.31,32.41-7.38,52.72A2.22,2.22,0,0,1,461.32,462.12Z"/><path class="cls-2" d="M520.58,476.67c-7.79,4.12-31.66,14-53-5.88a2.21,2.21,0,0,1,.54-3.59c7.95-3.93,32.05-13.23,52.9,5.88A2.22,2.22,0,0,1,520.58,476.67Z"/><path class="cls-2" d="M511.94,413.27c-6.3-6.15-23-25.86-10.61-52.23a2.2,2.2,0,0,1,3.58-.59c6.18,6.36,22.4,26.46,10.59,52.16A2.22,2.22,0,0,1,511.94,413.27Z"/><path class="cls-2" d="M570.67,407.08c-6,6.48-25.2,23.75-51.91,12.09a2.2,2.2,0,0,1-.69-3.56c6.18-6.35,25.81-23.14,51.84-12.06A2.21,2.21,0,0,1,570.67,407.08Z"/><path class="cls-2" d="M555.69,305.44c3.74,8,12.48,32.29-8.39,52.63a2.21,2.21,0,0,1-3.56-.7c-3.55-8.13-11.69-32.64,8.39-52.56A2.21,2.21,0,0,1,555.69,305.44Z"/><line class="cls-3" x1="126.71" y1="144.77" x2="175.27" y2="144.91"/><line class="cls-3" x1="170.62" y1="51.53" x2="197.88" y2="78.14"/><line class="cls-3" x1="260.83" y1="7.4" x2="261.08" y2="46.91"/><path class="cls-4" d="M363.18,228.77a12,12,0,0,0,9,6.53l150.11,21.81a11.93,11.93,0,0,1,6.61,20.36L420.27,383.34a11.93,11.93,0,0,0-3.44,10.57L442.47,543.4A11.93,11.93,0,0,1,425.16,556L290.9,485.4a11.93,11.93,0,0,0-11.11,0L145.54,556a11.94,11.94,0,0,1-17.32-12.59l25.64-149.49a12,12,0,0,0-3.43-10.57L41.81,277.47a11.94,11.94,0,0,1,6.62-20.36l150.1-21.81a12,12,0,0,0,9-6.53l67.12-136a11.94,11.94,0,0,1,21.41,0l48.69,105"/><line class="cls-3" x1="263.74" y1="182.89" x2="236.89" y2="239.59"/><line class="cls-3" x1="277.89" y1="154.62" x2="274.64" y2="162.44"/><circle class="cls-2" cx="285.35" cy="356.53" r="82.21"/><polyline class="cls-3" points="242.4 339.91 286.22 378.96 377.2 288.12"/></g></g></svg>