<svg width="180" height="42" viewBox="0 0 180 42" fill="none" xmlns="http://www.w3.org/2000/svg">
<g clip-path="url(#clip0_1166_2053)">
<path d="M104.396 17.0332H97.3102V17.7849C99.5265 17.7849 99.8829 18.2599 99.8829 21.0705V26.1375C99.8829 28.9479 99.5269 29.4625 97.3102 29.4625C95.6085 29.2252 94.4602 28.3145 92.8769 26.5729L91.0562 24.5939C93.5102 24.1579 94.8162 22.6145 94.8162 20.8725C94.8162 18.6959 92.9562 17.0332 89.4725 17.0332H82.5059V17.7849C84.7222 17.7849 85.0785 18.2599 85.0785 21.0705V26.1375C85.0785 28.9479 84.7222 29.4625 82.5059 29.4625V30.2145H90.3829V29.4625C88.1665 29.4625 87.8102 28.9479 87.8102 26.1375V24.7129H88.4829L92.8769 30.2145H104.396C110.056 30.2145 112.511 27.2065 112.511 23.6039C112.511 20.0019 110.057 17.0332 104.396 17.0332ZM87.8105 23.4849V18.2209H89.4332C91.2142 18.2209 92.0062 19.4479 92.0062 20.8729C92.0062 22.2585 91.2142 23.4852 89.4332 23.4852H87.8105V23.4849ZM104.515 28.9875H104.238C102.813 28.9875 102.615 28.6315 102.615 26.8105V18.2209C102.615 18.2209 104.357 18.2209 104.515 18.2209C108.632 18.2209 109.383 21.2289 109.383 23.5645C109.383 25.9789 108.631 28.9875 104.515 28.9875Z" fill="black"/>
<path d="M60.4573 24.9504L63.1887 16.8747C63.9807 14.5394 63.6243 13.8667 61.091 13.8667V13.0747H68.5327V13.8667C66.039 13.8667 65.4453 14.4604 64.4557 17.35L59.9427 30.8877H59.4283L55.3903 18.4977L51.274 30.8877H50.7593L46.3657 17.35C45.4157 14.4604 44.7823 13.8667 42.4863 13.8667V13.0747H51.274V13.8667C48.9383 13.8667 48.3047 14.4207 49.1363 16.8747L51.7883 24.9504L55.7863 13.0747H56.5387L60.4573 24.9504Z" fill="black"/>
<path d="M73.9167 30.7291C69.5627 30.7291 66 27.5231 66 23.6037C66 19.7247 69.563 16.5181 73.9167 16.5181C78.271 16.5181 81.8333 19.7247 81.8333 23.6037C81.8333 27.5231 78.271 30.7291 73.9167 30.7291ZM73.9167 17.7461C70.2753 17.7461 69.0083 21.0311 69.0083 23.6041C69.0083 26.2171 70.2753 29.4627 73.9167 29.4627C77.5983 29.4627 78.865 26.2171 78.865 23.6041C78.865 21.0311 77.5983 17.7461 73.9167 17.7461Z" fill="black"/>
<path d="M122.289 29.4229V30.2146H113.225V29.4229C115.877 29.4229 116.352 28.7502 116.352 24.7912V18.4582C116.352 14.4992 115.877 13.8662 113.225 13.8662V13.0742H121.418C125.495 13.0742 127.752 15.1722 127.752 17.9832C127.752 20.7146 125.495 22.8519 121.418 22.8519H119.162V24.7909C119.162 28.7502 119.637 29.4229 122.289 29.4229ZM121.418 14.4992H119.162V21.3872H121.418C123.635 21.3872 124.664 19.8436 124.664 17.9832C124.664 16.0832 123.635 14.4992 121.418 14.4992Z" fill="black"/>
<path d="M154.943 26.4939L154.745 27.2062C154.389 28.5125 153.953 28.9875 151.143 28.9875H150.588C148.53 28.9875 148.174 28.5125 148.174 25.7022V23.8815C151.262 23.8815 151.499 24.1582 151.499 26.2169H152.251V20.3185H151.499C151.499 22.3769 151.262 22.6539 148.174 22.6539V18.2209H150.351C153.162 18.2209 153.597 18.6959 153.953 20.0022L154.151 20.7539H154.784L154.508 17.0332H142.87V17.7849C145.086 17.7849 145.443 18.2599 145.443 21.0705V26.1375C145.443 28.7085 145.14 29.3562 143.392 29.4485C141.731 29.1949 140.591 28.2889 139.031 26.5729L137.21 24.5939C139.664 24.1579 140.97 22.6145 140.97 20.8725C140.97 18.6959 139.11 17.0332 135.627 17.0332H128.66V17.7849C130.876 17.7849 131.233 18.2599 131.233 21.0705V26.1375C131.233 28.9479 130.877 29.4625 128.66 29.4625V30.2145H136.537V29.4625C134.321 29.4625 133.964 28.9479 133.964 26.1375V24.7129H134.637L139.031 30.2145H155.3L155.537 26.4942H154.943V26.4939ZM133.964 23.4849V18.2209H135.587C137.368 18.2209 138.16 19.4479 138.16 20.8729C138.16 22.2585 137.368 23.4852 135.587 23.4852H133.964V23.4849Z" fill="black"/>
<path d="M162.979 30.7292C161.396 30.7292 160.01 29.8982 159.417 29.3832C159.219 29.5816 158.863 30.1752 158.784 30.7292H158.031V25.2672H158.823C159.14 27.8796 160.96 29.4232 163.296 29.4232C164.563 29.4232 165.592 28.7109 165.592 27.5236C165.592 26.4946 164.682 25.7026 163.059 24.9506L160.802 23.8819C159.219 23.1292 158.031 21.8229 158.031 20.0816C158.031 18.1816 159.813 16.5589 162.267 16.5589C163.573 16.5589 164.681 17.0339 165.355 17.5879C165.552 17.4296 165.75 16.9939 165.869 16.5186H166.621V21.1899H165.79C165.513 19.3292 164.484 17.7856 162.386 17.7856C161.278 17.7856 160.248 18.4189 160.248 19.4089C160.248 20.4379 161.079 20.9919 162.98 21.8629L165.156 22.9316C167.057 23.8419 167.808 25.3072 167.808 26.4946C167.808 28.9879 165.631 30.7292 162.979 30.7292Z" fill="black"/>
<path d="M175.171 30.7292C173.587 30.7292 172.202 29.8982 171.608 29.3832C171.41 29.5816 171.054 30.1752 170.975 30.7292H170.223V25.2672H171.015C171.331 27.8796 173.152 29.4232 175.488 29.4232C176.754 29.4232 177.784 28.7109 177.784 27.5236C177.784 26.4946 176.873 25.7026 175.25 24.9506L172.994 23.8819C171.41 23.1292 170.223 21.8229 170.223 20.0816C170.223 18.1816 172.004 16.5589 174.458 16.5589C175.765 16.5589 176.873 17.0339 177.546 17.5879C177.744 17.4296 177.942 16.9939 178.06 16.5186H178.812V21.1899H177.981C177.704 19.3292 176.675 17.7856 174.577 17.7856C173.469 17.7856 172.439 18.4189 172.439 19.4089C172.439 20.4379 173.271 20.9919 175.171 21.8629L177.348 22.9316C179.248 23.8419 180 25.3072 180 26.4946C180 28.9879 177.823 30.7292 175.171 30.7292Z" fill="black"/>
<path d="M2.90234 21.3779C2.90234 28.3119 6.93201 34.3042 12.7753 37.1439L4.41901 14.2485C3.44701 16.4272 2.90234 18.8382 2.90234 21.3779Z" fill="black"/>
<path d="M32.2459 20.4932C32.2459 18.3282 31.4682 16.8289 30.8012 15.6619C29.9132 14.2189 29.0809 12.9969 29.0809 11.5539C29.0809 9.94353 30.3022 8.44453 32.0225 8.44453C32.1002 8.44453 32.1739 8.4542 32.2495 8.45853C29.1329 5.6032 24.9805 3.85986 20.4199 3.85986C14.2999 3.85986 8.91554 6.99986 5.7832 11.7559C6.1942 11.7682 6.58154 11.7769 6.91054 11.7769C8.74287 11.7769 11.5792 11.5545 11.5792 11.5545C12.5235 11.4989 12.6349 12.8859 11.6915 12.9975C11.6915 12.9975 10.7425 13.1092 9.68654 13.1645L16.0659 32.1395L19.8995 20.6419L17.1702 13.1639C16.2269 13.1085 15.3332 12.9969 15.3332 12.9969C14.3892 12.9415 14.4999 11.4982 15.4439 11.5539C15.4439 11.5539 18.3369 11.7762 20.0582 11.7762C21.8902 11.7762 24.7269 11.5539 24.7269 11.5539C25.6719 11.4982 25.7829 12.8852 24.8392 12.9969C24.8392 12.9969 23.8882 13.1085 22.8342 13.1639L29.1649 31.9952L30.9122 26.1562C31.6695 23.7332 32.2459 21.9929 32.2459 20.4932Z" fill="black"/>
<path d="M20.7267 22.9102L15.4707 38.1832C17.04 38.6445 18.6997 38.8968 20.4194 38.8968C22.4594 38.8968 24.4157 38.5442 26.2367 37.9038C26.1897 37.8288 26.147 37.7492 26.112 37.6625L20.7267 22.9102Z" fill="black"/>
<path d="M35.7916 12.9731C35.8669 13.5311 35.9096 14.1301 35.9096 14.7745C35.9096 16.5521 35.5776 18.5505 34.5776 21.0491L29.2266 36.5201C34.4346 33.4831 37.9376 27.8408 37.9376 21.3781C37.9379 18.3325 37.1599 15.4685 35.7916 12.9731Z" fill="black"/>
<path d="M20.4207 0.958008C9.161 0.958008 0 10.1183 0 21.378C0 32.639 9.161 41.799 20.4207 41.799C31.68 41.799 40.8423 32.639 40.8423 21.378C40.842 10.1183 31.68 0.958008 20.4207 0.958008ZM20.4207 40.863C9.67733 40.863 0.936333 32.122 0.936333 21.378C0.936333 10.6347 9.677 1.89434 20.4207 1.89434C31.1637 1.89434 39.904 10.6347 39.904 21.378C39.904 32.122 31.1637 40.863 20.4207 40.863Z" fill="black"/>
</g>
<defs>
<clipPath id="clip0_1166_2053">
<rect width="180" height="40.841" fill="white" transform="translate(0 0.958008)"/>
</clipPath>
</defs>
</svg>
