<svg xmlns="http://www.w3.org/2000/svg" viewBox="0 0 582.22 529.8"><defs><style>.cls-1{fill:#32f4b8;}.cls-2,.cls-4,.cls-7{fill:none;}.cls-2,.cls-5{stroke:#fff;}.cls-2,.cls-4,.cls-5,.cls-6,.cls-7{stroke-linecap:round;stroke-linejoin:round;stroke-width:13px;}.cls-3{fill:#010101;}.cls-4{stroke:#010101;}.cls-5,.cls-6{fill:#fff;}.cls-6,.cls-7{stroke:#000;}</style></defs><g id="Layer_2" data-name="Layer 2"><g id="Layer_1-2" data-name="Layer 1"><path class="cls-1" d="M379.3,306.43V497.87c0,17.63-12.67,31.93-28.3,31.93H28.3C12.67,529.8,0,515.5,0,497.87V267.13C0,249.5,12.67,235.2,28.3,235.2H162"/><line class="cls-2" x1="6.51" y1="323.37" x2="164.16" y2="323.37"/><circle class="cls-3" cx="45.73" cy="282.54" r="5.63"/><circle class="cls-3" cx="67.73" cy="282.54" r="5.63"/><circle class="cls-3" cx="89.3" cy="282.54" r="5.63"/><polyline class="cls-4" points="228.83 313.5 228.83 414.78 195.07 420.46"/><polyline class="cls-4" points="272.95 297.53 272.95 469.81 317.16 478.81"/><circle class="cls-3" cx="184.97" cy="425.87" r="22.73"/><circle class="cls-3" cx="323.73" cy="478.91" r="22.73"/><path class="cls-2" d="M22.68,423.82V489a17.38,17.38,0,0,0,17.37,17.38"/><line class="cls-5" x1="21.68" y1="392.06" x2="21.68" y2="400.94"/><path class="cls-6" d="M374.3,355.22l-168.12-2.66a71.76,71.76,0,0,1-49.93-20.94c-13.55-13.68-25.34-35.44-21.83-68.93.12-1.14.23-2.29.31-3.43.63-9,6.26-60.08,52.5-76.19,20.62-7.18,43.27-4.78,62.53,5.49,13.29,7.07,27.49,18.12,31.43,34.08,9.93,40.3-49.83,58.48-67.77,19.94-6.8-14.62-13.44-40.21.57-75.64,0,0,29-93.15,120.81-100.8,0,0,20.93-4,47.81,2.87,54.68,13.92,89.87,68,80.1,123.56-4.49,25.53-19.31,48.22-57.79,48.22,0,0-57.37,0-31.87-59.92,0,0,28.05-63.74,113.46-44.62,0,0,77.34,7.09,88.09,81.5,4.85,33.56-6.31,67.43-29.35,92.32-17.13,18.5-41.47,40.57-122.95,45.15"/><line class="cls-7" x1="220.55" y1="39.01" x2="240.78" y2="67.09"/><line class="cls-7" x1="158.98" y1="91.39" x2="189.65" y2="110.4"/><line class="cls-7" x1="297.28" y1="6.5" x2="302.5" y2="40.06"/><path class="cls-4" d="M545.71,238c-1.62,31.75-16.83,46-30.61,59.36"/><path class="cls-4" d="M543.81,216.8a15.4,15.4,0,0,1,1.08,2.48"/></g></g></svg>