<svg width="108" height="111" viewBox="0 0 108 111" fill="none" xmlns="http://www.w3.org/2000/svg">
<g id="Group 30">
<g id="Group 3">
<mask id="mask0_1221_2321" style="mask-type:luminance" maskUnits="userSpaceOnUse" x="56" y="36" width="52" height="53">
<path id="Clip 2" fill-rule="evenodd" clip-rule="evenodd" d="M56.2285 36.0825H107.937V88.0507H56.2285V36.0825Z" fill="white"/>
</mask>
<g mask="url(#mask0_1221_2321)">
<path id="Fill 1" fill-rule="evenodd" clip-rule="evenodd" d="M94.9469 45.7254L89.8671 37.3768C89.0928 36.105 87.4349 35.7019 86.164 36.4762L76.8153 42.1731C76.7556 42.0793 76.7034 41.9849 76.6409 41.8917C73.1968 36.7076 68.7898 35.1521 65.5707 37.2944C62.3902 39.4105 61.5403 44.3177 64.8634 49.4562L57.5219 53.9296C56.2509 54.704 55.8481 56.363 56.6219 57.6348L61.2256 65.2011C61.479 65.6173 62.0158 65.7572 62.4374 65.5138C64.4401 64.3574 70.0277 61.8006 73.3025 67.1387C75.1853 70.2066 74.4274 74.2826 69.9618 77.3243C69.4261 77.6893 69.2579 78.4029 69.5954 78.9561L74.0621 86.2978C74.8365 87.5696 76.4943 87.9733 77.7652 87.1983L85.147 82.7C85.1726 82.7398 85.1948 82.7796 85.2209 82.8188C88.6644 88.0028 93.4351 89.1775 96.6541 87.0352C99.8011 84.9423 100.321 80.5145 97.0996 75.4174L106.407 69.7455C107.678 68.9712 108.081 67.3121 107.307 66.0397L102.227 57.6911C107.525 54.588 109.192 49.4102 106.995 46.2724C104.655 42.9287 100.517 42.5302 95.119 45.6231C95.0605 45.6566 95.0043 45.6913 94.9469 45.7254Z" fill="#36F2B9"/>
</g>
</g>
<g id="Group 2">
<path id="Fill 4" fill-rule="evenodd" clip-rule="evenodd" d="M91.2619 48.968C90.7994 48.968 90.3455 48.7423 90.0728 48.3255L86.6406 43.0852L80.824 46.9001C80.1678 47.3317 79.2883 47.1475 78.8577 46.4908C78.4276 45.8341 78.6106 44.9529 79.2673 44.523L86.2719 39.9291C86.9287 39.4982 87.8087 39.683 88.2382 40.3385L92.4487 46.7677C92.8788 47.4238 92.6953 48.305 92.0391 48.7354C91.7988 48.8929 91.5289 48.968 91.2619 48.968Z" fill="white"/>
<path id="Fill 6" fill-rule="evenodd" clip-rule="evenodd" d="M75.9048 47.3807C75.8861 46.745 76.3855 46.2146 77.0206 46.1958C77.6552 46.1771 78.1859 46.6774 78.2041 47.3125C78.2228 47.9481 77.7234 48.4786 77.0882 48.4973C76.4536 48.5161 75.9236 48.0158 75.9048 47.3807Z" fill="white"/>
</g>
<path id="Fill 8" fill-rule="evenodd" clip-rule="evenodd" d="M43.9588 104.293C43.481 104.293 43.0152 104.052 42.747 103.615L38.728 97.0644C38.3172 96.3957 38.5263 95.5202 39.195 95.1097C39.8643 94.6992 40.7386 94.9079 41.1488 95.5776L44.4247 100.917L50.3515 97.2753C51.0202 96.8654 51.8952 97.074 52.3048 97.7432C52.7156 98.4124 52.5059 99.2874 51.8378 99.6985L44.7008 104.083C44.4685 104.225 44.2117 104.293 43.9588 104.293Z" fill="#36F2B9"/>
<path id="Fill 10" fill-rule="evenodd" clip-rule="evenodd" d="M55.2828 96.9408C55.2828 97.5764 54.7681 98.0915 54.1329 98.0915C53.4972 98.0915 52.9824 97.5764 52.9824 96.9408C52.9824 96.3051 53.4972 95.79 54.1329 95.79C54.7681 95.79 55.2828 96.3051 55.2828 96.9408Z" fill="#36F2B9"/>
<g id="Group 14">
<path id="Fill 12" fill-rule="evenodd" clip-rule="evenodd" d="M77.7957 39.0725C74.9726 35.2524 70.419 32.8918 65.7921 35.6464C62.5503 37.5767 60.3902 41.8084 63.6451 48.0238L55.4662 53.1976L50.1933 44.849C49.9882 44.5249 49.6615 44.2969 49.2854 44.2179C49.1882 44.1975 49.0905 44.1872 48.9928 44.1872C48.7133 44.1872 48.4366 44.2702 48.2008 44.4283C43.6625 47.4763 39.6333 46.6701 37.9993 44.2975C36.1875 41.6668 37.7749 38.0651 42.0427 35.1205L42.3029 34.9534C42.9449 34.5253 43.1279 33.6633 42.716 33.0112L36.1875 22.675L45.5203 16.7711C46.1765 16.3561 46.3782 15.4908 45.9731 14.8278L45.8765 14.6726C43.988 11.4955 42.4654 7.17854 45.9402 4.65588C46.8594 3.98783 48.0417 3.77519 49.3587 4.04014C51.6147 4.49384 53.81 6.23702 55.3815 8.82279C55.5792 9.14857 55.8996 9.3811 56.2706 9.46809C56.6399 9.55508 57.0314 9.4897 57.3541 9.28559L66.6869 3.38232L73.191 13.6776C73.3943 13.9994 73.7188 14.2269 74.0909 14.307C74.463 14.3889 74.8522 14.3156 75.1709 14.1063C79.2519 11.4268 83.0465 11.3756 84.8378 13.9756C86.7649 16.774 85.2605 20.6947 81.1705 23.5153L81.0648 23.5841C80.4353 24.0162 80.2597 24.8696 80.6677 25.5154L85.9667 33.9044L77.7957 39.0725ZM60.6855 67.0199C61.0588 67.1023 61.4519 67.0335 61.7729 66.8237C66.3516 63.8348 70.3689 64.6945 71.9722 67.0875C72.7772 68.2906 72.8903 69.7227 72.2983 71.2305C71.6114 72.9794 70.0587 74.7021 67.8071 76.2116L67.5498 76.3719C66.8998 76.7904 66.7032 77.6517 67.1078 78.3113L73.501 88.7328L64.0909 94.5133C63.4302 94.9192 63.2166 95.78 63.6114 96.448L63.7063 96.6072C65.5533 99.8087 67.0191 104.145 63.512 106.623C62.5842 107.278 61.3997 107.475 60.0856 107.193C57.8352 106.71 55.6637 104.938 54.1264 102.332C53.9326 102.003 53.6156 101.767 53.2457 101.675C52.8759 101.582 52.485 101.643 52.16 101.842L42.7505 107.623L36.3822 97.2434C36.1828 96.9188 35.8618 96.6874 35.4903 96.6021C35.3852 96.5782 35.2783 96.5657 35.1721 96.5657C34.9034 96.5657 34.6381 96.6419 34.4085 96.7886C30.2918 99.4136 26.4972 99.4164 24.7399 96.7926C23.9036 95.5429 23.7298 93.9805 24.2508 92.3931C24.8621 90.53 26.3398 88.7715 28.5345 87.3006L28.6226 87.2455C29.2697 86.8259 29.4646 85.9662 29.0612 85.309L23.873 76.8507L32.1104 71.79C34.8835 75.6476 39.4053 78.0685 44.068 75.3741C46.1758 74.1563 47.4717 72.2846 47.8172 69.9615C48.1302 67.8562 47.6456 65.5257 46.3769 63.0252L54.6229 57.96L59.7867 66.3763C59.9867 66.7037 60.3111 66.9357 60.6855 67.0199ZM89.1276 33.5873L83.7757 25.1147C87.8027 21.8512 90.1497 16.6786 87.1777 12.3627C84.6359 8.67279 79.8913 8.18213 74.8491 10.9811L68.3303 0.661336C67.9116 -0.00159424 67.0344 -0.198881 66.3708 0.219572L57.0044 6.14444C55.087 3.54105 52.5627 1.78479 49.9192 1.25263C47.8335 0.835312 45.8274 1.22477 44.2724 2.35505C40.5051 5.09035 40.0114 9.69277 42.8572 15.0934L33.4698 21.0319C33.1511 21.2332 32.9256 21.5533 32.8426 21.9206C32.7602 22.2884 32.8267 22.6739 33.0278 22.9929L39.5949 33.3888C34.6448 37.185 33.0545 42.1269 35.6612 45.9112C37.9201 49.19 42.9583 50.6586 48.5409 47.5526L53.4587 55.3383L43.7333 61.3132C43.0714 61.7203 42.8583 62.5839 43.2555 63.2514L43.3918 63.4799C44.7008 65.7485 45.2593 67.8447 45.0065 69.5435C44.79 70.9985 43.9963 72.1322 42.647 72.9122C39.57 74.6912 36.1691 73.2442 33.7721 69.1376C33.5795 68.8073 33.2619 68.569 32.8915 68.4758C32.5211 68.3814 32.1279 68.4428 31.8024 68.643L21.1753 75.1716C20.5072 75.5827 20.2975 76.4577 20.7083 77.1269L25.9443 85.6631C23.7677 87.3477 22.2588 89.3501 21.5514 91.5061C20.7515 93.9429 21.0452 96.3826 22.3798 98.3748C24.8728 102.098 29.6105 102.65 34.6891 99.9184L41.0715 110.322C41.3397 110.759 41.8061 111 42.2834 111C42.5368 111 42.7936 110.932 43.0254 110.79L52.4684 104.989C54.3507 107.617 56.8527 109.406 59.4883 109.973C61.5683 110.419 63.5795 110.056 65.1498 108.945C68.953 106.259 69.5058 101.662 66.7315 96.2256L76.1967 90.4116C76.5177 90.2138 76.7473 89.8977 76.8353 89.5309C76.9222 89.1642 76.8614 88.7776 76.6637 88.4564L70.2341 77.9757C72.5192 76.274 74.1384 74.316 74.9417 72.2697C75.8757 69.8904 75.6587 67.4882 74.331 65.5051C72.1158 62.1967 67.098 60.6633 61.4745 63.6954L56.642 55.8176L66.3117 49.7006C66.9696 49.2844 67.1701 48.4156 66.7611 47.7527L66.6242 47.5304C64.0931 43.2731 64.3192 39.8316 67.2457 38.0896C70.3 36.2708 73.7185 37.6723 76.1695 41.7465C76.366 42.074 76.687 42.3083 77.0586 42.3969C77.4313 42.4845 77.8216 42.4197 78.1449 42.215L88.6856 35.5482C89.0043 35.3463 89.2298 35.0268 89.3128 34.659C89.3952 34.2917 89.3287 33.9056 89.1276 33.5873Z" fill="black"/>
</g>
<path id="Fill 15" fill-rule="evenodd" clip-rule="evenodd" d="M66.7375 6.81432C66.5364 6.49536 66.2171 6.27022 65.8495 6.18721C65.4825 6.10534 65.0967 6.17072 64.778 6.37255L57.699 10.8505C57.036 11.2695 56.8377 12.1479 57.257 12.8114C57.6763 13.4749 58.5541 13.6727 59.2171 13.2532L65.095 9.53483L68.4402 14.8315C68.7107 15.259 69.1714 15.4932 69.6424 15.4932C69.9015 15.4932 70.1645 15.4222 70.3998 15.2732C71.0628 14.8542 71.2611 13.9758 70.8418 13.3123L66.7375 6.81432Z" fill="black"/>
<path id="Fill 17" fill-rule="evenodd" clip-rule="evenodd" d="M55.4263 12.4855C54.7911 12.494 54.2826 13.0159 54.2911 13.6516C54.2996 14.2872 54.8212 14.7955 55.4564 14.7875C56.0916 14.779 56.5995 14.2571 56.5915 13.6214C56.583 12.9858 56.0614 12.4769 55.4263 12.4855Z" fill="black"/>
<path id="Fill 21" fill-rule="evenodd" clip-rule="evenodd" d="M19.8555 73.4368C19.3851 73.4368 18.9249 73.2031 18.6545 72.7762L16.8302 69.8947C16.4103 69.2318 16.6069 68.3534 17.2694 67.9332C17.9324 67.5119 18.8096 67.7104 19.2295 68.3733L21.0537 71.2547C21.4742 71.9176 21.277 72.7961 20.6146 73.2156C20.3788 73.3657 20.1157 73.4368 19.8555 73.4368Z" fill="#36F2B9"/>
<path id="Fill 23" fill-rule="evenodd" clip-rule="evenodd" d="M9.15997 56.5458C8.68955 56.5458 8.22936 56.3121 7.95892 55.8851L5.00233 51.215C4.5819 50.5521 4.77905 49.6737 5.4415 49.2541C6.10395 48.8322 6.98115 49.0301 7.40158 49.6936L10.3582 54.3637C10.7786 55.0266 10.5815 55.905 9.919 56.3246C9.68322 56.4747 9.42018 56.5458 9.15997 56.5458ZM15.0741 65.8857C14.6037 65.8857 14.1429 65.6521 13.873 65.2251L10.9159 60.555C10.4966 59.8921 10.6926 59.0137 11.3556 58.5941C12.0181 58.1716 12.8953 58.3706 13.3151 59.0336L16.2728 63.7036C16.6921 64.3666 16.4956 65.245 15.8325 65.6646C15.5968 65.8147 15.3337 65.8857 15.0741 65.8857Z" fill="#36F2B9"/>
<g id="Group 27">
<mask id="mask1_1221_2321" style="mask-type:luminance" maskUnits="userSpaceOnUse" x="0" y="38" width="8" height="10">
<path id="Clip 26" fill-rule="evenodd" clip-rule="evenodd" d="M0 38.8857H7.04516V47.2059H0V38.8857Z" fill="white"/>
</mask>
<g mask="url(#mask1_1221_2321)">
<path id="Fill 25" fill-rule="evenodd" clip-rule="evenodd" d="M3.24659 47.2059C2.77617 47.2059 2.31598 46.9722 2.04554 46.5453L0.22068 43.6638C0.017286 43.3426 -0.0491862 42.9537 0.0366027 42.5836C0.121824 42.2135 0.351352 41.8928 0.675191 41.6932L4.87942 39.0972C5.54641 38.6862 6.42192 38.892 6.83325 39.5612C7.24572 40.2292 7.03835 41.1048 6.37078 41.517L3.38976 43.3568L4.44479 45.0238C4.86521 45.6867 4.66807 46.5652 4.00562 46.9847C3.76984 47.1348 3.50679 47.2059 3.24659 47.2059Z" fill="#36F2B9"/>
</g>
</g>
<path id="Fill 28" fill-rule="evenodd" clip-rule="evenodd" d="M28.5641 27.5043C28.0886 27.5043 27.6244 27.2655 27.3557 26.8312C26.9426 26.1643 27.1483 25.2881 27.8147 24.8748L29.4123 23.8844C30.0799 23.4716 30.9548 23.6769 31.3679 24.3438C31.7809 25.0112 31.5752 25.8874 30.9088 26.3007L29.3106 27.2911C29.0777 27.4355 28.8192 27.5043 28.5641 27.5043ZM18.9045 33.493C18.429 33.493 17.9648 33.2542 17.6955 32.8204C17.2824 32.153 17.4881 31.2768 18.1551 30.8635L22.9849 27.8695C23.6513 27.4562 24.5274 27.662 24.9398 28.3289C25.3534 28.9964 25.1472 29.8725 24.4802 30.2858L19.6505 33.2798C19.4181 33.4242 19.1596 33.493 18.9045 33.493ZM9.24571 39.4814C8.77018 39.4814 8.30601 39.2426 8.03728 38.8088C7.62425 38.1413 7.82991 37.2652 8.49691 36.8518L13.3267 33.8578C13.9931 33.4445 14.8686 33.6509 15.2816 34.3172C15.6952 34.9847 15.489 35.8608 14.822 36.2742L9.99282 39.2682C9.75931 39.4126 9.50081 39.4814 9.24571 39.4814Z" fill="#36F2B9"/>
</g>
</svg>
