<svg width="117" height="117" viewBox="0 0 117 117" fill="none" xmlns="http://www.w3.org/2000/svg" class="mb-15 s:mb-0 mr-12 m:mr-32"><path d="M107.25 58.5029C107.25 85.4268 85.4239 107.253 58.5 107.253C31.5761 107.253 9.75 85.4268 9.75 58.5029C9.75 31.579 31.5761 9.75293 58.5 9.75293C85.4239 9.75293 107.25 31.579 107.25 58.5029Z" stroke="#272727" stroke-width="0.585" stroke-linecap="round" stroke-linejoin="round"/> <path d="M76.4927 31.829C98.8133 46.8851 108.852 71.0328 98.9152 85.7644C88.9781 100.496 62.8282 100.233 40.5076 85.1768C18.187 70.1207 8.1481 45.973 18.0851 31.2414C28.0221 16.5098 54.1721 16.7729 76.4927 31.829Z" stroke="#272727" stroke-width="0.585" stroke-linecap="round" stroke-linejoin="round"/> <path d="M65.1885 53.4182C81.4824 74.8519 91.6967 94.5038 88.0027 97.312C84.3086 100.12 68.1052 85.0213 51.8112 63.5876C35.5173 42.1539 25.3031 22.502 28.9971 19.6938C32.6911 16.8856 48.8946 31.9845 65.1885 53.4182Z" stroke="#272727" stroke-width="0.585" stroke-linecap="round" stroke-linejoin="round"/> <path d="M78.4939 55.7746C82.1341 82.4513 76.1336 105.299 65.0912 106.805C54.0489 108.312 42.1463 87.9079 38.5061 61.2313C34.8659 34.5546 40.8664 11.7074 51.9088 10.2006C62.9511 8.69378 74.8537 29.098 78.4939 55.7746Z" stroke="#272727" stroke-width="0.585" stroke-linecap="round" stroke-linejoin="round"/> <path d="M55.1773 46.6436C81.1346 39.4938 103.634 38.9857 105.43 45.5086C107.227 52.0315 87.6409 63.1153 61.6837 70.2651C35.7265 77.4148 13.2275 77.9229 11.4308 71.4C9.63416 64.8772 29.2201 53.7933 55.1773 46.6436Z" stroke="#272727" stroke-width="0.585" stroke-linecap="round" stroke-linejoin="round"/> <path d="M66.59 67.6807C46.3923 85.4839 26.397 95.8071 21.9291 90.7383C17.4613 85.6695 30.2128 67.1281 50.4104 49.325C70.608 31.5219 90.6033 21.1987 95.0712 26.2675C99.5391 31.3363 86.7876 49.8776 66.59 67.6807Z" stroke="#272727" stroke-width="0.585" stroke-linecap="round" stroke-linejoin="round"/></svg>