<svg width="22" height="23" viewBox="0 0 22 23" fill="none" xmlns="http://www.w3.org/2000/svg" class="footer-social-link-svg-linke" data-v-4f2c6038=""><path d="M4.92446 23H0.363393V7.64408H4.92446V23ZM2.64147 5.54939C1.18299 5.54939 0 4.28641 0 2.7616C1.04392e-08 2.02918 0.278297 1.32676 0.77367 0.808854C1.26904 0.290954 1.94091 0 2.64147 0C3.34204 0 4.0139 0.290954 4.50928 0.808854C5.00465 1.32676 5.28295 2.02918 5.28295 2.7616C5.28295 4.28641 4.09946 5.54939 2.64147 5.54939ZM21.9951 23H17.4438V15.5248C17.4438 13.7433 17.4095 11.4587 15.0725 11.4587C12.7011 11.4587 12.3377 13.3942 12.3377 15.3965V23H7.78152V7.64408H12.156V9.73877H12.2198C12.8287 8.53227 14.3162 7.25902 16.5354 7.25902C21.1514 7.25902 22 10.437 22 14.5648V23H21.9951Z" fill="white" data-v-4f2c6038=""/> <mask id="mask0_2246_15792" maskUnits="userSpaceOnUse" x="0" y="0" width="22" height="23" style="mask-type:alpha" data-v-4f2c6038=""><path d="M4.92446 23H0.363393V7.64408H4.92446V23ZM2.64147 5.54939C1.18299 5.54939 0 4.28641 0 2.7616C1.04392e-08 2.02918 0.278297 1.32676 0.77367 0.808854C1.26904 0.290954 1.94091 0 2.64147 0C3.34204 0 4.0139 0.290954 4.50928 0.808854C5.00465 1.32676 5.28295 2.02918 5.28295 2.7616C5.28295 4.28641 4.09946 5.54939 2.64147 5.54939ZM21.9951 23H17.4438V15.5248C17.4438 13.7433 17.4095 11.4587 15.0725 11.4587C12.7011 11.4587 12.3377 13.3942 12.3377 15.3965V23H7.78152V7.64408H12.156V9.73877H12.2198C12.8287 8.53227 14.3162 7.25902 16.5354 7.25902C21.1514 7.25902 22 10.437 22 14.5648V23H21.9951Z" fill="white" data-v-4f2c6038=""/></mask> <g mask="url(#mask0_2246_15792)" data-v-4f2c6038=""><circle cx="11" cy="31" r="16" fill="#7B7B7B" data-v-4f2c6038=""/></g></svg>