<svg width="20" height="23" viewBox="0 0 20 23" fill="none" xmlns="http://www.w3.org/2000/svg" class="footer-social-link-svg-clu" data-v-4f2c6038=""><path fill-rule="evenodd" clip-rule="evenodd" d="M11.1927 17.36C12.7916 17.36 14.3906 16.6748 15.5327 15.7611L16.2179 15.0758L19.8727 18.7306L18.959 19.4158C16.9032 21.2432 14.1621 22.3853 11.1927 22.3853C4.79686 22.3853 0 17.5885 0 11.1927C0 4.79685 4.79686 0 11.1927 0C14.1621 0 16.9032 1.1421 18.959 2.96948L19.8727 3.65474L16.2179 7.08107L15.5327 6.3958C14.3906 5.25369 12.7916 4.79685 11.1927 4.79685C7.53792 4.79685 5.02528 7.30949 5.02528 10.9642C5.02528 14.619 7.53792 17.36 11.1927 17.36ZM14.6191 11.1919C14.6191 13.2103 12.9828 14.8466 10.9643 14.8466C8.94586 14.8466 7.30957 13.2103 7.30957 11.1919C7.30957 9.1734 8.94586 7.53711 10.9643 7.53711C12.9828 7.53711 14.6191 9.1734 14.6191 11.1919Z" fill="white" data-v-4f2c6038=""/> <mask id="mask0_2246_17441" maskUnits="userSpaceOnUse" x="0" y="0" width="20" height="23" style="mask-type:alpha" data-v-4f2c6038=""><path fill-rule="evenodd" clip-rule="evenodd" d="M11.1927 17.36C12.7916 17.36 14.3906 16.6748 15.5327 15.7611L16.2179 15.0758L19.8727 18.7306L18.959 19.4158C16.9032 21.2432 14.1621 22.3853 11.1927 22.3853C4.79686 22.3853 0 17.5885 0 11.1927C0 4.79685 4.79686 0 11.1927 0C14.1621 0 16.9032 1.1421 18.959 2.96948L19.8727 3.65474L16.2179 7.08107L15.5327 6.3958C14.3906 5.25369 12.7916 4.79685 11.1927 4.79685C7.53792 4.79685 5.02528 7.30949 5.02528 10.9642C5.02528 14.619 7.53792 17.36 11.1927 17.36ZM14.6191 11.1919C14.6191 13.2103 12.9828 14.8466 10.9643 14.8466C8.94586 14.8466 7.30957 13.2103 7.30957 11.1919C7.30957 9.1734 8.94586 7.53711 10.9643 7.53711C12.9828 7.53711 14.6191 9.1734 14.6191 11.1919Z" fill="white" data-v-4f2c6038=""/></mask> <g mask="url(#mask0_2246_17441)" data-v-4f2c6038=""><circle cx="10" cy="27" r="16" fill="#7B7B7B" data-v-4f2c6038=""/></g></svg>