<svg width="111" height="111" viewBox="0 0 111 111" fill="none" xmlns="http://www.w3.org/2000/svg" class="mb-15 s:mb-0 mr-12 m:mr-32"><path d="M104.04 64.147C102.413 74.3758 97.5883 83.8267 90.2591 91.1452C82.9298 98.4637 73.4718 103.274 63.2405 104.887M63.2405 104.887L65.7576 102.208M63.2405 104.887L65.8458 107.481M7.16566 48.7322C8.79334 38.5034 13.6175 29.0525 20.9468 21.734C28.276 14.4155 37.7341 9.60506 47.9654 7.99219M47.9654 7.99219L45.4483 10.6715M47.9654 7.99219L45.36 5.39854M47.8954 104.876C37.6664 103.248 28.2153 98.4242 20.8967 91.095C13.578 83.7659 8.76748 74.3081 7.15458 64.077M7.15458 64.077L9.83398 66.594M7.15458 64.077L4.56088 66.6823M63.3105 8.00324C73.5395 9.63089 82.9905 14.455 90.3092 21.7841C97.6279 29.1132 102.438 38.5711 104.051 48.8022M104.051 48.8022L101.372 46.2851M104.051 48.8022L106.645 46.1969M71.8759 64.1416C71.3281 74.3631 69.7046 83.8073 67.238 91.1205C66.0424 94.6655 64.6784 97.6216 63.1981 99.9104M39.2738 48.7379C39.8216 38.5164 41.4452 29.0723 43.9117 21.759C45.1074 18.2139 46.4714 15.2578 47.9517 12.9691M39.2701 64.0717C39.8129 74.2954 41.4319 83.7465 43.8949 91.0704C45.0945 94.6375 46.4643 97.6107 47.9517 99.9104M39.2701 64.0717L41.9495 66.5887M39.2701 64.0717L36.6764 66.6769M71.8797 48.8078C71.3369 38.584 69.7179 29.1329 67.2549 21.809C66.0553 18.242 64.6855 15.2687 63.1981 12.9691M71.8797 48.8078L69.2003 46.2907M71.8797 48.8078L74.4734 46.2025M47.9517 12.9691L48.9754 16.4999M47.9517 12.9691L44.3926 13.89M63.1981 99.9104L62.1745 96.3796M63.1981 99.9104L66.7572 98.9895M47.8728 72.7404C37.6512 72.1926 28.2068 70.5691 20.8934 68.1026C17.3483 66.907 14.3922 65.543 12.1034 64.0627M63.2769 40.1389C73.4985 40.6867 82.9429 42.3102 90.2563 44.7767C93.8014 45.9723 96.7576 47.3363 99.0464 48.8166M47.9428 40.1352C37.7188 40.678 28.2675 42.2969 20.9435 44.7599C17.3764 45.9594 14.4031 47.3293 12.1034 48.8166M47.9428 40.1352L45.4257 42.8146M47.9428 40.1352L45.3375 37.5416M63.207 72.7441C73.431 72.2013 82.8823 70.5824 90.2063 68.1194C93.7734 66.9199 96.7467 65.5501 99.0464 64.0627M63.207 72.7441L65.7241 70.0648M63.207 72.7441L65.8123 75.3378M99.0464 48.8166L95.5154 49.8402M99.0464 48.8166L98.1255 45.2576M12.1034 64.0627L15.6343 63.0391M12.1034 64.0627L13.0243 67.6217M53.1641 7.62001H55.4997M55.4997 7.62001H57.8352M55.4997 7.62001V5.2845M55.4997 7.62001V9.95553M53.1641 39.4131H55.4997M55.4997 39.4131H57.8352M55.4997 39.4131V37.0776M55.4997 39.4131V41.7486M53.1641 71.2062H55.4997M55.4997 71.2062H57.8352M55.4997 71.2062V68.8707M55.4997 71.2062V73.5417M53.1641 102.999H55.4997M55.4997 102.999H57.8352M55.4997 102.999V100.664M55.4997 102.999V105.335M105.526 55.3097H100.855M73.7321 55.3097H69.061M41.9383 55.3097H37.2672M10.1446 55.3097H5.4735M59.7941 39.4131C59.7941 41.7848 57.8714 43.7074 55.4997 43.7074C53.1279 43.7074 51.2052 41.7848 51.2052 39.4131C51.2052 37.0414 53.1279 35.1188 55.4997 35.1188C57.8714 35.1188 59.7941 37.0414 59.7941 39.4131ZM71.3965 59.604C69.0248 59.604 67.1021 57.6814 67.1021 55.3097C67.1021 52.938 69.0248 51.0153 71.3965 51.0153C73.7683 51.0153 75.6909 52.938 75.6909 55.3097C75.6909 57.6814 73.7683 59.604 71.3965 59.604ZM59.7941 102.999C59.7941 105.371 57.8714 107.294 55.4997 107.294C53.1279 107.294 51.2052 105.371 51.2052 102.999C51.2052 100.628 53.1279 98.705 55.4997 98.705C57.8714 98.705 59.7941 100.628 59.7941 102.999ZM7.80906 59.604C5.43732 59.604 3.51465 57.6814 3.51465 55.3097C3.51465 52.938 5.43732 51.0153 7.80906 51.0153C10.1808 51.0153 12.1035 52.938 12.1035 55.3097C12.1035 57.6814 10.1808 59.604 7.80906 59.604ZM59.7941 7.62001C59.7941 9.99171 57.8714 11.9143 55.4997 11.9143C53.1279 11.9143 51.2052 9.99171 51.2052 7.62001C51.2052 5.24832 53.1279 3.32568 55.4997 3.32568C57.8714 3.32568 59.7941 5.24832 59.7941 7.62001ZM103.19 59.604C100.819 59.604 98.8958 57.6814 98.8958 55.3097C98.8958 52.938 100.819 51.0153 103.19 51.0153C105.562 51.0153 107.485 52.938 107.485 55.3097C107.485 57.6814 105.562 59.604 103.19 59.604ZM59.7941 71.2062C59.7941 73.5779 57.8714 75.5006 55.4997 75.5006C53.1279 75.5006 51.2052 73.5779 51.2052 71.2062C51.2052 68.8345 53.1279 66.9119 55.4997 66.9119C57.8714 66.9119 59.7941 68.8345 59.7941 71.2062ZM39.6028 59.604C37.231 59.604 35.3084 57.6814 35.3084 55.3097C35.3084 52.938 37.231 51.0153 39.6028 51.0153C41.9745 51.0153 43.8972 52.938 43.8972 55.3097C43.8972 57.6814 41.9745 59.604 39.6028 59.604Z" stroke="#242324" stroke-width="0.800481" stroke-linecap="round" stroke-linejoin="round"/></svg>