<svg width="112" height="112" viewBox="0 0 112 112" fill="none" xmlns="http://www.w3.org/2000/svg" class="mb-15 s:mb-0 mr-12 m:mr-32"><path d="M84.9502 24.1169C92.9756 23.5892 98.9701 25.341 101.427 29.5956C107.161 39.5274 91.4441 59.3364 66.3226 73.8403C51.9631 82.1308 37.6388 86.8934 26.9303 87.5976M84.9502 24.1169C84.9502 25.4942 83.8337 26.6107 82.4564 26.6107C81.0791 26.6107 79.9626 25.4942 79.9626 24.1169C79.9626 22.7396 81.0791 21.623 82.4564 21.623C83.8337 21.623 84.9502 22.7396 84.9502 24.1169ZM80.0335 24.7097C70.066 26.3243 57.7892 30.8123 45.5576 37.8742C20.4361 52.3781 4.71952 72.1871 10.4536 82.1189C12.3695 85.4372 16.4375 87.2331 21.9427 87.6124M26.9303 24.1169C37.6388 24.8211 51.963 29.5837 66.3225 37.8742C91.444 52.3781 107.161 72.1871 101.427 82.1189C98.9701 86.3735 92.9756 88.1253 84.9502 87.5976M26.9303 24.1169C26.9303 25.4942 25.8138 26.6107 24.4365 26.6107C23.0592 26.6107 21.9426 25.4942 21.9426 24.1169C21.9426 22.7396 23.0592 21.623 24.4365 21.623C25.8138 21.623 26.9303 22.7396 26.9303 24.1169ZM21.9426 24.102C16.4374 24.4814 12.3694 26.2773 10.4536 29.5956C4.71946 39.5274 20.436 59.3364 45.5575 73.8403C57.8099 80.9142 70.0511 85.4205 80.0279 87.0279M84.9502 87.5976C84.9502 88.9749 83.8336 90.0915 82.4563 90.0915C81.079 90.0915 79.9625 88.9749 79.9625 87.5976C79.9625 86.2203 81.079 85.1038 82.4563 85.1038C83.8336 85.1038 84.9502 86.2203 84.9502 87.5976ZM26.9303 87.5646C26.9303 88.9419 25.8138 90.0584 24.4365 90.0584C23.0592 90.0584 21.9427 88.9419 21.9427 87.5646C21.9427 86.1873 23.0592 85.0708 24.4365 85.0708C25.8138 85.0708 26.9303 86.1873 26.9303 87.5646ZM76.7053 55.8572C76.7053 84.865 67.4085 108.381 55.9403 108.381C44.4721 108.381 35.1753 84.865 35.1753 55.8572C35.1753 26.8495 44.4721 3.33398 55.9403 3.33398C67.4085 3.33398 76.7053 26.8495 76.7053 55.8572ZM69.071 55.8572C69.071 63.1092 63.1921 68.9881 55.9402 68.9881C48.6882 68.9881 42.8094 63.1092 42.8094 55.8572C42.8094 48.6053 48.6882 42.7264 55.9402 42.7264C63.1921 42.7264 69.071 48.6053 69.071 55.8572Z" stroke="#272727" stroke-width="0.56" stroke-linecap="round" stroke-linejoin="round"/></svg>