<svg width="60" height="60" viewBox="0 0 60 60" fill="none" xmlns="http://www.w3.org/2000/svg" class="rotate-star w-full h-full" data-v-4f2c6038=""><path fill-rule="evenodd" clip-rule="evenodd" d="M26.8112 0V7.23512L29.178 27.7774C29.1756 27.7783 29.1733 27.7791 29.1709 27.7799L16.1577 11.6486L11.0416 6.53256L8.87022 8.70399L8.87072 8.70448L6.53271 11.0425L11.6487 16.1585L27.7996 28.9722C27.7932 28.9845 27.7869 28.9969 27.7807 29.0093L7.23512 26.8112H0V29.8817V29.8821V33.1888H7.23512L27.626 30.8394C27.6352 30.8699 27.645 30.9002 27.6554 30.9301L11.6486 43.843L6.53258 48.959L8.70354 51.1299L8.70319 51.1303L11.0417 53.4687L16.1577 48.3527L28.8715 32.3277C28.9109 32.3479 28.951 32.3671 28.9916 32.3851L26.8112 52.7649V60H29.8817L33.1888 60V52.7649L30.8482 32.4498C30.8907 32.4343 30.9328 32.4177 30.9742 32.4L43.8423 48.3514L48.9583 53.4674L51.1298 51.296L51.1293 51.2955L53.4673 48.9575L48.3513 43.8415L32.2816 31.0923C32.2945 31.0623 32.3067 31.0319 32.3184 31.0013L52.7649 33.1888H60V30.1183L60 26.8112H52.7649L32.2924 29.17C32.2864 29.1555 32.2803 29.1411 32.274 29.1268L48.3514 16.157L53.4674 11.041L51.2965 8.87006L51.2968 8.86972L48.9583 6.53125L43.8423 11.6473L30.9919 27.8444C30.9894 27.8433 30.9868 27.8422 30.9842 27.841L33.1888 7.23512V0H30.1183H30.1179H26.8112Z" fill="white" data-v-4f2c6038=""/></svg>