<svg width="1401" height="309" viewBox="0 0 1401 309" fill="none" xmlns="http://www.w3.org/2000/svg">
<rect y="86.5195" width="129.218" height="129.218" rx="64.6091" fill="#6BB7BA"/>
<path d="M48.8428 158.253C51.3755 158.253 53.5778 156.711 53.5778 153.423V146.848H51.2811V153.486C51.2811 155.059 50.526 156.129 48.8428 156.129C47.1596 156.129 46.4045 155.059 46.4045 153.486V146.848H44.1078V153.423C44.1078 156.711 46.3101 158.253 48.8428 158.253ZM60.0282 156.192C58.581 156.192 57.9203 155.39 57.8573 154.477H55.5921C55.655 156.318 56.8034 158.237 59.9024 158.237C62.5609 158.237 64.3227 156.821 64.3227 154.823C64.3227 150.387 58.2821 152.149 58.2821 149.915C58.2821 149.192 58.9742 148.657 60.0597 148.657C61.2552 148.657 61.9474 149.365 61.9946 150.34H64.2441C64.1812 148.326 62.7025 146.612 60.0911 146.612C57.5113 146.612 56.0168 148.169 56.0168 150.057C56.0168 154.43 61.9946 152.7 61.9946 154.902C61.9946 155.72 61.2552 156.192 60.0282 156.192ZM74.5599 155.909H68.8181V153.407H74.3239V151.3H68.8181V148.956H74.5599V146.848H66.5214V158.017H74.5599V155.909ZM86.0866 158.017L83.6483 153.533C84.954 152.998 85.6304 151.819 85.6304 150.34C85.6304 148.295 84.3404 146.848 81.9022 146.848H76.8368V158.017H79.1335V153.785H81.3358L83.4281 158.017H86.0866ZM83.3337 150.34C83.3337 151.158 82.8617 151.677 81.9022 151.677H79.1335V148.956H81.9022C82.8617 148.956 83.3337 149.522 83.3337 150.34Z" fill="white"/>
<mask id="mask0" mask-type="alpha" maskUnits="userSpaceOnUse" x="260" y="67" width="80" height="168">
<path d="M260.992 69.8835C260.992 68.6901 261.96 67.7227 263.153 67.7227H337C338.193 67.7227 339.16 68.6901 339.16 69.8835V232.332C339.16 233.525 338.193 234.493 337 234.493H263.153C261.96 234.493 260.992 233.525 260.992 232.332V69.8835Z" fill="white"/>
</mask>
<g mask="url(#mask0)">
<path d="M260.912 76.6307C260.912 71.6661 264.937 67.6416 269.901 67.6416H330.253C335.218 67.6416 339.243 71.6662 339.243 76.6307V225.401C339.243 230.365 335.218 234.39 330.253 234.39H269.901C264.937 234.39 260.912 230.365 260.912 225.401V76.6307Z" fill="#0B355B"/>
</g>
<rect x="228.098" y="139.332" width="144.776" height="23.7692" rx="3.69282" fill="#F6A13E"/>
<path d="M276.384 152.433C276.384 149.082 273.961 146.613 270.579 146.613C267.197 146.613 264.774 149.082 264.774 152.433C264.774 155.784 267.197 158.254 270.579 158.254C273.961 158.254 276.384 155.784 276.384 152.433ZM273.961 152.433C273.961 154.635 272.561 156.067 270.579 156.067C268.597 156.067 267.197 154.635 267.197 152.433C267.197 150.231 268.597 148.799 270.579 148.799C272.561 148.799 273.961 150.231 273.961 152.433ZM280.62 150.656V146.219H278.386V158.018H280.446V157.011C280.966 157.766 281.894 158.206 283.058 158.206C285.449 158.206 286.849 156.287 286.849 153.896C286.849 151.505 285.449 149.586 283.058 149.586C281.894 149.586 281.044 150.089 280.62 150.656ZM280.557 153.896C280.557 152.559 281.343 151.552 282.586 151.552C283.829 151.552 284.615 152.559 284.615 153.896C284.615 155.233 283.829 156.24 282.586 156.24C281.343 156.24 280.557 155.233 280.557 153.896ZM289.803 148.705C290.589 148.705 291.156 148.154 291.156 147.368C291.156 146.581 290.589 146.015 289.803 146.015C289.016 146.015 288.45 146.581 288.45 147.368C288.45 148.154 289.016 148.705 289.803 148.705ZM288.686 158.018H290.92V149.775H288.686V158.018ZM300.963 154.541C300.963 154.541 300.995 154.242 300.995 153.88C300.995 151.442 299.343 149.586 296.905 149.586C294.466 149.586 292.767 151.442 292.767 153.88C292.767 156.413 294.482 158.206 296.92 158.206C298.824 158.206 300.334 157.058 300.822 155.391H298.572C298.305 155.988 297.66 156.287 296.983 156.287C295.866 156.287 295.143 155.674 294.985 154.541H300.963ZM296.889 151.379C297.927 151.379 298.604 152.008 298.761 152.936H295.017C295.206 151.993 295.866 151.379 296.889 151.379ZM308.219 158.018L308.895 156.098H313.489L314.165 158.018H316.635L312.435 146.849H310.012L305.812 158.018H308.219ZM311.208 149.68L312.749 154.038H309.635L311.176 149.68H311.208ZM320.168 157.137C320.593 157.703 321.442 158.206 322.606 158.206C324.997 158.206 326.397 156.287 326.397 153.896C326.397 151.505 324.997 149.586 322.606 149.586C321.442 149.586 320.514 150.026 319.995 150.781V149.775H317.934V161.29H320.168V157.137ZM320.105 153.896C320.105 152.559 320.892 151.552 322.134 151.552C323.377 151.552 324.164 152.559 324.164 153.896C324.164 155.233 323.377 156.24 322.134 156.24C320.892 156.24 320.105 155.233 320.105 153.896ZM330.299 157.137C330.724 157.703 331.573 158.206 332.737 158.206C335.128 158.206 336.529 156.287 336.529 153.896C336.529 151.505 335.128 149.586 332.737 149.586C331.573 149.586 330.645 150.026 330.126 150.781V149.775H328.065V161.29H330.299V157.137ZM330.236 153.896C330.236 152.559 331.023 151.552 332.265 151.552C333.508 151.552 334.295 152.559 334.295 153.896C334.295 155.233 333.508 156.24 332.265 156.24C331.023 156.24 330.236 155.233 330.236 153.896Z" fill="white"/>
<path d="M764.847 303.833C763.101 303.833 761.906 302.952 761.78 301.269H760.647C760.726 303.188 761.937 304.872 764.816 304.872C767.317 304.872 769 303.597 769 301.662C769 297.163 762.362 299.602 762.362 296.345C762.362 295.103 763.369 294.285 765.052 294.285C766.704 294.285 767.726 295.323 767.773 296.865H768.89C768.843 294.82 767.522 293.246 765.036 293.246C762.535 293.246 761.214 294.788 761.214 296.393C761.214 300.876 767.836 298.202 767.836 301.741C767.836 303.11 766.672 303.833 764.847 303.833ZM778.829 300.97C778.829 300.97 778.845 300.719 778.845 300.546C778.845 298.28 777.382 296.456 774.991 296.456C772.584 296.456 771.058 298.422 771.058 300.64C771.058 302.89 772.474 304.84 775.007 304.84C776.91 304.84 778.231 303.676 778.703 302.15H777.539C777.193 303.125 776.249 303.833 775.022 303.833C773.339 303.833 772.285 302.591 772.175 300.97H778.829ZM774.991 297.462C776.564 297.462 777.587 298.516 777.728 300.058H772.207C772.395 298.579 773.434 297.462 774.991 297.462ZM786.565 300.546V301.474C786.565 302.606 785.606 303.912 783.702 303.912C782.806 303.912 781.846 303.597 781.846 302.449C781.846 301.647 782.381 301.112 783.907 300.907L786.565 300.546ZM783.576 304.84C784.961 304.84 786.062 304.274 786.644 303.283C786.644 304.179 786.817 304.651 786.817 304.651H787.918C787.761 304.321 787.682 303.503 787.682 302.968V299.46C787.682 297.683 786.66 296.456 784.347 296.456C782.129 296.456 781.154 297.572 780.949 299.004H782.066C782.286 297.871 783.12 297.415 784.3 297.415C785.81 297.415 786.565 298.092 786.565 299.444V299.665L783.765 300.026C781.689 300.294 780.745 301.159 780.745 302.449C780.745 303.896 781.673 304.84 783.576 304.84ZM794.575 296.581C794.575 296.581 794.386 296.566 794.308 296.566C792.829 296.566 792.042 297.336 791.743 297.887V296.644H790.674V304.651H791.791V300.105C791.791 298.438 792.813 297.62 794.182 297.62C794.386 297.62 794.575 297.635 794.575 297.635V296.581ZM795.552 300.656C795.552 302.842 797.062 304.84 799.501 304.84C801.672 304.84 802.93 303.393 803.245 301.804H802.112C801.782 303.047 800.869 303.833 799.501 303.833C797.818 303.833 796.685 302.496 796.685 300.656C796.685 298.799 797.818 297.462 799.501 297.462C800.869 297.462 801.782 298.249 802.112 299.492H803.245C802.93 297.903 801.672 296.456 799.501 296.456C797.062 296.456 795.552 298.453 795.552 300.656ZM806.661 292.853H805.544V304.651H806.661V299.916C806.661 298.28 807.715 297.431 809.067 297.431C810.499 297.431 811.175 298.312 811.175 299.759V304.651H812.292V299.539C812.292 297.761 811.238 296.456 809.256 296.456C807.762 296.456 806.944 297.274 806.661 297.761V292.853ZM823.122 303.833C821.376 303.833 820.18 302.952 820.054 301.269H818.922C819 303.188 820.212 304.872 823.09 304.872C825.592 304.872 827.275 303.597 827.275 301.662C827.275 297.163 820.636 299.602 820.636 296.345C820.636 295.103 821.643 294.285 823.326 294.285C824.978 294.285 826.001 295.323 826.048 296.865H827.165C827.117 294.82 825.796 293.246 823.311 293.246C820.809 293.246 819.488 294.788 819.488 296.393C819.488 300.876 826.111 298.202 826.111 301.741C826.111 303.11 824.947 303.833 823.122 303.833ZM833.187 303.597C833.187 303.597 832.825 303.676 832.479 303.676C831.708 303.676 831.378 303.267 831.378 302.418V297.588H833.218V296.644H831.378V294.363H830.261V296.644H828.735V297.588H830.261V302.496C830.261 303.943 830.984 304.683 832.337 304.683C832.904 304.683 833.187 304.604 833.187 304.604V303.597ZM839.231 296.581C839.231 296.581 839.042 296.566 838.964 296.566C837.485 296.566 836.698 297.336 836.4 297.887V296.644H835.33V304.651H836.447V300.105C836.447 298.438 837.469 297.62 838.838 297.62C839.042 297.62 839.231 297.635 839.231 297.635V296.581ZM841.726 294.662C842.182 294.662 842.528 294.348 842.528 293.891C842.528 293.419 842.182 293.089 841.726 293.089C841.254 293.089 840.924 293.419 840.924 293.891C840.924 294.348 841.254 294.662 841.726 294.662ZM841.16 304.651H842.276V296.644H841.16V304.651ZM846.415 296.644H845.345V304.651H846.462V299.885C846.462 298.28 847.516 297.431 848.869 297.431C850.301 297.431 850.977 298.312 850.977 299.759V304.651H852.094V299.539C852.094 297.761 851.04 296.456 849.058 296.456C847.501 296.456 846.698 297.352 846.415 297.871V296.644ZM861.26 298.107C860.693 297.101 859.687 296.456 858.239 296.456C855.833 296.456 854.464 298.39 854.464 300.546C854.464 302.701 855.833 304.636 858.239 304.636C859.687 304.636 860.662 303.975 861.213 303.015V304.51C861.213 306.004 860.253 307.09 858.617 307.09C857.311 307.09 856.399 306.476 856.084 305.548H854.936C855.203 306.759 856.32 308.096 858.585 308.096C861.102 308.096 862.329 306.413 862.329 304.258V296.644H861.26V298.107ZM861.26 300.546C861.26 302.276 860.206 303.645 858.444 303.645C856.698 303.645 855.597 302.276 855.597 300.546C855.597 298.815 856.698 297.462 858.444 297.462C860.206 297.462 861.26 298.815 861.26 300.546Z" fill="#0C0C0C"/>
<path d="M782.71 51.833L783.779 49.2217H789.6L790.654 51.833H791.928L787.319 40.6641H786.076L781.483 51.833H782.71ZM786.705 42.0641L789.175 48.152H784.188L786.674 42.0641H786.705ZM797.574 43.7631C797.574 43.7631 797.385 43.7473 797.306 43.7473C795.827 43.7473 795.041 44.5181 794.742 45.0687V43.826H793.672V51.833H794.789V47.2868C794.789 45.6193 795.812 44.8013 797.18 44.8013C797.385 44.8013 797.574 44.817 797.574 44.817V43.7631ZM802.758 50.779C802.758 50.779 802.396 50.8577 802.05 50.8577C801.28 50.8577 800.949 50.4487 800.949 49.5992V44.7698H802.79V43.826H800.949V41.545H799.832V43.826H798.306V44.7698H799.832V49.6779C799.832 51.1251 800.556 51.8645 801.909 51.8645C802.475 51.8645 802.758 51.7858 802.758 51.7858V50.779ZM805.468 41.8439C805.924 41.8439 806.27 41.5293 806.27 41.0731C806.27 40.6011 805.924 40.2708 805.468 40.2708C804.996 40.2708 804.665 40.6011 804.665 41.0731C804.665 41.5293 804.996 41.8439 805.468 41.8439ZM804.901 51.833H806.018V43.826H804.901V51.833ZM808.49 47.8374C808.49 50.024 810 52.0218 812.438 52.0218C814.609 52.0218 815.867 50.5745 816.182 48.9857H815.049C814.719 50.2285 813.807 51.015 812.438 51.015C810.755 51.015 809.622 49.6779 809.622 47.8374C809.622 45.9811 810.755 44.644 812.438 44.644C813.807 44.644 814.719 45.4305 815.049 46.6733H816.182C815.867 45.0844 814.609 43.6372 812.438 43.6372C810 43.6372 808.49 45.635 808.49 47.8374ZM819.598 51.833V40.0348H818.481V51.833H819.598ZM829.84 48.152C829.84 48.152 829.856 47.9003 829.856 47.7272C829.856 45.462 828.393 43.6372 826.002 43.6372C823.595 43.6372 822.069 45.6036 822.069 47.8216C822.069 50.0711 823.485 52.0218 826.018 52.0218C827.921 52.0218 829.242 50.8577 829.714 49.3318H828.55C828.204 50.3071 827.26 51.015 826.033 51.015C824.35 51.015 823.296 49.7723 823.186 48.152H829.84ZM826.002 44.644C827.575 44.644 828.597 45.698 828.739 47.2396H823.217C823.406 45.7609 824.445 44.644 826.002 44.644ZM834.871 52.0218C837.041 52.0218 838.064 50.8734 838.064 49.6621C838.064 46.2957 833.109 48.1677 833.109 45.9496C833.109 45.226 833.722 44.6125 834.965 44.6125C836.239 44.6125 836.837 45.3047 836.931 46.1699H838.048C837.954 45.0844 837.214 43.6372 834.996 43.6372C833.093 43.6372 832.023 44.7698 832.023 45.9968C832.023 49.2846 836.978 47.3969 836.978 49.6936C836.978 50.4959 836.223 51.0465 834.871 51.0465C833.486 51.0465 832.794 50.3543 832.715 49.3318H831.583C831.677 50.7318 832.558 52.0218 834.871 52.0218Z" fill="#0C0C0C"/>
<path d="M782.71 263.077L783.779 260.466H789.6L790.654 263.077H791.928L787.319 251.908H786.076L781.483 263.077H782.71ZM786.705 253.308L789.175 259.396H784.188L786.674 253.308H786.705ZM797.574 255.007C797.574 255.007 797.385 254.991 797.306 254.991C795.827 254.991 795.041 255.762 794.742 256.313V255.07H793.672V263.077H794.789V258.531C794.789 256.863 795.812 256.045 797.18 256.045C797.385 256.045 797.574 256.061 797.574 256.061V255.007ZM802.758 262.023C802.758 262.023 802.396 262.102 802.05 262.102C801.28 262.102 800.949 261.693 800.949 260.843V256.014H802.79V255.07H800.949V252.789H799.832V255.07H798.306V256.014H799.832V260.922C799.832 262.369 800.556 263.109 801.909 263.109C802.475 263.109 802.758 263.03 802.758 263.03V262.023ZM805.468 253.088C805.924 253.088 806.27 252.773 806.27 252.317C806.27 251.845 805.924 251.515 805.468 251.515C804.996 251.515 804.665 251.845 804.665 252.317C804.665 252.773 804.996 253.088 805.468 253.088ZM804.901 263.077H806.018V255.07H804.901V263.077ZM808.49 259.081C808.49 261.268 810 263.266 812.438 263.266C814.609 263.266 815.867 261.819 816.182 260.23H815.049C814.719 261.473 813.807 262.259 812.438 262.259C810.755 262.259 809.622 260.922 809.622 259.081C809.622 257.225 810.755 255.888 812.438 255.888C813.807 255.888 814.719 256.675 815.049 257.917H816.182C815.867 256.329 814.609 254.881 812.438 254.881C810 254.881 808.49 256.879 808.49 259.081ZM819.598 263.077V251.279H818.481V263.077H819.598ZM829.84 259.396C829.84 259.396 829.856 259.144 829.856 258.971C829.856 256.706 828.393 254.881 826.002 254.881C823.595 254.881 822.069 256.848 822.069 259.066C822.069 261.315 823.485 263.266 826.018 263.266C827.921 263.266 829.242 262.102 829.714 260.576H828.55C828.204 261.551 827.26 262.259 826.033 262.259C824.35 262.259 823.296 261.016 823.186 259.396H829.84ZM826.002 255.888C827.575 255.888 828.597 256.942 828.739 258.484H823.217C823.406 257.005 824.445 255.888 826.002 255.888ZM834.871 263.266C837.041 263.266 838.064 262.118 838.064 260.906C838.064 257.54 833.109 259.412 833.109 257.194C833.109 256.47 833.722 255.857 834.965 255.857C836.239 255.857 836.837 256.549 836.931 257.414H838.048C837.954 256.329 837.214 254.881 834.996 254.881C833.093 254.881 832.023 256.014 832.023 257.241C832.023 260.529 836.978 258.641 836.978 260.938C836.978 261.74 836.223 262.291 834.871 262.291C833.486 262.291 832.794 261.598 832.715 260.576H831.583C831.677 261.976 832.558 263.266 834.871 263.266Z" fill="#0C0C0C"/>
<path d="M750.59 150.567L755.206 153.232L755.206 147.902L750.59 150.567ZM864.077 150.567L859.461 147.902L859.461 153.232L864.077 150.567ZM754.744 151.029L859.923 151.029L859.923 150.106L754.744 150.106L754.744 151.029Z" fill="black"/>
<path d="M514.626 150.567L510.01 147.902L510.01 153.232L514.626 150.567ZM401.139 151.029L510.472 151.029L510.472 150.106L401.139 150.106L401.139 151.029Z" fill="black"/>
<path d="M200.008 150.567L195.392 147.902L195.392 153.232L200.008 150.567ZM150.568 151.029L195.854 151.029L195.854 150.106L150.568 150.106L150.568 151.029Z" fill="black"/>
<path d="M750.59 122.361L755.206 125.026V119.696L750.59 122.361ZM754.744 122.823H775.313V121.9H754.744V122.823Z" fill="black"/>
<path d="M775.311 122.476L775.311 31.4619L863.977 31.4619" stroke="black" stroke-width="0.923204"/>
<path d="M750.59 181.354L755.206 184.02L755.206 178.689L750.59 181.354ZM754.744 181.816L775.313 181.816L775.313 180.893L754.744 180.893L754.744 181.816Z" fill="black"/>
<path d="M864.078 269.774H775.311L775.311 180.906" stroke="black" stroke-width="0.923204"/>
<path d="M761.825 283.259L761.825 283.72L761.364 283.72L761.364 283.259L761.825 283.259ZM863.515 283.259L858.899 285.924L858.899 280.594L863.515 283.259ZM761.825 194.951V194.49H762.287L762.287 194.951L761.825 194.951ZM761.825 282.797L859.361 282.797L859.361 283.72L761.825 283.72L761.825 282.797ZM761.364 283.259L761.364 194.951L762.287 194.951L762.287 283.259L761.364 283.259ZM761.825 195.413H751.15V194.49H761.825V195.413Z" fill="black"/>
<rect x="543.279" y="117.42" width="167.422" height="43.8218" rx="6.82381" fill="white"/>
<path d="M578.872 145.87C582.82 145.87 585.085 143.668 585.085 140.286C585.085 136.903 582.82 134.701 578.872 134.701H575.489V145.87H578.872ZM583.89 140.286C583.89 143.054 582.191 144.769 578.809 144.769H576.638V135.802H578.809C582.191 135.802 583.89 137.517 583.89 140.286ZM592.852 141.764V142.692C592.852 143.825 591.892 145.131 589.988 145.131C589.092 145.131 588.132 144.816 588.132 143.668C588.132 142.866 588.667 142.331 590.193 142.126L592.852 141.764ZM589.863 146.059C591.247 146.059 592.348 145.493 592.93 144.502C592.93 145.398 593.103 145.87 593.103 145.87H594.204C594.047 145.54 593.968 144.722 593.968 144.187V140.679C593.968 138.901 592.946 137.674 590.633 137.674C588.415 137.674 587.44 138.791 587.236 140.223H588.352C588.573 139.09 589.406 138.634 590.586 138.634C592.096 138.634 592.852 139.31 592.852 140.663V140.883L590.051 141.245C587.975 141.513 587.031 142.378 587.031 143.668C587.031 145.115 587.959 146.059 589.863 146.059ZM600.047 144.816C600.047 144.816 599.685 144.895 599.339 144.895C598.569 144.895 598.238 144.486 598.238 143.636V138.807H600.079V137.863H598.238V135.582H597.121V137.863H595.595V138.807H597.121V143.715C597.121 145.162 597.845 145.902 599.198 145.902C599.764 145.902 600.047 145.823 600.047 145.823V144.816ZM607.46 141.764V142.692C607.46 143.825 606.501 145.131 604.597 145.131C603.701 145.131 602.741 144.816 602.741 143.668C602.741 142.866 603.276 142.331 604.802 142.126L607.46 141.764ZM604.471 146.059C605.856 146.059 606.957 145.493 607.539 144.502C607.539 145.398 607.712 145.87 607.712 145.87H608.813C608.656 145.54 608.577 144.722 608.577 144.187V140.679C608.577 138.901 607.555 137.674 605.242 137.674C603.024 137.674 602.049 138.791 601.844 140.223H602.961C603.182 139.09 604.015 138.634 605.195 138.634C606.705 138.634 607.46 139.31 607.46 140.663V140.883L604.66 141.245C602.584 141.513 601.64 142.378 601.64 143.668C601.64 145.115 602.568 146.059 604.471 146.059ZM619.431 145.052C617.684 145.052 616.489 144.171 616.363 142.488H615.23C615.309 144.407 616.52 146.09 619.399 146.09C621.9 146.09 623.584 144.816 623.584 142.881C623.584 138.382 616.945 140.82 616.945 137.564C616.945 136.321 617.952 135.503 619.635 135.503C621.287 135.503 622.309 136.542 622.357 138.083H623.473C623.426 136.038 622.105 134.465 619.619 134.465C617.118 134.465 615.797 136.007 615.797 137.611C615.797 142.095 622.419 139.42 622.419 142.96C622.419 144.328 621.255 145.052 619.431 145.052ZM633.412 142.189C633.412 142.189 633.428 141.937 633.428 141.764C633.428 139.499 631.965 137.674 629.574 137.674C627.167 137.674 625.641 139.641 625.641 141.859C625.641 144.108 627.057 146.059 629.59 146.059C631.493 146.059 632.815 144.895 633.287 143.369H632.122C631.776 144.344 630.833 145.052 629.606 145.052C627.922 145.052 626.868 143.809 626.758 142.189H633.412ZM629.574 138.681C631.147 138.681 632.17 139.735 632.311 141.277H626.79C626.978 139.798 628.017 138.681 629.574 138.681ZM639.78 137.8C639.78 137.8 639.591 137.784 639.512 137.784C638.034 137.784 637.247 138.555 636.948 139.106V137.863H635.879V145.87H636.996V141.324C636.996 139.656 638.018 138.838 639.387 138.838C639.591 138.838 639.78 138.854 639.78 138.854V137.8ZM644.524 144.58L641.803 137.863H640.591L643.942 145.87H645.075L648.457 137.863H647.293L644.524 144.58ZM650.962 135.881C651.418 135.881 651.764 135.566 651.764 135.11C651.764 134.638 651.418 134.308 650.962 134.308C650.49 134.308 650.159 134.638 650.159 135.11C650.159 135.566 650.49 135.881 650.962 135.881ZM650.395 145.87H651.512V137.863H650.395V145.87ZM653.983 141.874C653.983 144.061 655.494 146.059 657.932 146.059C660.103 146.059 661.361 144.612 661.676 143.023H660.543C660.213 144.266 659.3 145.052 657.932 145.052C656.249 145.052 655.116 143.715 655.116 141.874C655.116 140.018 656.249 138.681 657.932 138.681C659.3 138.681 660.213 139.468 660.543 140.71H661.676C661.361 139.122 660.103 137.674 657.932 137.674C655.494 137.674 653.983 139.672 653.983 141.874ZM671.056 142.189C671.056 142.189 671.072 141.937 671.072 141.764C671.072 139.499 669.609 137.674 667.218 137.674C664.811 137.674 663.285 139.641 663.285 141.859C663.285 144.108 664.701 146.059 667.233 146.059C669.137 146.059 670.458 144.895 670.93 143.369H669.766C669.42 144.344 668.476 145.052 667.249 145.052C665.566 145.052 664.512 143.809 664.402 142.189H671.056ZM667.218 138.681C668.791 138.681 669.813 139.735 669.955 141.277H664.433C664.622 139.798 665.66 138.681 667.218 138.681ZM676.086 146.059C678.257 146.059 679.28 144.911 679.28 143.699C679.28 140.333 674.324 142.205 674.324 139.987C674.324 139.263 674.938 138.65 676.181 138.65C677.455 138.65 678.053 139.342 678.147 140.207H679.264C679.17 139.122 678.43 137.674 676.212 137.674C674.309 137.674 673.239 138.807 673.239 140.034C673.239 143.322 678.194 141.434 678.194 143.731C678.194 144.533 677.439 145.084 676.086 145.084C674.702 145.084 674.01 144.391 673.931 143.369H672.799C672.893 144.769 673.774 146.059 676.086 146.059Z" fill="#0C0C0C"/>
<rect x="543.279" y="117.42" width="167.422" height="43.8218" rx="6.82381" stroke="#D8D8D8" stroke-width="1.12364"/>
<rect x="548.896" y="123.038" width="167.422" height="43.8218" rx="6.82381" fill="white"/>
<path d="M584.489 151.487C588.437 151.487 590.702 149.285 590.702 145.903C590.702 142.521 588.437 140.318 584.489 140.318H581.107V151.487H584.489ZM589.507 145.903C589.507 148.671 587.808 150.386 584.426 150.386H582.255V141.42H584.426C587.808 141.42 589.507 143.134 589.507 145.903ZM598.469 147.382V148.31C598.469 149.442 597.509 150.748 595.606 150.748C594.709 150.748 593.749 150.433 593.749 149.285C593.749 148.483 594.284 147.948 595.81 147.743L598.469 147.382ZM595.48 151.676C596.864 151.676 597.965 151.11 598.547 150.119C598.547 151.015 598.72 151.487 598.72 151.487H599.822C599.664 151.157 599.586 150.339 599.586 149.804V146.296C599.586 144.519 598.563 143.292 596.251 143.292C594.033 143.292 593.057 144.408 592.853 145.84H593.97C594.19 144.707 595.024 144.251 596.203 144.251C597.714 144.251 598.469 144.928 598.469 146.28V146.501L595.669 146.862C593.592 147.13 592.648 147.995 592.648 149.285C592.648 150.732 593.576 151.676 595.48 151.676ZM605.664 150.433C605.664 150.433 605.303 150.512 604.957 150.512C604.186 150.512 603.855 150.103 603.855 149.254V144.424H605.696V143.48H603.855V141.199H602.739V143.48H601.213V144.424H602.739V149.332C602.739 150.779 603.462 151.519 604.815 151.519C605.381 151.519 605.664 151.44 605.664 151.44V150.433ZM613.078 147.382V148.31C613.078 149.442 612.118 150.748 610.215 150.748C609.318 150.748 608.358 150.433 608.358 149.285C608.358 148.483 608.893 147.948 610.419 147.743L613.078 147.382ZM610.089 151.676C611.473 151.676 612.574 151.11 613.156 150.119C613.156 151.015 613.329 151.487 613.329 151.487H614.43C614.273 151.157 614.194 150.339 614.194 149.804V146.296C614.194 144.519 613.172 143.292 610.859 143.292C608.641 143.292 607.666 144.408 607.462 145.84H608.579C608.799 144.707 609.632 144.251 610.812 144.251C612.322 144.251 613.078 144.928 613.078 146.28V146.501L610.277 146.862C608.201 147.13 607.257 147.995 607.257 149.285C607.257 150.732 608.185 151.676 610.089 151.676ZM625.048 150.669C623.302 150.669 622.106 149.788 621.98 148.105H620.848C620.926 150.024 622.138 151.708 625.016 151.708C627.518 151.708 629.201 150.433 629.201 148.498C629.201 143.999 622.562 146.438 622.562 143.181C622.562 141.939 623.569 141.121 625.252 141.121C626.904 141.121 627.927 142.159 627.974 143.701H629.091C629.043 141.655 627.722 140.082 625.237 140.082C622.735 140.082 621.414 141.624 621.414 143.229C621.414 147.712 628.037 145.038 628.037 148.577C628.037 149.946 626.873 150.669 625.048 150.669ZM639.03 147.806C639.03 147.806 639.045 147.555 639.045 147.382C639.045 145.116 637.582 143.292 635.191 143.292C632.784 143.292 631.259 145.258 631.259 147.476C631.259 149.725 632.674 151.676 635.207 151.676C637.11 151.676 638.432 150.512 638.904 148.986H637.74C637.394 149.961 636.45 150.669 635.223 150.669C633.54 150.669 632.486 149.427 632.375 147.806H639.03ZM635.191 144.298C636.764 144.298 637.787 145.352 637.928 146.894H632.407C632.596 145.415 633.634 144.298 635.191 144.298ZM645.397 143.417C645.397 143.417 645.208 143.402 645.13 143.402C643.651 143.402 642.864 144.172 642.566 144.723V143.48H641.496V151.487H642.613V146.941C642.613 145.274 643.635 144.456 645.004 144.456C645.208 144.456 645.397 144.471 645.397 144.471V143.417ZM650.141 150.197L647.42 143.48H646.209L649.559 151.487H650.692L654.074 143.48H652.91L650.141 150.197ZM656.579 141.498C657.035 141.498 657.381 141.184 657.381 140.727C657.381 140.255 657.035 139.925 656.579 139.925C656.107 139.925 655.777 140.255 655.777 140.727C655.777 141.184 656.107 141.498 656.579 141.498ZM656.012 151.487H657.129V143.48H656.012V151.487ZM659.601 147.492C659.601 149.678 661.111 151.676 663.549 151.676C665.72 151.676 666.978 150.229 667.293 148.64H666.16C665.83 149.883 664.918 150.669 663.549 150.669C661.866 150.669 660.733 149.332 660.733 147.492C660.733 145.635 661.866 144.298 663.549 144.298C664.918 144.298 665.83 145.085 666.16 146.328H667.293C666.978 144.739 665.72 143.292 663.549 143.292C661.111 143.292 659.601 145.289 659.601 147.492ZM676.673 147.806C676.673 147.806 676.689 147.555 676.689 147.382C676.689 145.116 675.226 143.292 672.835 143.292C670.428 143.292 668.902 145.258 668.902 147.476C668.902 149.725 670.318 151.676 672.851 151.676C674.754 151.676 676.075 150.512 676.547 148.986H675.383C675.037 149.961 674.093 150.669 672.866 150.669C671.183 150.669 670.129 149.427 670.019 147.806H676.673ZM672.835 144.298C674.408 144.298 675.43 145.352 675.572 146.894H670.05C670.239 145.415 671.277 144.298 672.835 144.298ZM681.704 151.676C683.874 151.676 684.897 150.528 684.897 149.316C684.897 145.95 679.942 147.822 679.942 145.604C679.942 144.88 680.555 144.267 681.798 144.267C683.072 144.267 683.67 144.959 683.764 145.824H684.881C684.787 144.739 684.047 143.292 681.829 143.292C679.926 143.292 678.856 144.424 678.856 145.651C678.856 148.939 683.811 147.051 683.811 149.348C683.811 150.15 683.056 150.701 681.704 150.701C680.319 150.701 679.627 150.009 679.548 148.986H678.416C678.51 150.386 679.391 151.676 681.704 151.676Z" fill="#0C0C0C"/>
<rect x="548.896" y="123.038" width="167.422" height="43.8218" rx="6.82381" stroke="#D8D8D8" stroke-width="1.12364"/>
<rect x="554.515" y="128.657" width="167.422" height="43.8218" rx="6.82381" fill="white"/>
<path d="M618.443 156.287C616.697 156.287 615.501 155.407 615.375 153.723H614.243C614.321 155.642 615.533 157.326 618.411 157.326C620.913 157.326 622.596 156.051 622.596 154.117C622.596 149.618 615.957 152.056 615.957 148.8C615.957 147.557 616.964 146.739 618.647 146.739C620.299 146.739 621.322 147.777 621.369 149.319H622.486C622.439 147.274 621.117 145.701 618.632 145.701C616.13 145.701 614.809 147.242 614.809 148.847C614.809 153.33 621.432 150.656 621.432 154.195C621.432 155.564 620.268 156.287 618.443 156.287ZM632.425 153.424C632.425 153.424 632.44 153.173 632.44 153C632.44 150.734 630.977 148.91 628.586 148.91C626.18 148.91 624.654 150.876 624.654 153.094C624.654 155.344 626.069 157.294 628.602 157.294C630.506 157.294 631.827 156.13 632.299 154.604H631.135C630.789 155.58 629.845 156.287 628.618 156.287C626.935 156.287 625.881 155.045 625.771 153.424H632.425ZM628.586 149.916C630.159 149.916 631.182 150.97 631.324 152.512H625.802C625.991 151.033 627.029 149.916 628.586 149.916ZM638.792 149.036C638.792 149.036 638.603 149.02 638.525 149.02C637.046 149.02 636.26 149.791 635.961 150.341V149.098H634.891V157.105H636.008V152.559C636.008 150.892 637.03 150.074 638.399 150.074C638.603 150.074 638.792 150.089 638.792 150.089V149.036ZM643.536 155.816L640.815 149.098H639.604L642.954 157.105H644.087L647.469 149.098H646.305L643.536 155.816ZM656.228 153.424C656.228 153.424 656.243 153.173 656.243 153C656.243 150.734 654.78 148.91 652.389 148.91C649.982 148.91 648.456 150.876 648.456 153.094C648.456 155.344 649.872 157.294 652.405 157.294C654.308 157.294 655.63 156.13 656.102 154.604H654.938C654.592 155.58 653.648 156.287 652.421 156.287C650.737 156.287 649.684 155.045 649.573 153.424H656.228ZM652.389 149.916C653.962 149.916 654.985 150.97 655.126 152.512H649.605C649.794 151.033 650.832 149.916 652.389 149.916ZM662.595 149.036C662.595 149.036 662.406 149.02 662.328 149.02C660.849 149.02 660.062 149.791 659.763 150.341V149.098H658.694V157.105H659.811V152.559C659.811 150.892 660.833 150.074 662.202 150.074C662.406 150.074 662.595 150.089 662.595 150.089V149.036Z" fill="#0C0C0C"/>
<rect x="554.515" y="128.657" width="167.422" height="43.8218" rx="6.82381" stroke="#D8D8D8" stroke-width="1.12364"/>
<rect x="892.73" y="119.667" width="167.422" height="61.8" rx="6.82381" fill="white"/>
<path d="M961.216 149.105C965.165 149.105 967.43 146.903 967.43 143.521C967.43 140.139 965.165 137.937 961.216 137.937H957.834V149.105H961.216ZM966.234 143.521C966.234 146.29 964.536 148.004 961.153 148.004H958.983V139.038H961.153C964.536 139.038 966.234 140.752 966.234 143.521ZM975.196 145V145.928C975.196 147.06 974.237 148.366 972.333 148.366C971.437 148.366 970.477 148.051 970.477 146.903C970.477 146.101 971.012 145.566 972.538 145.362L975.196 145ZM972.207 149.294C973.592 149.294 974.693 148.728 975.275 147.737C975.275 148.634 975.448 149.105 975.448 149.105H976.549C976.392 148.775 976.313 147.957 976.313 147.422V143.914C976.313 142.137 975.291 140.91 972.978 140.91C970.76 140.91 969.785 142.027 969.58 143.458H970.697C970.918 142.325 971.751 141.869 972.931 141.869C974.441 141.869 975.196 142.546 975.196 143.899V144.119L972.396 144.481C970.32 144.748 969.376 145.613 969.376 146.903C969.376 148.35 970.304 149.294 972.207 149.294ZM982.392 148.051C982.392 148.051 982.03 148.13 981.684 148.13C980.913 148.13 980.583 147.721 980.583 146.872V142.042H982.424V141.098H980.583V138.817H979.466V141.098H977.94V142.042H979.466V146.95C979.466 148.398 980.19 149.137 981.543 149.137C982.109 149.137 982.392 149.058 982.392 149.058V148.051ZM989.805 145V145.928C989.805 147.06 988.846 148.366 986.942 148.366C986.045 148.366 985.086 148.051 985.086 146.903C985.086 146.101 985.621 145.566 987.147 145.362L989.805 145ZM986.816 149.294C988.201 149.294 989.302 148.728 989.884 147.737C989.884 148.634 990.057 149.105 990.057 149.105H991.158C991.001 148.775 990.922 147.957 990.922 147.422V143.914C990.922 142.137 989.9 140.91 987.587 140.91C985.369 140.91 984.394 142.027 984.189 143.458H985.306C985.526 142.325 986.36 141.869 987.54 141.869C989.05 141.869 989.805 142.546 989.805 143.899V144.119L987.005 144.481C984.929 144.748 983.985 145.613 983.985 146.903C983.985 148.35 984.913 149.294 986.816 149.294ZM951.197 166.287C949.451 166.287 948.255 165.407 948.13 163.723H946.997C947.076 165.642 948.287 167.326 951.166 167.326C953.667 167.326 955.35 166.051 955.35 164.117C955.35 159.618 948.712 162.056 948.712 158.8C948.712 157.557 949.718 156.739 951.402 156.739C953.053 156.739 954.076 157.777 954.123 159.319H955.24C955.193 157.274 953.871 155.701 951.386 155.701C948.885 155.701 947.563 157.242 947.563 158.847C947.563 163.33 954.186 160.656 954.186 164.195C954.186 165.564 953.022 166.287 951.197 166.287ZM961.262 166.051C961.262 166.051 960.9 166.13 960.554 166.13C959.783 166.13 959.453 165.721 959.453 164.872V160.042H961.293V159.098H959.453V156.817H958.336V159.098H956.81V160.042H958.336V164.95C958.336 166.398 959.06 167.137 960.413 167.137C960.979 167.137 961.262 167.058 961.262 167.058V166.051ZM966.713 167.294C969.245 167.294 970.803 165.312 970.803 163.11C970.803 160.907 969.245 158.91 966.713 158.91C964.196 158.91 962.638 160.907 962.638 163.11C962.638 165.312 964.196 167.294 966.713 167.294ZM963.771 163.11C963.771 161.301 964.935 159.916 966.713 159.916C968.506 159.916 969.67 161.301 969.67 163.11C969.67 164.903 968.506 166.287 966.713 166.287C964.935 166.287 963.771 164.903 963.771 163.11ZM977.161 159.036C977.161 159.036 976.972 159.02 976.894 159.02C975.415 159.02 974.628 159.791 974.329 160.341V159.098H973.26V167.105H974.377V162.559C974.377 160.892 975.399 160.074 976.768 160.074C976.972 160.074 977.161 160.089 977.161 160.089V159.036ZM984.19 163V163.928C984.19 165.06 983.231 166.366 981.327 166.366C980.431 166.366 979.471 166.051 979.471 164.903C979.471 164.101 980.006 163.566 981.532 163.362L984.19 163ZM981.201 167.294C982.586 167.294 983.687 166.728 984.269 165.737C984.269 166.634 984.442 167.105 984.442 167.105H985.543C985.386 166.775 985.307 165.957 985.307 165.422V161.914C985.307 160.137 984.285 158.91 981.972 158.91C979.754 158.91 978.779 160.027 978.574 161.458H979.691C979.911 160.325 980.745 159.869 981.925 159.869C983.435 159.869 984.19 160.546 984.19 161.899V162.119L981.39 162.481C979.314 162.748 978.37 163.613 978.37 164.903C978.37 166.35 979.298 167.294 981.201 167.294ZM994.497 160.561C993.93 159.555 992.924 158.91 991.476 158.91C989.07 158.91 987.701 160.845 987.701 163C987.701 165.155 989.07 167.09 991.476 167.09C992.924 167.09 993.899 166.429 994.45 165.469V166.964C994.45 168.458 993.49 169.544 991.854 169.544C990.548 169.544 989.636 168.93 989.321 168.002H988.173C988.44 169.213 989.557 170.551 991.822 170.551C994.339 170.551 995.566 168.867 995.566 166.712V159.098H994.497V160.561ZM994.497 163C994.497 164.73 993.443 166.099 991.681 166.099C989.935 166.099 988.834 164.73 988.834 163C988.834 161.269 989.935 159.916 991.681 159.916C993.443 159.916 994.497 161.269 994.497 163ZM1005.73 163.424C1005.73 163.424 1005.74 163.173 1005.74 163C1005.74 160.734 1004.28 158.91 1001.89 158.91C999.481 158.91 997.955 160.876 997.955 163.094C997.955 165.344 999.371 167.294 1001.9 167.294C1003.81 167.294 1005.13 166.13 1005.6 164.604H1004.44C1004.09 165.58 1003.15 166.287 1001.92 166.287C1000.24 166.287 999.182 165.045 999.072 163.424H1005.73ZM1001.89 159.916C1003.46 159.916 1004.48 160.97 1004.62 162.512H999.103C999.292 161.033 1000.33 159.916 1001.89 159.916Z" fill="#0C0C0C"/>
<rect x="892.73" y="119.667" width="167.422" height="61.8" rx="6.82381" stroke="#D8D8D8" stroke-width="1.12364"/>
<path d="M786.923 143.207C789.519 143.207 791.359 141.602 791.359 138.362V131.802H790.211V138.472C790.211 140.69 789.047 142.153 786.923 142.153C784.799 142.153 783.635 140.69 783.635 138.472V131.802H782.487V138.362C782.487 141.602 784.312 143.207 786.923 143.207ZM796.965 143.159C799.135 143.159 800.158 142.011 800.158 140.8C800.158 137.433 795.203 139.305 795.203 137.087C795.203 136.364 795.816 135.75 797.059 135.75C798.333 135.75 798.931 136.442 799.025 137.308H800.142C800.048 136.222 799.309 134.775 797.09 134.775C795.187 134.775 794.117 135.908 794.117 137.135C794.117 140.422 799.073 138.535 799.073 140.831C799.073 141.634 798.317 142.184 796.965 142.184C795.58 142.184 794.888 141.492 794.809 140.469H793.677C793.771 141.87 794.652 143.159 796.965 143.159ZM809.815 139.29C809.815 139.29 809.831 139.038 809.831 138.865C809.831 136.6 808.368 134.775 805.977 134.775C803.57 134.775 802.044 136.741 802.044 138.959C802.044 141.209 803.46 143.159 805.993 143.159C807.896 143.159 809.218 141.995 809.689 140.469H808.525C808.179 141.445 807.235 142.153 806.008 142.153C804.325 142.153 803.271 140.91 803.161 139.29H809.815ZM805.977 135.782C807.55 135.782 808.573 136.836 808.714 138.377H803.193C803.381 136.899 804.42 135.782 805.977 135.782ZM816.183 134.901C816.183 134.901 815.994 134.885 815.915 134.885C814.437 134.885 813.65 135.656 813.351 136.206V134.964H812.281V142.971H813.398V138.424C813.398 136.757 814.421 135.939 815.789 135.939C815.994 135.939 816.183 135.955 816.183 135.955V134.901ZM826.114 142.971C830.063 142.971 832.328 140.768 832.328 137.386C832.328 134.004 830.063 131.802 826.114 131.802H822.732V142.971H826.114ZM831.133 137.386C831.133 140.155 829.434 141.87 826.052 141.87H823.881V132.903H826.052C829.434 132.903 831.133 134.618 831.133 137.386ZM840.094 138.865V139.793C840.094 140.926 839.135 142.231 837.231 142.231C836.335 142.231 835.375 141.917 835.375 140.768C835.375 139.966 835.91 139.431 837.436 139.227L840.094 138.865ZM837.106 143.159C838.49 143.159 839.591 142.593 840.173 141.602C840.173 142.499 840.346 142.971 840.346 142.971H841.447C841.29 142.64 841.211 141.822 841.211 141.287V137.78C841.211 136.002 840.189 134.775 837.876 134.775C835.658 134.775 834.683 135.892 834.479 137.323H835.595C835.816 136.191 836.649 135.734 837.829 135.734C839.339 135.734 840.094 136.411 840.094 137.764V137.984L837.294 138.346C835.218 138.613 834.274 139.478 834.274 140.768C834.274 142.216 835.202 143.159 837.106 143.159ZM847.29 141.917C847.29 141.917 846.928 141.995 846.582 141.995C845.812 141.995 845.481 141.586 845.481 140.737V135.908H847.322V134.964H845.481V132.683H844.364V134.964H842.838V135.908H844.364V140.816C844.364 142.263 845.088 143.002 846.441 143.002C847.007 143.002 847.29 142.924 847.29 142.924V141.917ZM854.703 138.865V139.793C854.703 140.926 853.744 142.231 851.84 142.231C850.944 142.231 849.984 141.917 849.984 140.768C849.984 139.966 850.519 139.431 852.045 139.227L854.703 138.865ZM851.714 143.159C853.099 143.159 854.2 142.593 854.782 141.602C854.782 142.499 854.955 142.971 854.955 142.971H856.056C855.899 142.64 855.82 141.822 855.82 141.287V137.78C855.82 136.002 854.798 134.775 852.485 134.775C850.267 134.775 849.292 135.892 849.087 137.323H850.204C850.425 136.191 851.258 135.734 852.438 135.734C853.948 135.734 854.703 136.411 854.703 137.764V137.984L851.903 138.346C849.827 138.613 848.883 139.478 848.883 140.768C848.883 142.216 849.811 143.159 851.714 143.159Z" fill="#0C0C0C"/>
<rect x="892.73" y="238.774" width="167.422" height="61.8" rx="6.82381" fill="white"/>
<path d="M923.542 275.394C921.796 275.394 920.6 274.513 920.474 272.83H919.342C919.42 274.749 920.632 276.432 923.51 276.432C926.011 276.432 927.695 275.158 927.695 273.223C927.695 268.724 921.056 271.162 921.056 267.906C921.056 266.663 922.063 265.845 923.746 265.845C925.398 265.845 926.42 266.883 926.468 268.425H927.585C927.537 266.38 926.216 264.807 923.73 264.807C921.229 264.807 919.908 266.349 919.908 267.953C919.908 272.436 926.531 269.762 926.531 273.302C926.531 274.67 925.367 275.394 923.542 275.394ZM937.524 272.531C937.524 272.531 937.539 272.279 937.539 272.106C937.539 269.841 936.076 268.016 933.685 268.016C931.278 268.016 929.752 269.982 929.752 272.201C929.752 274.45 931.168 276.401 933.701 276.401C935.604 276.401 936.926 275.237 937.398 273.711H936.234C935.888 274.686 934.944 275.394 933.717 275.394C932.033 275.394 930.979 274.151 930.869 272.531H937.524ZM933.685 269.023C935.258 269.023 936.281 270.077 936.422 271.618H930.901C931.09 270.14 932.128 269.023 933.685 269.023ZM945.26 272.106V273.034C945.26 274.167 944.3 275.473 942.397 275.473C941.5 275.473 940.54 275.158 940.54 274.01C940.54 273.207 941.075 272.672 942.601 272.468L945.26 272.106ZM942.271 276.401C943.655 276.401 944.756 275.834 945.338 274.843C945.338 275.74 945.511 276.212 945.511 276.212H946.612C946.455 275.882 946.376 275.064 946.376 274.529V271.021C946.376 269.243 945.354 268.016 943.042 268.016C940.823 268.016 939.848 269.133 939.644 270.565H940.761C940.981 269.432 941.815 268.976 942.994 268.976C944.505 268.976 945.26 269.652 945.26 271.005V271.225L942.459 271.587C940.383 271.854 939.439 272.72 939.439 274.01C939.439 275.457 940.367 276.401 942.271 276.401ZM953.269 268.142C953.269 268.142 953.081 268.126 953.002 268.126C951.523 268.126 950.737 268.897 950.438 269.448V268.205H949.368V276.212H950.485V271.666C950.485 269.998 951.507 269.18 952.876 269.18C953.081 269.18 953.269 269.196 953.269 269.196V268.142ZM954.247 272.216C954.247 274.403 955.757 276.401 958.195 276.401C960.366 276.401 961.624 274.953 961.939 273.365H960.806C960.476 274.607 959.564 275.394 958.195 275.394C956.512 275.394 955.379 274.057 955.379 272.216C955.379 270.36 956.512 269.023 958.195 269.023C959.564 269.023 960.476 269.809 960.806 271.052H961.939C961.624 269.463 960.366 268.016 958.195 268.016C955.757 268.016 954.247 270.014 954.247 272.216ZM965.355 264.414H964.238V276.212H965.355V271.477C965.355 269.841 966.409 268.991 967.762 268.991C969.193 268.991 969.87 269.872 969.87 271.32V276.212H970.987V271.099C970.987 269.322 969.933 268.016 967.951 268.016C966.456 268.016 965.638 268.834 965.355 269.322V264.414ZM979.614 265.043H978.576V276.212H979.724V266.994L983.625 271.965H983.688L987.605 266.994V276.212H988.753V265.043H987.715L983.657 270.25L979.614 265.043ZM995.496 276.401C998.029 276.401 999.586 274.419 999.586 272.216C999.586 270.014 998.029 268.016 995.496 268.016C992.979 268.016 991.422 270.014 991.422 272.216C991.422 274.419 992.979 276.401 995.496 276.401ZM992.555 272.216C992.555 270.407 993.719 269.023 995.496 269.023C997.29 269.023 998.454 270.407 998.454 272.216C998.454 274.01 997.29 275.394 995.496 275.394C993.719 275.394 992.555 274.01 992.555 272.216ZM1008.21 269.652C1007.67 268.693 1006.68 268.016 1005.22 268.016C1002.77 268.016 1001.45 269.998 1001.45 272.216C1001.45 274.419 1002.77 276.401 1005.22 276.401C1006.68 276.401 1007.71 275.756 1008.26 274.733V276.212H1009.33V264.414H1008.21V269.652ZM1008.26 272.216C1008.26 273.962 1007.23 275.394 1005.44 275.394C1003.65 275.394 1002.58 273.962 1002.58 272.216C1002.58 270.439 1003.65 269.023 1005.44 269.023C1007.23 269.023 1008.26 270.439 1008.26 272.216ZM1017.85 272.94C1017.85 274.639 1016.78 275.425 1015.49 275.425C1014.06 275.425 1013.43 274.544 1013.43 273.097V268.205H1012.31V273.333C1012.31 275.111 1013.32 276.401 1015.3 276.401C1016.83 276.401 1017.63 275.567 1017.9 275.048V276.212H1018.96V268.205H1017.85V272.94ZM1023.15 276.212V264.414H1022.03V276.212H1023.15ZM1033.39 272.531C1033.39 272.531 1033.4 272.279 1033.4 272.106C1033.4 269.841 1031.94 268.016 1029.55 268.016C1027.14 268.016 1025.62 269.982 1025.62 272.201C1025.62 274.45 1027.03 276.401 1029.57 276.401C1031.47 276.401 1032.79 275.237 1033.26 273.711H1032.1C1031.75 274.686 1030.81 275.394 1029.58 275.394C1027.9 275.394 1026.84 274.151 1026.73 272.531H1033.39ZM1029.55 269.023C1031.12 269.023 1032.15 270.077 1032.29 271.618H1026.77C1026.95 270.14 1027.99 269.023 1029.55 269.023Z" fill="#0C0C0C"/>
<rect x="892.73" y="238.774" width="167.422" height="61.8" rx="6.82381" stroke="#D8D8D8" stroke-width="1.12364"/>
<rect x="892.73" y="0.561818" width="167.422" height="61.8" rx="6.82381" fill="white"/>
<path d="M917.48 29L914.665 24.029C916.458 23.6987 917.229 22.4717 917.229 20.9772C917.229 19.2311 916.175 17.8311 913.642 17.8311H909.049V29H910.197V24.1391H913.469L916.096 29H917.48ZM916.033 20.9772C916.033 22.2514 915.278 23.038 913.689 23.038H910.197V18.9322H913.689C915.278 18.9322 916.033 19.7502 916.033 20.9772ZM926.886 25.319C926.886 25.319 926.901 25.0673 926.901 24.8942C926.901 22.629 925.438 20.8042 923.047 20.8042C920.64 20.8042 919.114 22.7706 919.114 24.9886C919.114 27.2381 920.53 29.1888 923.063 29.1888C924.966 29.1888 926.288 28.0247 926.76 26.4988H925.596C925.25 27.4741 924.306 28.182 923.079 28.182C921.395 28.182 920.341 26.9393 920.231 25.319H926.886ZM923.047 21.811C924.62 21.811 925.643 22.8649 925.784 24.4066H920.263C920.452 22.9279 921.49 21.811 923.047 21.811ZM928.754 25.0043C928.754 27.1909 930.264 29.1888 932.702 29.1888C934.873 29.1888 936.132 27.7415 936.446 26.1527H935.314C934.983 27.3954 934.071 28.182 932.702 28.182C931.019 28.182 929.887 26.8449 929.887 25.0043C929.887 23.1481 931.019 21.811 932.702 21.811C934.071 21.811 934.983 22.5975 935.314 23.8403H936.446C936.132 22.2514 934.873 20.8042 932.702 20.8042C930.264 20.8042 928.754 22.802 928.754 25.0043ZM942.13 29.1888C944.662 29.1888 946.22 27.2067 946.22 25.0043C946.22 22.802 944.662 20.8042 942.13 20.8042C939.613 20.8042 938.055 22.802 938.055 25.0043C938.055 27.2067 939.613 29.1888 942.13 29.1888ZM939.188 25.0043C939.188 23.1953 940.352 21.811 942.13 21.811C943.923 21.811 945.087 23.1953 945.087 25.0043C945.087 26.7977 943.923 28.182 942.13 28.182C940.352 28.182 939.188 26.7977 939.188 25.0043ZM955.221 24.3279C955.221 22.629 956.259 21.7795 957.518 21.7795C958.918 21.7795 959.515 22.7548 959.515 24.1077V29H960.632V23.8875C960.632 22.1885 959.657 20.8042 957.706 20.8042C956.275 20.8042 955.331 21.575 954.89 22.3458C954.466 21.4177 953.585 20.8042 952.279 20.8042C950.722 20.8042 950.03 21.7009 949.746 22.22V20.993H948.677V29H949.794V24.2335C949.794 22.6919 950.785 21.7795 952.09 21.7795C953.49 21.7795 954.104 22.7076 954.104 24.1077V29H955.221V24.3279ZM970.16 24.3279C970.16 22.629 971.199 21.7795 972.457 21.7795C973.857 21.7795 974.455 22.7548 974.455 24.1077V29H975.572V23.8875C975.572 22.1885 974.596 20.8042 972.646 20.8042C971.214 20.8042 970.27 21.575 969.83 22.3458C969.405 21.4177 968.524 20.8042 967.219 20.8042C965.661 20.8042 964.969 21.7009 964.686 22.22V20.993H963.616V29H964.733V24.2335C964.733 22.6919 965.724 21.7795 967.03 21.7795C968.43 21.7795 969.043 22.7076 969.043 24.1077V29H970.16V24.3279ZM985.729 25.319C985.729 25.319 985.745 25.0673 985.745 24.8942C985.745 22.629 984.282 20.8042 981.891 20.8042C979.484 20.8042 977.958 22.7706 977.958 24.9886C977.958 27.2381 979.374 29.1888 981.906 29.1888C983.81 29.1888 985.131 28.0247 985.603 26.4988H984.439C984.093 27.4741 983.149 28.182 981.922 28.182C980.239 28.182 979.185 26.9393 979.075 25.319H985.729ZM981.891 21.811C983.464 21.811 984.486 22.8649 984.628 24.4066H979.106C979.295 22.9279 980.333 21.811 981.891 21.811ZM989.265 20.993H988.195V29H989.312V24.2335C989.312 22.629 990.366 21.7795 991.719 21.7795C993.15 21.7795 993.827 22.6604 993.827 24.1077V29H994.944V23.8875C994.944 22.1099 993.89 20.8042 991.908 20.8042C990.35 20.8042 989.548 21.7009 989.265 22.22V20.993ZM1004.08 22.4402C1003.54 21.4806 1002.55 20.8042 1001.09 20.8042C998.635 20.8042 997.314 22.7863 997.314 25.0043C997.314 27.2067 998.635 29.1888 1001.09 29.1888C1002.55 29.1888 1003.57 28.5438 1004.13 27.5213V29H1005.19V17.2018H1004.08V22.4402ZM1004.13 25.0043C1004.13 26.7505 1003.1 28.182 1001.31 28.182C999.516 28.182 998.446 26.7505 998.446 25.0043C998.446 23.2268 999.516 21.811 1001.31 21.811C1003.1 21.811 1004.13 23.2268 1004.13 25.0043ZM1013.53 24.8942V25.8224C1013.53 26.955 1012.57 28.2606 1010.66 28.2606C1009.77 28.2606 1008.81 27.946 1008.81 26.7977C1008.81 25.9954 1009.34 25.4605 1010.87 25.256L1013.53 24.8942ZM1010.54 29.1888C1011.92 29.1888 1013.02 28.6225 1013.61 27.6314C1013.61 28.5281 1013.78 29 1013.78 29H1014.88C1014.72 28.6697 1014.64 27.8516 1014.64 27.3168V23.8088C1014.64 22.0312 1013.62 20.8042 1011.31 20.8042C1009.09 20.8042 1008.12 21.9211 1007.91 23.3526H1009.03C1009.25 22.22 1010.08 21.7638 1011.26 21.7638C1012.77 21.7638 1013.53 22.4402 1013.53 23.7931V24.0133L1010.73 24.3751C1008.65 24.6425 1007.71 25.5077 1007.71 26.7977C1007.71 28.2449 1008.64 29.1888 1010.54 29.1888ZM1020.72 27.946C1020.72 27.946 1020.36 28.0247 1020.02 28.0247C1019.24 28.0247 1018.91 27.6157 1018.91 26.7662V21.9368H1020.75V20.993H1018.91V18.712H1017.8V20.993H1016.27V21.9368H1017.8V26.8449C1017.8 28.2921 1018.52 29.0315 1019.87 29.0315C1020.44 29.0315 1020.72 28.9528 1020.72 28.9528V27.946ZM1023.43 19.0109C1023.89 19.0109 1024.24 18.6963 1024.24 18.2401C1024.24 17.7681 1023.89 17.4378 1023.43 17.4378C1022.96 17.4378 1022.63 17.7681 1022.63 18.2401C1022.63 18.6963 1022.96 19.0109 1023.43 19.0109ZM1022.87 29H1023.98V20.993H1022.87V29ZM1030.53 29.1888C1033.06 29.1888 1034.62 27.2067 1034.62 25.0043C1034.62 22.802 1033.06 20.8042 1030.53 20.8042C1028.01 20.8042 1026.45 22.802 1026.45 25.0043C1026.45 27.2067 1028.01 29.1888 1030.53 29.1888ZM1027.59 25.0043C1027.59 23.1953 1028.75 21.811 1030.53 21.811C1032.32 21.811 1033.49 23.1953 1033.49 25.0043C1033.49 26.7977 1032.32 28.182 1030.53 28.182C1028.75 28.182 1027.59 26.7977 1027.59 25.0043ZM1038.15 20.993H1037.08V29H1038.19V24.2335C1038.19 22.629 1039.25 21.7795 1040.6 21.7795C1042.03 21.7795 1042.71 22.6604 1042.71 24.1077V29H1043.82V23.8875C1043.82 22.1099 1042.77 20.8042 1040.79 20.8042C1039.23 20.8042 1038.43 21.7009 1038.15 22.22V20.993ZM958.778 45.9146H952.423V41.8717H958.447V40.7863H952.423V36.9165H958.778V35.8311H951.274V47H958.778V45.9146ZM962.439 38.993H961.369V47H962.486V42.2335C962.486 40.629 963.54 39.7795 964.893 39.7795C966.325 39.7795 967.001 40.6604 967.001 42.1077V47H968.118V41.8875C968.118 40.1099 967.064 38.8042 965.082 38.8042C963.524 38.8042 962.722 39.7009 962.439 40.22V38.993ZM977.284 40.4559C976.717 39.4492 975.711 38.8042 974.263 38.8042C971.856 38.8042 970.488 40.7391 970.488 42.8942C970.488 45.0494 971.856 46.9843 974.263 46.9843C975.711 46.9843 976.686 46.3236 977.236 45.364V46.8584C977.236 48.3529 976.277 49.4383 974.641 49.4383C973.335 49.4383 972.423 48.8248 972.108 47.8967H970.96C971.227 49.1079 972.344 50.4451 974.609 50.4451C977.126 50.4451 978.353 48.7619 978.353 46.6067V38.993H977.284V40.4559ZM977.284 42.8942C977.284 44.6246 976.23 45.9932 974.468 45.9932C972.722 45.9932 971.62 44.6246 971.62 42.8942C971.62 41.1638 972.722 39.811 974.468 39.811C976.23 39.811 977.284 41.1638 977.284 42.8942ZM981.906 37.0109C982.362 37.0109 982.708 36.6963 982.708 36.2401C982.708 35.7681 982.362 35.4378 981.906 35.4378C981.434 35.4378 981.104 35.7681 981.104 36.2401C981.104 36.6963 981.434 37.0109 981.906 37.0109ZM981.34 47H982.457V38.993H981.34V47ZM986.595 38.993H985.526V47H986.642V42.2335C986.642 40.629 987.696 39.7795 989.049 39.7795C990.481 39.7795 991.157 40.6604 991.157 42.1077V47H992.274V41.8875C992.274 40.1099 991.22 38.8042 989.238 38.8042C987.681 38.8042 986.878 39.7009 986.595 40.22V38.993ZM1002.42 43.319C1002.42 43.319 1002.43 43.0673 1002.43 42.8942C1002.43 40.629 1000.97 38.8042 998.577 38.8042C996.17 38.8042 994.644 40.7706 994.644 42.9886C994.644 45.2381 996.06 47.1888 998.592 47.1888C1000.5 47.1888 1001.82 46.0247 1002.29 44.4988H1001.13C1000.78 45.4741 999.835 46.182 998.608 46.182C996.925 46.182 995.871 44.9393 995.761 43.319H1002.42ZM998.577 39.811C1000.15 39.811 1001.17 40.8649 1001.31 42.4066H995.792C995.981 40.9279 997.019 39.811 998.577 39.811Z" fill="#0C0C0C"/>
<rect x="892.73" y="0.561818" width="167.422" height="61.8" rx="6.82381" stroke="#D8D8D8" stroke-width="1.12364"/>
<path d="M1088.88 269.673L1093.5 272.338L1093.5 267.008L1088.88 269.673ZM1179.9 269.211L1093.04 269.211V270.134L1179.9 270.134V269.211Z" fill="black"/>
<path d="M1179.43 269.673L1179.43 158.995L1202.85 158.995" stroke="black" stroke-width="0.923204"/>
<path d="M1088.8 31.4619L1093.42 28.7969L1093.42 34.127L1088.8 31.4619ZM1179.82 31.9235L1092.96 31.9235L1092.96 31.0003L1179.82 31.0003L1179.82 31.9235Z" fill="black"/>
<path d="M1179.43 31.4619L1179.43 142.14L1202.85 142.14" stroke="black" stroke-width="0.923204"/>
<rect x="1232.07" y="128.656" width="167.422" height="43.8218" rx="6.82381" fill="white"/>
<path d="M1298.49 151.521C1298.49 154.84 1300.64 157.341 1304.01 157.341C1306.74 157.341 1308.76 155.69 1309.28 153.173H1308.07C1307.63 155.076 1306.04 156.256 1304.01 156.256C1301.4 156.256 1299.68 154.337 1299.68 151.521C1299.68 148.705 1301.4 146.786 1304.01 146.786C1306.04 146.786 1307.63 147.966 1308.07 149.869H1309.28C1308.76 147.352 1306.74 145.701 1304.01 145.701C1300.64 145.701 1298.49 148.202 1298.49 151.521ZM1312.9 145.937H1311.86V157.105H1313.01V147.887L1316.91 152.858H1316.97L1320.89 147.887V157.105H1322.04V145.937H1321L1316.94 151.143L1312.9 145.937ZM1328.77 156.287C1327.02 156.287 1325.82 155.407 1325.7 153.723H1324.57C1324.64 155.642 1325.86 157.326 1328.73 157.326C1331.24 157.326 1332.92 156.051 1332.92 154.117C1332.92 149.618 1326.28 152.056 1326.28 148.8C1326.28 147.557 1327.29 146.739 1328.97 146.739C1330.62 146.739 1331.64 147.777 1331.69 149.319H1332.81C1332.76 147.274 1331.44 145.701 1328.95 145.701C1326.45 145.701 1325.13 147.242 1325.13 148.847C1325.13 153.33 1331.75 150.656 1331.75 154.195C1331.75 155.564 1330.59 156.287 1328.77 156.287Z" fill="#0C0C0C"/>
<rect x="1232.07" y="128.656" width="167.422" height="43.8218" rx="6.82381" stroke="#D8D8D8" stroke-width="1.12364"/>
<path d="M1118.68 51.833L1119.75 49.2217H1125.57L1126.62 51.833H1127.89L1123.29 40.6641H1122.04L1117.45 51.833H1118.68ZM1122.67 42.0641L1125.14 48.152H1120.16L1122.64 42.0641H1122.67ZM1133.54 43.7631C1133.54 43.7631 1133.35 43.7473 1133.27 43.7473C1131.79 43.7473 1131.01 44.5181 1130.71 45.0687V43.826H1129.64V51.833H1130.76V47.2868C1130.76 45.6193 1131.78 44.8013 1133.15 44.8013C1133.35 44.8013 1133.54 44.817 1133.54 44.817V43.7631ZM1138.73 50.779C1138.73 50.779 1138.36 50.8577 1138.02 50.8577C1137.25 50.8577 1136.92 50.4487 1136.92 49.5992V44.7698H1138.76V43.826H1136.92V41.545H1135.8V43.826H1134.27V44.7698H1135.8V49.6779C1135.8 51.1251 1136.52 51.8645 1137.88 51.8645C1138.44 51.8645 1138.73 51.7858 1138.73 51.7858V50.779ZM1141.43 41.8439C1141.89 41.8439 1142.24 41.5293 1142.24 41.0731C1142.24 40.6011 1141.89 40.2708 1141.43 40.2708C1140.96 40.2708 1140.63 40.6011 1140.63 41.0731C1140.63 41.5293 1140.96 41.8439 1141.43 41.8439ZM1140.87 51.833H1141.99V43.826H1140.87V51.833ZM1144.46 47.8374C1144.46 50.024 1145.97 52.0218 1148.4 52.0218C1150.58 52.0218 1151.83 50.5745 1152.15 48.9857H1151.02C1150.69 50.2285 1149.77 51.015 1148.4 51.015C1146.72 51.015 1145.59 49.6779 1145.59 47.8374C1145.59 45.9811 1146.72 44.644 1148.4 44.644C1149.77 44.644 1150.69 45.4305 1151.02 46.6733H1152.15C1151.83 45.0844 1150.58 43.6372 1148.4 43.6372C1145.97 43.6372 1144.46 45.635 1144.46 47.8374ZM1155.56 51.833V40.0348H1154.45V51.833H1155.56ZM1165.81 48.152C1165.81 48.152 1165.82 47.9003 1165.82 47.7272C1165.82 45.462 1164.36 43.6372 1161.97 43.6372C1159.56 43.6372 1158.04 45.6036 1158.04 47.8216C1158.04 50.0711 1159.45 52.0218 1161.98 52.0218C1163.89 52.0218 1165.21 50.8577 1165.68 49.3318H1164.52C1164.17 50.3071 1163.23 51.015 1162 51.015C1160.32 51.015 1159.26 49.7723 1159.15 48.152H1165.81ZM1161.97 44.644C1163.54 44.644 1164.56 45.698 1164.71 47.2396H1159.18C1159.37 45.7609 1160.41 44.644 1161.97 44.644ZM1170.84 52.0218C1173.01 52.0218 1174.03 50.8734 1174.03 49.6621C1174.03 46.2957 1169.08 48.1677 1169.08 45.9496C1169.08 45.226 1169.69 44.6125 1170.93 44.6125C1172.21 44.6125 1172.8 45.3047 1172.9 46.1699H1174.01C1173.92 45.0844 1173.18 43.6372 1170.96 43.6372C1169.06 43.6372 1167.99 44.7698 1167.99 45.9968C1167.99 49.2846 1172.95 47.3969 1172.95 49.6936C1172.95 50.4959 1172.19 51.0465 1170.84 51.0465C1169.45 51.0465 1168.76 50.3543 1168.68 49.3318H1167.55C1167.64 50.7318 1168.52 52.0218 1170.84 52.0218Z" fill="#0C0C0C"/>
<path d="M1118.68 263.077L1119.75 260.466H1125.57L1126.62 263.077H1127.89L1123.29 251.908H1122.04L1117.45 263.077H1118.68ZM1122.67 253.308L1125.14 259.396H1120.16L1122.64 253.308H1122.67ZM1133.54 255.007C1133.54 255.007 1133.35 254.991 1133.27 254.991C1131.79 254.991 1131.01 255.762 1130.71 256.313V255.07H1129.64V263.077H1130.76V258.531C1130.76 256.863 1131.78 256.045 1133.15 256.045C1133.35 256.045 1133.54 256.061 1133.54 256.061V255.007ZM1138.73 262.023C1138.73 262.023 1138.36 262.102 1138.02 262.102C1137.25 262.102 1136.92 261.693 1136.92 260.843V256.014H1138.76V255.07H1136.92V252.789H1135.8V255.07H1134.27V256.014H1135.8V260.922C1135.8 262.369 1136.52 263.109 1137.88 263.109C1138.44 263.109 1138.73 263.03 1138.73 263.03V262.023ZM1141.43 253.088C1141.89 253.088 1142.24 252.773 1142.24 252.317C1142.24 251.845 1141.89 251.515 1141.43 251.515C1140.96 251.515 1140.63 251.845 1140.63 252.317C1140.63 252.773 1140.96 253.088 1141.43 253.088ZM1140.87 263.077H1141.99V255.07H1140.87V263.077ZM1144.46 259.081C1144.46 261.268 1145.97 263.266 1148.4 263.266C1150.58 263.266 1151.83 261.819 1152.15 260.23H1151.02C1150.69 261.473 1149.77 262.259 1148.4 262.259C1146.72 262.259 1145.59 260.922 1145.59 259.081C1145.59 257.225 1146.72 255.888 1148.4 255.888C1149.77 255.888 1150.69 256.675 1151.02 257.917H1152.15C1151.83 256.329 1150.58 254.881 1148.4 254.881C1145.97 254.881 1144.46 256.879 1144.46 259.081ZM1155.56 263.077V251.279H1154.45V263.077H1155.56ZM1165.81 259.396C1165.81 259.396 1165.82 259.144 1165.82 258.971C1165.82 256.706 1164.36 254.881 1161.97 254.881C1159.56 254.881 1158.04 256.848 1158.04 259.066C1158.04 261.315 1159.45 263.266 1161.98 263.266C1163.89 263.266 1165.21 262.102 1165.68 260.576H1164.52C1164.17 261.551 1163.23 262.259 1162 262.259C1160.32 262.259 1159.26 261.016 1159.15 259.396H1165.81ZM1161.97 255.888C1163.54 255.888 1164.56 256.942 1164.71 258.484H1159.18C1159.37 257.005 1160.41 255.888 1161.97 255.888ZM1170.84 263.266C1173.01 263.266 1174.03 262.118 1174.03 260.906C1174.03 257.54 1169.08 259.412 1169.08 257.194C1169.08 256.47 1169.69 255.857 1170.93 255.857C1172.21 255.857 1172.8 256.549 1172.9 257.414H1174.01C1173.92 256.329 1173.18 254.881 1170.96 254.881C1169.06 254.881 1167.99 256.014 1167.99 257.241C1167.99 260.529 1172.95 258.641 1172.95 260.938C1172.95 261.74 1172.19 262.291 1170.84 262.291C1169.45 262.291 1168.76 261.598 1168.68 260.576H1167.55C1167.64 261.976 1168.52 263.266 1170.84 263.266Z" fill="#0C0C0C"/>
</svg>
