<svg width="40" height="32" viewBox="0 0 40 32" fill="none" xmlns="http://www.w3.org/2000/svg">
<g id="Frame" clip-path="url(#clip0_310_839)">
<g id="Symbols">
<g id="Elements/Footer/Desktop">
<g id="RS">
<g id="Icons/RS/FB-Copy">
<path id="Fill-1" fill-rule="evenodd" clip-rule="evenodd" d="M0 28.3474C3.62366 30.5914 7.92813 31.9002 12.5533 31.9002C27.7571 31.9002 36.3471 19.4999 35.8306 8.37632C37.4292 7.26122 38.8177 5.86849 39.9155 4.28203C38.4465 4.91051 36.8684 5.33611 35.213 5.52679C36.9032 4.5505 38.2016 3.00065 38.8129 1.15181C37.2302 2.05793 35.4768 2.71692 33.6128 3.07235C32.1185 1.5347 29.9907 0.575195 27.6355 0.575195C22.3501 0.575195 18.4642 5.33763 19.6584 10.2846C12.8518 9.95515 6.81766 6.80664 2.78014 2.02132C0.633429 5.57713 1.6665 10.2267 5.31385 12.5804C3.97117 12.5393 2.70748 12.1823 1.60332 11.5904C1.51486 15.2561 4.23339 18.6822 8.17139 19.4465C7.01827 19.7485 5.75615 19.8172 4.47507 19.5807C5.51447 22.7231 8.53945 25.0082 12.1236 25.0738C8.68161 27.6793 4.34397 28.8432 0 28.3474Z" fill="black"/>
</g>
</g>
</g>
</g>
</g>
<defs>
<clipPath id="clip0_310_839">
<rect width="40" height="32" fill="white"/>
</clipPath>
</defs>
</svg>
