<svg width="40" height="28" viewBox="0 0 40 28" fill="none" xmlns="http://www.w3.org/2000/svg">
<g id="Frame" clip-path="url(#clip0_310_857)">
<g id="Symbols">
<g id="Elements/Footer/Desktop">
<g id="RS">
<g id="Icons/RS/FB-Copy-4">
<path id="Fill-1" fill-rule="evenodd" clip-rule="evenodd" d="M15.5348 19.7552V8.37024L25.7436 14.0622L15.5348 19.7552ZM38.2428 4.78742C37.7932 3.12916 36.4699 1.82394 34.7895 1.38012C31.7437 0.575195 19.5294 0.575195 19.5294 0.575195C19.5294 0.575195 7.3162 0.575195 4.26933 1.38012C2.58897 1.82394 1.26567 3.12916 0.817027 4.78742C0 7.79227 0 14.0622 0 14.0622C0 14.0622 0 20.3321 0.817027 23.338C1.26567 24.9952 2.58897 26.3015 4.26933 26.7443C7.3162 27.5502 19.5294 27.5502 19.5294 27.5502C19.5294 27.5502 31.7437 27.5502 34.7895 26.7443C36.4699 26.3015 37.7932 24.9952 38.2428 23.338C39.0588 20.3321 39.0588 14.0622 39.0588 14.0622C39.0588 14.0622 39.0588 7.79227 38.2428 4.78742Z" fill="black"/>
</g>
</g>
</g>
</g>
</g>
<defs>
<clipPath id="clip0_310_857">
<rect width="40" height="28" fill="white"/>
</clipPath>
</defs>
</svg>
