<svg width="40" height="28" viewBox="0 0 40 28" fill="none" xmlns="http://www.w3.org/2000/svg">
<g id="Frame" clip-path="url(#clip0_310_851)">
<g id="Symbols">
<g id="Elements/Footer/Desktop">
<g id="RS">
<g id="Icons/RS/FB-Copy-3">
<path id="Combined-Shape" fill-rule="evenodd" clip-rule="evenodd" d="M0.793486 27.55H9.0444V9.56709H0.793486V27.55ZM4.8786 7.21258C7.57342 7.21258 9.75719 5.72564 9.75719 3.89389C9.75719 2.06101 7.57342 0.575195 4.8786 0.575195C2.18377 0.575195 0 2.06101 0 3.89389C0 5.72564 2.18377 7.21258 4.8786 7.21258ZM22.2322 18.1102C22.2322 15.582 23.9571 14.0758 27.2588 14.0758C30.2932 14.0758 31.7507 15.5219 31.7507 18.1102V27.5502H39.963V16.1639C39.963 11.3469 35.9148 9.01836 30.2646 9.01836C24.611 9.01836 22.2322 11.99 22.2322 11.99V9.56732H14.3176V27.5502H22.2322V18.1102Z" fill="black"/>
</g>
</g>
</g>
</g>
</g>
<defs>
<clipPath id="clip0_310_851">
<rect width="40" height="28" fill="white"/>
</clipPath>
</defs>
</svg>
