<svg width="40" height="35" viewBox="0 0 40 35" fill="none" xmlns="http://www.w3.org/2000/svg">
<g id="Frame" clip-path="url(#clip0_310_845)">
<g id="Symbols">
<g id="Elements/Footer/Desktop">
<g id="RS">
<g id="Icons/RS/FB-Copy-2">
<path id="Combined-Shape" fill-rule="evenodd" clip-rule="evenodd" d="M21.285 0.575684C25.2192 0.579853 25.956 0.60305 27.8309 0.675437C29.9285 0.756597 31.3608 1.04002 32.6142 1.45484C33.91 1.88254 35.0088 2.45453 36.1046 3.38594C37.2004 4.31736 37.8733 5.25264 38.378 6.35281C38.8645 7.41821 39.1979 8.6369 39.2934 10.4186C39.3786 12.0122 39.4059 12.6385 39.4108 15.9826L39.4116 16.9647L39.4116 17.325C39.4116 17.4479 39.4116 17.568 39.4116 17.6853L39.4108 18.6677C39.4059 22.0124 39.3786 22.6377 39.2934 24.2313C39.1979 26.0143 38.8645 27.2317 38.378 28.2971C37.8733 29.3986 37.2004 30.3325 36.1046 31.264C35.0088 32.1954 33.91 32.7687 32.6142 33.1964C31.3608 33.6099 29.9285 33.8933 27.8309 33.9745C25.956 34.0469 25.2192 34.07 21.285 34.0742L20.1295 34.0749L19.7058 34.075C19.5611 34.075 19.4199 34.0749 19.282 34.0749L18.1265 34.0742C14.1923 34.07 13.4555 34.0469 11.5806 33.9745C9.48301 33.8933 8.05076 33.6099 6.79736 33.1964C5.50151 32.7687 4.4027 32.1954 3.30692 31.264C2.21114 30.3325 1.53821 29.3986 1.03503 28.2971C0.547005 27.2317 0.213572 26.0143 0.118089 24.2313C0.0329287 22.6377 0.00563784 22.0124 0.000732422 18.6677V15.9826C0.00563784 12.6385 0.0329287 12.0122 0.118089 10.4186C0.213572 8.6369 0.547005 7.41821 1.03503 6.35281C1.53821 5.25264 2.21114 4.31736 3.30692 3.38594C4.4027 2.45453 5.50151 1.88254 6.79736 1.45484C8.05076 1.04002 9.48301 0.756597 11.5806 0.675437C13.4555 0.60305 14.1923 0.579853 18.1265 0.575684H21.285ZM20.9282 3.59373H18.4833C15.7142 3.59564 14.488 3.60528 13.4138 3.63355L13.1236 3.64172C12.6908 3.65471 12.2622 3.67097 11.7428 3.69126C9.82099 3.76469 8.77825 4.0378 8.0841 4.26712C7.16413 4.57115 6.50788 4.93444 5.81828 5.5206C5.12868 6.10675 4.70128 6.66457 4.34359 7.44655C4.07382 8.03657 3.75251 8.9229 3.6646 10.5564C3.64372 10.9489 3.62651 11.2803 3.61236 11.6075L3.59771 11.9768C3.56491 12.8899 3.55361 13.9321 3.55137 16.2859V18.364C3.55361 20.7178 3.56491 21.76 3.59771 22.6731L3.61236 23.0424C3.62651 23.3696 3.64372 23.701 3.6646 24.0935C3.75251 25.727 4.07382 26.6133 4.34359 27.2034C4.70128 27.9853 5.12868 28.5444 5.81828 29.1306C6.50788 29.7155 7.16413 30.0788 8.0841 30.3828C8.77825 30.6121 9.82099 30.8852 11.7428 30.9599C12.2045 30.9777 12.5944 30.9923 12.9794 31.0043L13.4138 31.0168C14.488 31.0447 15.7142 31.0543 18.4833 31.0562H20.9282C23.6973 31.0543 24.9235 31.0447 25.9977 31.0168L26.4322 31.0043C26.8171 30.9923 27.207 30.9777 27.6687 30.9599C29.589 30.8852 30.6333 30.6121 31.3274 30.3828C32.2474 30.0788 32.9036 29.7155 33.5932 29.1306C34.2828 28.5444 34.7102 27.9853 35.0679 27.2034C35.3377 26.6133 35.659 25.727 35.7469 24.0935C35.7678 23.701 35.785 23.3696 35.7992 23.0424L35.8138 22.6731C35.8466 21.76 35.8579 20.7178 35.8601 18.364V16.2859C35.8579 13.9321 35.8466 12.8899 35.8138 11.9768L35.7992 11.6075C35.785 11.2803 35.7678 10.9489 35.7469 10.5564C35.659 8.9229 35.3377 8.03657 35.0679 7.44655C34.7102 6.66457 34.2828 6.10675 33.5932 5.5206C32.9036 4.93444 32.2474 4.57115 31.3274 4.26712C30.6333 4.0378 29.589 3.76469 27.6687 3.69126C27.1493 3.67097 26.7207 3.65471 26.2879 3.64172L25.9977 3.63355C24.9235 3.60528 23.6973 3.59564 20.9282 3.59373ZM19.7058 8.7236C25.2953 8.7236 29.8254 12.5742 29.8254 17.3253C29.8254 22.0752 25.2953 25.9271 19.7058 25.9271C14.1177 25.9271 9.58607 22.0752 9.58607 17.3253C9.58607 12.5742 14.1177 8.7236 19.7058 8.7236ZM19.7058 11.742C16.0774 11.742 13.1371 14.2412 13.1371 17.3253C13.1371 20.4082 16.0774 22.9087 19.7058 22.9087C23.3341 22.9087 26.2744 20.4082 26.2744 17.3253C26.2744 14.2412 23.3341 11.742 19.7058 11.742ZM30.2254 6.37407C31.5303 6.37407 32.5898 7.27328 32.5898 8.38376C32.5898 9.49424 31.5303 10.3947 30.2254 10.3947C28.919 10.3947 27.8596 9.49424 27.8596 8.38376C27.8596 7.27328 28.919 6.37407 30.2254 6.37407Z" fill="black"/>
</g>
</g>
</g>
</g>
</g>
<defs>
<clipPath id="clip0_310_845">
<rect width="40" height="35" fill="white"/>
</clipPath>
</defs>
</svg>
